<?xml version="1.0" encoding="UTF-8" standalone="no"?>
<!-- Generator: Adobe Illustrator 10.0, SVG Export Plug-In . SVG Version: 3.0.0 Build 77)  -->

<svg
   xmlns:ns0="http://ns.adobe.com/SaveForWeb/1.0/"
   xmlns:ns="http://ns.adobe.com/Variables/1.0/"
   xmlns:i="http://ns.adobe.com/AdobeIllustrator/10.0/"
   xmlns:dc="http://purl.org/dc/elements/1.1/"
   xmlns:cc="http://creativecommons.org/ns#"
   xmlns:rdf="http://www.w3.org/1999/02/22-rdf-syntax-ns#"
   xmlns:svg="http://www.w3.org/2000/svg"
   xmlns="http://www.w3.org/2000/svg"
   xmlns:sodipodi="http://sodipodi.sourceforge.net/DTD/sodipodi-0.dtd"
   xmlns:inkscape="http://www.inkscape.org/namespaces/inkscape"
   i:viewOrigin="251 467"
   i:rulerOrigin="0 0"
   i:pageBounds="0 792 612 0"
   width="108.758"
   height="144.133"
   viewBox="0 0 108.758 144.133"
   overflow="visible"
   enable-background="new 0 0 108.758 144.133"
   xml:space="preserve"
   id="svg2"
   version="1.1"
   inkscape:version="0.91 r13725"
   sodipodi:docname="DebianNine2.svg"
   inkscape:export-filename="/home/ticho/downloads/nine2.png"
   inkscape:export-xdpi="331.01013"
   inkscape:export-ydpi="331.01013"><defs
     id="defs49" /><sodipodi:namedview
     pagecolor="#ffffff"
     bordercolor="#666666"
     borderopacity="1"
     objecttolerance="10"
     gridtolerance="10"
     guidetolerance="10"
     inkscape:pageopacity="0"
     inkscape:pageshadow="2"
     inkscape:window-width="1908"
     inkscape:window-height="1091"
     id="namedview47"
     showgrid="false"
     inkscape:zoom="3.2747533"
     inkscape:cx="109.80595"
     inkscape:cy="50.06932"
     inkscape:window-x="6"
     inkscape:window-y="46"
     inkscape:window-maximized="1"
     inkscape:current-layer="svg2"
     showguides="true"
     inkscape:guide-bbox="true"><sodipodi:guide
       position="121.35082,-12.523751"
       orientation="0,1"
       id="guide4279" /><sodipodi:guide
       position="-57.868363,124.80566"
       orientation="1,0"
       id="guide4364" /><sodipodi:guide
       position="137.72029,223.22293"
       orientation="0,1"
       id="guide4368" /><sodipodi:guide
       position="161.23352,-85.502627"
       orientation="0,1"
       id="guide4370" /><sodipodi:guide
       position="201.54189,271.16547"
       orientation="0,1"
       id="guide4372" /></sodipodi:namedview><metadata
     id="metadata4"><ns:variableSets><ns:variableSet
         varSetName="binding1"
         locked="none"><ns:variables /><ns:sampleDataSets /></ns:variableSet></ns:variableSets><ns0:sfw><ns0:slices /><ns0:sliceSourceBounds
         y="322.867"
         x="251"
         width="108.758"
         height="144.133"
         bottomLeftOrigin="true" /></ns0:sfw><rdf:RDF><cc:Work
         rdf:about=""><dc:format>image/svg+xml</dc:format><dc:type
           rdf:resource="http://purl.org/dc/dcmitype/StillImage" /><dc:title></dc:title></cc:Work></rdf:RDF></metadata><path
     i:knockout="Off"
     d="m 63.392067,75.324914 c -1.903795,0.02549 0.358076,0.978657 2.844223,1.36222 0.689392,-0.537752 1.308699,-1.078053 1.864291,-1.60561 -1.545718,0.378465 -3.120745,0.387385 -4.708514,0.24339"
     id="path9"
     inkscape:connector-curvature="0"
     style="fill:#4d4d4d" /><path
     i:knockout="Off"
     d="m 73.608077,72.777601 c 1.137944,-1.566106 1.963687,-3.278757 2.2555,-5.050025 -0.256133,1.261551 -0.93788,2.351072 -1.585221,3.503033 -3.559102,2.241482 -0.336414,-1.330362 -0.0025,-2.690033 -3.825429,4.820652 -0.527557,2.890097 -0.66773,4.237025"
     id="path11"
     inkscape:connector-curvature="0"
     style="fill:#4d4d4d" /><path
     i:knockout="Off"
     d="m 77.383809,62.960445 c 0.231921,-3.429124 -0.674101,-2.343426 -0.978658,-1.037275 0.354254,0.186047 0.635873,2.418609 0.978658,1.037275"
     id="path13"
     inkscape:connector-curvature="0"
     style="fill:#4d4d4d" /><path
     i:knockout="Off"
     d="m 56.169371,16.093205 c 1.016886,0.18095 2.196882,0.321122 2.027401,0.564512 1.116281,-0.245938 1.367317,-0.467665 -2.027401,-0.564512"
     id="path15"
     inkscape:connector-curvature="0"
     style="fill:#4d4d4d" /><path
     i:knockout="Off"
     d="m 58.198046,16.657717 -0.714878,0.149093 0.666455,-0.06117 0.04842,-0.08793"
     id="path17"
     inkscape:connector-curvature="0"
     style="fill:#4d4d4d" /><path
     i:knockout="Off"
     d="m 19.527063,64.260224 c -0.114687,3.078693 0.898377,4.574713 1.814594,7.220147 l 1.647661,0.81937 c 1.346928,2.617399 -0.133801,1.661679 0.830839,3.7426 2.105133,1.869389 6.379114,5.847733 7.747705,6.212181 1.00032,-0.02166 -0.67665,-1.179996 -0.895829,-1.63237 2.814915,1.931829 2.259323,2.900292 6.56516,4.076465 l 0.124881,-0.281619 c 10.614865,4.995226 25.360989,-4.902207 25.167296,-18.404621 0.112138,0.856326 0.322396,0.642244 0.556866,0.986304 0.547946,-6.946174 -3.208671,-13.922931 -9.544458,-16.776074 -6.196889,-3.06595 -13.461636,-1.809497 -17.897452,2.330683 2.43645,-3.19338 7.290233,-6.579177 13.038571,-6.265701 5.633652,0.09175 10.905404,3.671239 12.663929,7.559109 2.885,1.815868 3.221413,7.003517 4.477867,7.95414 1.693536,12.437104 -3.181911,17.808251 -11.430413,24.130021 -1.294682,0.874165 -0.364447,1.007966 -0.537751,1.673147 2.739731,-1.281939 5.24754,-3.218865 7.311896,-5.590326 -1.095893,1.601787 -2.277163,3.158974 -3.805041,4.382296 2.585542,-0.872891 6.037603,-6.260604 7.04302,-6.479783 -4.453655,7.974531 -18.066932,13.985371 -25.199153,11.002251 3.30042,0.12233 7.491571,0.0675 11.197217,-1.30233 1.561009,-0.80153 3.675062,-2.459385 3.296597,-2.769038 -9.730505,3.633008 -19.779583,2.749928 -28.197566,-3.997459 -2.143362,-1.669325 -4.482964,-4.507176 -5.159614,-4.545405 1.01816,1.531701 -0.174578,0.736542 0.607838,2.088567 -2.130619,-3.441867 0.92896,-1.401723 -2.204528,-5.943305 l -1.157058,1.592867 c 0.433259,-2.859514 -3.548908,-6.328141 -3.143682,-10.846786 -0.913669,-1.381334 -1.018161,1.488375 -0.0497,4.666463 -1.344379,-3.52597 -0.355528,-4.093031 -0.699587,-7.003517 -0.370819,0.978657 -0.863971,2.017207 -1.115007,3.050659 0.876714,-3.408735 -0.895828,-5.738144 -1.336733,-7.71967 0.435808,-0.191144 1.352025,1.506215 1.563558,-2.518004 -0.03186,-1.748331 -0.488055,-0.916217 -0.662633,-1.346928 0.341511,-0.197516 1.242436,-1.538072 1.789108,-4.108322 -0.393757,-0.60529 -1.060212,1.566106 -1.600513,1.654033 0.347883,-2.042693 0.945526,-3.601154 0.971012,-5.169809 1.580124,-3.30042 0.559415,0.440906 1.838806,-1.417014 1.682067,-5.242444 -1.394078,-1.216951 -1.603062,-3.597331 -2.546038,3.68908 -3.9974581,9.410657 -4.6664621,11.779569 0.509717,-2.888823 1.3316361,-5.688446 2.3370541,-8.39632 -0.776045,0.327494 1.247533,-5.94203 -1.007966,-1.790382 2.40714,-8.849968 10.293742,-17.120133 17.550844,-20.999082 -0.885634,0.811725 -2.005738,1.83116 -1.60561,1.991721 3.611348,-2.147185 2.976749,-2.316666 3.494113,-3.223963 2.937246,-1.196561 3.133487,0.09812 5.076785,0.0025 5.543176,-2.941069 6.611034,-2.628868 11.712031,-4.468947 l -0.231921,1.085698 c 3.671239,-1.223322 4.277803,0.461294 8.244678,0.0025 0.240842,-0.187321 -1.271745,-0.683021 -2.518004,-0.862696 3.550182,0.46894 3.384524,-0.700862 6.858248,0.128703 -0.855051,-0.600192 -1.762348,-0.999046 -2.674742,-1.508763 2.89392,0.175852 6.911768,1.684616 5.67188,0.310927 4.721257,2.107682 13.107383,5.065317 17.813348,9.478195 l 0.147818,-0.988852 c 2.156105,2.58809 9.403012,7.729865 9.980267,11.085079 l 0.577259,0.133801 c 1.1201,1.899972 1.84772,4.052253 2.73718,6.005745 1.46671,2.501438 2.15101,0.963366 1.94202,1.355848 2.88628,5.851556 4.3224,10.76778 5.559736,14.802193 -0.881806,1.318894 -0.0217,7.941397 -0.35425,13.241184 1.4476,26.179081 -18.372759,51.594867 -40.038297,57.461707 -3.175539,1.13795 -7.896796,1.09717 -11.913369,1.20931 4.737823,-1.35585 5.349484,-0.71743 9.967523,-2.32686 3.329729,-1.56993 4.058625,-3.36031 6.418617,-5.4081 l -0.934058,1.65021 c 4.625686,-1.63747 2.690034,-2.02613 6.454297,-3.21759 l -0.997772,-1.30106 c 1.499843,-0.11468 3.971973,-2.52565 4.647348,-3.86493 l 1.64129,0.065 c 1.970058,-2.4288 3.02135,-4.18351 2.943618,-5.54318 l 0.530106,0.94553 c 0.600192,-1.03091 7.252004,-9.1214 3.801218,-7.23799 0.640969,-0.58363 1.493472,-0.9519 2.417334,-2.63269 L 84.42173,99.848604 c 1.657855,-2.13699 3.055755,-4.87545 2.948715,-5.78784 -0.885634,1.19528 -1.499844,1.41956 -2.108956,1.62472 4.1937,-10.403328 4.429444,-0.57216 7.603705,-10.589375 l -0.67027,-0.05352 c 0.51354,-0.778593 0.82829,-1.618353 1.24116,-2.445369 l -0.29309,-2.911761 c 3.01753,-3.486467 0.84358,-14.839147 0.4065,-21.064071 -0.29946,-2.530747 -2.51928,-5.225877 -4.205169,-9.452709 l 1.027081,-0.175765 C 88.406447,45.567613 79.155077,35.231819 74.868354,35.761925 c -2.075825,-2.607205 0.412871,-0.01019 0.81937,-0.665181 -4.560696,-4.718709 -5.994276,-3.333552 -9.071695,-4.183506 -3.316986,-1.968783 2.848046,0.769674 1.275568,-0.750559 -5.738144,-1.464163 -4.064996,-3.331003 -11.548922,-4.073916 -0.790062,0.448552 1.83116,0.693216 2.488695,1.275568 -4.7786,-2.339603 -15.124589,-1.805674 -21.847761,1.297231 -7.794853,3.645753 -16.558169,14.417356 -16.904777,24.551812 l -0.393757,0.105766 c 0.19879,4.029316 -0.616758,8.689407 0.798982,12.968485 l -0.956994,-2.027401"
     id="path19"
     inkscape:connector-curvature="0"
     style="fill:#4d4d4d" /><path
     i:knockout="Off"
     d="m 42.607066,77.937216 -0.268876,1.334185 c 1.252631,1.701182 2.246579,3.54381 3.843269,4.869075 -1.149413,-2.241482 -2.001915,-3.167893 -3.574393,-6.20326"
     id="path21"
     inkscape:connector-curvature="0"
     style="fill:#4d4d4d" /><path
     i:knockout="Off"
     d="m 45.564701,77.822529 c -0.662633,-0.733993 -1.052566,-1.615804 -1.493472,-2.492518 0.420517,1.54317 1.281939,2.869709 2.080921,4.22046 l -0.587449,-1.727942"
     id="path23"
     inkscape:connector-curvature="0"
     style="fill:#4d4d4d" /><path
     i:knockout="Off"
     d="m 97.917776,66.443089 -0.27907,0.70341 c -0.51227,3.64193 -1.62218,7.245632 -3.31954,10.588104 1.87576,-3.52597 3.08507,-7.383256 3.59861,-11.291514"
     id="path25"
     inkscape:connector-curvature="0"
     style="fill:#4d4d4d" /><path
     i:knockout="Off"
     d="m 56.547836,15.179537 c 1.285763,-0.470214 3.162797,-0.258682 4.531388,-0.568335 -1.781462,0.149092 -3.554004,0.238293 -5.303609,0.461294 l 0.772221,0.107041"
     id="path27"
     inkscape:connector-curvature="0"
     style="fill:#4d4d4d" /><path
     i:knockout="Off"
     d="m 11.347373,39.21526 c 0.29691,2.744828 -2.0643551,3.811412 0.52246,1.999367 1.38898,-3.127117 -0.5403,-0.862697 -0.52246,-1.999367"
     id="path29"
     inkscape:connector-curvature="0"
     style="fill:#4d4d4d" /><path
     i:knockout="Off"
     d="m 8.3043599,51.925063 c 0.597644,-1.83116 0.704685,-2.929601 0.932783,-3.991087 -1.647661,2.107681 -0.759479,2.557507 -0.932783,3.991087"
     id="path31"
     inkscape:connector-curvature="0"
     style="fill:#4d4d4d" /><path
     i:knockout="Off"
     d="m 32.023423,68.780495 c 0.02334,0.782479 0.02334,1.610643 0.34507,2.277939 -0.506927,-0.04575 -0.805823,-0.115196 -1.748182,-0.115196 -0.552605,0 -0.851499,0.04677 -1.288917,0.115196 0.09135,-0.298885 0.13853,-0.414069 0.184202,-0.805825 0.06902,-0.528271 0.115183,-2.300291 0.115183,-2.921904 l 0,-2.48449 c 0,-1.081378 0,-2.64635 -0.07001,-3.197966 -0.04567,-0.39075 -0.159874,-1.448796 -1.495462,-1.448796 -1.31126,0 -1.748182,0.965698 -1.909544,1.748191 -0.183209,0.804818 -0.183209,1.679659 -0.183209,5.084176 0.02234,2.945236 0.02234,3.220292 0.252222,4.026117 -0.390747,-0.04562 -0.873843,-0.09137 -1.56398,-0.09137 -0.552605,0 -0.920513,0.02243 -1.379776,0.09137 0.160866,-0.368398 0.253215,-0.55261 0.298892,-1.840538 0.04667,-1.265578 0.13853,-7.477796 -0.07001,-8.949427 -0.11419,-0.89816 -0.345069,-1.10471 -0.597291,-1.334593 1.863864,-0.09239 2.461158,-0.391743 3.037099,-0.689635 l 0,2.437813 c 0.275558,-0.713961 0.850507,-2.301285 3.15179,-2.301285 2.876231,0 2.898573,2.093741 2.921909,3.473533 l 0,6.92669"
     id="path43-3"
     inkscape:connector-curvature="0"
     style="fill:#4d4d4d" /><path
     i:knockout="Off"
     d="m 36.988396,71.090178 c -0.460752,-0.06894 -0.78348,-0.115196 -1.450776,-0.115196 -0.734823,0 -1.242245,0.04664 -1.770523,0.115196 0.22988,-0.437414 0.321733,-0.644958 0.390746,-2.139424 0.09234,-2.048057 0.115183,-7.523989 -0.04567,-8.67437 -0.115183,-0.874841 -0.321734,-1.012376 -0.643963,-1.242245 1.886208,-0.184212 2.415479,-0.321734 3.289321,-0.735816 -0.183209,1.011369 -0.207538,1.518793 -0.207538,3.059439 -0.0452,7.938555 -0.06852,8.789069 0.438411,9.732416"
     id="path39-6"
     inkscape:connector-curvature="0"
     style="fill:#4d4d4d" /><path
     i:knockout="Off"
     d="m 37.182529,55.042261 -1.905571,1.904585 -1.904581,-1.904585 1.904581,-1.904584 1.905571,1.904584"
     id="path45-7"
     inkscape:connector-curvature="0"
     style="fill:#4d4d4d" /><path
     i:knockout="Off"
     d="m 47.39689,68.782891 c 0.02335,0.782493 0.02335,1.610644 0.345068,2.277953 -0.506928,-0.04562 -0.805822,-0.115196 -1.748181,-0.115196 -0.552606,0 -0.8515,0.04677 -1.288917,0.115196 0.09135,-0.298898 0.138529,-0.414082 0.184202,-0.805838 0.06902,-0.528271 0.115183,-2.300278 0.115183,-2.921891 l 0,-2.484503 c 0,-1.081378 0,-2.64635 -0.07001,-3.197967 -0.04567,-0.390749 -0.159871,-1.448795 -1.495461,-1.448795 -1.31126,0 -1.748181,0.965711 -1.909544,1.748191 -0.183209,0.804818 -0.183209,1.679659 -0.183209,5.084176 0.02234,2.945249 0.02234,3.220305 0.252223,4.02613 -0.390746,-0.04562 -0.873842,-0.09137 -1.563979,-0.09137 -0.552606,0 -0.920515,0.02243 -1.379778,0.09137 0.160868,-0.368411 0.253216,-0.55261 0.298895,-1.840539 0.04666,-1.26559 0.13853,-7.477808 -0.07,-8.949439 -0.114189,-0.89816 -0.345068,-1.10471 -0.597291,-1.33458 1.863865,-0.09239 2.461157,-0.391756 3.037098,-0.689648 l 0,2.437825 c 0.275559,-0.713973 0.850508,-2.301284 3.151791,-2.301284 2.876233,0 2.898575,2.09374 2.921911,3.47352 l 0,6.926689"
     id="path43-5"
     inkscape:connector-curvature="0"
     style="fill:#4d4d4d" /><path
     i:knockout="Off"
     d="m 51.253664,63.363197 c 0.02334,-1.909541 0.414578,-3.612048 2.04757,-3.612048 1.794854,0 1.931886,1.978072 1.886208,3.612048 l -3.933778,0 z m 6.211231,0.230877 c 0,-2.692035 -0.528775,-5.338385 -3.93378,-5.338385 -4.692931,0 -4.692931,5.20085 -4.692931,6.304082 0,4.670082 2.09325,6.51062 5.613445,6.51062 1.563482,0 2.323626,-0.228888 2.737708,-0.345065 -0.02285,-0.828176 0.09186,-1.357442 0.230874,-2.070409 -0.484091,0.299892 -1.105213,0.690629 -2.485486,0.690629 -3.589209,0 -3.635383,-3.267964 -3.635383,-4.395038 l 6.120869,0 0.04469,-1.356434"
     id="path35-3"
     inkscape:connector-curvature="0"
     style="fill:#4d4d4d" /></svg>