<?xml version="1.0" encoding="UTF-8" standalone="no"?>
<!-- Generator: Adobe Illustrator 10.0, SVG Export Plug-In . SVG Version: 3.0.0 Build 77)  -->

<svg
   xmlns:ns0="http://ns.adobe.com/SaveForWeb/1.0/"
   xmlns:ns="http://ns.adobe.com/Variables/1.0/"
   xmlns:i="http://ns.adobe.com/AdobeIllustrator/10.0/"
   xmlns:dc="http://purl.org/dc/elements/1.1/"
   xmlns:cc="http://creativecommons.org/ns#"
   xmlns:rdf="http://www.w3.org/1999/02/22-rdf-syntax-ns#"
   xmlns:svg="http://www.w3.org/2000/svg"
   xmlns="http://www.w3.org/2000/svg"
   xmlns:sodipodi="http://sodipodi.sourceforge.net/DTD/sodipodi-0.dtd"
   xmlns:inkscape="http://www.inkscape.org/namespaces/inkscape"
   i:viewOrigin="251 467"
   i:rulerOrigin="0 0"
   i:pageBounds="0 792 612 0"
   width="108.758"
   height="144.133"
   viewBox="0 0 108.758 144.133"
   overflow="visible"
   enable-background="new 0 0 108.758 144.133"
   xml:space="preserve"
   id="svg2"
   version="1.1"
   inkscape:version="0.91 r13725"
   sodipodi:docname="DebianNine.svg"
   inkscape:export-filename="/home/ticho/downloads/openlogo.png"
   inkscape:export-xdpi="331.01013"
   inkscape:export-ydpi="331.01013"><defs
     id="defs49" /><sodipodi:namedview
     pagecolor="#ffffff"
     bordercolor="#666666"
     borderopacity="1"
     objecttolerance="10"
     gridtolerance="10"
     guidetolerance="10"
     inkscape:pageopacity="0"
     inkscape:pageshadow="2"
     inkscape:window-width="1908"
     inkscape:window-height="1091"
     id="namedview47"
     showgrid="false"
     inkscape:zoom="4.6312005"
     inkscape:cx="36.222707"
     inkscape:cy="80.655131"
     inkscape:window-x="6"
     inkscape:window-y="46"
     inkscape:window-maximized="1"
     inkscape:current-layer="svg2"
     showguides="true"
     inkscape:guide-bbox="true"><sodipodi:guide
       position="40.003012,8.702946"
       orientation="0,1"
       id="guide4279" /><sodipodi:guide
       position="59.546469,34.659101"
       orientation="0,1"
       id="guide4341" /></sodipodi:namedview><metadata
     id="metadata4"><ns:variableSets><ns:variableSet
         varSetName="binding1"
         locked="none"><ns:variables /><ns:sampleDataSets /></ns:variableSet></ns:variableSets><ns0:sfw><ns0:slices /><ns0:sliceSourceBounds
         y="322.867"
         x="251"
         width="108.758"
         height="144.133"
         bottomLeftOrigin="true" /></ns0:sfw><rdf:RDF><cc:Work
         rdf:about=""><dc:format>image/svg+xml</dc:format><dc:type
           rdf:resource="http://purl.org/dc/dcmitype/StillImage" /><dc:title></dc:title></cc:Work></rdf:RDF></metadata><path
     i:knockout="Off"
     d="m 61.451989,55.645 c -1.494,0.02 0.281,0.768 2.232,1.069 0.541,-0.422 1.027,-0.846 1.463,-1.26 -1.213,0.297 -2.449,0.304 -3.695,0.191"
     id="path9"
     inkscape:connector-curvature="0"
     style="fill:#4d4d4d" /><path
     i:knockout="Off"
     d="m 69.468989,53.646 c 0.893,-1.229 1.541,-2.573 1.77,-3.963 -0.201,0.99 -0.736,1.845 -1.244,2.749 -2.793,1.759 -0.264,-1.044 -0.002,-2.111 -3.002,3.783 -0.414,2.268 -0.524,3.325"
     id="path11"
     inkscape:connector-curvature="0"
     style="fill:#4d4d4d" /><path
     i:knockout="Off"
     d="m 72.431989,45.942 c 0.182,-2.691 -0.529,-1.839 -0.768,-0.814 0.278,0.146 0.499,1.898 0.768,0.814"
     id="path13"
     inkscape:connector-curvature="0"
     style="fill:#4d4d4d" /><path
     i:knockout="Off"
     d="m 55.783989,9.163 c 0.798,0.142 1.724,0.252 1.591,0.443 0.876,-0.193 1.073,-0.367 -1.591,-0.443"
     id="path15"
     inkscape:connector-curvature="0"
     style="fill:#4d4d4d" /><path
     i:knockout="Off"
     d="m 57.375989,9.606 -0.561,0.117 0.523,-0.048 0.038,-0.069"
     id="path17"
     inkscape:connector-curvature="0"
     style="fill:#4d4d4d" /><path
     i:knockout="Off"
     d="m 27.028989,46.962 c -0.09,2.416 0.705,3.59 1.424,5.666 l 1.293,0.643 c 1.057,2.054 -0.105,1.304 0.652,2.937 1.652,1.467 5.006,4.589 6.08,4.875 0.785,-0.017 -0.531,-0.926 -0.703,-1.281 2.209,1.516 1.773,2.276 5.152,3.199 l 0.098,-0.221 c 8.33,3.92 19.902,-3.847 19.75,-14.443 0.088,0.672 0.253,0.504 0.437,0.774 0.43,-5.451 -2.518,-10.926 -7.49,-13.165 -4.863,-2.406 -10.564,-1.42 -14.045,1.829 1.912,-2.506 5.721,-5.163 10.232,-4.917 4.421,0.072 8.558,2.881 9.938,5.932 2.264,1.425 2.528,5.496 3.514,6.242 1.329,9.76 -2.497,13.975 -8.97,18.936 -1.016,0.686 -0.286,0.791 -0.422,1.313 2.15,-1.006 4.118,-2.526 5.738,-4.387 -0.86,1.257 -1.787,2.479 -2.986,3.439 2.029,-0.685 4.738,-4.913 5.527,-5.085 -3.495,6.258 -14.178,10.975 -19.775,8.634 2.59,0.096 5.879,0.053 8.787,-1.022 1.225,-0.629 2.884,-1.93 2.587,-2.173 -7.636,2.851 -15.522,2.158 -22.128,-3.137 -1.682,-1.31 -3.518,-3.537 -4.049,-3.567 0.799,1.202 -0.137,0.578 0.477,1.639 -1.672,-2.701 0.729,-1.1 -1.73,-4.664 l -0.908,1.25 c 0.34,-2.244 -2.785,-4.966 -2.467,-8.512 -0.717,-1.084 -0.799,1.168 -0.039,3.662 -1.055,-2.767 -0.279,-3.212 -0.549,-5.496 -0.291,0.768 -0.678,1.583 -0.875,2.394 0.688,-2.675 -0.703,-4.503 -1.049,-6.058 0.342,-0.15 1.061,1.182 1.227,-1.976 -0.025,-1.372 -0.383,-0.719 -0.52,-1.057 0.268,-0.155 0.975,-1.207 1.404,-3.224 -0.309,-0.475 -0.832,1.229 -1.256,1.298 0.273,-1.603 0.742,-2.826 0.762,-4.057 1.24,-2.59 0.439,0.346 1.443,-1.112 1.32,-4.114 -1.094,-0.955 -1.258,-2.823 -1.998,2.895 -3.137,7.385 -3.662,9.244 0.4,-2.267 1.045,-4.464 1.834,-6.589 -0.609,0.257 0.979,-4.663 -0.791,-1.405 1.889,-6.945 8.078,-13.435 13.773,-16.479 -0.695,0.637 -1.574,1.437 -1.26,1.563 2.834,-1.685 2.336,-1.818 2.742,-2.53 2.305,-0.939 2.459,0.077 3.984,0.002 4.35,-2.308 5.188,-2.063 9.191,-3.507 l -0.182,0.852 c 2.881,-0.96 3.357,0.362 6.47,0.002 0.189,-0.147 -0.998,-0.536 -1.976,-0.677 2.786,0.368 2.656,-0.55 5.382,0.101 -0.671,-0.471 -1.383,-0.784 -2.099,-1.184 2.271,0.138 5.424,1.322 4.451,0.244 3.705,1.654 10.286,3.975 13.979,7.438 l 0.116,-0.776 c 1.692,2.031 7.379,6.066 7.832,8.699 l 0.453,0.105 c 0.879,1.491 1.45,3.18 2.148,4.713 1.151,1.963 1.688,0.756 1.524,1.064 2.265,4.592 3.392,8.45 4.363,11.616 -0.692,1.035 -0.017,6.232 -0.278,10.391 1.136,20.544 -14.418,40.489 -31.42,45.093 -2.492,0.893 -6.197,0.861 -9.349,0.949 3.718,-1.064 4.198,-0.563 7.822,-1.826 2.613,-1.232 3.185,-2.637 5.037,-4.244 l -0.733,1.295 c 3.63,-1.285 2.111,-1.59 5.065,-2.525 l -0.783,-1.021 c 1.177,-0.09 3.117,-1.982 3.647,-3.033 l 1.288,0.051 c 1.546,-1.906 2.371,-3.283 2.31,-4.35 l 0.416,0.742 c 0.471,-0.809 5.691,-7.158 2.983,-5.68 0.503,-0.458 1.172,-0.747 1.897,-2.066 l -0.551,-0.629 c 1.301,-1.677 2.398,-3.826 2.314,-4.542 -0.695,0.938 -1.177,1.114 -1.655,1.275 3.291,-8.164 3.476,-0.449 5.967,-8.31 l -0.526,-0.042 c 0.403,-0.611 0.65,-1.27 0.974,-1.919 l -0.23,-2.285 c 2.368,-2.736 0.662,-11.645 0.319,-16.53 -0.235,-1.986 -1.977,-4.101 -3.3,-7.418 l 0.806,-0.138 c -1.542,-2.688 -8.802,-10.799 -12.166,-10.383 -1.629,-2.046 0.324,-0.008 0.643,-0.522 -3.579,-3.703 -4.704,-2.616 -7.119,-3.283 -2.603,-1.545 2.235,0.604 1.001,-0.589 -4.503,-1.149 -3.19,-2.614 -9.063,-3.197 -0.62,0.352 1.437,0.544 1.953,1.001 -3.75,-1.836 -11.869,-1.417 -17.145,1.018 -6.117,2.861 -12.994,11.314 -13.266,19.267 l -0.309,0.083 c 0.156,3.162 -0.484,6.819 0.627,10.177 l -0.751,-1.591"
     id="path19"
     inkscape:connector-curvature="0"
     style="fill:#4d4d4d" /><path
     i:knockout="Off"
     d="m 45.140989,57.695 -0.211,1.047 c 0.983,1.335 1.763,2.781 3.016,3.821 -0.902,-1.759 -1.571,-2.486 -2.805,-4.868"
     id="path21"
     inkscape:connector-curvature="0"
     style="fill:#4d4d4d" /><path
     i:knockout="Off"
     d="m 47.461989,57.605 c -0.52,-0.576 -0.826,-1.268 -1.172,-1.956 0.33,1.211 1.006,2.252 1.633,3.312 l -0.461,-1.356"
     id="path23"
     inkscape:connector-curvature="0"
     style="fill:#4d4d4d" /><path
     i:knockout="Off"
     d="m 88.545989,48.675 -0.219,0.552 c -0.402,2.858 -1.273,5.686 -2.605,8.309 1.472,-2.767 2.421,-5.794 2.824,-8.861"
     id="path25"
     inkscape:connector-curvature="0"
     style="fill:#4d4d4d" /><path
     i:knockout="Off"
     d="m 56.080989,8.446 c 1.009,-0.369 2.482,-0.203 3.556,-0.446 -1.398,0.117 -2.789,0.187 -4.162,0.362 l 0.606,0.084"
     id="path27"
     inkscape:connector-curvature="0"
     style="fill:#4d4d4d" /><path
     i:knockout="Off"
     d="m 20.609989,27.308 c 0.233,2.154 -1.62,2.991 0.41,1.569 1.09,-2.454 -0.424,-0.677 -0.41,-1.569"
     id="path29"
     inkscape:connector-curvature="0"
     style="fill:#4d4d4d" /><path
     i:knockout="Off"
     d="m 18.221989,37.282 c 0.469,-1.437 0.553,-2.299 0.732,-3.132 -1.293,1.654 -0.596,2.007 -0.732,3.132"
     id="path31"
     inkscape:connector-curvature="0"
     style="fill:#4d4d4d" /><path
     i:knockout="Off"
     d="m 36.400652,130.76897 c 0.047,1.576 0.047,3.244 0.695,4.588 -1.021,-0.092 -1.623,-0.232 -3.521,-0.232 -1.113,0 -1.715,0.094 -2.596,0.232 0.184,-0.602 0.279,-0.834 0.371,-1.623 0.139,-1.064 0.232,-4.633 0.232,-5.885 l 0,-5.004 c 0,-2.178 0,-5.33 -0.141,-6.441 -0.092,-0.787 -0.322,-2.918 -3.012,-2.918 -2.641,0 -3.521,1.945 -3.846,3.521 -0.369,1.621 -0.369,3.383 -0.369,10.24 0.045,5.932 0.045,6.486 0.508,8.109 -0.787,-0.092 -1.76,-0.184 -3.15,-0.184 -1.113,0 -1.854,0.045 -2.779,0.184 0.324,-0.742 0.51,-1.113 0.602,-3.707 0.094,-2.549 0.279,-15.061 -0.141,-18.025 -0.23,-1.809 -0.695,-2.225 -1.203,-2.688 3.754,-0.186 4.957,-0.789 6.117,-1.389 l 0,4.91 c 0.555,-1.438 1.713,-4.635 6.348,-4.635 5.793,0 5.838,4.217 5.885,6.996 l 0,13.951"
     id="path43-3"
     inkscape:connector-curvature="0"
     style="fill:#4d4d4d" /><path
     i:knockout="Off"
     d="m 47.508942,135.33975 c -0.928,-0.139 -1.578,-0.232 -2.922,-0.232 -1.48,0 -2.502,0.094 -3.566,0.232 0.463,-0.881 0.648,-1.299 0.787,-4.309 0.186,-4.125 0.232,-15.154 -0.092,-17.471 -0.232,-1.762 -0.648,-2.039 -1.297,-2.502 3.799,-0.371 4.865,-0.648 6.625,-1.482 -0.369,2.037 -0.418,3.059 -0.418,6.162 -0.091,15.989 -0.138,17.702 0.883,19.602"
     id="path39-6"
     inkscape:connector-curvature="0"
     style="fill:#4d4d4d" /><path
     i:knockout="Off"
     d="m 47.899942,103.01774 -3.838,3.83601 -3.836,-3.83601 3.836,-3.836002 3.838,3.836002"
     id="path45-7"
     inkscape:connector-curvature="0"
     style="fill:#4d4d4d" /><path
     i:knockout="Off"
     d="m 69.303897,130.69265 c 0.047,1.576 0.047,3.244 0.695,4.588 -1.021,-0.092 -1.623,-0.232 -3.521,-0.232 -1.113,0 -1.715,0.094 -2.596,0.232 0.184,-0.602 0.279,-0.834 0.371,-1.623 0.139,-1.064 0.232,-4.633 0.232,-5.885 l 0,-5.004 c 0,-2.178 0,-5.33 -0.141,-6.441 -0.092,-0.787 -0.322,-2.918 -3.012,-2.918 -2.641,0 -3.521,1.945 -3.846,3.521 -0.369,1.621 -0.369,3.383 -0.369,10.24 0.045,5.932 0.045,6.486 0.508,8.109 -0.787,-0.092 -1.76,-0.184 -3.15,-0.184 -1.113,0 -1.854,0.045 -2.779,0.184 0.324,-0.742 0.51,-1.113 0.602,-3.707 0.094,-2.549 0.279,-15.061 -0.141,-18.025 -0.23,-1.809 -0.695,-2.225 -1.203,-2.688 3.754,-0.186 4.957,-0.789 6.117,-1.389 l 0,4.91 c 0.555,-1.438 1.713,-4.635 6.348,-4.635 5.793,0 5.838,4.217 5.885,6.996 l 0,13.951"
     id="path43-5"
     inkscape:connector-curvature="0"
     style="fill:#4d4d4d" /><path
     i:knockout="Off"
     d="m 78.197351,119.91032 c 0.047,-3.846 0.835,-7.275 4.124,-7.275 3.615,0 3.891,3.984 3.799,7.275 l -7.923,0 z m 12.51,0.465 c 0,-5.422 -1.065,-10.752 -7.923,-10.752 -9.452,0 -9.452,10.475 -9.452,12.697 0,9.406 4.216,13.113 11.306,13.113 3.149,0 4.68,-0.461 5.514,-0.695 -0.046,-1.668 0.185,-2.734 0.465,-4.17 -0.975,0.604 -2.226,1.391 -5.006,1.391 -7.229,0 -7.322,-6.582 -7.322,-8.852 l 12.328,0 0.09,-2.732"
     id="path35-3"
     inkscape:connector-curvature="0"
     style="fill:#4d4d4d" /></svg>