<?xml version="1.0" encoding="UTF-8" standalone="no"?>
<!-- Generator: Adobe Illustrator 10.0, SVG Export Plug-In . SVG Version: 3.0.0 Build 77)  -->

<svg
   xmlns:ns0="http://ns.adobe.com/SaveForWeb/1.0/"
   xmlns:ns="http://ns.adobe.com/Variables/1.0/"
   xmlns:i="http://ns.adobe.com/AdobeIllustrator/10.0/"
   xmlns:dc="http://purl.org/dc/elements/1.1/"
   xmlns:cc="http://creativecommons.org/ns#"
   xmlns:rdf="http://www.w3.org/1999/02/22-rdf-syntax-ns#"
   xmlns:svg="http://www.w3.org/2000/svg"
   xmlns="http://www.w3.org/2000/svg"
   xmlns:sodipodi="http://sodipodi.sourceforge.net/DTD/sodipodi-0.dtd"
   xmlns:inkscape="http://www.inkscape.org/namespaces/inkscape"
   i:viewOrigin="251 467"
   i:rulerOrigin="0 0"
   i:pageBounds="0 792 612 0"
   width="108.758"
   height="144.133"
   viewBox="0 0 108.758 144.133"
   overflow="visible"
   enable-background="new 0 0 108.758 144.133"
   xml:space="preserve"
   id="svg2"
   version="1.1"
   inkscape:version="0.91 r13725"
   sodipodi:docname="DebianNine2.svg"
   inkscape:export-filename="/home/ticho/downloads/nine2.png"
   inkscape:export-xdpi="331.01013"
   inkscape:export-ydpi="331.01013"><defs
     id="defs49" /><sodipodi:namedview
     pagecolor="#ffffff"
     bordercolor="#666666"
     borderopacity="1"
     objecttolerance="10"
     gridtolerance="10"
     guidetolerance="10"
     inkscape:pageopacity="0"
     inkscape:pageshadow="2"
     inkscape:window-width="1908"
     inkscape:window-height="1091"
     id="namedview47"
     showgrid="false"
     inkscape:zoom="3.2747533"
     inkscape:cx="22.692169"
     inkscape:cy="81.584515"
     inkscape:window-x="6"
     inkscape:window-y="46"
     inkscape:window-maximized="1"
     inkscape:current-layer="svg2"
     showguides="true"
     inkscape:guide-bbox="true"><sodipodi:guide
       position="121.35082,-12.523751"
       orientation="0,1"
       id="guide4279" /><sodipodi:guide
       position="-57.868363,124.80566"
       orientation="1,0"
       id="guide4364" /><sodipodi:guide
       position="137.72029,223.22293"
       orientation="0,1"
       id="guide4368" /></sodipodi:namedview><metadata
     id="metadata4"><ns:variableSets><ns:variableSet
         varSetName="binding1"
         locked="none"><ns:variables /><ns:sampleDataSets /></ns:variableSet></ns:variableSets><ns0:sfw><ns0:slices /><ns0:sliceSourceBounds
         y="322.867"
         x="251"
         width="108.758"
         height="144.133"
         bottomLeftOrigin="true" /></ns0:sfw><rdf:RDF><cc:Work
         rdf:about=""><dc:format>image/svg+xml</dc:format><dc:type
           rdf:resource="http://purl.org/dc/dcmitype/StillImage" /><dc:title></dc:title></cc:Work></rdf:RDF></metadata><path
     i:knockout="Off"
     d="m 61.451989,74.623498 c -1.494,0.02 0.281,0.768 2.232,1.069 0.541,-0.422 1.027,-0.846 1.463,-1.26 -1.213,0.297 -2.449,0.304 -3.695,0.191"
     id="path9"
     inkscape:connector-curvature="0"
     style="fill:#4d4d4d" /><path
     i:knockout="Off"
     d="m 69.468989,72.624498 c 0.893,-1.229 1.541,-2.573 1.77,-3.963 -0.201,0.99 -0.736,1.845 -1.244,2.749 -2.793,1.759 -0.264,-1.044 -0.002,-2.111 -3.002,3.783 -0.414,2.268 -0.524,3.325"
     id="path11"
     inkscape:connector-curvature="0"
     style="fill:#4d4d4d" /><path
     i:knockout="Off"
     d="m 72.431989,64.920498 c 0.182,-2.691 -0.529,-1.839 -0.768,-0.814 0.278,0.146 0.499,1.898 0.768,0.814"
     id="path13"
     inkscape:connector-curvature="0"
     style="fill:#4d4d4d" /><path
     i:knockout="Off"
     d="m 55.783989,28.141498 c 0.798,0.142 1.724,0.252 1.591,0.443 0.876,-0.193 1.073,-0.367 -1.591,-0.443"
     id="path15"
     inkscape:connector-curvature="0"
     style="fill:#4d4d4d" /><path
     i:knockout="Off"
     d="m 57.375989,28.584498 -0.561,0.117 0.523,-0.048 0.038,-0.069"
     id="path17"
     inkscape:connector-curvature="0"
     style="fill:#4d4d4d" /><path
     i:knockout="Off"
     d="m 27.028989,65.940498 c -0.09,2.416 0.705,3.59 1.424,5.666 l 1.293,0.643 c 1.057,2.054 -0.105,1.304 0.652,2.937 1.652,1.467 5.006,4.589 6.08,4.875 0.785,-0.017 -0.531,-0.926 -0.703,-1.281 2.209,1.516 1.773,2.276 5.152,3.199 l 0.098,-0.221 c 8.33,3.92 19.902,-3.847 19.75,-14.443 0.088,0.672 0.253,0.504 0.437,0.774 0.43,-5.451 -2.518,-10.926 -7.49,-13.165 -4.863,-2.406 -10.564,-1.42 -14.045,1.829 1.912,-2.506 5.721,-5.163 10.232,-4.917 4.421,0.072 8.558,2.881 9.938,5.932 2.264,1.425 2.528,5.496 3.514,6.242 1.329,9.76 -2.497,13.975 -8.97,18.936 -1.016,0.686 -0.286,0.791 -0.422,1.313 2.15,-1.006 4.118,-2.526 5.738,-4.387 -0.86,1.257 -1.787,2.479 -2.986,3.439 2.029,-0.685 4.738,-4.913 5.527,-5.085 -3.495,6.258 -14.178,10.975 -19.775,8.634 2.59,0.096 5.879,0.053 8.787,-1.022 1.225,-0.629 2.884,-1.93 2.587,-2.173 -7.636,2.851 -15.522,2.158 -22.128,-3.137 -1.682,-1.31 -3.518,-3.537 -4.049,-3.567 0.799,1.202 -0.137,0.578 0.477,1.639 -1.672,-2.701 0.729,-1.1 -1.73,-4.664 l -0.908,1.25 c 0.34,-2.244 -2.785,-4.966 -2.467,-8.512 -0.717,-1.084 -0.799,1.168 -0.039,3.662 -1.055,-2.767 -0.279,-3.212 -0.549,-5.496 -0.291,0.768 -0.678,1.583 -0.875,2.394 0.688,-2.675 -0.703,-4.503 -1.049,-6.058 0.342,-0.15 1.061,1.182 1.227,-1.976 -0.025,-1.372 -0.383,-0.719 -0.52,-1.057 0.268,-0.155 0.975,-1.207 1.404,-3.224 -0.309,-0.475 -0.832,1.229 -1.256,1.298 0.273,-1.603 0.742,-2.826 0.762,-4.057 1.24,-2.59 0.439,0.346 1.443,-1.112 1.32,-4.114 -1.094,-0.955 -1.258,-2.823 -1.998,2.895 -3.137,7.385 -3.662,9.244 0.4,-2.267 1.045,-4.464 1.834,-6.589 -0.609,0.257 0.979,-4.663 -0.791,-1.405 1.889,-6.945 8.078,-13.435 13.773,-16.479 -0.695,0.637 -1.574,1.437 -1.26,1.563 2.834,-1.685 2.336,-1.818 2.742,-2.53 2.305,-0.939 2.459,0.077 3.984,0.002 4.35,-2.308 5.188,-2.063 9.191,-3.507 l -0.182,0.852 c 2.881,-0.96 3.357,0.362 6.47,0.002 0.189,-0.147 -0.998,-0.536 -1.976,-0.677 2.786,0.368 2.656,-0.55 5.382,0.101 -0.671,-0.471 -1.383,-0.784 -2.099,-1.184 2.271,0.138 5.424,1.322 4.451,0.244 3.705,1.654 10.286,3.975 13.979,7.438 l 0.116,-0.776 c 1.692,2.031 7.379,6.066 7.832,8.699 l 0.453,0.105 c 0.879,1.491 1.45,3.18 2.148,4.713 1.151,1.963 1.688,0.756 1.524,1.064 2.265,4.592 3.392,8.45 4.363,11.616 -0.692,1.035 -0.017,6.232 -0.278,10.391 1.136,20.544 -14.418,40.489002 -31.42,45.093002 -2.492,0.893 -6.197,0.861 -9.349,0.949 3.718,-1.064 4.198,-0.563 7.822,-1.826 2.613,-1.232 3.185,-2.637 5.037,-4.244 l -0.733,1.295 c 3.63,-1.285 2.111,-1.59 5.065,-2.525 l -0.783,-1.021 c 1.177,-0.09 3.117,-1.982 3.647,-3.033 l 1.288,0.051 c 1.546,-1.906 2.371,-3.283 2.31,-4.35 l 0.416,0.742 c 0.471,-0.809 5.691,-7.158002 2.983,-5.680002 0.503,-0.458 1.172,-0.747 1.897,-2.066 l -0.551,-0.629 c 1.301,-1.677 2.398,-3.826 2.314,-4.542 -0.695,0.938 -1.177,1.114 -1.655,1.275 3.291,-8.164 3.476,-0.449 5.967,-8.31 l -0.526,-0.042 c 0.403,-0.611 0.65,-1.27 0.974,-1.919 l -0.23,-2.285 c 2.368,-2.736 0.662,-11.645 0.319,-16.53 -0.235,-1.986 -1.977,-4.101 -3.3,-7.418 l 0.806,-0.138 c -1.542,-2.688 -8.802,-10.799 -12.166,-10.383 -1.629,-2.046 0.324,-0.008 0.643,-0.522 -3.579,-3.703 -4.704,-2.616 -7.119,-3.283 -2.603,-1.545 2.235,0.604 1.001,-0.589 -4.503,-1.149 -3.19,-2.614 -9.063,-3.197 -0.62,0.352 1.437,0.544 1.953,1.001 -3.75,-1.836 -11.869,-1.417 -17.145,1.018 -6.117,2.861 -12.994,11.314 -13.266,19.267 l -0.309,0.083 c 0.156,3.162 -0.484,6.819 0.627,10.177 l -0.751,-1.591"
     id="path19"
     inkscape:connector-curvature="0"
     style="fill:#4d4d4d" /><path
     i:knockout="Off"
     d="m 45.140989,76.673498 -0.211,1.047 c 0.983,1.335 1.763,2.781 3.016,3.821 -0.902,-1.759 -1.571,-2.486 -2.805,-4.868"
     id="path21"
     inkscape:connector-curvature="0"
     style="fill:#4d4d4d" /><path
     i:knockout="Off"
     d="m 47.461989,76.583498 c -0.52,-0.576 -0.826,-1.268 -1.172,-1.956 0.33,1.211 1.006,2.252 1.633,3.312 l -0.461,-1.356"
     id="path23"
     inkscape:connector-curvature="0"
     style="fill:#4d4d4d" /><path
     i:knockout="Off"
     d="m 88.545989,67.653498 -0.219,0.552 c -0.402,2.858 -1.273,5.686 -2.605,8.309 1.472,-2.767 2.421,-5.794 2.824,-8.861"
     id="path25"
     inkscape:connector-curvature="0"
     style="fill:#4d4d4d" /><path
     i:knockout="Off"
     d="m 56.080989,27.424498 c 1.009,-0.369 2.482,-0.203 3.556,-0.446 -1.398,0.117 -2.789,0.187 -4.162,0.362 l 0.606,0.084"
     id="path27"
     inkscape:connector-curvature="0"
     style="fill:#4d4d4d" /><path
     i:knockout="Off"
     d="m 20.609989,46.286498 c 0.233,2.154 -1.62,2.991 0.41,1.569 1.09,-2.454 -0.424,-0.677 -0.41,-1.569"
     id="path29"
     inkscape:connector-curvature="0"
     style="fill:#4d4d4d" /><path
     i:knockout="Off"
     d="m 18.221989,56.260498 c 0.469,-1.437 0.553,-2.299 0.732,-3.132 -1.293,1.654 -0.596,2.007 -0.732,3.132"
     id="path31"
     inkscape:connector-curvature="0"
     style="fill:#4d4d4d" /><path
     i:knockout="Off"
     d="m 36.83549,69.487774 c 0.01832,0.61405 0.01832,1.26395 0.270793,1.78761 -0.39781,-0.0359 -0.632368,-0.0904 -1.371883,-0.0904 -0.433656,0 -0.668213,0.0367 -1.011476,0.0904 0.07169,-0.23455 0.108711,-0.32494 0.144552,-0.63237 0.05416,-0.41456 0.09039,-1.80515 0.09039,-2.29296 l 0,-1.9497 c 0,-0.84861 0,-2.07672 -0.05494,-2.5096 -0.03584,-0.30664 -0.125461,-1.13694 -1.173562,-1.13694 -1.029009,0 -1.371883,0.75783 -1.498512,1.37189 -0.143773,0.63158 -0.143773,1.31811 -0.143773,3.9898 0.01753,2.31127 0.01753,2.52712 0.197931,3.15949 -0.306638,-0.0358 -0.685747,-0.0717 -1.227331,-0.0717 -0.433656,0 -0.722371,0.0176 -1.082777,0.0717 0.126239,-0.2891 0.19871,-0.43366 0.234555,-1.44436 0.03662,-0.99316 0.108711,-5.86819 -0.05494,-7.02305 -0.08961,-0.70483 -0.270792,-0.86692 -0.468723,-1.04732 1.462665,-0.0725 1.93139,-0.30742 2.383359,-0.54119 l 0,1.91307 c 0.216244,-0.56028 0.667434,-1.80593 2.473363,-1.80593 2.257118,0 2.274651,1.64306 2.292964,2.72585 l 0,5.43571"
     id="path43-3"
     inkscape:connector-curvature="0"
     style="fill:#4d4d4d" /><path
     i:knockout="Off"
     d="m 40.731746,71.300295 c -0.361575,-0.0541 -0.614835,-0.0904 -1.138495,-0.0904 -0.576651,0 -0.97485,0.0366 -1.389415,0.0904 0.180398,-0.34326 0.252479,-0.50613 0.306637,-1.67891 0.07246,-1.60721 0.09039,-5.90444 -0.03584,-6.8072 -0.09039,-0.68653 -0.25248,-0.79446 -0.505349,-0.97485 1.480199,-0.14456 1.895544,-0.25248 2.58129,-0.57743 -0.143773,0.79367 -0.162865,1.19187 -0.162865,2.40089 -0.03547,6.22977 -0.05377,6.89721 0.344042,7.6375"
     id="path39-6"
     inkscape:connector-curvature="0"
     style="fill:#4d4d4d" /><path
     i:knockout="Off"
     d="m 40.884091,58.706715 -1.495394,1.49462 -1.494617,-1.49462 1.494617,-1.49462 1.495394,1.49462"
     id="path45-7"
     inkscape:connector-curvature="0"
     style="fill:#4d4d4d" /><path
     i:knockout="Off"
     d="m 48.899797,69.489655 c 0.01832,0.61406 0.01832,1.26395 0.270791,1.78762 -0.397811,-0.0358 -0.632367,-0.0904 -1.371882,-0.0904 -0.433657,0 -0.668214,0.0367 -1.011476,0.0904 0.07169,-0.23456 0.10871,-0.32495 0.144552,-0.63238 0.05416,-0.41456 0.09039,-1.80514 0.09039,-2.29295 l 0,-1.94971 c 0,-0.84861 0,-2.07672 -0.05494,-2.5096 -0.03584,-0.30664 -0.125459,-1.13694 -1.173561,-1.13694 -1.02901,0 -1.371883,0.75784 -1.498512,1.37189 -0.143773,0.63158 -0.143773,1.31811 -0.143773,3.9898 0.01753,2.31128 0.01753,2.52713 0.197931,3.1595 -0.306637,-0.0358 -0.685746,-0.0717 -1.22733,-0.0717 -0.433657,0 -0.722373,0.0176 -1.082779,0.0717 0.126241,-0.28911 0.198711,-0.43366 0.234558,-1.44436 0.03662,-0.99317 0.108711,-5.8682 -0.05493,-7.02306 -0.08961,-0.70483 -0.270792,-0.86692 -0.468724,-1.04731 1.462666,-0.0725 1.93139,-0.30743 2.383359,-0.5412 l 0,1.91308 c 0.216244,-0.56029 0.667435,-1.80593 2.473363,-1.80593 2.25712,0 2.274653,1.64306 2.292966,2.72584 l 0,5.43571"
     id="path43-5"
     inkscape:connector-curvature="0"
     style="fill:#4d4d4d" /><path
     i:knockout="Off"
     d="m 51.710612,65.243825 c 0.01832,-1.49851 0.32534,-2.83455 1.606828,-2.83455 1.408509,0 1.516045,1.55229 1.480199,2.83455 l -3.087027,0 z m 4.874255,0.18118 c 0,-2.11257 -0.414955,-4.18929 -3.087028,-4.18929 -3.682771,0 -3.682771,4.08136 -3.682771,4.94712 0,3.66484 1.642675,5.1092 4.405143,5.1092 1.22694,0 1.823462,-0.17962 2.148412,-0.27079 -0.01793,-0.64991 0.07209,-1.06525 0.181178,-1.62475 -0.379889,0.23534 -0.867314,0.54197 -1.950481,0.54197 -2.816627,0 -2.852862,-2.56453 -2.852862,-3.449 l 4.803343,0 0.03507,-1.06446"
     id="path35-3"
     inkscape:connector-curvature="0"
     style="fill:#4d4d4d" /></svg>