<?xml version="1.0" encoding="UTF-8" standalone="no"?>
<svg xmlns:dc="http://purl.org/dc/elements/1.1/"
     xmlns:cc="http://creativecommons.org/ns#"
     xmlns:rdf="http://www.w3.org/1999/02/22-rdf-syntax-ns#"
     xmlns:svg="http://www.w3.org/2000/svg"
     xmlns="http://www.w3.org/2000/svg"
     xmlns:xlink="http://www.w3.org/1999/xlink"
     width="128" height="128" version="1.1">
    <title>Clarity Icon</title>
    <desc>This icon is a part of Clarity icon theme for gtk</desc>
    <metadata>
        <rdf:RDF>
            <cc:Work rdf:about="">
                <dc:title>Clarity Icon</dc:title>
                <dc:description>This icon is a part of Clarity icon theme for gtk</dc:description>
                <dc:creator>
                    <cc:Agent>
                        <dc:title>Jakub Jankiewicz</dc:title>
                    </cc:Agent>
                </dc:creator>
                <dc:rights>
                    <cc:Agent>
                        <dc:title>Jakub Jankiewicz</dc:title>
                    </cc:Agent>
                </dc:rights>
                <dc:date>2010</dc:date>
                <dc:format>image/svg+xml</dc:format>
                <dc:type rdf:resource="http://purl.org/dc/dcmitype/StillImage" />
                <cc:license rdf:resource="http://www.gnu.org/copyleft/gpl.html" />
             </cc:Work>
        </rdf:RDF>
    </metadata>
    <defs>
        <linearGradient x1="0" y1="128" x2="128" y2="0" id="gradient" gradientUnits="userSpaceOnUse">
            <stop id="start" style="stop-color:#000000;stop-opacity:1" offset="0" />
            <stop id="stop" style="stop-color:#000000;stop-opacity:1" offset="1" />
        </linearGradient>
        <filter id="shadow">
            <feMorphology operator="dilate" in="SourceGraphic" radius="3" />
            <feGaussianBlur stdDeviation="1.5" />
        </filter>
    </defs>
    <path d="m 23.775922,19.635903 c -3.974969,0 -7.182406,3.169832 -7.182406,7.144801 l 0,57.007998 c 0,3.974969 3.207437,7.182406 7.182406,7.182406 l 83.706988,0 c 3.97497,0 7.14481,-3.207437 7.14481,-7.182406 l 0,-57.007998 c 0,-3.974969 -3.16984,-7.144801 -7.14481,-7.144801 l -83.706988,0 z m 2.970733,8.19772 77.765525,0 0,54.939765 -77.765525,0 0,-54.939765 z m 14.590438,68.063638 c -4.230319,0 -7.633657,3.403336 -7.633657,7.633659 l 63.851966,0 c 0,-4.230323 -3.403336,-7.633659 -7.633657,-7.633659 l -48.584652,0 z" style="fill:url(#gradient);fill-opacity:1;stroke:none" />
    <path d="m 64.018805,36.119437 c -11.928318,0 -21.600656,9.672338 -21.600656,21.600655 0,11.928314 9.672338,21.600659 21.600656,21.600659 11.928307,0 21.600644,-9.672346 21.600644,-21.600659 0,-11.928317 -9.672337,-21.600655 -21.600644,-21.600655 z m 10.896033,9.232182 4.579279,3.563298 -16.476566,21.173643 -0.117796,-0.08832 -4.461487,-3.474952 -9.880054,-7.671398 3.563293,-4.57928 9.880059,7.671398 12.913272,-16.594368 z" style="fill:#15a100;fill-opacity:1;stroke:none"  />
</svg>
