<?xml version="1.0" encoding="UTF-8" standalone="no"?>
<svg xmlns:dc="http://purl.org/dc/elements/1.1/"
     xmlns:cc="http://creativecommons.org/ns#"
     xmlns:rdf="http://www.w3.org/1999/02/22-rdf-syntax-ns#"
     xmlns:svg="http://www.w3.org/2000/svg"
     xmlns="http://www.w3.org/2000/svg"
     xmlns:xlink="http://www.w3.org/1999/xlink"
     width="128" height="128" version="1.1">
    <title>Workspace Switch Icon</title>
    <desc>This icon is a part of Clarity icon theme for gtk</desc>
    <metadata>
        <rdf:RDF>
            <cc:Work rdf:about="">
                <dc:title>Workspace Switch Icon</dc:title>
                <dc:description>This icon is a part of Clarity icon theme for gtk</dc:description>
                <dc:creator>
                    <cc:Agent>
                        <dc:title>Jakub Jankiewicz</dc:title>
                    </cc:Agent>
                </dc:creator>
                <dc:rights>
                    <cc:Agent>
                        <dc:title>Jakub Jankiewicz</dc:title>
                    </cc:Agent>
                </dc:rights>
                <dc:date>2010</dc:date>
                <dc:format>image/svg+xml</dc:format>
                <dc:type rdf:resource="http://purl.org/dc/dcmitype/StillImage" />
                <cc:license rdf:resource="http://www.gnu.org/copyleft/gpl.html" />
             </cc:Work>
        </rdf:RDF>
    </metadata>
    <defs>
        <linearGradient x1="0" y1="128" x2="128" y2="0" id="gradient" gradientUnits="userSpaceOnUse">
            <stop id="start" style="stop-color:#000000;stop-opacity:1" offset="0" />
            <stop id="stop" style="stop-color:#000000;stop-opacity:1" offset="1" />
        </linearGradient>
        <filter id="shadow">
            <feMorphology operator="dilate" in="SourceGraphic" radius="3" />
            <feGaussianBlur stdDeviation="1.5" />
        </filter>
    </defs>
    <path d="m 19.46875,22.671875 c -2.95467,0 -5.34375,2.357833 -5.34375,5.3125 l 0,72 c 0,2.954665 2.38908,5.343755 5.34375,5.343755 l 89.0625,0 c 2.95467,0 5.34375,-2.38909 5.34375,-5.343755 l 0,-72 c 0,-2.954667 -2.38908,-5.3125 -5.34375,-5.3125 z m 48.09375,5.84375 36.15625,0 c 1.69321,0 3.0625,1.369285 3.0625,3.0625 l 0,28.84375 -39.21875,0 z m -46.34375,39.0625 39.1875,0 0,31.875 -36.15625,0 c -1.69321,0 -3.03125,-1.338035 -3.03125,-3.03125 z m 46.34375,0 39.21875,0 0,28.84375 c 0,1.693215 -1.36929,3.03125 -3.0625,3.03125 l -36.15625,0 z" style="fill:url(#gradient);fill-opacity:1;stroke:none" />
</svg>
