<?xml version="1.0" encoding="UTF-8" standalone="no"?>
<svg xmlns:dc="http://purl.org/dc/elements/1.1/"
     xmlns:cc="http://creativecommons.org/ns#"
     xmlns:rdf="http://www.w3.org/1999/02/22-rdf-syntax-ns#"
     xmlns:svg="http://www.w3.org/2000/svg"
     xmlns="http://www.w3.org/2000/svg"
     xmlns:xlink="http://www.w3.org/1999/xlink"
     width="128" height="128" version="1.1">
    <title>Generic Card Icon</title>
    <desc>This icon is a part of Clarity icon theme for gtk</desc>
    <metadata>
        <rdf:RDF>
            <cc:Work rdf:about="">
                <dc:title>Generic Card Icon</dc:title>
                <dc:description>This icon is a part of Clarity icon theme for gtk</dc:description>
                <dc:creator>
                    <cc:Agent>
                        <dc:title>Jakub Jankiewicz</dc:title>
                    </cc:Agent>
                </dc:creator>
                <dc:rights>
                    <cc:Agent>
                        <dc:title>Jakub Jankiewicz</dc:title>
                    </cc:Agent>
                </dc:rights>
                <dc:date>2010</dc:date>
                <dc:format>image/svg+xml</dc:format>
                <dc:type rdf:resource="http://purl.org/dc/dcmitype/StillImage" />
                <cc:license rdf:resource="http://www.gnu.org/copyleft/gpl.html" />
             </cc:Work>
        </rdf:RDF>
    </metadata>
    <defs>
        <linearGradient x1="0" y1="128" x2="128" y2="0" id="gradient" gradientUnits="userSpaceOnUse">
            <stop id="start" style="stop-color:#000000;stop-opacity:1" offset="0" />
            <stop id="stop" style="stop-color:#000000;stop-opacity:1" offset="1" />
        </linearGradient>
        <filter id="shadow">
            <feMorphology operator="dilate" in="SourceGraphic" radius="3" />
            <feGaussianBlur stdDeviation="1.5" />
        </filter>
    </defs>
    <path d="m 102.52987,25.08205 c -3.932624,0.209959 -6.763483,3.040819 -6.973444,6.97344 l 0,68.914 c 0,1.06371 1.50566,1.94846 3.384169,1.94846 1.878525,0 3.384175,-0.88475 3.384175,-1.94846 l 0,-68.914 c -0.20996,0.168553 0.37366,-0.415058 0.2051,-0.205102 l 13.43413,0 c 1.06372,0 1.91428,-1.505653 1.91428,-3.384169 0,-1.878515 -0.85056,-3.384169 -1.91428,-3.384169 z M 13.505889,37.012101 c -1.878519,0 -3.384169,1.505653 -3.384169,3.384169 l 0,44.233481 c 0,1.878515 1.50565,3.384169 3.384169,3.384169 l 79.852718,0 0,-51.001819 z m 90.801531,16.613193 0,8.204046 1.16224,0 c 1.29529,0 2.35866,-1.063374 2.35866,-2.358664 l 0,-3.486719 c 0,-1.295289 -1.06337,-2.358663 -2.35866,-2.358663 z m 0,12.682087 0,8.204046 1.16224,0 c 1.29529,0 2.35866,-1.063374 2.35866,-2.358663 l 0,-3.486719 c 0,-1.295289 -1.06337,-2.358664 -2.35866,-2.358664 z m -53.199653,23.449899 0,8.990279 3.72601,0 0,-8.990279 z m 5.26426,0 0,8.990279 3.76019,0 0,-8.990279 z m 5.29845,0 0,8.990279 3.726,0 0,-8.990279 z m 5.26426,0 0,8.990279 3.76019,0 0,-8.990279 z m 5.29845,0 0,8.990279 3.726,0 0,-8.990279 z m 5.26426,0 0,8.990279 3.76019,0 0,-8.990279 z m 5.29845,0 0,8.990279 3.726,0 0,-8.990279 z" style="fill:url(#gradient);fill-opacity:1;stroke:none" />
    <path d="m 101.16788,56.143924 c -10.69839,0 -19.44064,8.742246 -19.44064,19.440631 l 0,11.542875 c -4.25919,0.932827 -7.425237,4.700619 -7.425237,9.247799 l 0,22.140711 c 0,5.25224 4.231827,9.48406 9.484057,9.48406 l 34.76363,0 C 123.80192,128 128,123.76818 128,118.51594 l 0,-22.140711 c 0,-4.535787 -3.14843,-8.303093 -7.39149,-9.247799 l 0,-11.542875 c 0,-10.698385 -8.74225,-19.440631 -19.44063,-19.440631 z m 0,6.48021 c 7.19621,0 12.96042,5.7642 12.96042,12.960421 l 0,11.340368 -25.92084,0 0,-11.340368 c 0,-7.196221 5.7642,-12.960421 12.96042,-12.960421 z" style="fill:#b3a91a;fill-opacity:1;stroke:none"  />
</svg>
