<?xml version="1.0" encoding="UTF-8" standalone="no"?>
<svg xmlns:dc="http://purl.org/dc/elements/1.1/"
     xmlns:cc="http://creativecommons.org/ns#"
     xmlns:rdf="http://www.w3.org/1999/02/22-rdf-syntax-ns#"
     xmlns:svg="http://www.w3.org/2000/svg"
     xmlns="http://www.w3.org/2000/svg"
     xmlns:xlink="http://www.w3.org/1999/xlink"
     width="128" height="128" version="1.1">
    <title>Key Bindings Icon</title>
    <desc>This icon is a part of Clarity icon theme for gtk</desc>
    <metadata>
        <rdf:RDF>
            <cc:Work rdf:about="">
                <dc:title>Key Bindings Icon</dc:title>
                <dc:description>This icon is a part of Clarity icon theme for gtk</dc:description>
                <dc:creator>
                    <cc:Agent>
                        <dc:title>Jakub Jankiewicz</dc:title>
                    </cc:Agent>
                </dc:creator>
                <dc:rights>
                    <cc:Agent>
                        <dc:title>Jakub Jankiewicz</dc:title>
                    </cc:Agent>
                </dc:rights>
                <dc:date>2010</dc:date>
                <dc:format>image/svg+xml</dc:format>
                <dc:type rdf:resource="http://purl.org/dc/dcmitype/StillImage" />
                <cc:license rdf:resource="http://www.gnu.org/copyleft/gpl.html" />
             </cc:Work>
        </rdf:RDF>
    </metadata>
    <defs>
        <linearGradient x1="0" y1="128" x2="128" y2="0" id="gradient" gradientUnits="userSpaceOnUse">
            <stop id="start" style="stop-color:#000000;stop-opacity:1" offset="0" />
            <stop id="stop" style="stop-color:#000000;stop-opacity:1" offset="1" />
        </linearGradient>
        <filter id="shadow">
            <feMorphology operator="dilate" in="SourceGraphic" radius="3" />
            <feGaussianBlur stdDeviation="1.5" />
        </filter>
    </defs>
    <path d="m 17.359375,18.3125 c -3.219634,0 -5.875,2.655366 -5.875,5.875 l 0,32.71875 c 0,3.219634 2.655366,5.875 5.875,5.875 l 38.96875,0 c 3.219634,0 5.875,-2.655366 5.875,-5.875 l 0,-32.71875 c 0,-3.219634 -2.655366,-5.875 -5.875,-5.875 l -38.96875,0 z m 57.625,0 c -2.435908,0 -4.40625,1.970342 -4.40625,4.40625 l 0,35.65625 c 0,2.435908 1.970342,4.40625 4.40625,4.40625 l 37.125005,0 c 2.43591,0 4.40625,-1.970342 4.40625,-4.40625 l 0,-35.65625 c 0,-2.435908 -1.97034,-4.40625 -4.40625,-4.40625 l -37.125005,0 z m -57.625,3.65625 38.96875,0 c 1.250034,0 2.21875,0.968716 2.21875,2.21875 l 0,32.71875 c 0,1.250034 -0.968716,2.1875 -2.21875,2.1875 l -38.96875,0 c -1.250034,0 -2.21875,-0.937466 -2.21875,-2.1875 l 0,-32.71875 c 0,-1.250034 0.968716,-2.21875 2.21875,-2.21875 z m -1.5,43.25 c -2.435908,0 -4.375,1.970342 -4.375,4.40625 l 0,35.65625 c 0,2.43591 1.939092,4.40625 4.375,4.40625 l 66.46875,0 c 2.435908,0 4.375,-1.97034 4.375,-4.40625 l 0,-35.65625 c 0,-2.435908 -1.939092,-4.40625 -4.375,-4.40625 l -66.46875,0 z" style="fill:url(#gradient);fill-opacity:1;stroke:none" />
</svg>
