<?xml version="1.0" encoding="UTF-8" standalone="no"?>
<svg xmlns:dc="http://purl.org/dc/elements/1.1/"
     xmlns:cc="http://creativecommons.org/ns#"
     xmlns:rdf="http://www.w3.org/1999/02/22-rdf-syntax-ns#"
     xmlns:svg="http://www.w3.org/2000/svg"
     xmlns="http://www.w3.org/2000/svg"
     xmlns:xlink="http://www.w3.org/1999/xlink"
     width="128" height="128" version="1.1">
    <title>Clarity Icon</title>
    <desc>This icon is a part of Clarity icon theme for gtk</desc>
    <metadata>
        <rdf:RDF>
            <cc:Work rdf:about="">
                <dc:title>Clarity Icon</dc:title>
                <dc:description>This icon is a part of Clarity icon theme for gtk</dc:description>
                <dc:creator>
                    <cc:Agent>
                        <dc:title>Jakub Jankiewicz</dc:title>
                    </cc:Agent>
                </dc:creator>
                <dc:rights>
                    <cc:Agent>
                        <dc:title>Jakub Jankiewicz</dc:title>
                    </cc:Agent>
                </dc:rights>
                <dc:date>2010</dc:date>
                <dc:format>image/svg+xml</dc:format>
                <dc:type rdf:resource="http://purl.org/dc/dcmitype/StillImage" />
                <cc:license rdf:resource="http://www.gnu.org/copyleft/gpl.html" />
             </cc:Work>
        </rdf:RDF>
    </metadata>
    <defs>
        <linearGradient x1="0" y1="128" x2="128" y2="0" id="gradient" gradientUnits="userSpaceOnUse">
            <stop id="start" style="stop-color:#000000;stop-opacity:1" offset="0" />
            <stop id="stop" style="stop-color:#000000;stop-opacity:1" offset="1" />
        </linearGradient>
        <filter id="shadow">
            <feMorphology operator="dilate" in="SourceGraphic" radius="3" />
            <feGaussianBlur stdDeviation="1.5" />
        </filter>
    </defs>
    <path d="M 63.999999,12.996762 C 35.83085,12.996762 12.996761,35.830851 12.996761,64 c 0,28.169149 22.834089,51.00324 51.003238,51.00324 28.169149,0 51.003241,-22.834091 51.003241,-51.00324 0,-28.169149 -22.834092,-51.003238 -51.003241,-51.003238 z m 0,41.050412 c 5.50281,0 9.952826,4.450016 9.952826,9.952826 0,5.50281 -4.450016,9.952826 -9.952826,9.952826 -5.50281,0 -9.952826,-4.450016 -9.952826,-9.952826 0,-5.50281 4.450016,-9.952826 9.952826,-9.952826 z" style="fill:url(#gradient);fill-opacity:1;stroke:none" />
    <path d="m 89.504751,58.488781 0,33.922609 -16.163751,0 L 100.6705,128 128,92.41139 l -16.83724,0 0,-33.922609 -21.658009,0 z" style="fill:#15a100;fill-opacity:1;stroke:none"  />
</svg>
