<?xml version="1.0" encoding="UTF-8" standalone="no"?>
<svg xmlns:dc="http://purl.org/dc/elements/1.1/"
     xmlns:cc="http://creativecommons.org/ns#"
     xmlns:rdf="http://www.w3.org/1999/02/22-rdf-syntax-ns#"
     xmlns:svg="http://www.w3.org/2000/svg"
     xmlns="http://www.w3.org/2000/svg"
     xmlns:xlink="http://www.w3.org/1999/xlink"
     width="128" height="128" version="1.1">
    <title>Clarity Icon</title>
    <desc>This icon is a part of Clarity icon theme for gtk</desc>
    <metadata>
        <rdf:RDF>
            <cc:Work rdf:about="">
                <dc:title>Clarity Icon</dc:title>
                <dc:description>This icon is a part of Clarity icon theme for gtk</dc:description>
                <dc:creator>
                    <cc:Agent>
                        <dc:title>Jakub Jankiewicz</dc:title>
                    </cc:Agent>
                </dc:creator>
                <dc:rights>
                    <cc:Agent>
                        <dc:title>Jakub Jankiewicz</dc:title>
                    </cc:Agent>
                </dc:rights>
                <dc:date>2010</dc:date>
                <dc:format>image/svg+xml</dc:format>
                <dc:type rdf:resource="http://purl.org/dc/dcmitype/StillImage" />
                <cc:license rdf:resource="http://www.gnu.org/copyleft/gpl.html" />
             </cc:Work>
        </rdf:RDF>
    </metadata>
    <defs>
        <linearGradient x1="0" y1="128" x2="128" y2="0" id="gradient" gradientUnits="userSpaceOnUse">
            <stop id="start" style="stop-color:#000000;stop-opacity:1" offset="0" />
            <stop id="stop" style="stop-color:#000000;stop-opacity:1" offset="1" />
        </linearGradient>
        <filter id="shadow">
            <feMorphology operator="dilate" in="SourceGraphic" radius="3" />
            <feGaussianBlur stdDeviation="1.5" />
        </filter>
    </defs>
    <path d="m 70.78125,34.282899 c -5.177197,-0.09187 -10.893715,1.71784 -17.125,7.65625 -17.241692,-5.843738 -23.552541,2.624842 -30.78125,9.875 10.31526,-4.489456 20.685755,-8.534671 32.5625,-2.09375 5.917758,-6.290372 13.119569,-11.805976 30.8125,-11.03125 -4.405866,-1.719946 -9.601261,-4.302127 -15.46875,-4.40625 z m -31.71875,38.8125 c -13.723576,0.08102 -23.70944,7.750361 -33.78125,14.875 19.745267,-5.023617 39.45646,-9.219217 58.8125,5.75 12.40857,-9.522379 27.223584,-14.095521 58.625,-7.5625 C 108.836,78.43037 91.69875,64.614881 64.25,80.376649 54.455754,75.061314 46.25104,73.052962 39.0625,73.095399 z" style="fill:url(#gradient);fill-opacity:1;stroke:none" />
    <path d="m 100.66111,0 c -6.993978,0 -13.981898,2.674683 -19.317247,8.010042 -10.670726,10.670719 -10.670726,27.96376 0,38.634478 10.670707,10.670712 27.982387,10.670712 38.653087,0 10.67073,-10.670718 10.67073,-27.963759 0,-38.634478 C 114.6616,2.674683 107.65507,0 100.66109,0 z m -5.010937,10.841499 10.021857,0 0,11.474849 11.47485,0 0,10.021865 -11.47485,0 0,11.474854 -10.021857,0 0,-11.474854 -11.474857,0 0,-10.021865 11.474857,0 0,-11.474849 z" style="fill:#15a100;fill-opacity:1;stroke:none"  />
</svg>
