<?xml version="1.0" encoding="UTF-8" standalone="no"?>
<svg xmlns:dc="http://purl.org/dc/elements/1.1/"
     xmlns:cc="http://creativecommons.org/ns#"
     xmlns:rdf="http://www.w3.org/1999/02/22-rdf-syntax-ns#"
     xmlns:svg="http://www.w3.org/2000/svg"
     xmlns="http://www.w3.org/2000/svg"
     xmlns:xlink="http://www.w3.org/1999/xlink"
     width="128" height="128" version="1.1">
    <title>Team Viewver</title>
    <desc>This icon is a part of Clarity icon theme for gtk</desc>
    <metadata>
        <rdf:RDF>
            <cc:Work rdf:about="">
                <dc:title>Team Viewver</dc:title>
                <dc:description>This icon is a part of Clarity icon theme for gtk</dc:description>
                <dc:creator>
                    <cc:Agent>
                        <dc:title>Jakub Jankiewicz</dc:title>
                    </cc:Agent>
                </dc:creator>
                <dc:rights>
                    <cc:Agent>
                        <dc:title>Jakub Jankiewicz</dc:title>
                    </cc:Agent>
                </dc:rights>
                <dc:date>2010</dc:date>
                <dc:format>image/svg+xml</dc:format>
                <dc:type rdf:resource="http://purl.org/dc/dcmitype/StillImage" />
                <cc:license rdf:resource="http://www.gnu.org/copyleft/gpl.html" />
             </cc:Work>
        </rdf:RDF>
    </metadata>
    <defs>
        <linearGradient x1="0" y1="128" x2="128" y2="0" id="gradient" gradientUnits="userSpaceOnUse">
            <stop id="start" style="stop-color:#000000;stop-opacity:1" offset="0" />
            <stop id="stop" style="stop-color:#000000;stop-opacity:1" offset="1" />
        </linearGradient>
        <filter id="shadow">
            <feMorphology operator="dilate" in="SourceGraphic" radius="3" />
            <feGaussianBlur stdDeviation="1.5" />
        </filter>
    </defs>
    <path d="M 15.6875 10.6875 C 12.925421 10.6875 10.6875 12.925421 10.6875 15.6875 L 10.6875 112.3125 C 10.6875 115.07458 12.925421 117.3125 15.6875 117.3125 L 112.3125 117.3125 C 115.07458 117.3125 117.3125 115.07458 117.3125 112.3125 L 117.3125 15.6875 C 117.3125 12.925421 115.07458 10.6875 112.3125 10.6875 L 15.6875 10.6875 z M 64 19.71875 C 88.464029 19.71875 108.28125 39.535971 108.28125 64 C 108.28125 88.464029 88.464029 108.28125 64 108.28125 C 39.535971 108.28125 19.71875 88.464029 19.71875 64 C 19.71875 39.535971 39.535971 19.71875 64 19.71875 z M 52.375 50.625 L 25.8125 64 L 52.375 77.375 L 52.375 70.125 L 75.6875 70.125 L 75.6875 77.375 L 102.21875 64 L 75.6875 50.625 L 75.6875 58.0625 L 52.375 58.0625 L 52.375 50.625 z " style="fill:url(#gradient);fill-opacity:1;stroke:none" />
</svg>
