<?xml version="1.0" encoding="UTF-8" standalone="no"?>
<svg xmlns:dc="http://purl.org/dc/elements/1.1/"
     xmlns:cc="http://creativecommons.org/ns#"
     xmlns:rdf="http://www.w3.org/1999/02/22-rdf-syntax-ns#"
     xmlns:svg="http://www.w3.org/2000/svg"
     xmlns="http://www.w3.org/2000/svg"
     xmlns:xlink="http://www.w3.org/1999/xlink"
     width="128" height="128" version="1.1">
    <title>True Type Font File Icon</title>
    <desc>This icon is a part of Clarity icon theme for gtk</desc>
    <metadata>
        <rdf:RDF>
            <cc:Work rdf:about="">
                <dc:title>True Type Font File Icon</dc:title>
                <dc:description>This icon is a part of Clarity icon theme for gtk</dc:description>
                <dc:creator>
                    <cc:Agent>
                        <dc:title>Jakub Jankiewicz</dc:title>
                    </cc:Agent>
                </dc:creator>
                <dc:rights>
                    <cc:Agent>
                        <dc:title>Jakub Jankiewicz</dc:title>
                    </cc:Agent>
                </dc:rights>
                <dc:date>2010</dc:date>
                <dc:format>image/svg+xml</dc:format>
                <dc:type rdf:resource="http://purl.org/dc/dcmitype/StillImage" />
                <cc:license rdf:resource="http://www.gnu.org/copyleft/gpl.html" />
             </cc:Work>
        </rdf:RDF>
    </metadata>
    <defs>
        <linearGradient x1="0" y1="128" x2="128" y2="0" id="gradient" gradientUnits="userSpaceOnUse">
            <stop id="start" style="stop-color:#000000;stop-opacity:1" offset="0" />
            <stop id="stop" style="stop-color:#000000;stop-opacity:1" offset="1" />
        </linearGradient>
        <filter id="shadow">
            <feMorphology operator="dilate" in="SourceGraphic" radius="3" />
            <feGaussianBlur stdDeviation="1.5" />
        </filter>
    </defs>
    <path d="M 29.09375 11.21875 C 25.909946 11.21875 23.375 13.784946 23.375 16.96875 L 23.375 111.03125 C 23.375 114.21505 25.909946 116.78125 29.09375 116.78125 L 98.90625 116.78125 C 102.09005 116.78125 104.625 114.21505 104.625 111.03125 L 104.625 40.34375 L 83.59375 40.34375 C 79.287642 40.34375 75.53125 37.202641 75.53125 33.03125 L 75.53125 11.21875 L 29.09375 11.21875 z M 79.53125 11.21875 L 79.53125 33.03125 C 79.53125 34.745372 81.163218 36.34375 83.59375 36.34375 L 104.625 36.34375 L 79.53125 11.21875 z M 43.0625 47.875 L 84.96875 47.875 L 85.53125 59.9375 L 84.09375 59.9375 C 83.816035 57.81714 83.448321 56.283786 82.96875 55.375 C 82.186179 53.910959 81.125088 52.837854 79.8125 52.15625 C 78.525075 51.449497 76.839114 51.093798 74.71875 51.09375 L 67.46875 51.09375 L 67.46875 90.34375 C 67.468723 93.499114 67.818415 95.467475 68.5 96.25 C 69.4592 97.310202 70.943282 97.843751 72.9375 97.84375 L 74.71875 97.84375 L 74.71875 99.25 L 52.9375 99.25 L 52.9375 97.84375 L 54.75 97.84375 C 56.92087 97.843751 58.466238 97.187631 59.375 95.875 C 59.930323 95.067232 60.21873 93.221443 60.21875 90.34375 L 60.21875 51.09375 L 54.03125 51.09375 C 51.633166 51.093798 49.947205 51.271648 48.9375 51.625 C 47.624863 52.104662 46.49648 53.043181 45.5625 54.40625 C 44.628509 55.769408 44.082946 57.615198 43.90625 59.9375 L 42.46875 59.9375 L 43.0625 47.875 z " style="fill:url(#gradient);fill-opacity:1;stroke:none" />
    <path d="m 99.579205,78.3623 c -13.290324,1.76629 -14.950088,2.733434 -22.020044,6.254603 -1.760027,0.876575 -3.36932,2.960591 -3.239847,4.922557 l 1.38133,25.1402 c 0.364583,3.10215 0.343381,6.24264 4.470486,7.23315 l 15.612348,5.35135 c 3.938424,0.94522 7.108002,1.16227 10.623682,-0.45207 l 15.11928,-6.95688 c 2.09027,-1.25129 4.35635,-3.00515 4.92256,-5.37462 l 1.53202,-23.432379 c 0.21614,-3.285423 -1.42685,-5.057149 -4.24501,-6.781074 -6.64489,-4.064816 -13.63918,-5.822655 -24.156805,-5.904837 z m 19.398375,7.824598 c 0,0 -8.98692,3.977006 -13.17316,6.242643 -1.53341,0.829896 -3.39096,1.755294 -3.69192,3.717033 l -1.1973,23.526546 -1.138403,-24.154423 c -0.08216,-1.743166 -3.5729,-3.277423 -5.223938,-3.842609 -7.741186,-2.649972 -11.994715,-3.824349 -11.994715,-3.824349 9.326599,-4.89851 23.564806,-6.137699 36.419436,-1.664841 z" style="fill:#b3a91a;fill-opacity:1;stroke:none"  />
</svg>
