<?xml version="1.0" encoding="UTF-8" standalone="no"?>
<svg xmlns:dc="http://purl.org/dc/elements/1.1/"
     xmlns:cc="http://creativecommons.org/ns#"
     xmlns:rdf="http://www.w3.org/1999/02/22-rdf-syntax-ns#"
     xmlns:svg="http://www.w3.org/2000/svg"
     xmlns="http://www.w3.org/2000/svg"
     xmlns:xlink="http://www.w3.org/1999/xlink"
     width="128" height="128" version="1.1">
    <title>Renderman File Icon</title>
    <desc>This icon is a part of Clarity icon theme for gtk</desc>
    <metadata>
        <rdf:RDF>
            <cc:Work rdf:about="">
                <dc:title>Renderman File Icon</dc:title>
                <dc:description>This icon is a part of Clarity icon theme for gtk</dc:description>
                <dc:creator>
                    <cc:Agent>
                        <dc:title>Jakub Jankiewicz</dc:title>
                    </cc:Agent>
                </dc:creator>
                <dc:rights>
                    <cc:Agent>
                        <dc:title>Jakub Jankiewicz</dc:title>
                    </cc:Agent>
                </dc:rights>
                <dc:date>2010</dc:date>
                <dc:format>image/svg+xml</dc:format>
                <dc:type rdf:resource="http://purl.org/dc/dcmitype/StillImage" />
                <cc:license rdf:resource="http://www.gnu.org/copyleft/gpl.html" />
             </cc:Work>
        </rdf:RDF>
    </metadata>
    <defs>
        <linearGradient x1="0" y1="128" x2="128" y2="0" id="gradient" gradientUnits="userSpaceOnUse">
            <stop id="start" style="stop-color:#000000;stop-opacity:1" offset="0" />
            <stop id="stop" style="stop-color:#000000;stop-opacity:1" offset="1" />
        </linearGradient>
        <filter id="shadow">
            <feMorphology operator="dilate" in="SourceGraphic" radius="3" />
            <feGaussianBlur stdDeviation="1.5" />
        </filter>
    </defs>
    <path d="M 28.5 11.25 C 25.598125 11.54359 23.375 14.015184 23.375 17 L 23.375 111 C 23.375 114.1838 25.90994 116.75 29.09375 116.75 L 98.90625 116.75 C 102.09005 116.75 104.625 114.1838 104.625 111 L 104.625 40.375 L 83.59375 40.375 C 79.28764 40.375 75.53125 37.233891 75.53125 33.0625 L 75.53125 11.25 L 29.09375 11.25 C 28.894762 11.25 28.693458 11.23043 28.5 11.25 z M 79.53125 11.25 L 79.53125 33.0625 C 79.53125 34.776622 81.16322 36.375 83.59375 36.375 L 104.625 36.375 L 79.53125 11.25 z M 40.4375 46.1875 C 45.61433 52.971625 48.857238 62.696023 51.375 73.46875 C 51.309222 73.205637 53.057835 64.901586 54.78125 59.8125 C 56.617046 54.391563 61.478257 50.316722 67 51.21875 C 72.220006 52.071486 76.84375 57.4375 76.84375 57.4375 C 73.879709 57.576893 71.320053 60.720459 70.84375 63.5625 C 70.84375 63.5625 69.303148 59.98985 64.40625 59.90625 C 59.924097 59.829728 57.984434 66.20623 57.1875 70.75 C 54.994123 83.255682 54.0397 84.641331 54.0625 108.4375 L 49.78125 108.4375 C 49.263259 88.963206 50.331429 69.508491 40.4375 46.1875 z M 79.84375 58.5 C 84.105923 58.5 87.5625 61.956578 87.5625 66.21875 C 87.5625 70.480923 84.105923 73.96875 79.84375 73.96875 C 75.581578 73.96875 72.125 70.480923 72.125 66.21875 C 72.125 61.956578 75.581578 58.5 79.84375 58.5 z " style="fill:url(#gradient);fill-opacity:1;stroke:none" />
    <path d="m 99.579205,78.3623 c -13.290324,1.76629 -14.950088,2.733434 -22.020044,6.254603 -1.760027,0.876575 -3.36932,2.960591 -3.239847,4.922557 l 1.38133,25.1402 c 0.364583,3.10215 0.343381,6.24264 4.470486,7.23315 l 15.612348,5.35135 c 3.938424,0.94522 7.108002,1.16227 10.623682,-0.45207 l 15.11928,-6.95688 c 2.09027,-1.25129 4.35635,-3.00515 4.92256,-5.37462 l 1.53202,-23.432379 c 0.21614,-3.285423 -1.42685,-5.057149 -4.24501,-6.781074 -6.64489,-4.064816 -13.63918,-5.822655 -24.156805,-5.904837 z m 19.398375,7.824598 c 0,0 -8.98692,3.977006 -13.17316,6.242643 -1.53341,0.829896 -3.39096,1.755294 -3.69192,3.717033 l -1.1973,23.526546 -1.138403,-24.154423 c -0.08216,-1.743166 -3.5729,-3.277423 -5.223938,-3.842609 -7.741186,-2.649972 -11.994715,-3.824349 -11.994715,-3.824349 9.326599,-4.89851 23.564806,-6.137699 36.419436,-1.664841 z" style="fill:#b3a91a;fill-opacity:1;stroke:none"  />
</svg>
