<?xml version="1.0" encoding="UTF-8" standalone="no"?>
<svg xmlns:dc="http://purl.org/dc/elements/1.1/"
     xmlns:cc="http://creativecommons.org/ns#"
     xmlns:rdf="http://www.w3.org/1999/02/22-rdf-syntax-ns#"
     xmlns:svg="http://www.w3.org/2000/svg"
     xmlns="http://www.w3.org/2000/svg"
     xmlns:xlink="http://www.w3.org/1999/xlink"
     width="128" height="128" version="1.1">
    <title>Clarity Icon</title>
    <desc>This icon is a part of Clarity icon theme for gtk</desc>
    <metadata>
        <rdf:RDF>
            <cc:Work rdf:about="">
                <dc:title>Clarity Icon</dc:title>
                <dc:description>This icon is a part of Clarity icon theme for gtk</dc:description>
                <dc:creator>
                    <cc:Agent>
                        <dc:title>Jakub Jankiewicz</dc:title>
                    </cc:Agent>
                </dc:creator>
                <dc:rights>
                    <cc:Agent>
                        <dc:title>Jakub Jankiewicz</dc:title>
                    </cc:Agent>
                </dc:rights>
                <dc:date>2010</dc:date>
                <dc:format>image/svg+xml</dc:format>
                <dc:type rdf:resource="http://purl.org/dc/dcmitype/StillImage" />
                <cc:license rdf:resource="http://www.gnu.org/copyleft/gpl.html" />
             </cc:Work>
        </rdf:RDF>
    </metadata>
    <defs>
        <linearGradient x1="0" y1="128" x2="128" y2="0" id="gradient" gradientUnits="userSpaceOnUse">
            <stop id="start" style="stop-color:#000000;stop-opacity:1" offset="0" />
            <stop id="stop" style="stop-color:#000000;stop-opacity:1" offset="1" />
        </linearGradient>
        <filter id="shadow">
            <feMorphology operator="dilate" in="SourceGraphic" radius="3" />
            <feGaussianBlur stdDeviation="1.5" />
        </filter>
    </defs>
    <path d="m 64.044846,13.784007 c -27.7126,0 -50.176831,22.464234 -50.176831,50.176834 0,27.712593 22.464231,50.176839 50.176831,50.176839 27.7126,0 50.176824,-22.464246 50.176824,-50.176839 0,-27.7126 -22.464224,-50.176834 -50.176824,-50.176834 z m 0,7.45141 c 3.169262,0 5.738787,2.646053 5.738787,5.889017 0,3.242964 -2.569525,5.858971 -5.738787,5.858971 -3.169262,0 -5.738787,-2.616007 -5.738787,-5.858971 0,-3.242964 2.569525,-5.889017 5.738787,-5.889017 z m 2.013082,30.106102 c 0.915197,0.02625 1.827788,0.292576 2.674095,0.781196 2.708198,1.563575 3.636749,5.013625 2.073174,7.721823 -0.09249,0.160211 -0.342745,0.543011 -0.510782,0.811243 10.713175,6.591843 23.945994,14.780683 26.680854,16.194797 4.398951,2.274574 7.225681,5.626554 6.279611,7.451409 -0.94608,1.824846 -5.275854,1.433277 -9.67481,-0.841288 -2.825978,-1.461236 -18.081725,-7.919838 -29.805638,-12.919782 -3.98886,5.964204 -8.272392,12.328833 -9.133986,13.821162 -1.563575,2.708192 -4.344624,4.026985 -6.219523,2.944512 -1.87491,-1.082486 -2.134459,-4.142304 -0.570874,-6.850492 0.811415,-1.405423 3.88203,-7.682865 6.880535,-13.791117 -2.107239,-0.918033 -3.843533,-1.686634 -4.416763,-1.983037 -3.383834,-1.749677 -4.696494,-5.904852 -2.944509,-9.284216 1.751976,-3.379363 5.930438,-4.724233 9.314262,-2.974554 0.557875,0.288461 2.111153,1.205542 3.996119,2.343588 0.0924,-0.171671 0.235753,-0.488851 0.30046,-0.60092 1.074955,-1.861891 3.064347,-2.882099 5.077775,-2.824324 z" style="fill:url(#gradient);fill-opacity:1;stroke:none" />
    <path d="m 101.65963,66.705066 c -4.615313,0 -8.354466,3.760796 -8.354466,8.376108 0,1.57242 0.435235,3.029298 1.190404,4.285452 -3.855003,2.174348 -9.085508,7.112766 -9.306788,12.423478 -0.253235,6.077645 4e-5,14.185196 -2.532312,18.743436 -2.532352,4.55824 -8.354465,4.04737 -8.354465,4.04737 l 0,8.09474 21.557117,0 c 0.190107,2.97488 2.647776,5.32435 5.67064,5.32435 3.02288,0 5.48055,-2.34947 5.67066,-5.32435 l 20.79958,0 0,-8.09474 c 0,0 -5.84375,0.51087 -8.37611,-4.04737 -2.53235,-4.55824 -2.27908,-12.665791 -2.5323,-18.743436 -0.20733,-4.975515 -4.81858,-9.614398 -8.57091,-11.968961 0.93834,-1.35099 1.49342,-2.97046 1.49342,-4.739969 0,-4.615312 -3.73916,-8.376108 -8.35447,-8.376108 z m -0.38959,6.839407 c 1.32865,0 2.40245,0.975576 2.40245,2.164369 0,1.188793 -1.0738,2.142725 -2.40245,2.142725 -1.32865,0 -2.402447,-0.953932 -2.402447,-2.142725 0,-1.188793 1.073797,-2.164369 2.402447,-2.164369 z" style="fill:#b3a91a;fill-opacity:1;stroke:none"  />
</svg>
