<?xml version="1.0" encoding="UTF-8" standalone="no"?>
<svg xmlns:dc="http://purl.org/dc/elements/1.1/"
     xmlns:cc="http://creativecommons.org/ns#"
     xmlns:rdf="http://www.w3.org/1999/02/22-rdf-syntax-ns#"
     xmlns:svg="http://www.w3.org/2000/svg"
     xmlns="http://www.w3.org/2000/svg"
     xmlns:xlink="http://www.w3.org/1999/xlink"
     width="128" height="128" version="1.1">
    <title>DropBox Icon</title>
    <desc>This icon is a part of Clarity icon theme for gtk</desc>
    <metadata>
        <rdf:RDF>
            <cc:Work rdf:about="">
                <dc:title>DropBox Icon</dc:title>
                <dc:description>This icon is a part of Clarity icon theme for gtk</dc:description>
                <dc:creator>
                    <cc:Agent>
                        <dc:title>Jakub Jankiewicz</dc:title>
                    </cc:Agent>
                </dc:creator>
                <dc:rights>
                    <cc:Agent>
                        <dc:title>Jakub Jankiewicz</dc:title>
                    </cc:Agent>
                </dc:rights>
                <dc:date>2010</dc:date>
                <dc:format>image/svg+xml</dc:format>
                <dc:type rdf:resource="http://purl.org/dc/dcmitype/StillImage" />
                <cc:license rdf:resource="http://www.gnu.org/copyleft/gpl.html" />
             </cc:Work>
        </rdf:RDF>
    </metadata>
    <defs>
        <linearGradient x1="0" y1="128" x2="128" y2="0" id="gradient" gradientUnits="userSpaceOnUse">
            <stop id="start" style="stop-color:#000000;stop-opacity:1" offset="0" />
            <stop id="stop" style="stop-color:#000000;stop-opacity:1" offset="1" />
        </linearGradient>
        <filter id="shadow">
            <feMorphology operator="dilate" in="SourceGraphic" radius="3" />
            <feGaussianBlur stdDeviation="1.5" />
        </filter>
    </defs>
    <path d="m 86.015626,11.015623 -21.21875,19.257172 32.25,20.867828 24.124994,-18.625 z m -45.625,1.5625 -33.3124977,21 22.0312477,17.4375 30.9375,-20.469262 z m -11.28125,39.625 -22.2812477,18.875 35.1249977,23.0625 19.15625,-20.844262 z m 67.95082,0.762295 -30.45082,20.456455 20.21875,20.46875 33.312494,-22.28125 z M 65.296876,79.323 l 0,36.88013 32.28125,-16.531257 0,-7.09375 -10.5,7.875007 z m -4.1875,0.8125 -18.625,21.38013 -13.625,-9.968757 0,8.906257 32.25,16.53125 z" style="fill:url(#gradient);fill-opacity:1;stroke:none" />
    <path d="m 100.67051,73.34098 c -15.091902,0 -27.329512,12.2376 -27.329512,27.32951 0,15.0919 12.23761,27.32951 27.329512,27.32951 C 115.7624,128 128,115.76239 128,100.67049 128,85.57858 115.7624,73.34098 100.67051,73.34098 z m 13.78584,11.68071 5.79378,4.50834 -20.846422,26.78925 -0.14904,-0.11175 -5.64474,-4.39656 -12.50041,-9.70598 4.50833,-5.79378 12.50042,9.70598 16.338082,-20.99547 z" style="fill:#15a100;fill-opacity:1;stroke:none"  />
</svg>
