<?xml version="1.0" encoding="UTF-8" standalone="no"?>
<svg xmlns:dc="http://purl.org/dc/elements/1.1/"
     xmlns:cc="http://creativecommons.org/ns#"
     xmlns:rdf="http://www.w3.org/1999/02/22-rdf-syntax-ns#"
     xmlns:svg="http://www.w3.org/2000/svg"
     xmlns="http://www.w3.org/2000/svg"
     xmlns:xlink="http://www.w3.org/1999/xlink"
     width="128" height="128" version="1.1">
    <title>Clarity Icon</title>
    <desc>This icon is a part of Clarity icon theme for gtk</desc>
    <metadata>
        <rdf:RDF>
            <cc:Work rdf:about="">
                <dc:title>Clarity Icon</dc:title>
                <dc:description>This icon is a part of Clarity icon theme for gtk</dc:description>
                <dc:creator>
                    <cc:Agent>
                        <dc:title>Jakub Jankiewicz</dc:title>
                    </cc:Agent>
                </dc:creator>
                <dc:rights>
                    <cc:Agent>
                        <dc:title>Jakub Jankiewicz</dc:title>
                    </cc:Agent>
                </dc:rights>
                <dc:date>2010</dc:date>
                <dc:format>image/svg+xml</dc:format>
                <dc:type rdf:resource="http://purl.org/dc/dcmitype/StillImage" />
                <cc:license rdf:resource="http://www.gnu.org/copyleft/gpl.html" />
             </cc:Work>
        </rdf:RDF>
    </metadata>
    <defs>
        <linearGradient x1="0" y1="128" x2="128" y2="0" id="gradient" gradientUnits="userSpaceOnUse">
            <stop id="start" style="stop-color:#000000;stop-opacity:1" offset="0" />
            <stop id="stop" style="stop-color:#000000;stop-opacity:1" offset="1" />
        </linearGradient>
        <filter id="shadow">
            <feMorphology operator="dilate" in="SourceGraphic" radius="3" />
            <feGaussianBlur stdDeviation="1.5" />
        </filter>
    </defs>
    <path d="m 38.857799,13.084687 0,30.931138 c 0,1.695274 1.305754,3.001038 3.001035,3.001038 l 44.282336,0 c 1.695281,0 3.001035,-1.305764 3.001035,-3.001038 l 0,-30.931138 -50.284406,0 z M 27.893786,42.395948 c -2.222349,0 -4.007077,1.603422 -4.007077,3.597833 l 0,11.833634 -5.149509,0 c -4.273733,0 -7.707201,3.433467 -7.707201,7.707208 l 0,27.776638 c 0,4.273741 3.433468,7.707209 7.707201,7.707209 l 16.23289,0 0,-7.945919 c 0,-4.560078 3.726884,-8.286961 8.286948,-8.286961 l 41.485928,0 c 4.560065,0 8.286948,3.726882 8.286948,8.286961 l 0,7.945919 16.232886,0 c 4.27374,0 7.7072,-3.433468 7.7072,-7.707209 l 0,-27.776638 c 0,-4.273741 -3.43346,-7.707208 -7.7072,-7.707208 l -5.1495,0 0,-11.833634 c 0,-1.99441 -1.78473,-3.597833 -4.00708,-3.597833 l -7.417329,0 0,1.619877 c 0,3.60034 -2.947383,6.564769 -6.547721,6.564769 l -44.282336,0 c -3.600338,0 -6.54772,-2.964429 -6.54772,-6.564769 l 0,-1.619877 -7.417328,0 z m -9.412351,22.115594 3.597842,0 c 0.997206,0 1.807432,0.793184 1.807432,1.790391 l 0,3.614885 c 0,0.997206 -0.810226,1.790391 -1.807432,1.790391 l -3.597842,0 c -0.997206,0 -1.79039,-0.793185 -1.79039,-1.790391 l 0,-3.614885 c 0,-0.997207 0.793184,-1.790391 1.79039,-1.790391 z m 24.775603,24.093551 c -2.510129,0 -4.467443,1.957314 -4.467443,4.467456 l 0,21.842771 50.420815,0 0,-21.842771 c 0,-2.510142 -1.957314,-4.467456 -4.467444,-4.467456 l -41.485928,0 z" style="fill:url(#gradient);fill-opacity:1;stroke:none" />
    <path d="M 100.67049,73.341002 C 85.5786,73.341002 73.340997,85.5786 73.340997,100.6705 73.340997,115.7624 85.5786,128 100.67049,128 115.76239,128 128,115.7624 128,100.6705 128,85.5786 115.76239,73.341002 100.67049,73.341002 z m -13.33873,9.147091 13.33873,13.338732 13.33874,-13.338732 4.84367,4.843673 -13.33874,13.338734 13.33874,13.33874 -4.84367,4.84367 -13.33874,-13.33874 -13.33873,13.33874 -4.84367,-4.84367 L 95.826824,100.6705 82.48809,87.331766 87.33176,82.488093 z" style="fill:#bf0000;fill-opacity:1;stroke:none"  />
</svg>
