<?xml version="1.0" encoding="UTF-8" standalone="no"?>
<svg xmlns:dc="http://purl.org/dc/elements/1.1/"
     xmlns:cc="http://creativecommons.org/ns#"
     xmlns:rdf="http://www.w3.org/1999/02/22-rdf-syntax-ns#"
     xmlns:svg="http://www.w3.org/2000/svg"
     xmlns="http://www.w3.org/2000/svg"
     xmlns:xlink="http://www.w3.org/1999/xlink"
     width="128" height="128" version="1.1">
    <title>Clarity Icon</title>
    <desc>This icon is a part of Clarity icon theme for gtk</desc>
    <metadata>
        <rdf:RDF>
            <cc:Work rdf:about="">
                <dc:title>Clarity Icon</dc:title>
                <dc:description>This icon is a part of Clarity icon theme for gtk</dc:description>
                <dc:creator>
                    <cc:Agent>
                        <dc:title>Jakub Jankiewicz</dc:title>
                    </cc:Agent>
                </dc:creator>
                <dc:rights>
                    <cc:Agent>
                        <dc:title>Jakub Jankiewicz</dc:title>
                    </cc:Agent>
                </dc:rights>
                <dc:date>2010</dc:date>
                <dc:format>image/svg+xml</dc:format>
                <dc:type rdf:resource="http://purl.org/dc/dcmitype/StillImage" />
                <cc:license rdf:resource="http://www.gnu.org/copyleft/gpl.html" />
             </cc:Work>
        </rdf:RDF>
    </metadata>
    <defs>
        <linearGradient x1="0" y1="128" x2="128" y2="0" id="gradient" gradientUnits="userSpaceOnUse">
            <stop id="start" style="stop-color:#000000;stop-opacity:1" offset="0" />
            <stop id="stop" style="stop-color:#000000;stop-opacity:1" offset="1" />
        </linearGradient>
        <filter id="shadow">
            <feMorphology operator="dilate" in="SourceGraphic" radius="3" />
            <feGaussianBlur stdDeviation="1.5" />
        </filter>
    </defs>
    <path d="m 46.30677,40.263704 c -13.071528,0 -23.65867,10.614301 -23.65867,23.685834 0,0.343533 0.01269,0.665053 0.02713,1.005019 -3.327378,1.210585 -5.704157,4.402921 -5.704157,8.148796 0,4.786759 3.878131,8.664886 8.664886,8.664886 1.461333,0 2.839467,-0.339167 4.047235,-0.977855 4.274176,4.219274 10.143152,6.817827 16.623543,6.817827 l 50.848487,0 c 7.640406,0 13.825796,-6.185388 13.825796,-13.825791 0,-7.640405 -6.18539,-13.852954 -13.825796,-13.852954 -2.387626,0 -4.64031,0.619234 -6.600523,1.684084 -1.590541,-6.870021 -7.721669,-12.005893 -15.075273,-12.005893 -3.188539,0 -6.146557,0.956988 -8.610562,2.607615 C 62.792737,45.079028 55.113503,40.263704 46.306727,40.263704 z" style="fill:url(#gradient);fill-opacity:1;stroke:none" />
    <path d="m 99.641369,0 c -13.99156,0 -25.339808,11.348248 -25.339808,25.339808 0,8.136482 3.838302,15.374822 9.803548,20.003512 l -5.351548,5.19908 17.564055,0.15247 0.365918,-17.56406 -5.549754,5.38204 c -4.319728,-2.79367 -7.181137,-7.64389 -7.181137,-13.173042 0,-8.666414 7.022309,-15.688726 15.688726,-15.688726 0.380351,0 0.754681,0.01914 1.128251,0.04574 l 0,-9.666329 C 100.39735,0.014253 100.01763,3e-6 99.641369,3e-6 z m 6.342571,3.96411 -0.36591,17.564055 5.54975,-5.382042 c 4.31973,2.793674 7.18114,7.64389 7.18114,13.173047 0,8.66641 -7.02231,15.68872 -15.68873,15.68872 -0.38035,0 -0.75468,-0.0191 -1.12825,-0.0457 l 0,9.66633 c 0.37227,0.01618 0.75199,0.03048 1.12825,0.03048 C 116.65175,54.659 128,43.31075 128,29.31919 128,21.182711 124.1617,13.944373 118.19645,9.315687 L 123.548,4.1166 105.98394,3.964134 z" style="fill:#15a100;fill-opacity:1;stroke:none"  />
</svg>
