<?xml version="1.0" encoding="UTF-8" standalone="no"?>
<svg xmlns:dc="http://purl.org/dc/elements/1.1/"
     xmlns:cc="http://creativecommons.org/ns#"
     xmlns:rdf="http://www.w3.org/1999/02/22-rdf-syntax-ns#"
     xmlns:svg="http://www.w3.org/2000/svg"
     xmlns="http://www.w3.org/2000/svg"
     xmlns:xlink="http://www.w3.org/1999/xlink"
     width="128" height="128" version="1.1">
    <title>Clarity Icon</title>
    <desc>This icon is a part of Clarity icon theme for gtk</desc>
    <metadata>
        <rdf:RDF>
            <cc:Work rdf:about="">
                <dc:title>Clarity Icon</dc:title>
                <dc:description>This icon is a part of Clarity icon theme for gtk</dc:description>
                <dc:creator>
                    <cc:Agent>
                        <dc:title>Jakub Jankiewicz</dc:title>
                    </cc:Agent>
                </dc:creator>
                <dc:rights>
                    <cc:Agent>
                        <dc:title>Jakub Jankiewicz</dc:title>
                    </cc:Agent>
                </dc:rights>
                <dc:date>2010</dc:date>
                <dc:format>image/svg+xml</dc:format>
                <dc:type rdf:resource="http://purl.org/dc/dcmitype/StillImage" />
                <cc:license rdf:resource="http://www.gnu.org/copyleft/gpl.html" />
             </cc:Work>
        </rdf:RDF>
    </metadata>
    <defs>
        <linearGradient x1="0" y1="128" x2="128" y2="0" id="gradient" gradientUnits="userSpaceOnUse">
            <stop id="start" style="stop-color:#000000;stop-opacity:1" offset="0" />
            <stop id="stop" style="stop-color:#000000;stop-opacity:1" offset="1" />
        </linearGradient>
        <filter id="shadow">
            <feMorphology operator="dilate" in="SourceGraphic" radius="3" />
            <feGaussianBlur stdDeviation="1.5" />
        </filter>
    </defs>
    <path d="m 63.984375,17.28125 c -9.777972,0 -17.65625,10.030076 -17.65625,22.375 0,12.344926 7.878278,22.375 17.65625,22.375 9.777938,0 17.71875,-10.030074 17.71875,-22.375 0,-12.344924 -7.940812,-22.375 -17.71875,-22.375 z m 17.8125,52.03125 c -1.324023,0.02172 -2.642719,1.178527 -4,3.4375 -3.082281,5.129959 -8.427524,7.8125 -13.8125,7.8125 -5.25774,0 -10.039178,-2.805187 -13.53125,-7.4375 -2.932064,-3.889448 -6.203876,-3.624501 -8.40625,-0.03125 -5.796914,9.457889 -9.25527,22.747137 -10.0625,37.625 l 64.03125,0 C 95.155177,95.7478 91.500229,82.425102 85.859375,72.8125 c -1.414005,-2.409613 -2.738477,-3.521722 -4.0625,-3.5 z" style="fill:url(#gradient);fill-opacity:1;stroke:none" />
    <path d="M 100.67051,0 C 85.578605,0 73.341002,12.237601 73.341002,27.329504 c 0,15.0919 12.237603,27.32951 27.329508,27.32951 C 115.7624,54.659014 128,42.421404 128,27.329504 128,12.237601 115.7624,0 100.67051,0 z m 13.78584,11.680708 5.79378,4.508344 -20.846423,26.789242 -0.149038,-0.111744 -5.644746,-4.396567 -12.500409,-9.705979 4.508338,-5.79378 12.500414,9.705979 16.338084,-20.995468 z" style="fill:#15a100;fill-opacity:1;stroke:none"  />
</svg>
