<?xml version="1.0" encoding="UTF-8" standalone="no"?>
<svg xmlns:dc="http://purl.org/dc/elements/1.1/"
     xmlns:cc="http://creativecommons.org/ns#"
     xmlns:rdf="http://www.w3.org/1999/02/22-rdf-syntax-ns#"
     xmlns:svg="http://www.w3.org/2000/svg"
     xmlns="http://www.w3.org/2000/svg"
     xmlns:xlink="http://www.w3.org/1999/xlink"
     width="128" height="128" version="1.1">
    <title>Clarity Icon</title>
    <desc>This icon is a part of Clarity icon theme for gtk</desc>
    <metadata>
        <rdf:RDF>
            <cc:Work rdf:about="">
                <dc:title>Clarity Icon</dc:title>
                <dc:description>This icon is a part of Clarity icon theme for gtk</dc:description>
                <dc:creator>
                    <cc:Agent>
                        <dc:title>Jakub Jankiewicz</dc:title>
                    </cc:Agent>
                </dc:creator>
                <dc:rights>
                    <cc:Agent>
                        <dc:title>Jakub Jankiewicz</dc:title>
                    </cc:Agent>
                </dc:rights>
                <dc:date>2010</dc:date>
                <dc:format>image/svg+xml</dc:format>
                <dc:type rdf:resource="http://purl.org/dc/dcmitype/StillImage" />
                <cc:license rdf:resource="http://www.gnu.org/copyleft/gpl.html" />
             </cc:Work>
        </rdf:RDF>
    </metadata>
    <defs>
        <linearGradient x1="0" y1="128" x2="128" y2="0" id="gradient" gradientUnits="userSpaceOnUse">
            <stop id="start" style="stop-color:#000000;stop-opacity:1" offset="0" />
            <stop id="stop" style="stop-color:#000000;stop-opacity:1" offset="1" />
        </linearGradient>
        <filter id="shadow">
            <feMorphology operator="dilate" in="SourceGraphic" radius="3" />
            <feGaussianBlur stdDeviation="1.5" />
        </filter>
    </defs>
    <path d="m 64.000002,13.000002 c -28.169149,0 -51.000004,22.830851 -51.000004,51 C 12.999998,92.169151 35.830853,115 64.000002,115 92.169151,115 115,92.169151 115,64.000002 c 0,-28.169149 -22.830849,-51 -50.999998,-51 z m 0,41.0625 c 5.50281,0 9.9375,4.43469 9.9375,9.9375 0,5.50281 -4.43469,9.96875 -9.9375,9.96875 -5.50281,0 -9.96875,-4.46594 -9.96875,-9.96875 0,-5.50281 4.46594,-9.9375 9.96875,-9.9375 z m -1.84375,21.46875 13.125,9.59375 0,1.875 0,5.0625 0,13.937498 c 0,1.79103 -2.669077,3.25 -5.96875,3.25 -3.299676,0 -5.96875,-1.45897 -5.96875,-3.25 0,-1.79102 2.669074,-3.21875 5.96875,-3.21875 1.305103,0 2.51723,0.23958 3.5,0.625 l 0,-13.156248 -8.1875,-5.96875 0,13.71875 c 0,1.791022 -2.669076,3.218748 -5.96875,3.218748 -3.299675,0 -5.96875,-1.427726 -5.96875,-3.218748 0,-1.791023 2.669075,-3.25 5.96875,-3.25 1.305105,0 2.517227,0.239581 3.5,0.625 l 0,-12.90625 0,-6.9375 z" style="fill:url(#gradient);fill-opacity:1;stroke:none" />
    <path d="m 100.66111,0 c -6.993978,0 -13.981898,2.674683 -19.317247,8.010042 -10.670726,10.670719 -10.670726,27.96376 0,38.634478 10.670707,10.670712 27.982387,10.670712 38.653087,0 10.67073,-10.670718 10.67073,-27.963759 0,-38.634478 C 114.6616,2.674683 107.65507,0 100.66109,0 z m -5.010937,10.841499 10.021857,0 0,11.474849 11.47485,0 0,10.021865 -11.47485,0 0,11.474854 -10.021857,0 0,-11.474854 -11.474857,0 0,-10.021865 11.474857,0 0,-11.474849 z" style="fill:#15a100;fill-opacity:1;stroke:none"  />
</svg>
