<?xml version="1.0" encoding="UTF-8" standalone="no"?>
<svg xmlns:dc="http://purl.org/dc/elements/1.1/"
     xmlns:cc="http://creativecommons.org/ns#"
     xmlns:rdf="http://www.w3.org/1999/02/22-rdf-syntax-ns#"
     xmlns:svg="http://www.w3.org/2000/svg"
     xmlns="http://www.w3.org/2000/svg"
     xmlns:xlink="http://www.w3.org/1999/xlink"
     width="128" height="128" version="1.1">
    <title>Star Icon</title>
    <desc>This icon is a part of Clarity icon theme for gtk</desc>
    <metadata>
        <rdf:RDF>
            <cc:Work rdf:about="">
                <dc:title>Star Icon</dc:title>
                <dc:description>This icon is a part of Clarity icon theme for gtk</dc:description>
                <dc:creator>
                    <cc:Agent>
                        <dc:title>Jakub Jankiewicz</dc:title>
                    </cc:Agent>
                </dc:creator>
                <dc:rights>
                    <cc:Agent>
                        <dc:title>Jakub Jankiewicz</dc:title>
                    </cc:Agent>
                </dc:rights>
                <dc:date>2010</dc:date>
                <dc:format>image/svg+xml</dc:format>
                <dc:type rdf:resource="http://purl.org/dc/dcmitype/StillImage" />
                <cc:license rdf:resource="http://www.gnu.org/copyleft/gpl.html" />
             </cc:Work>
        </rdf:RDF>
    </metadata>
    <defs>
        <linearGradient x1="0" y1="128" x2="128" y2="0" id="gradient" gradientUnits="userSpaceOnUse">
            <stop id="start" style="stop-color:#000000;stop-opacity:1" offset="0" />
            <stop id="stop" style="stop-color:#000000;stop-opacity:1" offset="1" />
        </linearGradient>
        <filter id="shadow">
            <feMorphology operator="dilate" in="SourceGraphic" radius="3" />
            <feGaussianBlur stdDeviation="1.5" />
        </filter>
    </defs>
    <path d="M 104.0574,55.231787 87.077045,75.662981 88.373642,102.19758 63.695203,92.361889 38.859965,101.79467 40.588212,75.284682 23.942598,54.57986 49.689147,48.031481 64.236825,25.802419 78.420826,48.265282 z" style="fill:url(#gradient);fill-opacity:1;stroke:none" />
    <path d="M 100.67049,73.341002 C 85.5786,73.341002 73.340997,85.5786 73.340997,100.6705 73.340997,115.7624 85.5786,128 100.67049,128 115.76239,128 128,115.7624 128,100.6705 128,85.5786 115.76239,73.341002 100.67049,73.341002 z m -13.33873,9.147091 13.33873,13.338732 13.33874,-13.338732 4.84367,4.843673 -13.33874,13.338734 13.33874,13.33874 -4.84367,4.84367 -13.33874,-13.33874 -13.33873,13.33874 -4.84367,-4.84367 L 95.826824,100.6705 82.48809,87.331766 87.33176,82.488093 z" style="fill:#bf0000;fill-opacity:1;stroke:none"  />
</svg>
