<?xml version="1.0" encoding="UTF-8" standalone="no"?>
<svg xmlns:dc="http://purl.org/dc/elements/1.1/"
     xmlns:cc="http://creativecommons.org/ns#"
     xmlns:rdf="http://www.w3.org/1999/02/22-rdf-syntax-ns#"
     xmlns:svg="http://www.w3.org/2000/svg"
     xmlns="http://www.w3.org/2000/svg"
     xmlns:xlink="http://www.w3.org/1999/xlink"
     width="128" height="128" version="1.1">
    <title>Star Icon</title>
    <desc>This icon is a part of Clarity icon theme for gtk</desc>
    <metadata>
        <rdf:RDF>
            <cc:Work rdf:about="">
                <dc:title>Star Icon</dc:title>
                <dc:description>This icon is a part of Clarity icon theme for gtk</dc:description>
                <dc:creator>
                    <cc:Agent>
                        <dc:title>Jakub Jankiewicz</dc:title>
                    </cc:Agent>
                </dc:creator>
                <dc:rights>
                    <cc:Agent>
                        <dc:title>Jakub Jankiewicz</dc:title>
                    </cc:Agent>
                </dc:rights>
                <dc:date>2010</dc:date>
                <dc:format>image/svg+xml</dc:format>
                <dc:type rdf:resource="http://purl.org/dc/dcmitype/StillImage" />
                <cc:license rdf:resource="http://www.gnu.org/copyleft/gpl.html" />
             </cc:Work>
        </rdf:RDF>
    </metadata>
    <defs>
        <linearGradient x1="0" y1="128" x2="128" y2="0" id="gradient" gradientUnits="userSpaceOnUse">
            <stop id="start" style="stop-color:#000000;stop-opacity:1" offset="0" />
            <stop id="stop" style="stop-color:#000000;stop-opacity:1" offset="1" />
        </linearGradient>
        <filter id="shadow">
            <feMorphology operator="dilate" in="SourceGraphic" radius="3" />
            <feGaussianBlur stdDeviation="1.5" />
        </filter>
    </defs>
    <path d="M 104.0574,55.231787 87.077045,75.662981 88.373642,102.19758 63.695203,92.361889 38.859965,101.79467 40.588212,75.284682 23.942598,54.57986 49.689147,48.031481 64.236825,25.802419 78.420826,48.265282 z" style="fill:url(#gradient);fill-opacity:1;stroke:none" />
    <path d="m 100.66111,73.352446 c -6.993976,0 -13.981896,2.674683 -19.317245,8.010042 -10.670726,10.670719 -10.670726,27.963762 0,38.634482 10.670707,10.67071 27.982385,10.67071 38.653085,0 10.67073,-10.67072 10.67073,-27.963763 0,-38.634482 -5.33535,-5.335359 -12.34188,-8.010042 -19.33586,-8.010042 z m -5.010935,10.841499 10.021855,0 0,11.474849 11.47485,0 0,10.021866 -11.47485,0 0,11.47485 -10.021855,0 0,-11.47485 -11.474857,0 0,-10.021866 11.474857,0 0,-11.474849 z" style="fill:#15a100;fill-opacity:1;stroke:none"  />
</svg>
