<?xml version="1.0" encoding="UTF-8" standalone="no"?>
<svg xmlns:dc="http://purl.org/dc/elements/1.1/"
     xmlns:cc="http://creativecommons.org/ns#"
     xmlns:rdf="http://www.w3.org/1999/02/22-rdf-syntax-ns#"
     xmlns:svg="http://www.w3.org/2000/svg"
     xmlns="http://www.w3.org/2000/svg"
     xmlns:xlink="http://www.w3.org/1999/xlink"
     width="128" height="128" version="1.1">
    <title>Clarity Icon</title>
    <desc>This icon is a part of Clarity icon theme for gtk</desc>
    <metadata>
        <rdf:RDF>
            <cc:Work rdf:about="">
                <dc:title>Clarity Icon</dc:title>
                <dc:description>This icon is a part of Clarity icon theme for gtk</dc:description>
                <dc:creator>
                    <cc:Agent>
                        <dc:title>Jakub Jankiewicz</dc:title>
                    </cc:Agent>
                </dc:creator>
                <dc:rights>
                    <cc:Agent>
                        <dc:title>Jakub Jankiewicz</dc:title>
                    </cc:Agent>
                </dc:rights>
                <dc:date>2010</dc:date>
                <dc:format>image/svg+xml</dc:format>
                <dc:type rdf:resource="http://purl.org/dc/dcmitype/StillImage" />
                <cc:license rdf:resource="http://www.gnu.org/copyleft/gpl.html" />
             </cc:Work>
        </rdf:RDF>
    </metadata>
    <defs>
        <linearGradient x1="0" y1="128" x2="128" y2="0" id="gradient" gradientUnits="userSpaceOnUse">
            <stop id="start" style="stop-color:#000000;stop-opacity:1" offset="0" />
            <stop id="stop" style="stop-color:#000000;stop-opacity:1" offset="1" />
        </linearGradient>
        <filter id="shadow">
            <feMorphology operator="dilate" in="SourceGraphic" radius="3" />
            <feGaussianBlur stdDeviation="1.5" />
        </filter>
    </defs>
    <path d="m 15.15625,24.171702 c -4.09346,0 -7.40625,3.312788 -7.40625,7.40625 l 0,13.125 0,11.21875 0,40.515798 c 0,4.09346 3.31279,7.37501 7.40625,7.37501 l 97.6875,0 c 4.09346,0 7.40625,-3.28155 7.40625,-7.37501 l 0,-51.734548 c 0,-4.093462 -3.31287,-7.34985 -7.40625,-7.375 l -59.42358,0 0,-5.75 c 0,-4.093462 -3.28154,-7.40625 -7.375,-7.40625 z" style="fill:url(#gradient);fill-opacity:1;stroke:none" />
    <path d="m 100.66111,0 c -6.993978,0 -13.981898,2.674683 -19.317247,8.010042 -10.670726,10.670719 -10.670726,27.96376 0,38.634478 10.670707,10.670712 27.982387,10.670712 38.653087,0 10.67073,-10.670718 10.67073,-27.963759 0,-38.634478 C 114.6616,2.674683 107.65507,0 100.66109,0 z m -5.010937,10.841499 10.021857,0 0,11.474849 11.47485,0 0,10.021865 -11.47485,0 0,11.474854 -10.021857,0 0,-11.474854 -11.474857,0 0,-10.021865 11.474857,0 0,-11.474849 z" style="fill:#15a100;fill-opacity:1;stroke:none"  />
</svg>
