<?xml version="1.0" encoding="UTF-8" standalone="no"?>
<svg xmlns:dc="http://purl.org/dc/elements/1.1/"
     xmlns:cc="http://creativecommons.org/ns#"
     xmlns:rdf="http://www.w3.org/1999/02/22-rdf-syntax-ns#"
     xmlns:svg="http://www.w3.org/2000/svg"
     xmlns="http://www.w3.org/2000/svg"
     xmlns:xlink="http://www.w3.org/1999/xlink"
     width="128" height="128" version="1.1">
    <title>Decrease Indent Icon</title>
    <desc>This icon is a part of Clarity icon theme for gtk</desc>
    <metadata>
        <rdf:RDF>
            <cc:Work rdf:about="">
                <dc:title>Decrease Indent Icon</dc:title>
                <dc:description>This icon is a part of Clarity icon theme for gtk</dc:description>
                <dc:creator>
                    <cc:Agent>
                        <dc:title>Jakub Jankiewicz</dc:title>
                    </cc:Agent>
                </dc:creator>
                <dc:rights>
                    <cc:Agent>
                        <dc:title>Jakub Jankiewicz</dc:title>
                    </cc:Agent>
                </dc:rights>
                <dc:date>2010</dc:date>
                <dc:format>image/svg+xml</dc:format>
                <dc:type rdf:resource="http://purl.org/dc/dcmitype/StillImage" />
                <cc:license rdf:resource="http://www.gnu.org/copyleft/gpl.html" />
             </cc:Work>
        </rdf:RDF>
    </metadata>
    <defs>
        <linearGradient x1="0" y1="128" x2="128" y2="0" id="gradient" gradientUnits="userSpaceOnUse">
            <stop id="start" style="stop-color:#000000;stop-opacity:1" offset="0" />
            <stop id="stop" style="stop-color:#000000;stop-opacity:1" offset="1" />
        </linearGradient>
        <filter id="shadow">
            <feMorphology operator="dilate" in="SourceGraphic" radius="3" />
            <feGaussianBlur stdDeviation="1.5" />
        </filter>
    </defs>
    <path d="m 100.98438,12.046875 c 8.20535,0 14.96875,6.7634 14.96875,14.96875 l 0,73.968755 c 0,8.20534 -6.7634,14.96875 -14.96875,14.96875 l -73.968755,0 c -8.20534,0 -14.96875,-6.76341 -14.96875,-14.96875 l 0,-73.968755 c 0,-8.205352 6.76341,-14.96875 14.96875,-14.96875 l 73.968755,0 z m 0,10 -73.968755,0 c -2.83833,0 -4.96875,2.13043 -4.96875,4.96875 l 0,73.968755 c 0,2.83831 2.13042,4.96875 4.96875,4.96875 l 73.968755,0 c 2.83832,0 4.96875,-2.13044 4.96875,-4.96875 l 0,-73.968755 c 0,-2.838322 -2.13043,-4.96875 -4.96875,-4.96875 z m -29.5,6.9375 0,11.53125 -42.5,0 0,-11.53125 42.5,0 z m 23.21875,18.4375 0,48.375 -26.25,-24.1875 26.25,-24.1875 z m -22.0625,0.03125 0,11.53125 -42.46875,0 0,-11.53125 42.46875,0 z" style="fill:url(#gradient);fill-opacity:1;stroke:none" />
</svg>
