<?xml version="1.0" encoding="UTF-8" standalone="no"?>
<svg xmlns:dc="http://purl.org/dc/elements/1.1/"
     xmlns:cc="http://creativecommons.org/ns#"
     xmlns:rdf="http://www.w3.org/1999/02/22-rdf-syntax-ns#"
     xmlns:svg="http://www.w3.org/2000/svg"
     xmlns="http://www.w3.org/2000/svg"
     xmlns:xlink="http://www.w3.org/1999/xlink"
     width="128" height="128" version="1.1">
    <title>Package Icon</title>
    <desc>This icon is a part of Clarity icon theme for gtk</desc>
    <metadata>
        <rdf:RDF>
            <cc:Work rdf:about="">
                <dc:title>Package Icon</dc:title>
                <dc:description>This icon is a part of Clarity icon theme for gtk</dc:description>
                <dc:creator>
                    <cc:Agent>
                        <dc:title>Jakub Jankiewicz</dc:title>
                    </cc:Agent>
                </dc:creator>
                <dc:rights>
                    <cc:Agent>
                        <dc:title>Jakub Jankiewicz</dc:title>
                    </cc:Agent>
                </dc:rights>
                <dc:date>2010</dc:date>
                <dc:format>image/svg+xml</dc:format>
                <dc:type rdf:resource="http://purl.org/dc/dcmitype/StillImage" />
                <cc:license rdf:resource="http://www.gnu.org/copyleft/gpl.html" />
             </cc:Work>
        </rdf:RDF>
    </metadata>
    <defs>
        <linearGradient x1="0" y1="128" x2="128" y2="0" id="gradient" gradientUnits="userSpaceOnUse">
            <stop id="start" style="stop-color:#000000;stop-opacity:1" offset="0" />
            <stop id="stop" style="stop-color:#000000;stop-opacity:1" offset="1" />
        </linearGradient>
        <filter id="shadow">
            <feMorphology operator="dilate" in="SourceGraphic" radius="3" />
            <feGaussianBlur stdDeviation="1.5" />
        </filter>
    </defs>
    <path d="m 61.174481,19.52612 c -23.815457,3.165084 -26.789654,4.898148 -39.458589,11.207869 -3.153862,1.57077 -6.037617,5.3052 -5.805609,8.820925 l 2.475259,45.049726 c 0.653311,5.558853 0.615319,11.186431 8.010841,12.961359 l 27.976384,9.589301 c 7.057417,1.69378 12.737114,2.08272 19.036997,-0.81008 L 100.50259,93.878919 c 3.74565,-2.242257 7.80633,-5.385056 8.82093,-9.63101 l 2.74529,-41.989404 C 112.45612,36.371225 109.51198,33.1964 104.46201,30.10723 92.554764,22.823325 80.02143,19.673384 61.174481,19.52612 z M 95.93519,33.547326 c 0,0 -16.104014,7.126554 -23.605503,11.186438 -2.747774,1.487125 -6.076401,3.145381 -6.615694,6.660699 L 63.568499,93.55261 61.528554,50.269345 C 61.381336,47.145698 55.126133,44.396402 52.167572,43.383623 38.295835,38.635033 30.673768,36.530621 30.673768,36.530621 47.386469,27.752786 72.900469,25.532234 95.93519,33.547326 z" style="fill:url(#gradient);fill-opacity:1;stroke:none" />
    <path d="M 100.67051,0 C 85.578605,0 73.341002,12.237601 73.341002,27.329504 c 0,15.0919 12.237603,27.32951 27.329508,27.32951 C 115.7624,54.659014 128,42.421404 128,27.329504 128,12.237601 115.7624,0 100.67051,0 z m 13.78584,11.680708 5.79378,4.508344 -20.846423,26.789242 -0.149038,-0.111744 -5.644746,-4.396567 -12.500409,-9.705979 4.508338,-5.79378 12.500414,9.705979 16.338084,-20.995468 z" style="fill:#15a100;fill-opacity:1;stroke:none"  />
</svg>
