<?xml version="1.0" encoding="UTF-8" standalone="no"?>
<svg xmlns:dc="http://purl.org/dc/elements/1.1/"
     xmlns:cc="http://creativecommons.org/ns#"
     xmlns:rdf="http://www.w3.org/1999/02/22-rdf-syntax-ns#"
     xmlns:svg="http://www.w3.org/2000/svg"
     xmlns="http://www.w3.org/2000/svg"
     xmlns:xlink="http://www.w3.org/1999/xlink"
     width="128" height="128" version="1.1">
    <title>Clarity Icon</title>
    <desc>This icon is a part of Clarity icon theme for gtk</desc>
    <metadata>
        <rdf:RDF>
            <cc:Work rdf:about="">
                <dc:title>Clarity Icon</dc:title>
                <dc:description>This icon is a part of Clarity icon theme for gtk</dc:description>
                <dc:creator>
                    <cc:Agent>
                        <dc:title>Jakub Jankiewicz</dc:title>
                    </cc:Agent>
                </dc:creator>
                <dc:rights>
                    <cc:Agent>
                        <dc:title>Jakub Jankiewicz</dc:title>
                    </cc:Agent>
                </dc:rights>
                <dc:date>2010</dc:date>
                <dc:format>image/svg+xml</dc:format>
                <dc:type rdf:resource="http://purl.org/dc/dcmitype/StillImage" />
                <cc:license rdf:resource="http://www.gnu.org/copyleft/gpl.html" />
             </cc:Work>
        </rdf:RDF>
    </metadata>
    <defs>
        <linearGradient x1="0" y1="128" x2="128" y2="0" id="gradient" gradientUnits="userSpaceOnUse">
            <stop id="start" style="stop-color:#000000;stop-opacity:1" offset="0" />
            <stop id="stop" style="stop-color:#000000;stop-opacity:1" offset="1" />
        </linearGradient>
        <filter id="shadow">
            <feMorphology operator="dilate" in="SourceGraphic" radius="3" />
            <feGaussianBlur stdDeviation="1.5" />
        </filter>
    </defs>
    <path d="m 32.796871,26.740649 c -2.13162,-0.01036 -3.80996,0.112027 -5.75,1.5 -1.56929,1.122729 -2.032,4.957608 0.5,6.9375 l 31.5625,24.6875 c 1.28214,1.002563 2.95576,1.5 4.625,1.5 1.66924,0 3.34286,-0.497437 4.625,-1.5 l 31.5625,-24.6875 c 2.531999,-1.979892 2.069289,-5.814771 0.499999,-6.9375 -1.940039,-1.387973 -3.619269,-1.5625 -5.749999,-1.5 -21.62458,0.634306 -39.26061,0.109888 -61.875,0 z m 77.874999,12.8125 -40.562499,31.75 c -3.55755,2.781813 -9.2862,2.781813 -12.84375,0 l -40.5,-31.65625 c -3.79869,0.69708 -6.65625,4.025059 -6.65625,8.03125 l 0,45.187497 c 0,4.51604 3.64021,8.156254 8.15625,8.156254 l 91.468749,0 c 4.51604,0 8.15625,-3.640214 8.15625,-8.156254 l 0,-45.187497 c 0,-4.201973 -3.14311,-7.666885 -7.21875,-8.125 z" style="fill:url(#gradient);fill-opacity:1;stroke:none" />
    <path d="m 100.60965,80.02071 c -0.750272,0.01636 -1.495262,0.520945 -2.044872,1.47351 l -24.76399,42.92726 C 72.685578,126.35431 73.684418,128 75.875728,128 l 49.573102,0 c 2.51288,0 3.10451,-1.7703 2.0599,-3.57852 L 102.71467,81.49422 c -0.5881,-1.018006 -1.35474,-1.48987 -2.10502,-1.47351 z m -0.27064,10.344642 c 1.26946,3.1e-5 2.27083,0.393221 2.99213,1.157758 0.73571,0.764597 1.0976,1.783438 1.09761,3.067306 -10e-6,1.759974 -0.32939,4.157726 -1.0074,7.187124 -0.76458,3.49106 -1.20837,5.87316 -1.33819,7.15705 -0.0289,0.80785 -0.0608,1.62857 -0.0752,2.45083 -0.0866,1.09637 -0.36657,1.77018 -0.85704,2.02984 -0.18754,0.11541 -0.41756,0.18044 -0.69165,0.18043 -0.663592,10e-6 -1.073032,-0.52506 -1.202862,-1.56373 -0.0144,-0.10097 -0.0151,-0.87231 -0.015,-2.30048 -1e-5,-2.62548 -0.55881,-6.38771 -1.68401,-11.30693 -0.43278,-1.918606 -0.64655,-3.183116 -0.64655,-3.789026 0,-1.096333 0.28001,-2.064577 0.85705,-2.886877 0.64915,-0.92322 1.50361,-1.383264 2.571122,-1.383295 z m 0.0301,25.500748 c 0.89439,0 1.66635,0.26315 2.31551,0.79689 0.69244,0.57704 1.03747,1.30023 1.03748,2.1802 -1e-5,0.96653 -0.31192,1.77039 -0.93222,2.39069 -0.6059,0.62031 -1.39411,0.91719 -2.36063,0.91719 -0.807852,0 -1.514172,-0.29627 -2.120052,-0.90215 -0.60589,-0.60588 -0.90215,-1.3122 -0.90215,-2.12005 0,-0.86555 0.2794,-1.62124 0.84201,-2.27041 0.5626,-0.66358 1.26892,-0.99236 2.120052,-0.99236 z" style="fill:#b3a91a;fill-opacity:1;stroke:none"  />
</svg>
