<?xml version="1.0" encoding="UTF-8" standalone="no"?>
<svg xmlns:dc="http://purl.org/dc/elements/1.1/"
     xmlns:cc="http://creativecommons.org/ns#"
     xmlns:rdf="http://www.w3.org/1999/02/22-rdf-syntax-ns#"
     xmlns:svg="http://www.w3.org/2000/svg"
     xmlns="http://www.w3.org/2000/svg"
     xmlns:xlink="http://www.w3.org/1999/xlink"
     width="128" height="128" version="1.1">
    <title>Clarity Icon</title>
    <desc>This icon is a part of Clarity icon theme for gtk</desc>
    <metadata>
        <rdf:RDF>
            <cc:Work rdf:about="">
                <dc:title>Clarity Icon</dc:title>
                <dc:description>This icon is a part of Clarity icon theme for gtk</dc:description>
                <dc:creator>
                    <cc:Agent>
                        <dc:title>Jakub Jankiewicz</dc:title>
                    </cc:Agent>
                </dc:creator>
                <dc:rights>
                    <cc:Agent>
                        <dc:title>Jakub Jankiewicz</dc:title>
                    </cc:Agent>
                </dc:rights>
                <dc:date>2010</dc:date>
                <dc:format>image/svg+xml</dc:format>
                <dc:type rdf:resource="http://purl.org/dc/dcmitype/StillImage" />
                <cc:license rdf:resource="http://www.gnu.org/copyleft/gpl.html" />
             </cc:Work>
        </rdf:RDF>
    </metadata>
    <defs>
        <linearGradient x1="0" y1="128" x2="128" y2="0" id="gradient" gradientUnits="userSpaceOnUse">
            <stop id="start" style="stop-color:#000000;stop-opacity:1" offset="0" />
            <stop id="stop" style="stop-color:#000000;stop-opacity:1" offset="1" />
        </linearGradient>
        <filter id="shadow">
            <feMorphology operator="dilate" in="SourceGraphic" radius="3" />
            <feGaussianBlur stdDeviation="1.5" />
        </filter>
    </defs>
    <path d="m 64.044846,13.784007 c -27.7126,0 -50.176831,22.464234 -50.176831,50.176834 0,27.712593 22.464231,50.176839 50.176831,50.176839 27.7126,0 50.176824,-22.464246 50.176824,-50.176839 0,-27.7126 -22.464224,-50.176834 -50.176824,-50.176834 z m 0,7.45141 c 3.169262,0 5.738787,2.646053 5.738787,5.889017 0,3.242964 -2.569525,5.858971 -5.738787,5.858971 -3.169262,0 -5.738787,-2.616007 -5.738787,-5.858971 0,-3.242964 2.569525,-5.889017 5.738787,-5.889017 z m 2.013082,30.106102 c 0.915197,0.02625 1.827788,0.292576 2.674095,0.781196 2.708198,1.563575 3.636749,5.013625 2.073174,7.721823 -0.09249,0.160211 -0.342745,0.543011 -0.510782,0.811243 10.713175,6.591843 23.945994,14.780683 26.680854,16.194797 4.398951,2.274574 7.225681,5.626554 6.279611,7.451409 -0.94608,1.824846 -5.275854,1.433277 -9.67481,-0.841288 -2.825978,-1.461236 -18.081725,-7.919838 -29.805638,-12.919782 -3.98886,5.964204 -8.272392,12.328833 -9.133986,13.821162 -1.563575,2.708192 -4.344624,4.026985 -6.219523,2.944512 -1.87491,-1.082486 -2.134459,-4.142304 -0.570874,-6.850492 0.811415,-1.405423 3.88203,-7.682865 6.880535,-13.791117 -2.107239,-0.918033 -3.843533,-1.686634 -4.416763,-1.983037 -3.383834,-1.749677 -4.696494,-5.904852 -2.944509,-9.284216 1.751976,-3.379363 5.930438,-4.724233 9.314262,-2.974554 0.557875,0.288461 2.111153,1.205542 3.996119,2.343588 0.0924,-0.171671 0.235753,-0.488851 0.30046,-0.60092 1.074955,-1.861891 3.064347,-2.882099 5.077775,-2.824324 z" style="fill:url(#gradient);fill-opacity:1;stroke:none" />
    <path d="m 101.151,74.301993 c -14.828668,0 -26.849,12.020333 -26.849,26.849007 0,14.82866 12.020332,26.849 26.849,26.849 C 115.97967,128 128,115.97966 128,101.151 128,86.322326 115.97967,74.301993 101.151,74.301993 z m 0,3.987157 c 1.69584,0 3.07076,1.41587 3.07076,3.15114 0,1.73527 -1.37492,3.135062 -3.07076,3.135062 -1.695831,0 -3.070752,-1.399792 -3.070752,-3.135062 0,-1.73527 1.374921,-3.15114 3.070752,-3.15114 z m 1.07718,16.109402 c 0.48971,0.01405 0.97802,0.156554 1.43087,0.418009 1.44913,0.836649 1.94598,2.682728 1.10933,4.131852 -0.0495,0.08573 -0.1834,0.290559 -0.27331,0.434086 5.73248,3.527211 12.8132,7.908961 14.27659,8.665641 2.35383,1.21709 3.86637,3.0107 3.36014,3.98715 -0.50623,0.97646 -2.82304,0.76693 -5.17687,-0.45016 -1.51214,-0.78189 -9.6753,-4.23781 -15.94862,-6.91322 -2.134393,3.19138 -4.426459,6.59701 -4.887487,7.39553 -0.836649,1.44912 -2.324754,2.1548 -3.327989,1.57557 -1.003242,-0.57922 -1.142122,-2.21649 -0.305468,-3.6656 0.434178,-0.75203 2.077227,-4.11102 3.681689,-7.37947 -1.127558,-0.49122 -2.056627,-0.90249 -2.363355,-1.06109 -1.810648,-0.93623 -2.513036,-3.159614 -1.575571,-4.96787 0.937461,-1.808255 3.173305,-2.527878 4.983947,-1.591647 0.298512,0.154352 1.129652,0.645071 2.138274,1.254025 0.04944,-0.09186 0.126148,-0.261578 0.160773,-0.321544 0.575197,-0.996275 1.639697,-1.542176 2.717057,-1.511262 z" style="fill:#b3a91a;fill-opacity:1;stroke:none"  />
</svg>
