<?xml version="1.0" encoding="UTF-8" standalone="no"?>
<svg xmlns:dc="http://purl.org/dc/elements/1.1/"
     xmlns:cc="http://creativecommons.org/ns#"
     xmlns:rdf="http://www.w3.org/1999/02/22-rdf-syntax-ns#"
     xmlns:svg="http://www.w3.org/2000/svg"
     xmlns="http://www.w3.org/2000/svg"
     xmlns:xlink="http://www.w3.org/1999/xlink"
     width="128" height="128" version="1.1">
    <title>Clarity Icon</title>
    <desc>This icon is a part of Clarity icon theme for gtk</desc>
    <metadata>
        <rdf:RDF>
            <cc:Work rdf:about="">
                <dc:title>Clarity Icon</dc:title>
                <dc:description>This icon is a part of Clarity icon theme for gtk</dc:description>
                <dc:creator>
                    <cc:Agent>
                        <dc:title>Jakub Jankiewicz</dc:title>
                    </cc:Agent>
                </dc:creator>
                <dc:rights>
                    <cc:Agent>
                        <dc:title>Jakub Jankiewicz</dc:title>
                    </cc:Agent>
                </dc:rights>
                <dc:date>2010</dc:date>
                <dc:format>image/svg+xml</dc:format>
                <dc:type rdf:resource="http://purl.org/dc/dcmitype/StillImage" />
                <cc:license rdf:resource="http://www.gnu.org/copyleft/gpl.html" />
             </cc:Work>
        </rdf:RDF>
    </metadata>
    <defs>
        <linearGradient x1="0" y1="128" x2="128" y2="0" id="gradient" gradientUnits="userSpaceOnUse">
            <stop id="start" style="stop-color:#000000;stop-opacity:1" offset="0" />
            <stop id="stop" style="stop-color:#000000;stop-opacity:1" offset="1" />
        </linearGradient>
        <filter id="shadow">
            <feMorphology operator="dilate" in="SourceGraphic" radius="3" />
            <feGaussianBlur stdDeviation="1.5" />
        </filter>
    </defs>
    <path d="m 100.99964,26.998084 c -5.142592,-5.142599 -13.480396,-5.1426 -18.622992,0 l -1.125139,-1.12514 C 77.76294,22.384378 72.150142,22.40378 68.661582,25.892346 L 25.770478,68.78345 c -3.488568,3.488566 -3.507961,9.101358 -0.0194,12.589925 l 20.853885,20.853875 c 3.488568,3.48857 9.120759,3.48857 12.609327,0 l 42.8911,-42.891095 c 3.48856,-3.488563 3.48857,-9.120758 0,-12.609324 l -1.10575,-1.105741 c 5.14261,-5.1426 5.14261,-13.480403 0,-18.623003 z m -4.655746,4.655751 c 2.571307,2.571302 2.571307,6.740201 0,9.311501 -2.571295,2.5713 -6.740189,2.571303 -9.311496,0 -2.571299,-2.571302 -2.571299,-6.7402 0,-9.311501 2.571298,-2.5713 6.740201,-2.571303 9.311496,0 z" style="fill:url(#gradient);fill-opacity:1;stroke:none" />
    <path d="m 100.66111,73.352446 c -6.993976,0 -13.981896,2.674683 -19.317245,8.010042 -10.670726,10.670719 -10.670726,27.963762 0,38.634482 10.670707,10.67071 27.982385,10.67071 38.653085,0 10.67073,-10.67072 10.67073,-27.963763 0,-38.634482 -5.33535,-5.335359 -12.34188,-8.010042 -19.33586,-8.010042 z m -5.010935,10.841499 10.021855,0 0,11.474849 11.47485,0 0,10.021866 -11.47485,0 0,11.47485 -10.021855,0 0,-11.47485 -11.474857,0 0,-10.021866 11.474857,0 0,-11.474849 z" style="fill:#15a100;fill-opacity:1;stroke:none"  />
</svg>
