<?xml version="1.0" encoding="UTF-8" standalone="no"?>
<svg xmlns:dc="http://purl.org/dc/elements/1.1/"
     xmlns:cc="http://creativecommons.org/ns#"
     xmlns:rdf="http://www.w3.org/1999/02/22-rdf-syntax-ns#"
     xmlns:svg="http://www.w3.org/2000/svg"
     xmlns="http://www.w3.org/2000/svg"
     xmlns:xlink="http://www.w3.org/1999/xlink"
     width="128" height="128" version="1.1">
    <title>Touchpad Icon</title>
    <desc>This icon is a part of Clarity icon theme for gtk</desc>
    <metadata>
        <rdf:RDF>
            <cc:Work rdf:about="">
                <dc:title>Touchpad Icon</dc:title>
                <dc:description>This icon is a part of Clarity icon theme for gtk</dc:description>
                <dc:creator>
                    <cc:Agent>
                        <dc:title>Jakub Jankiewicz</dc:title>
                    </cc:Agent>
                </dc:creator>
                <dc:rights>
                    <cc:Agent>
                        <dc:title>Jakub Jankiewicz</dc:title>
                    </cc:Agent>
                </dc:rights>
                <dc:date>2010</dc:date>
                <dc:format>image/svg+xml</dc:format>
                <dc:type rdf:resource="http://purl.org/dc/dcmitype/StillImage" />
                <cc:license rdf:resource="http://www.gnu.org/copyleft/gpl.html" />
             </cc:Work>
        </rdf:RDF>
    </metadata>
    <defs>
        <linearGradient x1="0" y1="128" x2="128" y2="0" id="gradient" gradientUnits="userSpaceOnUse">
            <stop id="start" style="stop-color:#000000;stop-opacity:1" offset="0" />
            <stop id="stop" style="stop-color:#000000;stop-opacity:1" offset="1" />
        </linearGradient>
        <filter id="shadow">
            <feMorphology operator="dilate" in="SourceGraphic" radius="3" />
            <feGaussianBlur stdDeviation="1.5" />
        </filter>
    </defs>
    <path d="m 24.636044,19.953748 c -4.083502,0 -7.404561,3.293838 -7.404561,7.377339 l 0,41.37843 0,7.377338 93.537037,0 0,-7.377338 0,-41.37843 c 0,-4.0835 -3.29384,-7.377339 -7.37734,-7.377339 l -78.755136,0 z m -7.404561,62.829879 0,9.800156 0,8.085127 c 0,4.0835 3.321059,7.37734 7.404561,7.37734 l 27.41321,0 8.602358,0 0,-25.262623 -43.420129,0 z m 50.116901,0 0,25.262623 0.353895,0 8.248463,0 27.440438,0 c 4.0835,0 7.37734,-3.29384 7.37734,-7.37734 l 0,-8.085127 0,-9.800156 -43.420136,0 z" style="fill:url(#gradient);fill-opacity:1;stroke:none" />
    <path d="M 100.67051,0 C 85.578605,0 73.341002,12.237601 73.341002,27.329504 c 0,15.0919 12.237603,27.32951 27.329508,27.32951 C 115.7624,54.659014 128,42.421404 128,27.329504 128,12.237601 115.7624,0 100.67051,0 z m 13.78584,11.680708 5.79378,4.508344 -20.846423,26.789242 -0.149038,-0.111744 -5.644746,-4.396567 -12.500409,-9.705979 4.508338,-5.79378 12.500414,9.705979 16.338084,-20.995468 z" style="fill:#15a100;fill-opacity:1;stroke:none"  />
</svg>
