<?xml version="1.0" encoding="utf-8"?>
<!-- Generator: Adobe Illustrator 19.1.0, SVG Export Plug-In . SVG Version: 6.00 Build 0)  -->
<svg version="1.1" id="Layer_1" xmlns="http://www.w3.org/2000/svg" xmlns:xlink="http://www.w3.org/1999/xlink" x="0px" y="0px"
	 viewBox="0 0 612 792" style="enable-background:new 0 0 612 792;" xml:space="preserve">
<style type="text/css">
	.st0{fill:#101010;}
	.st1{fill:#131313;}
	.st2{fill:#0E0E0E;}
	.st3{fill:#191919;}
	.st4{fill:#111111;}
	.st5{fill:#1B1B1B;}
	.st6{fill:#B7B7B7;}
	.st7{fill:#3E3E3E;}
	.st8{fill:#939393;}
	.st9{fill:#C0C0C0;}
	.st10{fill:#D2D2D2;}
	.st11{fill:#B1B1B1;}
	.st12{fill:#AAAAAA;}
	.st13{fill:#A9A9A9;}
	.st14{fill:#4D4D4D;}
	.st15{fill:#CBCBCB;}
	.st16{fill:#404040;}
	.st17{fill:#616161;}
	.st18{fill:#7C7C7C;}
	.st19{fill:#626262;}
	.st20{fill:#7D7D7D;}
	.st21{fill:#5C5C5C;}
	.st22{fill:#D7D7D7;}
	.st23{fill:#BABABA;}
	.st24{fill:#DDDDDD;}
	.st25{fill:#E8E8E8;}
	.st26{fill:#D4D4D4;}
	.st27{fill:#6E6E6E;}
	.st28{fill:#8B8B8B;}
	.st29{fill:#8D8D8D;}
	.st30{fill:#C2C2C2;}
	.st31{fill:#525252;}
	.st32{fill:#4F4F4F;}
	.st33{fill:#787878;}
	.st34{fill:#9F9F9F;}
	.st35{fill:#BCBCBC;}
	.st36{fill:#707070;}
	.st37{fill:#FCFCFC;}
	.st38{fill:#2F2F2F;}
	.st39{fill:#565656;}
	.st40{fill:#535353;}
	.st41{fill:#4A4A4A;}
	.st42{fill:#959595;}
	.st43{fill:#CACACA;}
	.st44{fill:#DADADA;}
	.st45{fill:#515151;}
	.st46{fill:#A3A3A3;}
	.st47{fill:#F1F1F1;}
	.st48{fill:#B0B0B0;}
	.st49{fill:#CFCFCF;}
	.st50{fill:#E1E1E1;}
	.st51{fill:#4B4B4B;}
	.st52{fill:#D6D6D6;}
	.st53{fill:#DEDEDE;}
	.st54{fill:#151515;}
	.st55{fill:#7F7F7F;}
	.st56{fill:#6B6B6B;}
	.st57{fill:#FFFFFF;}
	.st58{fill:#ECECEC;}
	.st59{fill:#FDFDFD;}
	.st60{fill:#929292;}
	.st61{fill:#F7F7F7;}
	.st62{fill:#1E1E1E;}
	.st63{fill:#D1D1D1;}
	.st64{fill:#F9F9F9;}
	.st65{fill:#595959;}
	.st66{fill:#B5B5B5;}
	.st67{fill:#F4F4F4;}
	.st68{fill:#EFEFEF;}
	.st69{fill:#E3E3E3;}
	.st70{fill:#757575;}
	.st71{fill:#CCCCCC;}
	.st72{fill:#E9E9E9;}
	.st73{fill:#DFDFDF;}
	.st74{fill:#D3D3D3;}
	.st75{fill:#999999;}
	.st76{fill:#E4E4E4;}
	.st77{fill:#5F5F5F;}
	.st78{fill:#E5E5E5;}
	.st79{fill:#858585;}
	.st80{fill:#818181;}
	.st81{fill:#575757;}
	.st82{fill:#C6C6C6;}
	.st83{fill:#F8F8F8;}
	.st84{fill:#B3B3B3;}
	.st85{fill:#FBFBFB;}
	.st86{fill:#4E4E4E;}
	.st87{fill:#B2B2B2;}
	.st88{fill:#DBDBDB;}
	.st89{fill:#545454;}
	.st90{fill:#C1C1C1;}
	.st91{fill:#FAFAFA;}
	.st92{fill:#FEFEFE;}
	.st93{fill:#EAEAEA;}
	.st94{fill:#898989;}
	.st95{fill:#F6F6F6;}
	.st96{fill:#B4B4B4;}
	.st97{fill:#1C1C1C;}
	.st98{fill:#969696;}
	.st99{fill:#E7E7E7;}
	.st100{fill:#F2F2F2;}
	.st101{fill:#C5C5C5;}
	.st102{fill:#B9B9B9;}
	.st103{fill:#212121;}
	.st104{fill:#727272;}
	.st105{fill:#393939;}
	.st106{fill:#464646;}
	.st107{fill:#656565;}
	.st108{fill:#2A2A2A;}
	.st109{fill:#F5F5F5;}
	.st110{fill:#D8D8D8;}
	.st111{fill:#828282;}
	.st112{fill:#A1A1A1;}
	.st113{fill:#CECECE;}
	.st114{fill:#181818;}
	.st115{fill:#222222;}
	.st116{fill:#292929;}
	.st117{fill:#444444;}
	.st118{fill:#A5A5A5;}
	.st119{fill:#3B3B3B;}
	.st120{fill:#505050;}
	.st121{fill:#454545;}
	.st122{fill:#AEAEAE;}
	.st123{fill:#F0F0F0;}
	.st124{fill:#EBEBEB;}
	.st125{fill:#989898;}
	.st126{fill:#5D5D5D;}
	.st127{fill:#E0E0E0;}
	.st128{fill:#ADADAD;}
	.st129{fill:#868686;}
	.st130{fill:#C4C4C4;}
	.st131{fill:#606060;}
	.st132{fill:#CDCDCD;}
</style>
<g>
	<path d="M205.5,493.1c-0.3,3.6,0,4,2.1,3.2c3.4-1.2,9.4,1.9,9.4,5c0,1.1-0.2,1.4-1.5,2c-1.9,0.9-3.8,0.3-6.6-2
		c-1.1-0.9-2.6-1.9-3.2-2.1c-2-0.8-2.4-2.5-1.5-7.9C204.9,486.6,206,487.9,205.5,493.1z M208.1,498c-0.2,0.2,0,0.8,0.4,1.2
		c0.8,0.9,5.9,3,6.5,2.7c1.2-0.7-0.4-3-2.7-3.9C210.8,497.5,208.4,497.5,208.1,498z"/>
	<path d="M232.3,491.9c1.1,0.3,0.5,1.2-2.7,3.8c-3.9,3.4-4.9,4.8-4.9,7.1c0,1.8-0.9,3.2-1.7,2.4c-0.5-0.5-1-8.8-0.6-10.3
		c0.5-1.8,1.1-1.1,1.1,1.2c0,1.2,0.1,2.3,0.2,2.5c0.2,0.1,2-1.3,4.2-3.3C230.1,493.4,232.1,491.8,232.3,491.9z"/>
	<path d="M254.3,500.2c0,1.5-1.3,3.9-2.4,4.3c-0.4,0.1-1,0.5-1.4,0.9c-0.5,0.4-1.5,0.5-4,0.5c-3.1-0.2-3.4-0.2-4.8-1.6
		c-0.8-0.8-1.7-2.1-2-2.8c-0.5-1.5-1-1.7-1.4-0.5c-0.1,0.5-0.5,0.8-0.7,0.8c-0.7,0,0-2.5,1-3.9c0.5-0.7,1.1-1.6,1.2-2.1
		c0.2-0.6,0.6-0.7,1.5-0.5c0.6,0.1,1.9,0,2.8-0.1C249,494.1,254.3,496.8,254.3,500.2z M242.9,497.3c-1.4,0.8-1.7,1.2-1.8,2.5
		c-0.1,1.3,0.1,1.8,1.5,3.2c1.6,1.5,1.8,1.6,4.2,1.6c2.7,0,3.8-0.4,5.4-1.8c0.7-0.7,0.9-1.1,0.7-2.1c-0.4-1.9-1.3-3-2.9-3.7
		C248,496.1,244.9,496.2,242.9,497.3z"/>
	<path d="M261.7,498c-0.4,0.6-0.6,4.6-0.2,4.6c0.1,0,1.3-0.8,2.6-1.8c1.3-1,3.3-2.2,4.4-2.7c3.3-1.7,3.8-0.4,2.6,6
		c-0.4,1.8-0.6,4.1-0.5,5c0.2,2-0.5,2.4-1.3,0.8c-0.5-1-0.5-1.7,0.1-5.5c0.4-2.5,0.5-4.5,0.3-4.7c-0.5-0.5-3.7,1.4-5.4,3.1
		c-1,1-1.5,2-1.7,3.4c-0.2,1.1-0.7,2.3-1.1,2.7c-0.6,0.6-0.7,0.6-1.3-0.2c-0.5-0.7-0.6-1.9-0.5-6c0.1-2.9,0.3-5.4,0.5-5.7
		C260.9,495.8,262.3,497,261.7,498z"/>
	<path d="M282.4,486c0.2,0,0.3,2.6,0.2,5.7l-0.1,5.7l2.3-0.1c1.3,0,3-0.4,3.9-0.7c1.7-0.7,2.6-0.5,1.8,0.4c-0.6,0.7-3.2,1.5-6,1.8
		l-2.1,0.2l0.1,1.5c0.1,0.8,0.5,2,1,2.6c0.5,0.6,0.9,1.7,1.1,2.5c0.4,2.1,0.9,2.8,2,2.8c1.4,0,1.3,0.7,0,1.1
		c-1.4,0.3-2.5-0.6-3.4-3.1c-1.1-2.7-1.3-2.2-2.2-5.2c-0.6-2-0.9-2.4-2.5-3.2c-2.3-1.2-2.8-2.2-0.8-1.7c3.2,0.7,3,0.9,2.9-3.8
		c-0.1-3.4,0-4.4,0.6-5.3C281.7,486.5,282.2,486,282.4,486z"/>
	<path d="M312.4,500.2c0,1.5-1.3,3.9-2.4,4.3c-0.4,0.1-1,0.5-1.4,0.9c-0.5,0.4-1.5,0.5-4,0.5c-3.1-0.2-3.4-0.2-4.8-1.6
		c-0.8-0.8-1.7-2.1-2-2.8c-0.5-1.5-1-1.7-1.4-0.5c-0.1,0.5-0.5,0.8-0.7,0.8c-0.7,0,0-2.5,1-3.9c0.5-0.7,1.1-1.6,1.2-2.1
		c0.2-0.6,0.6-0.7,1.5-0.5c0.6,0.1,1.9,0,2.8-0.1C307.1,494.1,312.4,496.8,312.4,500.2z M301,497.3c-1.4,0.8-1.7,1.2-1.8,2.5
		c-0.1,1.3,0.1,1.8,1.5,3.2c1.6,1.5,1.8,1.6,4.2,1.6c2.7,0,3.8-0.4,5.4-1.8c0.7-0.7,0.9-1.1,0.7-2.1c-0.4-1.9-1.3-3-2.9-3.7
		C306.2,496.1,303,496.2,301,497.3z"/>
	<path d="M320.5,484.4c0.5,0.6,0.6,2,0.3,9.6l-0.3,8.9l1.1,1c0.9,0.8,1.6,0.9,3.5,0.6c3.6-0.6,5.1-0.6,5,0c0,0.8-4.8,2.6-7.1,2.6
		c-1.5,0-2.1-0.3-2.9-1.5c-1-1.5-1-1.6-0.9-11.2c0.1-5.4,0.2-10,0.4-10.2C319.8,483.8,320.2,484,320.5,484.4z"/>
	<path d="M349,493.1c1.1,0.8,0.5,2.4-1.5,4.6c-1.8,2-2,2.6-1,4.4c0.7,1.4,2.6,2.2,4.4,1.8c1.5-0.3,1.7,0.5,0.3,0.9
		c-2.2,0.6-3.8,0.2-5.2-1.1c-0.7-0.7-1.4-1.6-1.4-1.9c0-0.8-0.9-0.7-3,0.5c-2.7,1.5-3.6,1.9-5,1.9c-1.5,0-3.3-1.6-3.3-2.9
		c0-3.4,5.2-7.1,10.2-7.1c2,0,2.7-0.2,3.3-0.8C347.8,492.4,348,492.4,349,493.1z M337.2,497.5c-1.7,1.1-2.9,3.9-2.1,4.8
		c1,1,4,0.5,6.4-1c1.8-1.2,2.3-1.7,2.7-3.2c0.4-1.5,0.4-1.8-0.3-2.1C342.3,495.1,340.1,495.6,337.2,497.5z"/>
	<path d="M358.7,493.1c-0.3,3.6,0,4,2.1,3.2c3.4-1.2,9.4,1.9,9.4,5c0,1.1-0.2,1.4-1.5,2c-1.9,0.9-3.8,0.3-6.6-2
		c-1.1-0.9-2.6-1.9-3.2-2.1c-2-0.8-2.4-2.5-1.5-7.9C358.1,486.6,359.2,487.9,358.7,493.1z M361.2,498c-0.2,0.2,0,0.8,0.4,1.2
		c0.8,0.9,5.9,3,6.5,2.7c1.2-0.7-0.4-3-2.7-3.9C364,497.5,361.6,497.5,361.2,498z"/>
	<path d="M383.4,492.2c0.9,0,2.6,1.2,2.6,2c0,0.7-0.5,0.9-1.1,0.5c-0.3-0.2-1.6-0.5-2.9-0.5c-2.2,0-2.4,0-3.7,1.5
		c-0.8,0.9-1.4,1.9-1.4,2.4c0,1.2,1.7,2.1,4.4,2.4c2.3,0.2,4.3,1.4,4.3,2.4c0,0.2,0.7,1.1,1.5,2c1.7,1.9,1.7,2.8,0,3.3
		c-1,0.2-2.1,0-4.7-1c-4.7-1.7-7.1-2.8-7.1-3.2c0-0.8,0.7-0.7,3.6,0.6c1.7,0.8,3.7,1.4,4.4,1.4c0.7,0,1.6,0.2,2.1,0.5
		c1.4,0.7,1.3,0.1-0.3-2.1c-1.5-2.1-1.8-2.2-5.3-2.7c-2.4-0.3-4.5-2-4.5-3.7c0-1.7,2.7-4.3,5.2-5
		C381.5,492.5,382.9,492.2,383.4,492.2z"/>
</g>
<g>
	<path class="st0" d="M439.5,318.4c-0.7,2.2,0.2,4.4,0.3,6.5c0,0.8-0.1,1.9-1,2.1c-0.3,0.1-1.1-0.7-1.4-1.3
		c-2.3-5.2-6.5-8.8-10.6-12.5c0.2-0.9,0.5-1.7,1.2-2.3c2.9,2.3,5.5,4.9,7.6,8c0.3,0.5,0.5,1.4,1.4,1c0.3-0.1,0.4-1,0.3-1.4
		c-0.9-3.5-1.4-7.2-4.8-9.5c1.2-0.8,0.8-1.5-0.1-2.2c-0.2-0.6-0.3-1.4-0.7-1.9c-6.1-8.2-13-15.6-20.7-22.4
		c-9.4-8.4-18.6-16.7-29.5-23.4c-13.4-8.2-27.3-14.5-42.6-17.7c-2-0.4-4.4-1.5-5.9-0.4c-0.9,0.7-0.3,3.4-0.3,5.1
		c-0.6,0.2-1,0.6-1.1,1.3c0,0.3,0,0.5,0.1,0.8c-0.4,0.4-0.8,0.8-1.2,1.2c0,0.6,0.3,1,1,1l-0.1-0.1c0.1,2.3,2.1,3.4,3.2,5.1
		c0.1,1.4-0.1,2.9,1.9,3.1c0.1,0.3,0.3,0.7,0.4,1c-1.5,0.9-1.6,2.1-0.4,3.2c1.3,1.2,1.3-0.9,2.1-1.1c1.8,3.6,1.9,7.5,2.6,11.3
		c2.3,12,2.7,24,2.6,36.1c0,6.3-1.9,11.7-5.7,16.5c-0.4-1.3-1-2-2.5-1.3c1-2.8,2-5.6,3-8.4c-0.1-0.5-0.3-0.8-0.8-0.8
		c-0.4,0-0.8,0-1.1-0.1c0.3-1,0.6-2.1,0.8-3.1c1.5-3.3,1.4-6.7,1.4-10.2c0.8-0.7,0.2-1.3,0-2c0.3-0.7,0.5-1.4,0.8-2
		c0.1-2.5,0.8-5-0.8-7.3c0-0.7-0.1-1.4-0.1-2c0.5-0.1,1.2-0.2,1.2-0.8c-0.1-4.6,0.3-9.3-1.3-13.8c-0.3-0.3-0.6-0.6-0.9-0.9l0.1,0.1
		c-0.3-0.7-0.6-1.3-0.9-2c-0.2-0.7-0.3-1.4-0.5-2.1c-0.2-0.4-0.4-0.8-0.7-1.2c0-0.3-0.1-0.5-0.3-0.7c-0.2-0.7-0.4-1.5-0.7-2.2
		c-0.2-0.8-0.8-0.9-1.5-1.1c-6.6-1.9-13.3-3.2-20.1-3c-2.4-0.9-4.7-0.6-6.8,0.7c-0.5-1.1-1.2-1.9-2.4-0.9c-3.2,0.2-6.4-0.3-9.5,1
		c-1.6,0-3.5-0.4-4.7,0.6c-1.3,1.1-0.2,1.5,1,1.4c-0.2,0.2-0.3,0.4-0.2,0.7c0,0.2,0.1,0.5,0.1,0.7c0,0.7,0,1.4,0,2.2
		c-0.7-0.1-1.4-0.1-2.1-0.2l0.1,0.1c-0.3-1.2-1.2-1.2-2.2-1.1l0.1,0c-2.7-2.6-6-1.7-9.2-2c-0.7-0.1-1.9,0.4-1.9-0.9
		c0-0.8,0.8-0.9,1.4-1.2c5.2-3.2,11.2-3.1,16.9-3.1c6.3,0,12.5-1.2,18.8-1c6.6,0.1,12.8,1.5,19,3.4c0.9,0.3,1.9,1.5,2.7,0.4
		c0.3-0.5-0.4-1.8-0.7-2.7c-2.4-6.6-7.5-10.3-13.8-13c-5.5-2.4-11.1-3-16.9-3.2c-1.5-0.1-3.1-0.1-4.6-0.3c-1.3-0.1-2.3-1-2.3-2.3
		c0-1.3,1.4-1.2,2.3-1.4c6.9-0.9,13.9-2,20.8-0.8c1.9,0.3,3.6-0.2,5.4-0.1c20.5,1.4,39.6,7.9,57,18.4c10,6.1,19,13.8,27.7,21.8
		c7,6.5,13.8,13.2,20.3,20.2c0.4,0.5,1.1,0.7,1.7,1l-0.1-0.1c0.3,1.3,0.8,2.5,2.2,3.1l-0.1-0.1c0,0.3,0.1,0.7,0.1,1
		c0.5,0.8,1.4,0.9,2.2,0.9c1.4,3.2,2.9,6.4,5.1,9.2C439.7,314.8,437.1,316.2,439.5,318.4z M314.8,239.6c-0.3,0-1.2-0.4-1.4,0.3
		c-0.2,0.7,0.5,1.2,1.2,1.4c2.9,1,5.8,1.9,8.6,3c1.3,0.5,2.9,2.3,4,0.6c1-1.5-1.4-2.4-2.3-3.5c-0.7-0.9-1.6-1.1-2.7-1.2
		C319.9,240,317.5,239.8,314.8,239.6z M286.6,261.5c-0.4-0.2-0.6-0.5-0.9-0.5c-0.4,0-0.9,0.2-1.3,0.3c0.2,0.2,0.5,0.5,0.7,0.5
		C285.6,261.8,286,261.6,286.6,261.5z M326.8,241.1c0.1-0.1,0.3-0.2,0.3-0.3c0-0.1-0.1-0.2-0.2-0.3c-0.1,0.1-0.3,0.2-0.3,0.3
		C326.6,240.9,326.7,241,326.8,241.1z"/>
	<path class="st1" d="M322.4,472.3c-0.1,0.3-0.2,0.7-0.3,1c-0.7,0-1.3,0-2,0.1c-0.4-0.3-0.7-0.7-1.1-1c-0.5-1.4-1-2.8-1.5-4.2
		c-1.7,0.8-2.3,2.4-2.8,4c-0.8,0.4-1.5,1.3-2.6,1c-1.4-1.2-0.9-2.5-0.1-3.8c1.8-2.9,3.9-5.5,7.4-6.6c1.1-0.4,2.1-1.2,2.7-2.2
		c3.3-5.3,6.8-10.5,9.5-16.2c0.3-0.7,1.4-1.4,0.5-2.2c-0.9-0.9-1.3,0.5-2,0.8c-3.8,1.7-7.4,4.8-11.5,4.7c-4.2-0.1-8.4,0.2-12.6,0.1
		c-0.2-0.2-0.6-0.4-0.7-0.7c-0.6-2.3-0.5-2.3-2.7-2.3c-0.6,0-1.3,0-1.9,0.1c1.1-1.5,2.8-0.8,4.2-1.2c10.1,0.7,19.6-2,29-5.2
		c0.4-0.1,1-0.6,1-0.9c0-0.6-0.7-0.5-1.1-0.6c-6.2-1.5-7.6-4.2-4.9-9.9c1.2-2.6,2.6-5.7,5.4-6.4c4.1-1.1,8.7-1.4,12.1,2
		c2.2,2.2,3.7,1.5,5.6,0.1c0.7-0.5,1.3-1.1,2-1.6c1.1-0.1,2.4,0.2,3.2-0.9c0.6-0.1,1-0.4,1.1-1.1l-0.1,0.1c3.1-0.5,5.5-2.5,8.2-3.9
		c6.2-3.4,11.8-8.1,19.3-8.7c0.4-0.2,0.9-0.5,1.3-0.7c2,0.1,3.9-0.9,5.8-1.2c0.4-0.4,0.9-0.7,1.3-1.1l-0.1,0c0.8,0.3,1.5,0.8,2.3,0
		c3.1-1.2,6.4-0.6,9.6-0.8c3.2-0.1,6.5-0.2,9.5-1.3c6-2.3,12-4.7,17.9-7c0.8,0.1,1.4,0.4,1.9,1c-0.3,0.3-0.7,0.7-1,1
		c-6,1.4-11.4,4.3-17.1,6.3c-6.1,2.1-12.4,1.8-18.6,2.7c-13.8,1.9-26.1,7-36.9,15.9c-0.9,0.8-1.8,1.5-2.8,2.2
		c-1.5,1.1-3.7,2.2-3.9,3.8c-0.2,1.4,2.5,1.6,3.7,2.7c3.3,3.4,6.6,6.9,10.6,9.6c4.5,3.1,9,6.2,14.5,7.3c2.2,0.4,4.2,1.4,5.5,3.4
		c0.4,0.6,1.4,1.5,0.4,2.1c-0.5,0.3-1.5-0.4-2.4-0.6c-1.2-1-2.4-2-4.1-1.8c-1.2-0.3-2.2-2-3.4-0.6c-0.6,0.7,0.4,1.8,1.1,2.5
		c0.1,0.7,0.2,1.4,0.3,2.1c-1.8,1.7-2.7,0-3.7-0.9c-2.4-2.2-3.5-2.1-4.7,0.6c-0.9,2.2-2.4,4.8-4.4,3.9c-1.6-0.6-1.1-3.9-0.2-6
		c0.6-1.2,1-2.6,1.8-3.6c0.8-1.1,2.9-2,2.8-2.8c-0.2-1.7-2.3-2.4-3.6-3.4c-3.4-2.8-6.9-5.4-10-8.6c-4.5-4.7-6.4-4.5-11.8-0.8
		c-2.7,1.8-5.1,3.9-7.9,5.5c-2.1,1.2-3.9,3.1-5.1,5.5c-2.9,5.6-5.5,11.3-9.4,16.3c-1.2,1.5-2.4,3.1,1.1,3.7c1.8,0.3,3.4,1.6,5,2.5
		c0.7,0.4,1.7,0.9,1,1.9c-0.5,0.8-1.5,0.5-2.4,0.6c-1.8-1.7-4.4-3.2-6.2-2.2C321.1,467,322.4,470.1,322.4,472.3z M342,426.9
		c0-1.7-2.6-4.4-4-4.3c-2.5,0.2-6,5.9-5.1,8.3c0.8,2,2.3,2.8,4.4,2.2C339.4,432.4,342,428.9,342,426.9z M356.8,422.8
		c-0.6-0.6-1.1-0.2-1.6,0c-2.3,0.8-3.8,2.8-5.6,4.3c-0.5,0.4-1.1,1.1-0.6,1.7c0.6,0.8,1.2-0.1,1.6-0.5c1.4-1.8,3.5-2.7,5.1-4.2
		C356,423.7,356.3,423.3,356.8,422.8z M342.1,431.8c1-0.5,2.1-0.9,2.4-2.2c0-0.1-0.4-0.6-0.6-0.5c-1.1,0.4-2.1,0.9-2.4,2.1
		C341.5,431.4,341.9,431.6,342.1,431.8z M332.4,433.8c-0.7-0.7-1.3-1.5-2-2.1c-0.7-0.5-0.8,0.3-0.8,0.6c0.1,1.2,1,1.5,2,1.9
		C331.7,434.2,332.1,433.9,332.4,433.8z M343.8,424.3c-0.8-0.4-0.9,0.2-1,0.7c-0.1,0.6,0.3,0.9,0.8,1.1c0.6,0.2,0.9-0.2,1-0.7
		C344.7,424.8,344.2,424.5,343.8,424.3z"/>
	<path d="M292.5,443.5c-4.5-1.4-8.4-3.8-11.6-7.2c-1.6-1.6-3-1.8-4.9-0.7c-5.7,3.2-10.8,7.2-16,11.1c-1.1,0.9-1.5,1.7,0,2.7
		c1.7,1.1,3.4,2.4,4,4.5c0.3,1,0,2.2-1,2.7c-1.3,0.7-1.7-0.5-2.2-1.4c-0.3-0.6-0.4-1.3-0.8-1.9c-0.7-1.1-1.2-2.6-2.9-2.5
		c-1.9,0.1-2.6,1.4-2.7,3.2c0,0.5-0.2,1-0.3,1.5c-0.3,0.8-0.7,1.7-1.7,1.5c-0.9-0.2-1.4-0.9-1.4-1.9c0-0.5,0.3-1.1,0.2-1.5
		c-0.4-1.1,1.8-2.2,0.2-3c-1-0.5-2.2,0.5-3.3,0.9c-1.4,0.7-1.7,2.7-3.4,2.9c-0.7,0.1-1.3,0.4-1.9-0.3c-0.5-0.7-0.2-1.2,0.2-1.8
		c1.8-2.9,4.9-4.2,7.8-4.4c4-0.2,6.5-2.8,9.3-4.8c4.7-3.3,9.4-6.7,14.7-9.1c1.3-0.6,2.4-1.1,0.9-2.9c-3.4-4-6.2-8.5-8.7-13.1
		c-1.2-2.3-2.6-2.2-4.6-1.3c-4.7,2.1-9.7,3.1-14.8,3.6c-3.9,0.3-7.5,2-11.2,3.3c-1.4,0.5-2.9,1-4.4,1.4c-7.4,1.6-8.4,2.8-8.4,10.4
		c0,2.1,0.1,4.2-2.6,4.8c-0.7,0.2-1.4,0.3-1.9-0.4c-0.6-0.7,0.1-1.2,0.4-1.7c1.4-3,0.7-6.7,3-9.6c0.4-0.5-0.1-1.1-1.1-0.7
		c-1.3,0.5-2.6,0.6-4,0.8c-0.9,0.1-2.2-0.1-2.2-0.9c0.2-3.7-1.2-2-2.7-1c-0.6,0.4-1.3,0-1.7-0.6c-0.3-0.5,0-1,0.3-1.4
		c1.8-2.8,4.4-2.9,6.5-0.1c0.9,1.2,1.6,1,2.5,0.3c0.8-0.7,0.5-1.6-0.3-2.1c-1-0.7-2-1.5-3.1-1.7c-2.8-0.4-5.8,0.2-7.5-3
		c-0.3-0.6-1.3-0.3-1.8,0.1c-0.6,0.5-1.3,1.5-2,0.4c-0.7-1-0.1-1.9,0.7-2.7c1.7-1.6,3.6-1.4,5,0.1c3.7,4,9.4,4.2,13.6,7.7
		c2.2,1.9,6.2-0.1,8.8-1.2c6.9-2.8,14-4.2,21.2-5.4c0.3-0.1,0.6-0.2,1-0.3c2.9-0.6,6.4-0.9,8-2.9c2-2.5-1.4-5-2.4-7.5
		c-4.7-11-10.5-21.4-19.1-30c0.7-0.6,1.3-1.3,2-1.9c1.1,0.9,1.7,2.5,3.2,3c-0.1,0.7,0.2,1.1,1,1.1c-0.3,1.9,0.3,3.2,2.1,4.1
		c0.1,0.6,0.3,1,1,1c-0.1,1.6,0.6,2.5,2.1,3c0.1,0.6,0.3,1.1,1,1c-0.2,0.9,0,1.7,0.9,2.2c0,0.9,0.1,1.7,1.1,2c0.6,2.5,2,4.7,3.3,7
		c0.5,1.5,1.5,2.6,3,3.2h0c-0.1,0.9,0.3,1.6,1,2.1c0.6,3.6,2.9,6.5,4.1,9.8c3.1,8.4,8.6,15.1,15.1,21.2c4.4,4.1,9.9,5.8,15.6,7.1
		C296.7,444.2,294.5,443.3,292.5,443.5z"/>
	<path class="st2" d="M472.1,385.1c1.2-0.2,2.4-0.5,3.5-0.4c6.3,0.5,11.1-2.8,15.7-6.3c1.6-1.2,1.9-2.4,0.5-4.2
		c-1.2-1.5-3-2.6-3-5.2c0-2,0.6-2.6,2.2-2.4c9,1.2,15.5-4.2,22.4-8.6c4.7-2.9,9.7-3.7,15-4.3c0.6-0.1,1,0.1,1.2,0.6
		c0.3,0.6-0.1,1-0.5,1.3c-1.6,1.2-3.3,2.5-5,3.6c-6.2,4.1-10.9,9.2-12.6,16.7c-0.9,4-2.2,7.9-3.3,11.8c-0.2,0.6-0.2,1.7-0.6,1.8
		c-0.9,0.3-1.5-0.5-2.1-1.2c-0.5-0.7-1-1.4-1.4-2.1c-0.9-1.8-1.7-3.4-4.2-2.3c-2.2-3.4-3.4-0.1-4.7,0.8c-7.1,5-14.8,7.3-23.4,7.6
		c-6.6,0.3-13.3,0.3-19.9,0c-1-0.4-2-0.8-2.9-1.3c2.3-1.1,4.8-1.8,7.3-1.3c5.1,1,10.2,0.2,15.2,0.1c9.6,0,17.8-3.7,25.1-9.7
		c0.6-0.5,1.7-0.8,0.8-1.8c-0.6-0.6-1.3,0.1-1.7,0.4c-3.7,3-7.6,5.7-12.2,7.3C479.7,385.6,475.8,387,472.1,385.1z M511.1,367.7
		c0.6-0.1,0.9-0.5,1.1-1.1c0.3-0.7,0.6-1.4,0.9-2.1c0.4-0.7,1.1-1.5,0.7-2.3c-0.5-0.8-1.1,0.1-1.6,0.3c-1.4,1-2.7,2.1-4.1,3.1
		c-3.6,2.6-7.8,3.7-12,4.7c-1.7,0.4-2,1-0.6,2.2c1.2,1.1,2.2,2.5,4,2.8c-1.3,4.1,3.3,4.1,4.5,6.5c1.4,2,2.5,2.5,3-0.5
		c0.2-1.1,0.1-2.3,0.1-3.5c0.8-1.6,1.3-3.3,1.1-5.1l-0.1,0.1C510.1,371.7,510.5,369.5,511.1,367.7L511.1,367.7z"/>
	<path d="M428,311.1c-0.7,0.6-1,1.4-1.2,2.3c-0.3-0.2-0.7-0.4-1-0.7c-0.4-0.9-1-1.4-2-0.7c-1.6,0.4-3.1-0.4-4.4-1.1
		c-3.7-2.1-8-1.6-11.9-2.8c-0.4-0.1-1,0.2-1.5,0.3c0.1,0.5,0.2,1.1,0.5,1.4c5,4.9,6.7,11.2,7.7,17.9c0.7,4.4-1.4,8.4-1,12.7
		c0,0.3-0.6,0.9-1,0.9c-0.7,0.1-1.4-0.3-1.6-1c-0.6-2-1.5-3.8-2.5-5.5c-3-4.9-7.9-6.2-12.9-7.1c-2.6-0.5-5.4-0.3-8.2-0.3
		c-3.1,0-3.1,0-1.5,3.2c0.2,0.3,0.2,0.6,0.3,1c0,0.4-0.1,0.7-0.1,1.1l0,0c-1.6,0.1-2.4,0.6-1,2.1l0,0c0,0.7-0.1,1.4-0.1,2.1
		c-0.2-0.1-0.4-0.1-0.7-0.1c-2.6-1.2-3.9,1.2-5.8,2c-4.2,1.8-7.7,1.1-10.5-2.4c-1.8-2.2-1.5-7.6,0.5-10.1c2.1-2.7,7.3-4.2,10-2.4
		c2.7,1.8,5.4,1.6,8.3,1.5c9-0.1,17.9,0.1,23.5,9.1c0.2,0.4,0.8,0.6,1.2,0.9c0.2-0.5,0.4-0.9,0.5-1.4c1.4-9.4-1.3-17.5-7.3-24.6
		c-0.3-0.4-0.7-0.8-1.2-0.9c-1.3-0.3-2.8,1.1-4,0.2c-2.1-1.6,2.6-1.6,0.9-3.4c-1.2-1.2-0.8-1.9,0.8-2.4c5.6-1.6,11.5-0.5,17.2-1.3
		c1-0.2,1.9,0.6,2.8,1c1.2,0.6,2.3,1.5,3.8,1.4c-2.6,1.7-4.7-0.7-7-0.9c-0.7,0-1.4,0-1.5,0.9c0,0.6,0.5,0.8,1,0.9
		c2.9,0.7,6,1,8.3,3.3C426.4,309.1,427.2,310.1,428,311.1z M377.6,325.5c-0.2-0.2-0.5-0.4-0.7-0.6c-0.1,0-0.2,0.1-0.4,0.1
		C376.8,325.6,377.3,325.4,377.6,325.5c0.2,0.2,0.3,0.5,0.5,0.8c0.4,0.4,1,1.2,1.5,0.5c0.4-0.6-0.4-1-1.1-1.1
		C378.3,325.5,377.9,325.5,377.6,325.5z M417.8,307.9c0.8,0.3,1.5,0.9,2.3,0.9c1.4,0.1,3.6,2,3.9,0.7c0.4-1.4-2.3-1.8-3.8-2.4
		c-0.7-0.3-1.6,0-2.5,0c-1.7-1.5-3.8-1-5.8-1.3c-0.4-0.1-0.9,0.3-1.3,0.5c0.4,0.2,0.8,0.7,1.2,0.7
		C413.9,306.9,415.8,307.4,417.8,307.9z M377.5,331.1c0.2-2.3-2.8-5.2-4.5-4.4c-2.3,1-4,6.9-2.6,9c0.5,0.8,1.2,1.1,2.1,0.9
		C374,336.3,377.4,332.5,377.5,331.1z M382,334.6c0-0.8-0.5-1.5-0.8-1.2c-1.4,1.6-3.4,2-4.9,3.2c-0.3,0.3-0.3,0.6,0,0.8
		c0.1,0.1,0.3,0.2,0.4,0.2C378.5,336.7,380.7,336.2,382,334.6z M404.8,304.2c-0.5-0.6-1.2-0.4-1.8-0.3c-0.4,0.1-1.1,0.2-0.9,0.7
		c0.3,0.7,1.1,0.4,1.8,0.3C404.3,304.9,404.8,304.8,404.8,304.2z M380.5,330.2c-0.4-0.4-0.8-0.9-1.2-1.3c-0.1,0.2-0.4,0.5-0.4,0.7
		c0,0.7,0.3,1.3,1,1.4C380,331,380.2,330.6,380.5,330.2z"/>
	<path d="M206,328.6c5.8,9.3,12.6,17.6,22,23.5c1.2,0.7,2.2,1.6,3.5,1.9c2.1,0.5,3.4,1.7,4.9,3.2c3.6,3.6,8.1,6.1,12.6,8.4
		c2.6,2.9,6.4,4,9.5,6.1c0,0.7,0,1.4,0,2.1c-0.6,0.1-1,0.3-1,1c0.3,0.3,0.6,0.6,0.9,0.9c0,0.7,0.1,1.5,0.1,2.2
		c-5.1-4.6-8.7-10.9-15.4-13.8c-2-0.9-3.7-2.6-5.7-3.3c-0.5-0.2-1.4,2.5-3.2,2.8c-0.5,0.1-0.9,0.4-1.3,0.7c-0.1,0.2-0.1,0.4,0,0.6
		c-0.8,0-1.7-0.4-2.3-0.1c-0.7,0.4,0.3,1,0.4,1.5c-0.4,0-0.8,0-1.2,0.1c-4.4-2.7-8.3-6-12.3-9.3c0.1-1.2,0.8-1.8,1.9-2
		c1,0.9,1.9,1.9,3,2.7c1.1,0.8,2.1,2.5,3.6,0.1c2-3.2,2.2-3.8-0.2-5.3c-6.9-4.5-12.7-10.2-18-16.4c-1.5-1.8-2.4-2.4-4.3-0.7
		c-1.5,1.3-3.5,1.7-5.1,0.1c-1.6-1.5-3.1-3.2-2-5.8c0.3-0.7,0.3-1.6,0.4-2.5c1-0.5,1.8-1.3,2.2-2.3c0.3-0.1,0.5,0,0.8,0.1
		c1.7,1.8,0.2,3.1-0.7,4.5c0.4,1.2-2.3,2.7,0.2,3.7c1.9,0.8,3.3,0,3.9-2c0.1-0.3-0.1-0.7-0.1-1C203.9,329.5,204,327.7,206,328.6z
		 M234.9,360c-0.4-1.3-1.1-2.6-2.7-2.4c-0.9,0.1-2.7-0.5-2.5,1.4c0.1,1.4,1.1,2.5,2.5,2.7C233.5,362,234.4,361.3,234.9,360z
		 M229.3,362.3c0.1-0.1,0.2-0.2,0.4-0.3c-0.1-0.1-0.2-0.3-0.3-0.3c-0.1,0-0.2,0.2-0.4,0.3C229.1,362,229.2,362.1,229.3,362.3z"/>
	<path d="M136.8,356.1c1.3-1.7,0.5-3.7,0.6-5.5c0.2-10.8,7.9-20.9,18.5-24.2c0.7,0.3,1.4,0.6,2.1,0.9c-0.7,0.1-1.3,0.3-2,0.5
		c-2.3,0.6-2.8,1.4-0.5,2.9c1.2,0.8,2.4,1.9,2.5,3.7c0.2,2.2-0.3,4.1-2.4,5.1c-2.7,1.3-5.6,1.6-8.3-0.1c-1.1-0.7-1.6-2.7-3.1-2.3
		c-1.5,0.4-1.9,2.3-2.8,3.5c-0.7,1.1-1.8,2.2,0,3.4c0.7,0.5,0.4,1.1-0.1,1.7c-3.6,4.7-2.9,8.1,2.1,10.6c1.1,0.5,2.2,1,3.3,1.5
		c4.5,1.9,4.5,1.9,6.8-2.4c0.5-1,0.8-2.4,2.2-2.5c1.4-0.1,1.9,1.1,2.3,2.3c0.6,1.6,1.2,2.8,2.3,0.2c0.7-1.6,1.4-4,3.8-1.5
		c0.6,0.6,1.1,0.1,1.2-0.3c0.5-3.6,5-2.3,6.1-5.1c0.2-0.6,1.7,0,1.6,0.4c-0.5,1.9-0.5,5.5-1.9,5.3c-3.3-0.4-4.2,1.9-6,3.4
		c-0.4,0.3-1.1,0.5-1.4,0.2c-1.2-1.4-2-1.4-2.9,0.4c-1.2,2.5-2.9,2.4-3.9,0c-1.8-4-2.6-0.4-2.7,0.5c-0.6,3.5-2.4,2.9-4.8,2
		c-2.5-1-4.9-2.5-7.7-2.7c-0.2-0.4-0.5-0.8-0.9-0.4c-0.4,0.4,0,0.7,0.4,0.9c1.2,4.3,5.1,5.4,8.4,7.2c-0.4,0.3-0.7,0.5-1.1,0.8
		c-3.8-0.5-6.7-2.5-8.3-5.8c-1.1-2.3-2.7-3.3-4.9-3.7C135.9,356.8,136.3,356.5,136.8,356.1z M151.5,337.9c1.8-0.1,3.7,0.2,4.1-2.1
		c0.3-1.7-1.7-4.2-3.1-3.9c-2,0.5-4.2,1.4-4.5,3.6C147.8,337.6,149.9,337.9,151.5,337.9z M146.2,334.1c-0.1,0.2-0.3,0.5-0.4,0.7
		c0,0.1,0.2,0.2,0.3,0.3c0.1-0.2,0.3-0.5,0.4-0.7C146.5,334.3,146.3,334.2,146.2,334.1z"/>
	<path class="st3" d="M472.1,385.1c3.6,1.9,7.5,0.5,11.3,1c-0.7,1.1-1.8,0.8-2.8,0.8c-8,0.5-16,0.1-24-1c-1.8-0.2-3.9-1.3-5.4-0.7
		c-1.9,0.7,0,3.7-1.7,5.1c-0.2,0.2-0.4,0.5-0.7,0.7c1,0.4,2,0.8,2.9,1.3c-5.3,1-10.6,1.3-15.7,3.2c-0.3-0.1-0.7-0.2-1-0.2
		c-0.5-0.6-1.2-0.9-1.9-1c0.8-1,1.8-1.6,3-1.6c0.8,0,1.2-0.2,0.9-1.1c-1.3-4-3.9-5.5-7.8-4c-6.8,2.7-13.8,4.2-20.8,6
		c-0.2-0.6-0.6-1.1-1.2-1.3c-2,0-4.1,0.1-6.1,0.1c-0.7-0.1-1.3-0.3-2-0.4c0-0.6,0-1.1,0-1.7c7.5,1.2,14.7,0.8,21.7-2.6
		c3.8-1.8,8.2-2.4,12-4.1c7.2-3.3,14.4-2,21.6-0.4C460.3,384.4,466.2,384.5,472.1,385.1z M444.3,385.5c-0.2-1.1-0.9-1.6-1.8-1.4
		c-1.5,0.3-2.9,0.8-4.3,1.4c-1,0.5-2.2,1.2-1.4,2.7c0.8,1.5,1.9,3,4,2.4C443.1,389.8,443.7,387.6,444.3,385.5z M448.6,387.5
		c-0.2-1-0.7-2.1-1.5-1.9c-2.3,0.3-1.4,2.8-2.3,4.1c-0.3,0.4,0.1,1,0.8,0.8C447.2,390.1,448.4,389.2,448.6,387.5z"/>
	<path d="M399.2,390.3c0,0.6,0,1.1,0,1.7c-2.2,0-4.6,0.6-6.5-0.2c-5.9-2.5-12.2-1.9-18.2-2.8l0.1,0.1c-0.7-1.3-1.8-2-3.3-2
		c0-0.4-0.1-0.6-0.4-0.5c0,0,0,0.3,0.1,0.3c0.1,0.1,0.3,0.1,0.4,0.1c0.2,1.2,1.2,1.7,2,2.4c-0.3,0.3-0.7,0.5-1,0.8
		c-1.6-0.8-2.7-2-3.3-3.7c-0.5-1.7-1.7-2.9-2.8-4.2c-1.7-2-2.7-2.5-5.1-0.3c-4.5,4.1-9.1,2.2-10.9-3.6c-0.7-2.4,0.2-3.9,1.5-5.5
		c1-1.2,1.2-2-0.5-2.6c-5.4-1.8-10.1-5.7-16-6c-0.7-0.3-1.5-0.6-2.2-0.9c-1.1-0.3-1.8-0.8-1.1-2c0.3,0.4,0.7,1,1,1
		c9.4,0.1,16.9,5.6,25.1,9c2.2,0.9,4.2,3,5.6,5.2c1.8,2.8,4.3,4.8,6.6,7.1c3.4,3.3,7.5,4.6,12.2,4.1c2.3-0.3,4.5-0.4,6.5,0.6
		C392.5,390.1,395.8,390.2,399.2,390.3z M361.1,377.4c0.1-1.4-2.7-3.7-4.8-3.9c-2.7-0.3-2.9,2.1-3.3,3.6c-0.4,2.2,1,3.4,3.2,3.8
		C358.2,381.2,360.9,379.3,361.1,377.4z"/>
	<path d="M208.1,353.4c-3.6-0.7-7.2-1.7-10.8-2.3c-2.7-0.4-5-0.2-7.2,1c-5.3,3.1-11,5-16.6,7.4c-0.4-0.3-0.8-0.7-1.1-1
		c5.8-3.1,11.5-6.3,17.8-8.5c1.1-0.4,2.9-0.2,2.2-2.4c-2.5-7.7-0.6-10.3,7.3-9.7c5.7,0.5,6.8,2.6,4.1,8c-0.5,1-0.6,1.7,0.6,1.5
		c3.9-0.7,6.9,1.3,10,3c-0.1,0.7-0.4,1.4-1,1.8c-3.3-3.5-7.5-3.4-11.8-3.1c-0.5,0-0.9,0.3-1.4,0.4c0.4,0.2,0.9,0.6,1.3,0.6
		c2.8,0,5.2,1.6,7.8,2.3C208.9,352.7,208.5,353,208.1,353.4z M201.4,343.9c0.1-1.3-1.9-3.7-3.2-3.5c-1.8,0.2-3.3,1.1-3.7,3
		c-0.3,1.8,1.5,3.6,3.4,3.6C200.1,347,200.9,345.6,201.4,343.9z"/>
	<path d="M302.7,345c0.7-1.8,2-3.2,3.3-4.5c7.5-7.8,10.3-17.4,10-28c-0.1-4.2-0.7-8.5-1-12.7c-0.1-1.8,0.3-3.8-1.2-5.3
		c0.3-1.2,0.4-2.3-0.8-3c0-0.4-0.1-0.8-0.1-1.1c-1.6-3.3-4-6.1-7.1-8.2l0.1,0.1c-0.1-0.6-0.5-1.1-1.1-1.1l0.1,0.1
		c-0.1-0.7-0.5-1-1.1-1.1l0.1,0.1c-0.1-0.6-0.5-1-1.1-1c-0.4-0.4-0.7-0.7-1.1-1.1c0-0.7-0.4-1-1-1.1l0.1,0.1
		c-0.1-0.7-0.4-1.1-1.1-1.1l0.1,0.1c-0.1-0.7-0.5-1-1.1-1.1l0.1,0.1c-0.1-0.6-0.5-1-1.1-1.1l0.1,0.1c-0.1-0.6-0.5-1-1.1-1.1l0.1,0.1
		c-0.3-1.3-1.7-1.7-2.2-2.7c0-0.4,0-0.8,0.1-1.1c1.6,1.3,3.3,2.6,4.9,3.9c0.8,1.3,2,2.3,3.3,3c1.6,1.8,3.1,3.8,5.1,5.2
		c0.3,1.1,1.3,1.5,2.2,1.9c2,2.8,3.9,5.6,5.9,8.4c0,0.3,0.1,0.6,0.2,0.9c0.1,0.6,0.2,1.3,0.2,1.9c0.2,0.7,0,1.6,0.7,2.2
		c0,0.3,0,0.7,0.1,1c0,1,0.1,2.1,0.1,3.1c0.1,2,0.2,4,1,5.9c0,0.5,0,1,0.1,1.5c-0.1,1.3,1,2.3,0.6,3.6c-0.7,0.5-0.6,0.9,0.1,1.3
		c0.2,2.3-1.1,4.2-1.2,6.4c-0.3,6.8-3.1,12.7-6.9,18.1c-0.1,0.3-0.1,0.6,0,0.9c-1.7,1.9-4.3,3.3-3.6,6.5c-0.1,0.3-0.3,0.5-0.5,0.7
		c-3.3-0.6-2.6,3.1-4.3,4.2c-1.2,0.8-2,1.7-1,3.2c-0.3,0.3-0.6,0.6-0.9,0.9c-0.6,0.1-1.3,0.3-1.9,0.4c0.3-1.2,0.6-2.3,0.9-3.5
		c0-0.4,0-0.7,0.1-1.1l-0.1,0.1c0.7-0.1,1-0.4,1-1.1C302.5,348.4,302.9,346.8,302.7,345z"/>
	<path class="st4" d="M291.8,473.2c-0.3-0.4-0.6-0.8-0.9-1.2c-1.2-2.3-2.6-3.8-4.4-0.5c-0.5,1-1.3,0.8-2.2,0.7
		c-0.2-0.5-0.5-0.8-1-0.9c0-0.3-0.1-0.7-0.1-1c0.3-0.4,0.7-0.8,1-1.2c0.5-0.9,1.3-1.6,1.2-2.7c6.1-1.6,9.8-5.3,10.5-11.9
		c0.2-1.9,1.5-3.7,1.8-5.7c1.1-0.9,0.8-3.1,2.9-3.1c0.1,0.4,0.2,0.7,0.3,1.1c-1.4,3.9-2.7,7.9-4,11.8c-0.4,1.1-0.3,2.3-0.6,3.5
		c-0.4,1.6,0.1,2.2,1.8,1.9c3.1-0.6,4.7,1.6,6.1,3.6c1.4,1.9,0.1,3.9-0.6,5.8c-0.4,1.1-1.3,0.7-2,0.1c0-0.7-0.1-1.4-0.1-2.1
		c0.3-5.4-0.2-5.8-5-4.2c-0.3,0.1-0.6,0.2-0.9,0.4c-1.4,0.8-2.4,1.8-2.2,3.6C293.6,472.2,292.9,472.9,291.8,473.2z"/>
	<path class="st5" d="M332.3,361.5c-0.7,1.3,0,1.7,1.1,2c0.8,0.2,1.5,0.6,2.2,0.9c-5.2,1.3-5.7,2.3-3,6.7c0.6,1,1.3,2,2.2,2.7
		c2.1,1.4,0.6,2.2-0.3,3.3c-1.3,1.4-2.3,0.7-3.5-0.1c-0.5-0.3-1.1-1.7-1.7,0c-0.8,2.1-2,1.3-2.9,0.2c-1.3-1.5-1.8-1-2.2,0.6
		c-0.3,1-0.7,1.9-1.1,2.8c-0.2,0.5-0.6,0.9-1.1,0.6c-0.5-0.3-0.2-0.8,0-1.3c0.3-0.6,0.4-1.3,0.6-1.9c0.9-0.5,0.9-1.3,0.7-2.1
		c0.6-1.3,1-2.5,0.5-3.9c-0.4-1.1-0.4-2.3,0.5-3.3c3.9-0.2,2.9-4,4.2-6c2.1-4.1,4.5-8,9.1-9.7c-0.3,1.2-0.6,2.4-0.9,3.6
		c-0.3,0.3-0.6,0.7-0.9,1c-0.9,0.5-1.6,1.2-2.1,2.1C333.2,360.2,332.7,360.8,332.3,361.5z M332.1,375l-0.2,0.3l0.4,0L332.1,375z"/>
	<path d="M366.3,344.8c-0.6,0.4-2,0.1-1.4,1.4c3.3,6.8,0.7,13.7,0.4,20.5c0,1.3-1.1,1.3-1.8,0.8c-1.3-1.1-2.5-2.3-3.3-3.8
		c-1-1.9-2.6-3.1-4.1-4.4c0.6-0.7,1.3-1.3,1.9-2c1.9,1.1,3.2,2.5,3.4,4.8c0,0.4,0.5,1,0.9,1.1c1,0.2,0.9-0.8,1-1.3
		c0.4-5.5,1.5-11.1-2.9-15.9c-2.3-2.6-2.1-2.8,1.5-4.3c0.4,0.4,0.8,0.8,1.2,1.1c-0.7,0.3-2.1,0-1.8,1.2c0.3,1.5,1.2-0.2,1.8,0
		c0.3,0.1,0.7,0,1-0.1C364.9,344.2,365.6,344.5,366.3,344.8z"/>
	<path class="st6" d="M312.1,469.3c-0.8,1.3-1.4,2.6,0.1,3.8c2.5,1.6,3.7,1.6,8,0.3c0.7,0,1.3,0,2-0.1c3.2,0.5,6.8-1.6,9.6,1.5
		c0.4,0.5,1.5,0.3,1.3,1.2c0,0.2-0.9,0.3-1.4,0.3c-3.6,0.1-7,1.7-10.6,0.9c-3.3-1.6-6.8-0.9-10.2-0.4c-1.4,0.2-1.2,1.3,0.2,1.7
		c-2.7,0.2-5.7,1.3-7.3-2.2l0,0c1.6-0.2,3.2-0.2,4-1.9c1-1.3-0.3-0.9-0.8-1.1c0.9-3.3,0.9-3.3,4.7-4.1
		C311.8,469.4,311.9,469.3,312.1,469.3z"/>
	<path d="M290.4,368.7c1.7-0.3,2.2-2.2,4-2.6c3.4-0.7,1.9-2.8,1-4.6c0.3-0.3,0.6-0.7,0.9-1l0.4-0.1c1.3,2.4,1.4,2.5,2.9,1
		c0.8-0.5,0.9-1.3,0.9-2.2c1.1-1.3,2.1-0.5,3.2,0.2c0.6,1,1.3,2,1.1,3.3c-0.7,0.2-1.2,0.8-0.8,1.3c0.7,0.8,1.7,0.4,2.6,0.3
		c1.9,0.2,3.7,0.3,5.4-0.7c0.3,0,0.6-0.1,0.9-0.2l0,0.4c0.3-0.1,0.7-0.2,1-0.3l0,0c2.2,0.7,0.9,1.4-0.1,2c-2.1,0.7-4.1,1.4-6.2,2.2
		c-0.6,0.2-1.2,1-1.7,0.2c-2.3-3.7-4.8-1.2-7.3-0.3c-2,0.7-4.1,1.5-6.1,2.3C292,369.5,291.2,369.1,290.4,368.7z"/>
	<path d="M182.6,321.5c0,0.3,0,0.6,0,0.9c0,0.8,0.1,1.5,0.1,2.3c0.4,1.2,0.3,2.7,1.4,3.6c0.7-0.9,1.4-1.9,2.1-2.8
		c0.2-0.3,0.3-0.6,0.4-0.9c0.1-0.3,0.1-0.6,0.1-1c0.6-0.1,1.3-0.1,1.9-0.2c0.4-0.3,0.8-0.6,1.1-1l0,0c1.1,1,0.4,1.9-0.1,2.9
		c-2,2.6-4.8,4.7-4.8,8.6c0,1.1-1.1,2.1-2.1,2.7c-1.1,0.6-2.3,0.9-3.3,0.1c-1-0.8-1.1-2-0.5-3.2c0.5-1.1,1.3-2,1.9-2.9
		c1.8-2.9,0-6.1-3.4-6.1c-1,0-2,0.1-3,0.2c-0.1-1.2-0.2-2.4-0.3-3.5l0.2,0.2l-0.2-0.2c0.4,0.1,0.9,0.2,1.3,0.3
		c0.1,0.3,0.2,0.7,0.3,1c0.2,0.7,0.5,0.3,0.7,0c0.7,0,1.4-0.1,2-0.1C180.1,323.1,181,320.5,182.6,321.5z"/>
	<path class="st7" d="M358,357.4c-0.6,0.7-1.3,1.3-1.9,2c-2.5-1.3-4.5-3.3-7.3-4.3c-3-1-5.6-1.3-7.7,1.3c-1,1.2-1.7,0.7-2.5,0
		c0.1,0,0.3,0,0.4-0.1c0.1,0,0.1-0.3,0.1-0.3c-0.3-0.1-0.4,0.1-0.4,0.5c-0.7,0-1.4,0-2.1,0c0.3-1.2,0.6-2.4,0.9-3.6
		C344.1,349.6,353.2,351.7,358,357.4z"/>
	<path class="st8" d="M374.5,468.5c-2.9,0.9-6.2-0.8-9,2.1c-1.2,1.3-1.9-0.2-2.1-1.6c-0.3-1.3-3.2-0.9-2.3-2.6c0.5-1,2.6,0,3.9-0.2
		c6.6-0.9,13.1,0.3,19.7,0.1c0.5,0,1.2-0.3,1.7,0.4c-0.5,0.1-1,0.2-1.4,0.4C381.5,468.2,378.3,469.7,374.5,468.5z"/>
	<path d="M174.2,321.1c0.1,1.2,0.2,2.4,0.3,3.5c1,2.4,1.3,4.9,0.9,7.5c-0.4,2.7-2.4,4.3-4.5,3.6c-2.3-0.9-2.1-2.9-1.3-4.6
		c1-2,1.3-3.9-0.2-5.7c-0.1-1,0.1-2.2-1.1-2.9c-0.5-0.2-0.9-0.6-0.7-1.1c0.4-0.8,1.2-0.5,1.6,0C171,323.9,172.6,322.7,174.2,321.1z
		 M172,324.8c-0.6,0.3-0.5,0.8-0.3,1.3c0.3,0.6,0.7,1.6,1,1.6c0.9,0,0.5-0.9,0.4-1.4C173,325.6,172.6,325.1,172,324.8z"/>
	<path class="st9" d="M203,468.3c-1.7,0-3.4,0-5.1,0c-0.6,0-1.6,0.2-1.5-0.7c0-0.8,1-0.8,1.6-0.8c8.3-0.6,16.7-1.2,25-1.7
		c2.9-0.2,5.8-0.4,8.7-0.5c0.6,0,1.6-0.2,1.6,0.7c0,0.8-1,0.8-1.6,0.8c-3.7,0.3-7.5,0.8-11.2,0.9C214.5,467.1,208.8,468.5,203,468.3
		z"/>
	<path class="st10" d="M291.8,473.2c1.1-0.3,1.8-1,1.6-2.2c-0.2-1.8,0.7-2.8,2.2-3.6c0.2,0.6,0.5,1.3,1.1,1.5
		c1.9,0.5,2.5,1.1,0.2,2.1c-0.4,0.2-0.8,0.5-1.1,0.8c0.4,0.1,0.9,0.4,1.3,0.3c1.5-0.2,2.9-0.6,4.3-0.9c0,0.7,0.1,1.4,0.1,2.1
		c-0.3,0-0.7,0-1,0c-1.5,0.1-3-0.3-4.5,0.3c1.1,1.2,2.7,0.7,4,1.3c1.2,0.6,2.7,0.3,3.7,1.5l0,0c-3.3,1.6-7,0.8-10.3,2
		c1.1-3.1-1-2.4-2.6-2.2c-0.6,0.1-1.2,1.1-1.7,0.3c-0.6-0.8,0.3-1.5,0.7-2.2c0.2-0.3,0.3-0.6,0.5-0.9
		C290.8,473.3,291.3,473.3,291.8,473.2z"/>
	<path d="M388.2,351.3c-2.4,3.2-2.6,3.3-4.4,0.4c-1.2-2-2.7-3.2-4.9-4c-2.2-0.8-4.3-1.9-6.4-2.8c0.1-1-0.9-2.1,0.2-3
		c3.3,0.7,6.8,1.1,9.4,3.4c2.8,2.5,2.9,0.1,3.6-1.5C386.2,346.3,384.2,349.8,388.2,351.3z"/>
	<path d="M258.5,375.8c-0.3-0.3-0.6-0.6-0.9-0.9c0.5-0.1,0.9-0.4,1-1c0-0.7,0-1.4,0-2.1c1.4,0,2.7,0,4.1,0.1
		c3.7,2.3,7.5,2.5,11.6,1.1c1.9-0.6,3.8-1.6,5.9-1.3c-0.7,1-1.4,2-2.1,3c-1.7,0.2-3.6,0-4.9,0.8c-3.5,2.2-7.2,1.5-10.9,1.3
		c-0.2,0-0.3,0-0.5,0C260.8,375.7,259.6,376,258.5,375.8z M262.9,374.3c-0.2-0.2-0.5-0.5-0.7-0.5c-0.2,0-0.5,0.3-0.7,0.5
		c0.2,0.2,0.5,0.5,0.7,0.5C262.4,374.8,262.7,374.5,262.9,374.3z"/>
	<path class="st11" d="M290.3,473.4c-0.2,0.3-0.4,0.6-0.5,0.9c-0.4,0.7-1.3,1.4-0.7,2.2c0.5,0.7,1.1-0.2,1.7-0.3
		c1.7-0.3,3.8-0.9,2.6,2.2c-3.2-0.4-6.2,1.1-9.3,1c-1.4-1.4-3.2-0.8-4.9-0.8c0.5-0.4,1.3-0.8,1.5-1.3c0.4-1.2-0.7-0.6-1.2-0.8
		c-0.3-0.1-0.7,0-1,0c-0.7-0.1-1.9,0.1-1.8-1.1c0.1-1,1.2-1.1,2-1C282.6,474.5,286.5,473.7,290.3,473.4z"/>
	<path class="st12" d="M240.3,468.3c3.4,2,6.9,0.6,10.4,0.6c1,0,2-0.5,3-0.6c0.8-0.1,1.9-0.3,1.9,1c0,0.8-0.9,0.9-1.5,0.9
		c-3.1,0.1-6,1.2-9.1,1.1c-2,0-4.1,0.2-5.7,1.8c-1.4-0.3-2.9-0.6-4.3-0.9c0.5-0.8,1.8-1.3,0.5-2.6c-0.5-0.5-0.1-1.2,0.5-1.6
		C237.3,469.9,238.8,467.9,240.3,468.3z"/>
	<path d="M229.8,366.6c0.4,0,0.8,0,1.2-0.1c0.7,0,1.3,0.1,2,0.1c0,0.6,0.4,0.8,0.9,0.9c0.3,0.4,0.6,0.8,1,1.1c0.2,0,0.2,1,0.7,0.2
		c-0.3,0-0.5-0.1-0.8-0.1c0.1-0.8-0.4-1-1-1.1c0-0.6-0.2-0.9-0.9-0.9c0-0.5,0-1.1,0-1.6c0-0.2,0-0.4,0-0.6
		c3.9,3.3,8.2,6.2,11.2,10.4c-0.7,0.6-1.3,1.3-2,1.9C238.1,373.3,234,369.9,229.8,366.6z"/>
	<path d="M278.1,374.6c0.7-1,1.4-2,2.1-3c3.2-1.7,6.8-2.2,10.3-3c0.8,0.4,1.5,0.8,2.3,1.2C288.5,373.4,283.6,375,278.1,374.6z"/>
	<path d="M172.4,358.4c0.4,0.3,0.8,0.7,1.1,1c-5.9,4.3-12.5,7-19.6,8.1c-1.7,0.3-3.7,0.5-5.2-1c0.4-0.3,0.7-0.5,1.1-0.8
		C158.3,366.4,165.3,362.4,172.4,358.4z"/>
	<path class="st13" d="M361.3,460.9c-3.6,0.8-7.5,0.1-11.4,0c-0.5,0-1.4-0.2-1.4-0.3c0-0.7,0.6-0.7,1.1-0.7
		c6.6-0.3,13.1-1.4,19.8-0.8c0.4,0,1.1,0.4,1.2,0.7c0.2,1-0.7,1.1-1.3,1.1C366.7,461,364.1,460.9,361.3,460.9z"/>
	<path class="st7" d="M388.2,351.3c-4-1.5-2-5-2.5-7.6c-0.5-2.3-1.1-4.6-1.6-6.9c0.2,0,0.4,0,0.7,0.1c0.9-0.7,1-1.3,0.1-2.1l0,0
		c0.3-0.7,0.7-1.4,1-2.1l0,0c0.2,0.1,0.5,0.1,0.7,0.1c0.1,0.6,0.2,1.3,0.3,1.9c0.2,0.4,0.5,0.7,0.7,1.1c0,0.4,0.1,0.7,0.1,1.1
		c-0.2,0.5-0.4,1-0.7,1.5C387.8,342.6,388.6,346.9,388.2,351.3z"/>
	<path class="st14" d="M296.4,360.5c-0.3,0.3-0.6,0.7-0.9,1c-3.6-4.4-0.3-7.9,1.8-11.3c1.3-2.1,3.1-4.1,5.5-5.2
		c0.1,1.8-0.3,3.3-2.1,4.1c-0.3,0.4-0.7,0.7-1,1.1l0.1-0.1c-0.5,0.3-1.4,0.6-0.1,1.1c-0.3,1.2-0.6,2.3-0.9,3.5
		c-0.1,0.5-0.1,1.1-0.2,1.6c-0.7,0.3-1.3,0.7-2,1c0-0.7,0-1.4,0-2c0.2-0.2,0.6-0.4,0.7-0.6c0.1-0.4-0.2-0.6-0.4-0.2
		c-0.2,0.3-0.1,0.6-0.2,0.9c-1.5,0.6-0.6,1.3-0.1,1.9C297.1,358.4,297,359.4,296.4,360.5z"/>
	<path class="st15" d="M322.4,472.3c0-2.2-1.3-5.3,0.8-6.4c1.8-0.9,4.5,0.6,6.2,2.2c0.1,1.4,0.9,3.1-1.6,3.1
		C326,471.3,324.1,471.2,322.4,472.3z"/>
	<path class="st16" d="M439.5,318.4c-2.4-2.3,0.2-3.7,0.9-5.4c2.7,2.6,3.9,5.9,4.4,9.5c0.1,0.4-0.2,1.1-0.5,1.3
		c-0.6,0.4-0.7-0.5-1.1-0.7C441.6,321.9,440.1,320.5,439.5,318.4z"/>
	<path d="M132.6,357.5c-0.8,1.1-2,1.7-2.3,3.3c-0.4,2.1-2.2,3.4-3.8,4.6c-0.5,0.4-1.4,0.4-1.8-0.2c-0.1-0.2,0.3-0.9,0.6-1.2
		c0.5-0.5,1.1-0.8,1.6-1.3c2.1-2.4,1.7-3.7-1.5-4.4c-0.8-0.2-2,0.3-2-0.8c0-1.4,1.5-0.9,2.4-1.1c1.9-0.4,3.4,1.7,5.3,1
		C131.6,357.3,132.1,357.4,132.6,357.5z"/>
	<path class="st17" d="M372.7,341.8c-1.1,1-0.1,2-0.2,3c-2.1,0-4.2,0-6.3,0c-0.7-0.3-1.3-0.6-2-0.9c-0.3-0.4-0.7-0.7-1-1.1
		c-0.4-0.4-0.8-0.8-1.2-1.1C365.6,340.1,369.2,341.2,372.7,341.8z"/>
	<path class="st9" d="M240.4,465.1c-1.2,0.1-2.4,0.1-3.6,0.2c-0.5,0-1,0.1-1-0.6c0-0.2,0.5-0.5,0.8-0.5c5.6-0.7,11.1-2.8,16.9-1.1
		c0.5,0.1,0.9,0.3,1.4,0.4c-0.4,0.2-0.9,0.5-1.3,0.5C249.2,463.7,244.9,465.2,240.4,465.1z"/>
	<path d="M208.1,353.4c0.4-0.3,0.8-0.6,1.2-1c1.3-0.8,2.8,1.6,4.1-0.2c0.6-0.5,0.9-1.1,1-1.8c1.7,1.7,2.9,3.8,5.1,4.9
		c-1.1,0.2-1.8,0.8-1.9,2C214.4,356,211.2,354.7,208.1,353.4z"/>
	<path class="st18" d="M240.3,468.3c-1.4-0.4-3,1.6-4.3-0.2c5.2-2.5,10.9-1.5,16.4-2.7c0.4-0.1,1.2,0.3,1.3,0.6
		c0.2,0.9-0.5,1.1-1.2,1.2C248.3,467.5,244.3,467.9,240.3,468.3z"/>
	<path class="st19" d="M300.6,445.6c-2.1,0-1.8,2.2-2.9,3.1c0-1.4-0.5-2.5-2-3.1c-1.2-0.4-2.5-0.9-3.3-2.1c2-0.3,4.3,0.6,6.1-0.9
		c2.2-0.2,4.4-0.4,6.4,0.8c-1.4,0.4-3.2-0.3-4.2,1.2C300.6,445,300.6,445.3,300.6,445.6z"/>
	<path class="st20" d="M234.9,472.3c1.4,0.3,2.9,0.6,4.3,0.9c2.7,0.5,5.3-1.1,8-0.8c0,0.6-0.1,1.2-0.1,1.7c-2,0.1-3.9,0.2-5.9,0.4
		c-2.6,0-5.4-0.7-7.3,2C230.4,474.2,235,473.8,234.9,472.3z"/>
	<path d="M199.2,329.8c0.9-1.4,2.3-2.7,0.7-4.5c4.5-1.1,4.7-1,6.2,3.3c-2-0.9-2.2,0.9-2.8,2C201.9,329.9,200.7,329.3,199.2,329.8z"
		/>
	<path d="M168.3,322.4c1.1,0.7,0.9,1.9,1.1,2.9c-4-0.5-7.6,1.6-11.4,2.1c-0.7-0.3-1.4-0.6-2.1-0.9c3.4-1.3,6.8-2.6,10.4-2.9
		c0.7,0.7,1.4,0.5,2-0.2C168.3,323.1,168.3,322.8,168.3,322.4z"/>
	<path class="st21" d="M312.9,290.5c0,0.4,0.1,0.8,0.1,1.1c-1.1,1.4,0.1,2.2,0.8,3c1.5,1.5,1.1,3.4,1.2,5.3
		c-1.3-2.7-2.7-5.3-4.6-7.7c-1.3-1.7-2.6-3.5-2.5-5.8C310,287.2,309.7,291,312.9,290.5z"/>
	<path class="st22" d="M423.9,461c-3.7,0.3-7.4,0.7-11.2,1c-0.8,0.1-2,0.3-2-0.8c0-1,1.2-1.1,2-1.1c3.7-0.1,7.5,0,11.1-1.1
		C423.9,459.6,423.9,460.3,423.9,461z"/>
	<path d="M189.8,325.3c0.5-1,1.2-1.9,0.1-2.9c0.6-0.6,1.2-1.2,1.8-1.7c0.7-0.5,1.6-0.1,1.3,0.6c-2.1,4.9,2.2,3,3.9,3.5
		c0.5,0.2,1.5-0.3,2.2,0.3c-0.4,1.1-1.2,1.8-2.2,2.3C194.7,326.3,192.3,325.5,189.8,325.3z"/>
	<path class="st19" d="M301.7,278.3c0.4,0.4,0.7,0.7,1.1,1.1c0.1,0.6,0.5,0.9,1.1,1l-0.1-0.1c0.1,0.6,0.5,1,1.1,1.1l-0.1-0.1
		c0.1,0.6,0.5,1,1.1,1.1l-0.1-0.1c0.2,2.4-1,2.1-2.4,1.1c-2-4.3-6.3-6.5-9-10.1l0.1-0.1c0.7,0,1.4,0,2.1,0l-0.1-0.1
		c0.4,0.4,0.8,0.8,1.1,1.1l-0.1-0.1c0.4,0.4,0.8,0.8,1.1,1.1l-0.1-0.1c0.4,0.4,0.8,0.8,1.1,1.1l-0.1-0.1c0.4,0.4,0.8,0.8,1.1,1.1
		c0,0-0.1-0.1-0.1-0.1C301,277.5,301.3,277.9,301.7,278.3z"/>
	<path class="st23" d="M247.1,474.1c0-0.6,0.1-1.2,0.1-1.7c3.4-0.1,6.8-0.4,10.1-1c0.8-0.1,2-0.1,2.2,0.7c0.2,1.2-1.1,1-1.8,1.1
		C254.2,473.6,250.6,473.8,247.1,474.1z"/>
	<path class="st24" d="M234,476.5c1.8-2.8,4.6-2.1,7.3-2c0.6,1.2,2.3,2.9-0.9,2.9C238.2,477.4,235.9,477.9,234,476.5z"/>
	<path class="st25" d="M303.4,283.4c1.4,0.9,2.6,1.3,2.4-1.1c3.1,2.1,5.4,4.8,7.1,8.2c-3.1,0.5-2.9-3.2-5-4l0,0.1
		c-0.2-0.9-0.9-1.1-1.7-1.1c-1.2,0.1-2.4-0.2-3.3-1C302.4,283.9,302.9,283.6,303.4,283.4z"/>
	<path class="st26" d="M384.9,461c-1.1,0-1.8,0.1-2.4,0c-0.4-0.1-1.1-0.2-1.2-0.5c-0.2-0.6,0.4-0.8,0.9-1c0.6-0.2,1.3-0.5,1.9-0.4
		c1.7,0.2,4.5-1,4.7,1C388.9,461.7,385.9,460.5,384.9,461z"/>
	<path class="st27" d="M311,478.6c-1.5-0.4-1.6-1.5-0.2-1.7c3.4-0.5,6.9-1.2,10.2,0.4C317.7,477.7,314.4,478.2,311,478.6z"/>
	<path class="st28" d="M363,472.2c1.9,0.4,3.5-0.2,5.1,0.5c-1.2,1.9-3,0.2-4.6,0.7c-1.6,0.5-3.3,0.7-5,0.9c-0.4,0-0.8-0.4-1.2-0.6
		c0.3-0.4,0.5-1,0.9-1.1C359.9,472.4,361.6,472.3,363,472.2z"/>
	<path class="st29" d="M283.3,471.3c0.5,0.1,0.9,0.4,1,0.9c-0.8,0.3-1.5,0.7-2.3,0.9c-3.4,0.8-3.4,0.7-2.9-2.7
		c0.1-0.3-0.2-0.6-0.3-1c0.4-0.4,0.8-0.8,1.3-1.2c1.4,0,1.4,1.4,2.1,2C282.6,470.6,283,470.9,283.3,471.3z"/>
	<path class="st21" d="M294.4,273.3c-3.1-1.1-5.1-3.7-7.9-5.3c-1-0.6-0.5-1.4-0.1-2.1c0,0-0.1,0-0.1,0c0.3,1.2,1.3,1.1,2.2,1.1
		l-0.1-0.1c0.6,1.4,1.7,2.1,3.2,2.2l-0.1-0.1c0.1,0.6,0.6,1,1.1,1.2l-0.1-0.1c0.7,1.1,1.4,2.1,2.1,3.2L294.4,273.3z"/>
	<path class="st30" d="M380.9,453.9c-0.1-0.7-0.2-1.4-0.3-2.1c1.1-0.2,2.1-0.6,2.3-1.9c1.7-0.2,2.9,0.7,4.1,1.8
		C385.1,452.7,383.2,454,380.9,453.9z"/>
	<path class="st29" d="M285.4,466.3c0.1,1.1-0.7,1.9-1.2,2.7c-1.7-0.3-2.8-2.6-4.9-1.7L279,467C281,465.5,283.2,466.1,285.4,466.3z"
		/>
	<path class="st31" d="M435.4,303.8c-0.9,0-1.7-0.1-2.2-0.9c1.1-0.5,0.6-0.8-0.1-1l0.1,0.1c0.1-1.2-0.6-2.1-1.1-3.1
		c0-0.4,0-0.8,0-1.2C434.2,299.1,435.3,301.2,435.4,303.8z"/>
	<path class="st20" d="M280.2,468.3c-0.4,0.4-0.8,0.8-1.3,1.2c-0.8-0.1-1.7-0.1-2.5-0.2c-0.4-0.1-1.1-0.3-1.2-0.6
		c-0.2-0.5,0.4-0.9,0.9-1c1-0.3,1.9-0.4,2.9-0.7l0.3,0.4C279.6,467.7,279.9,468,280.2,468.3z"/>
	<path class="st32" d="M279.2,478.6c1.7,0,3.5-0.6,4.9,0.8l0,0c-1.1,0.1-2.2,0.3-3.1,1C279.8,480.5,278.9,480.1,279.2,478.6z"/>
	<path class="st33" d="M333.6,359.5c0.5-0.9,1.2-1.6,2.1-2.1C336.3,359.4,336.3,360.8,333.6,359.5z"/>
	<path d="M186.8,323.6c0,0.3,0,0.7-0.1,1c-1.3,0-2.6,0.1-3.9,0.1c0-0.8-0.1-1.5-0.1-2.3C184.1,322.4,185.4,323.1,186.8,323.6z"/>
	<path d="M182.6,321.5c-1.6-1-2.5,1.6-4.1,0.8C179.5,320,180.9,320.1,182.6,321.5z"/>
	<path d="M136.8,356.1c-0.5,0.3-0.9,0.7-1.4,1c-0.4,0-0.7,0-1.1,0c-0.7-0.3-1.4-0.6-2.1-0.9C133.7,355.1,135.3,355.2,136.8,356.1z"
		/>
	<path class="st34" d="M432.1,297.6c0,0.4,0,0.8,0,1.2c-0.4,0-0.7,0-1.1,0l0.1,0.1c0-0.5-0.1-0.9-0.1-1.4c0-0.4,0.1-1.2,0.2-1.2
		C431.9,296.4,432.1,297,432.1,297.6z"/>
	<path class="st35" d="M399.3,459.4c0.2,0.2,0.3,0.4,0.5,0.6c-0.2,0.1-0.5,0.3-0.7,0.4c0,0-0.3-0.3-0.2-0.3
		C398.9,459.8,399.1,459.6,399.3,459.4z"/>
	<path class="st9" d="M261.6,463.5c-0.1,0.1-0.1,0.3-0.2,0.3c-0.3,0-0.5-0.1-0.8-0.2c0.1-0.1,0.1-0.3,0.2-0.3
		C261.1,463.3,261.4,463.4,261.6,463.5z"/>
	<path class="st36" d="M423.9,461c0-0.7,0-1.3,0-2c0.6,0.1,1.5-0.1,1.5,0.8C425.4,460.5,424.6,460.8,423.9,461z"/>
	<path class="st11" d="M281.1,480.4c0.9-0.8,2-0.9,3.1-1C283.4,480.6,282.3,480.6,281.1,480.4z"/>
	<path d="M132.3,356.3c0.7,0.3,1.4,0.6,2.1,0.9c-0.6,0.1-1.1,0.2-1.7,0.3c-0.5-0.1-1-0.1-1.5-0.2
		C131.3,356.7,131.6,356.3,132.3,356.3z"/>
	<path d="M175.5,321.4c-0.4-0.1-0.9-0.2-1.3-0.3c0.4-0.7,1.3-1.4,1.9-1C176.8,320.6,176.1,321.2,175.5,321.4z"/>
	<path d="M168.2,323.5c-0.6,0.7-1.2,0.9-2,0.2C166.9,323.6,167.6,323.5,168.2,323.5z"/>
	<path class="st37" d="M435.2,395.3c0.3,0.1,0.7,0.2,1,0.2c-0.7,0.3-1.4,0.5-2,0.8C434.5,396,434.8,395.6,435.2,395.3z"/>
	<path class="st0" d="M423.9,312c1-0.7,1.5-0.2,2,0.7C425.2,312.5,424.5,312.2,423.9,312z"/>
	<path class="st38" d="M306.2,285.4c0.8,0.1,1.5,0.2,1.7,1.1C307.4,286.2,306.8,285.8,306.2,285.4z"/>
	<path d="M176.5,322.4c-0.2,0.3-0.5,0.6-0.7,0C176,322.4,176.2,322.4,176.5,322.4z"/>
	<path d="M189.8,322.5c-0.4,0.3-0.8,0.6-1.1,1C189.1,323.1,189.4,322.8,189.8,322.5z"/>
	<path class="st39" d="M386.6,332.7c-0.3,0-0.5,0-0.7-0.1c0-0.4,0.1-0.7,0.1-1.1C386.2,331.9,386.4,332.3,386.6,332.7z"/>
	<path class="st39" d="M387.6,335.7c-0.2-0.4-0.5-0.7-0.7-1.1C387.2,335,387.4,335.4,387.6,335.7z"/>
	<path class="st39" d="M387.1,338.4c0.2-0.5,0.4-1,0.7-1.5C387.5,337.3,387.3,337.8,387.1,338.4z"/>
	<path class="st40" d="M306.2,261.5c2.1-1.4,4.4-1.6,6.8-0.7c6.5,2.7,13.6,2.9,20.3,4.4c-0.8,2.4-2.5,1.6-4.2,1.3
		c-4.3-1-8.5-2.4-12.9-2.6c-0.7,0-1.7-0.2-1.9,0.4c-0.2,0.8,0.9,0.6,1.3,1c2.2,1.7,5.1,1.8,7.5,2.8c0.3,0.1,0.6,0.2,0.9,0.3
		c0.4,0.2,0.8,0.4,1.3,0.6c0.3,0.1,0.6,0.1,0.9,0.2c-0.5,0.8-1.3,1-2.2,1.2c-6.8-3.2-14.1-3.5-21.4-4.4c1-0.6,2-1.3,3-1.9
		c0.5-0.1,1.4,0.3,1.3-0.7c0-0.1-0.8-0.2-1.3-0.4l0,0c0-0.3,0-0.7,0-1L306.2,261.5z"/>
	<path class="st41" d="M336.6,315.2c0.4,0,0.8,0,1.1,0.1c0.3,0.3,0.6,0.6,0.8,0.8c-1,2.8-2,5.6-3,8.4l0-0.1c-1,3.6-3.7,5.5-6.7,7.2
		c-0.8,0.3-1.2,1-1.5,1.7c-0.5,0.5-1,1-1.4,1.4c-0.6,0.3-1.3,0.4-1.6,1.1l0,0.1c-0.7,0-1.4-0.1-2.2-0.1c1.8-2,3.6-4,5.4-5.9
		c1.1-0.3,1.8-1.1,1.9-2.3c1.7,0,2.8-0.8,3.4-2.3c0-0.1-0.2-0.4-0.3-0.4c-1.7,0.1-2.3,1.5-3.1,2.7c-1,0.4-1.7,1.1-2.3,1.9
		c-0.7-0.1-1.4-0.2-1.8-0.8l0,0c0.3-0.3,0.7-0.6,1-0.9c2.4-1.7,4.4-3.9,6.2-6.2c0.9-0.5,1.6-1.2,2-2.1c0.9-0.9,1-2,1-3.1
		c0.1-0.3,0.2-0.6,0.2-1C336,315.3,336.3,315.2,336.6,315.2z"/>
	<path class="st42" d="M305.8,263.9c-1,0.6-2,1.3-3,1.9c-0.5,0.1-1.1,0.1-1.4,0.4c-0.7,0.6,0,0.7,0.4,0.8c2.1,0.3,4.3,0.5,6,2.1
		c-0.3,0-0.7,0-1,0.1c-1-0.1-1.9-0.2-2.9-0.3c-2.4-0.7-4.9-1-7.4-0.8c-0.3-0.7-0.7-1.3-1-2c0.5-0.3,1.6,0.5,1.5-0.7
		c0-0.2-1.2,0-1.5,0.7c-1.5-1.4-3-2.6-5.2-1.7c0-0.3,0-0.5,0.2-0.7c2.4-1.2,4.7-0.5,7.1,0c0.7,0.1,1.6,0.4,1.8-0.3
		c0.1-0.4-1.2-0.3-1.8-0.3c-0.8-1.2-2.1-1.1-3.3-1.5c3.1-1.3,6.3-0.8,9.5-1l0,0.5c0.2,1.2,0.9,1.7,2.1,1.7l0,0
		C305.8,263.2,305.8,263.5,305.8,263.9z"/>
	<path class="st43" d="M336.6,315.2c-0.3,0-0.6,0-0.9,0c-5.5-0.8-10.6-3.3-16.3-2.9c-0.2-0.2-0.3-0.3-0.5-0.5
		c0.4-1.3-0.7-2.4-0.6-3.6c1.9-0.3,3.1,1.4,4.8,1.7c4.5,0.7,9.1,1.4,13.6,2.2c0.2-0.1,0.4-0.1,0.6-0.1
		C337.1,313.1,336.9,314.2,336.6,315.2z"/>
	<path class="st44" d="M428,311.1c-0.8-1-1.6-2-2.4-2.9c2.5-1.4,4.5,1,6.8,1c3.4,2.3,3.9,6,4.8,9.5c0.1,0.4,0,1.3-0.3,1.4
		c-0.8,0.4-1.1-0.5-1.4-1C433.5,316,431,313.4,428,311.1z"/>
	<path class="st45" d="M332.7,246.4c6.6-0.1,12,3.2,17.4,6.3c2.9,1.7,5.4,4,8,6.1c-0.4,0.3-0.7,0.7-1.1,1
		c-7-5.6-14.5-10.4-23.5-12.1c-0.7-0.1-1.3-0.1-2-0.1C331.7,247,332.1,246.6,332.7,246.4z"/>
	<path class="st46" d="M323.3,268c-2.5-1-5.3-1.1-7.5-2.8c-0.5-0.3-1.6-0.1-1.3-1c0.2-0.6,1.2-0.4,1.9-0.4c4.4,0.2,8.6,1.7,12.9,2.6
		c1.7,0.4,3.4,1.1,4.2-1.3c0.4-0.1,0.9-0.2,1.3-0.3c0.2,0.7,0.4,1.5,0.7,2.2c-2.8,2.3-6,0.1-9,0.9
		C325.3,266.7,324.3,266.8,323.3,268z"/>
	<path class="st47" d="M314.8,239.6c2.7,0.2,5,0.5,7.4,0.6c1.1,0.1,2,0.3,2.7,1.2c0.9,1.1,3.2,1.9,2.3,3.5c-1,1.7-2.6-0.1-4-0.6
		c-2.9-1-5.7-2-8.6-3c-0.7-0.2-1.4-0.7-1.2-1.4C313.6,239.2,314.5,239.6,314.8,239.6z"/>
	<path class="st48" d="M328.4,299.9c-3.4-2.5-7.5-2.3-11.4-3.1c-0.8-0.5-0.5-1.4-0.7-2.2c5.2,1.4,10.4,2.7,15.6,4.2
		c2.3,0.7,4.6,1.2,6.9,1.1c0.3,0.7,0.8,1.3,0,2C335.2,302.2,332,300.1,328.4,299.9L328.4,299.9z"/>
	<path class="st49" d="M432.5,309.2c-2.3,0-4.3-2.4-6.8-1c-2.3-2.3-5.4-2.6-8.3-3.3c-0.5-0.1-1-0.3-1-0.9c0.1-0.9,0.8-0.9,1.5-0.9
		c2.4,0.1,4.4,2.5,7,0.9c0.4,0,0.8-0.1,1.1-0.1c0.4,0.3,0.8,0.5,1.2,0.8c1.7,0.9,3.2,2.1,5.2,2.3
		C433.2,307.7,433.7,308.4,432.5,309.2z"/>
	<path class="st50" d="M334.7,264.9c-0.4,0.1-0.9,0.2-1.3,0.3c-6.8-1.6-13.8-1.7-20.3-4.4c6.9-0.2,13.6,1.1,20.1,3
		C333.8,264,334.4,264.2,334.7,264.9z"/>
	<path class="st51" d="M338.6,288.5c-1.5-3.3-0.3-7-1.2-10.3l0.2,0.1c1.4-1.5-0.1-2.3-0.8-3.2c0-0.6,0-1.2-0.1-1.8
		c0.3-0.1,0.7-0.1,1-0.1l-0.1-0.1c0.3,0.3,0.6,0.6,0.9,0.9c1.6,4.5,1.2,9.2,1.3,13.8C339.8,288.3,339.2,288.5,338.6,288.5z"/>
	<path class="st40" d="M342.8,256.8c-2.7,0.2-3.8-2.3-5.9-3.3c-1.9-0.9-3.3-2.7-5.6-2.9l0.1,0.1c0-0.7-0.3-1-1-1
		c0.4-0.4,0.8-0.8,1.2-1.2C335.6,251,340,252.8,342.8,256.8z"/>
	<path class="st52" d="M326.3,268c3-0.8,6.2,1.4,9-0.9c0.2,0.2,0.3,0.4,0.3,0.7c0.2,0.4,0.4,0.8,0.7,1.2c0.2,0.7,0.3,1.4,0.5,2.1
		l-0.3-0.2c-3.3-1.2-6.7-2-10.2-2c-0.3,0-0.6-0.1-0.9-0.2c-0.1-0.2-0.2-0.5-0.2-0.7C325.6,268.1,326,268.1,326.3,268z"/>
	<path class="st53" d="M297.7,263.6c-2.4-0.5-4.7-1.3-7.1,0c-1.2,0.1-2.3-0.3-1-1.4c1.2-1,3.1-0.6,4.7-0.6c1.2,0.3,2.5,0.3,3.3,1.5
		C297.6,263.3,297.6,263.4,297.7,263.6z"/>
	<path class="st54" d="M295.5,266c0.3,0.7,0.7,1.3,1,2c-2.3,0.8-3-2.2-5.1-2.1c-0.2-0.5-0.4-0.9-1-1c0-0.2-0.1-0.5-0.1-0.7
		C292.5,263.4,294.1,264.6,295.5,266L295.5,266z"/>
	<path class="st39" d="M334.6,255.7c1.5,0.9,3.6,1,4.1,3.2c-0.7,0-1.5,0-2.2-0.1C334.5,258.5,334.7,257,334.6,255.7z"/>
	<path class="st55" d="M336.9,259.8c1,0.4,1.5,1.2,1.7,2.2c-0.8,0.2-0.9,2.2-2.1,1.1C335.2,261.9,335.4,260.7,336.9,259.8z"/>
	<path class="st51" d="M339.6,297.9c-1.5-2.3-1-4.8-0.8-7.3C340.4,292.9,339.7,295.4,339.6,297.9z"/>
	<path class="st56" d="M286.6,261.5c-0.5,0.1-1,0.3-1.4,0.3c-0.2,0-0.5-0.3-0.7-0.5c0.4-0.1,0.9-0.3,1.3-0.3
		C285.9,261,286.2,261.3,286.6,261.5z"/>
	<path class="st57" d="M430.9,298.9c0.4,0,0.7,0,1.1,0c0.5,1,1.2,1.9,1.1,3.1C431.8,301.4,431.3,300.2,430.9,298.9z"/>
	<path class="st58" d="M291.5,269c-1.5,0-2.6-0.7-3.2-2.2c0.7,0.1,1.4,0.1,2.1,0.2c0,0-0.1-0.1-0.1-0.1
		C290.7,267.7,291.1,268.4,291.5,269z"/>
	<path class="st41" d="M335.6,324.5c1.4-0.7,2.1,0,2.5,1.3l-0.1-0.1C337.1,325.3,336.4,324.9,335.6,324.5L335.6,324.5z"/>
	<path class="st40" d="M303.8,260.6c1.3-1,1.9-0.3,2.4,0.9l-0.4,0.3c-0.7-0.2-1.3-0.5-2-0.7L303.8,260.6z"/>
	<path class="st46" d="M337.7,273.1c-0.3,0-0.7,0-1,0.1c-0.1-0.3-0.2-0.6-0.2-0.9c0-0.5,0-0.9,0-1.4l0.3,0.2
		C337.1,271.8,337.4,272.5,337.7,273.1z"/>
	<path class="st57" d="M288.5,267c-0.9-0.1-1.9,0-2.2-1.1C287.2,265.8,288.1,265.8,288.5,267z"/>
	<path class="st42" d="M290.4,264.9c0.6,0.1,0.9,0.5,1,1c0,0.3,0,0.7,0,1c-0.4,0-0.8,0.1-1.1,0.1l0.1,0.1
		C290.4,266.4,290.4,265.6,290.4,264.9z"/>
	<path class="st52" d="M326.8,241.1c-0.1-0.1-0.2-0.2-0.2-0.3c0-0.1,0.2-0.2,0.3-0.3c0.1,0.1,0.2,0.2,0.2,0.3
		C327.1,240.9,326.9,241,326.8,241.1z"/>
	<path class="st57" d="M330.5,249.6c0.6,0,1,0.4,1,1C330.9,250.6,330.6,250.2,330.5,249.6z"/>
	<path class="st46" d="M336.3,269.1c-0.2-0.4-0.4-0.8-0.7-1.2C335.9,268.3,336.1,268.7,336.3,269.1z"/>
	<path class="st46" d="M338.5,274c-0.3-0.3-0.6-0.6-0.9-0.9C337.9,273.4,338.2,273.7,338.5,274z"/>
	<path class="st59" d="M433,301.8c0.7,0.3,1.2,0.6,0.1,1C433.1,302.5,433.1,302.2,433,301.8z"/>
	<path class="st60" d="M338.6,316.1c-0.3-0.3-0.6-0.6-0.8-0.8C338.2,315.3,338.5,315.6,338.6,316.1z"/>
	<path class="st61" d="M385.6,406.4c-7.5,0.6-13.1,5.3-19.3,8.7c-2.7,1.4-5.1,3.4-8.2,3.9c0.5-1.5,1.9-2.2,3-3.3
		c1.4-0.5,2-1.6,2.2-3l0,0.1c1.5,0.1,2.4-1.1,3.6-1.7c6-2.9,12-6.1,19.1-5.5l-0.1-0.1C385.7,405.8,385.6,406.1,385.6,406.4z"/>
	<path class="st62" d="M396.9,396.4c2.2,2.6-0.5,4.7-0.7,7c-0.8,0.8-1.5,0.3-2.3,0c-0.7-0.4-1.4-0.8-2-1.2l-0.1,0.1
		c-0.2-1-1-2-1.7-2.2c-2.8-0.7-1.9-2.2-1.1-3.8c0.3-0.7,0.7-1.3,1-2c1.7,0,3.4-2.1,5.1-0.1C395.7,394.9,396.3,395.7,396.9,396.4z
		 M392.3,397.3c1.6,0.6-0.9,2.8,1.2,3.1c1,0.2,1.7-0.7,1.3-1.6c-0.4-1-0.2-2.6-1.7-2.8C392.4,395.9,391.9,396.4,392.3,397.3z"/>
	<path class="st63" d="M356.8,422.8c-0.5,0.5-0.8,0.9-1.2,1.3c-1.7,1.4-3.7,2.4-5.1,4.2c-0.3,0.4-0.9,1.3-1.6,0.5
		c-0.5-0.6,0.1-1.3,0.6-1.7c1.9-1.4,3.3-3.5,5.6-4.3C355.7,422.5,356.2,422.2,356.8,422.8z"/>
	<path class="st64" d="M320.1,473.4c-4.3,1.4-5.5,1.3-8-0.3c1.1,0.3,1.8-0.6,2.6-1c1.4,0.1,2.9,0.1,4.3,0.2
		C319.4,472.7,319.8,473,320.1,473.4z"/>
	<path class="st65" d="M361.1,415.7c-1.1,1-2.5,1.7-3,3.3c0,0,0.1-0.1,0.1-0.1c-0.6,0.1-1,0.5-1.1,1.1c-0.8,1.1-2.1,0.8-3.2,0.9
		c2.1-2.5,4.1-5.1,7.4-6.3C361.2,414.9,361.2,415.3,361.1,415.7z"/>
	<path class="st10" d="M306,447.6c-1.5,0.2-3.1,0.4-4.3-0.9l0,0l-0.4,0.1l-0.4,0c-0.1-0.4-0.2-0.7-0.3-1.1c0-0.3,0-0.7,0-1
		c0.6,0,1.3-0.1,1.9-0.1c2.1,0.1,2.1,0.1,2.7,2.3C305.4,447.1,305.8,447.3,306,447.6z"/>
	<path class="st66" d="M319.1,472.3c-1.4-0.1-2.9-0.1-4.3-0.2c0.5-1.6,1.1-3.2,2.8-4C318.1,469.5,318.6,470.9,319.1,472.3z"/>
	<path class="st18" d="M382.9,449.9c-0.3,1.3-1.3,1.6-2.3,1.9c-0.7-0.7-1.7-1.8-1.1-2.5C380.7,447.9,381.7,449.6,382.9,449.9z"/>
	<path class="st67" d="M342.1,431.8c-0.2-0.2-0.6-0.4-0.6-0.5c0.3-1.2,1.4-1.7,2.4-2.1c0.1,0,0.6,0.4,0.6,0.5
		C344.3,430.9,343.2,431.3,342.1,431.8z"/>
	<path class="st68" d="M332.4,433.8c-0.3,0.2-0.7,0.5-0.9,0.4c-0.9-0.3-1.9-0.7-2-1.9c0-0.3,0.1-1.2,0.8-0.6
		C331.1,432.2,331.7,433,332.4,433.8z"/>
	<path class="st52" d="M343.8,424.3c0.4,0.2,0.8,0.5,0.8,1.1c-0.1,0.5-0.3,0.9-1,0.7c-0.5-0.2-0.9-0.5-0.8-1.1
		C342.9,424.5,343,423.9,343.8,424.3z"/>
	<path class="st69" d="M357.1,420c0.1-0.6,0.5-0.9,1.1-1.1C358.2,419.6,357.7,419.8,357.1,420z"/>
	<path class="st56" d="M385.6,406.4c0-0.3,0.1-0.6,0.2-0.8c0.4,0,0.7,0.1,1.1,0.1C386.5,405.9,386.1,406.1,385.6,406.4z"/>
	<path class="st62" d="M392.8,404.4c0.2-0.6,0.6-1,1.3-1.1C393.6,403.7,393.2,404.1,392.8,404.4z"/>
	<path class="st70" d="M259.6,393.3c1.4,2.9,3.1,5.7,3.2,9.1c-1.5-0.6-2.5-1.7-3-3.2c1.4-1.4-0.5-2.7-0.2-4.1
		C259.6,394.6,259.6,393.9,259.6,393.3z"/>
	<path class="st71" d="M259.6,395.2c-0.3,1.4,1.6,2.7,0.2,4.1c-1.3-2.2-2.7-4.4-3.3-7l0,0C258.4,392.3,258.4,394.4,259.6,395.2z"/>
	<path class="st72" d="M250.4,383c-1.7-0.9-2.4-2.2-2.1-4.1l0,0C249.8,379.9,250.5,381.2,250.4,383L250.4,383z"/>
	<path class="st26" d="M253.5,387.1c-1.5-0.5-2.2-1.5-2.1-3l0,0c0.7,0.3,1.5,0.7,2.2,1l-0.1-0.1
		C253.4,385.7,253.4,386.4,253.5,387.1L253.5,387.1z"/>
	<path class="st66" d="M255.4,390.2c-0.9-0.4-1.1-1.2-0.9-2.2l-0.1,0.1c0.4,0,0.8,0,1.2,0l-0.1-0.1
		C255.5,388.8,255.5,389.5,255.4,390.2L255.4,390.2z"/>
	<path class="st71" d="M256.5,392.3c-0.9-0.4-1.1-1.2-1.1-2l0.1,0C256.7,390.5,256.6,391.4,256.5,392.3L256.5,392.3z"/>
	<path class="st70" d="M262.8,402.4c0.8,0.5,1.1,1.2,1,2.1C263,404,262.7,403.3,262.8,402.4z"/>
	<path class="st57" d="M251.4,384c-0.7,0-1-0.4-1-1l0,0.1C251,383,251.3,383.4,251.4,384L251.4,384z"/>
	<path class="st59" d="M248.3,378.9c-0.8,0-1.1-0.4-1-1.1l-0.1,0.1C247.8,378,248.2,378.3,248.3,378.9L248.3,378.9z"/>
	<path class="st61" d="M254.5,388.1c-0.8,0.1-0.9-0.4-1-1c0,0-0.1,0.1-0.1,0.1C254.1,387.1,254.3,387.5,254.5,388.1L254.5,388.1z"/>
	<path class="st17" d="M503.9,381.8c0-5.8,1.3-11,5.4-15.4c0.6-0.6-0.7-0.7-1.2-0.8c1.4-1,2.7-2.1,4.1-3.1c0,0.8,0,1.7,1,2
		c-0.3,0.7-0.6,1.4-0.9,2.1c-1.5-0.8-0.9,0.5-1.1,1.1l0.1-0.1c-2.3,1-3.5,2.6-3.1,5.2l0.1-0.1c-0.9,1.6-3.4,2.8-1.1,5.1
		c0,1.2,0.1,2.4-0.1,3.5C506.4,384.3,505.3,383.8,503.9,381.8z"/>
	<path class="st52" d="M508.1,372.8c-0.4-2.6,0.8-4.2,3.1-5.2C510.5,369.5,510.1,371.7,508.1,372.8z"/>
	<path class="st73" d="M507,377.8c-2.3-2.3,0.2-3.5,1.1-5.1C508.3,374.5,507.8,376.2,507,377.8z"/>
	<path class="st30" d="M513.2,364.5c-1-0.3-1-1.2-1-2c0.5-0.2,1.1-1.1,1.6-0.3C514.3,363.1,513.5,363.8,513.2,364.5z"/>
	<path class="st74" d="M511.1,367.7c0.2-0.5-0.4-1.9,1.1-1.1C512.1,367.2,511.7,367.6,511.1,367.7z"/>
	<path class="st18" d="M382,334.6c-1.3,1.5-3.5,2-5.3,2.9c-0.1,0-0.3-0.1-0.4-0.2c-0.3-0.2-0.3-0.5,0-0.8c1.5-1.3,3.6-1.7,4.9-3.2
		C381.5,333.1,382,333.8,382,334.6z"/>
	<path class="st75" d="M417.8,307.9c-2-0.4-3.9-1-6-0.9c-0.4,0-0.8-0.4-1.2-0.7c0.4-0.2,0.9-0.6,1.3-0.5c2,0.2,4.1-0.3,5.8,1.3
		C417.7,307.4,417.7,307.6,417.8,307.9z"/>
	<path class="st24" d="M417.8,307.9c0-0.3-0.1-0.5-0.1-0.8c0.8,0,1.7-0.2,2.5,0c1.5,0.5,4.1,0.9,3.8,2.4c-0.3,1.3-2.5-0.6-3.9-0.7
		C419.3,308.8,418.5,308.2,417.8,307.9z"/>
	<path class="st76" d="M404.8,304.2c0,0.6-0.5,0.7-0.9,0.7c-0.6,0.1-1.4,0.3-1.8-0.3c-0.2-0.4,0.5-0.6,0.9-0.7
		C403.6,303.8,404.3,303.6,404.8,304.2z"/>
	<path class="st77" d="M377.6,325.5c0.3,0,0.6,0,1,0.1c0.6,0.1,1.5,0.5,1.1,1.1c-0.4,0.7-1.1-0.1-1.5-0.5
		C377.9,326.1,377.8,325.7,377.6,325.5L377.6,325.5z"/>
	<path class="st66" d="M380.5,330.2c-0.3,0.4-0.5,0.8-0.6,0.8c-0.7-0.2-1-0.7-1-1.4c0-0.2,0.3-0.5,0.4-0.7
		C379.7,329.3,380.1,329.8,380.5,330.2z"/>
	<path class="st39" d="M385.9,332.7c-0.3,0.7-0.7,1.4-1,2.1C383.4,333.2,384.2,332.8,385.9,332.7z"/>
	<path class="st39" d="M384.8,334.7c0.9,0.7,0.8,1.4-0.1,2.1C384.8,336.1,384.8,335.4,384.8,334.7z"/>
	<path class="st18" d="M377.7,325.5c-0.4-0.1-0.9,0.1-1.2-0.4c0.1,0,0.3-0.2,0.4-0.1C377.2,325.1,377.4,325.3,377.7,325.5
		L377.7,325.5z"/>
	<path class="st78" d="M234.9,360c-0.4,1.3-1.4,2-2.7,1.8c-1.4-0.2-2.4-1.4-2.5-2.7c-0.2-1.9,1.7-1.3,2.5-1.4
		C233.7,357.4,234.5,358.6,234.9,360z"/>
	<path class="st79" d="M261.7,376.7c-0.3,0.3-0.6,0.6-0.9,0.9c-0.8,0.1-1.5,0.1-2.3,0.2l0.1,0.1c0-0.7-0.1-1.5-0.1-2.2
		C259.6,376,260.8,375.7,261.7,376.7z"/>
	<path class="st80" d="M232.9,365c0,0.5,0,1.1,0,1.6l0.1-0.1c-0.7,0-1.3-0.1-2-0.1c-0.1-0.6-1.1-1.1-0.4-1.5
		C231.2,364.7,232.2,365,232.9,365z"/>
	<path class="st57" d="M229.3,362.3c-0.1-0.1-0.2-0.2-0.3-0.3c0.1-0.1,0.2-0.3,0.4-0.3c0.1,0,0.2,0.2,0.3,0.3
		C229.5,362.1,229.4,362.2,229.3,362.3z"/>
	<path class="st57" d="M258.5,373.9c-0.1,0.5-0.5,0.8-1,1C257.5,374.2,258,374,258.5,373.9z"/>
	<path d="M146.2,334.1c0.1,0.1,0.3,0.3,0.3,0.3c-0.1,0.3-0.2,0.5-0.4,0.7c-0.1-0.1-0.3-0.3-0.3-0.3
		C145.9,334.5,146.1,334.3,146.2,334.1z"/>
	<path d="M141.3,358.6c-0.4-0.2-0.7-0.6-0.4-0.9c0.4-0.4,0.7,0,0.9,0.4C141.6,358.3,141.5,358.4,141.3,358.6z"/>
	<path class="st67" d="M395.2,394.2c-1.8-1.9-3.4,0.1-5.1,0.1c-3.5-1.7-7.4-2.4-11.2-3.1c-1.7-0.3-3.3-0.6-4.3-2.2
		c6.1,0.9,12.3,0.3,18.2,2.8c1.9,0.8,4.3,0.2,6.5,0.2c0.7,0.1,1.3,0.3,2,0.4c-0.3,0.5-0.7,1.1-1,1.6
		C398.5,394.1,396.8,394.2,395.2,394.2z"/>
	<path class="st81" d="M395.2,394.2c1.7-0.1,3.4-0.1,5.1-0.2c2.6,0.6,5,0,7.1-1.7c0.6,0.2,1,0.7,1.2,1.3c-2,1.5-4.4,1.5-6.8,1.7
		c-1.6,0.2-3.5-0.6-4.8,1C396.3,395.7,395.7,394.9,395.2,394.2z"/>
	<path class="st82" d="M407.3,392.3c-2.1,1.7-4.5,2.3-7.1,1.7c0.3-0.5,0.7-1.1,1-1.6C403.2,392.4,405.3,392.3,407.3,392.3z"/>
	<path class="st83" d="M361.1,377.4c-0.2,1.8-2.9,3.8-4.9,3.5c-2.1-0.3-3.6-1.6-3.2-3.8c0.3-1.6,0.5-3.9,3.3-3.6
		C358.4,373.7,361.2,376,361.1,377.4z"/>
	<path class="st31" d="M374.6,389.1c1,1.6,2.6,1.9,4.3,2.2c3.8,0.7,7.6,1.4,11.2,3.1c-0.3,0.7-0.7,1.3-1,2c-2.7-2.3-6.1-2.4-9.2-3.1
		c-2.6-0.5-5.2-1.2-7.2-3.1c0.3-0.3,0.7-0.5,1-0.8c0.4-0.1,0.8-0.2,1.2-0.3L374.6,389.1z"/>
	<path class="st67" d="M374.7,389.1c-0.4,0.1-0.8,0.2-1.2,0.3c-0.8-0.6-1.8-1.2-2-2.4l-0.1,0.1C372.9,387.2,374,387.8,374.7,389.1z"
		/>
	<path class="st44" d="M371.5,387c-0.1,0-0.3-0.1-0.4-0.1c-0.1,0-0.1-0.3-0.1-0.3C371.3,386.5,371.4,386.7,371.5,387L371.5,387z"/>
	<path d="M213.3,352.2c-1.3,1.7-2.8-0.6-4.1,0.2c-2.6-0.7-4.9-2.3-7.8-2.3c-0.4,0-0.9-0.4-1.3-0.6c0.5-0.1,0.9-0.4,1.4-0.4
		C205.8,348.9,210.1,348.7,213.3,352.2z"/>
	<path class="st22" d="M332.6,321.4c-1.8,2.3-3.8,4.5-6.2,6.2c-0.3,0.3-0.7,0.6-1,0.9l0,0c-2.4,1.5-4.1,3.5-5.3,6
		c-2.5,1.1-3.5,4.1-6.1,5.2l0.1,0.1c-0.6-1.4-1.9-1.7-3.1-2.1c3.8-5.5,6.6-11.3,6.9-18.1c0.1-2.2,1.4-4.2,1.2-6.4
		c0.2-0.1,0.3-0.2,0.4-0.2c4.6,1.8,9.4,2.3,14.2,3.4c0,0.6-0.1,1.2-0.1,1.8c-3.6-1-7-0.1-10.3,1.1c-0.3,0-0.6,0-1,0
		c-0.7,0.1-2.1-0.2-2.1,0.5c0.1,1.1,1.3,1.2,2.2,0.8c0.6-0.2,1-0.7,1.5-1.1C326.9,320.1,329.7,320.8,332.6,321.4z"/>
	<path class="st71" d="M291.5,266.9c0-0.3,0-0.7,0-1c2-0.1,2.8,2.8,5.1,2.1c2.5-0.2,5,0.1,7.4,0.8c-0.3,0.4-0.5,1.1-0.1,1.3
		c3.9,1.8,7.9,3.5,12.3,2c2.1,2.8,4.5,2.9,7.3,1.1c-0.2,0.9-0.1,1.7,0.8,2.1c0.4,0.6,0.8,1.2,1.1,1.8c-0.6,0.3-1.7,0.2-1.3,1.1
		c0.3,0.5,1.5,0.4,2.3,0.7c0.6,0.2,1.3,0.7,1.2,1.4c-0.1,0.8-1,1-1.6,0.8c-2.9-0.6-6.1-0.4-8.9-1.7c0.4-0.4,0.7-0.8,1.1-1.1
		c-0.2-3-2.5-3.1-4.4-2.7c-2.2,0.5-4-0.1-5.9-0.5c-2.8-0.6-5.6-1.3-8.4-1.9c-1.6-1.3-3.3-2.6-4.9-3.9
		C293.5,268.5,292.5,267.7,291.5,266.9z"/>
	<path class="st52" d="M332.5,290.5c-1.1,1.3-2.6,2-4.2,2.2c-4.2,0.3-8.2-1.6-12.4-0.9c-2-2.8-3.9-5.6-5.9-8.4c1,0,2,0,3,0.1
		c1.4,0.1,3,1.4,3.9-1.3c0.5-1.4,2.3,0,3.5,0.4c0.3,0.6,0.7,1.2,1,1.8c-0.6,0.3-1.6-0.3-1.9,0.8c0,0.1,0.5,0.3,0.8,0.4
		c0.2,1.4,1.2,1.8,2.5,2.1c2.3,0.5,4.7,0.6,6.8,1.9c-0.4,0.3-1.6,0.5-0.2,1C330.3,290.8,331.4,290.6,332.5,290.5L332.5,290.5z"/>
	<path class="st84" d="M315.9,291.7c4.2-0.7,8.2,1.2,12.4,0.9c2.2,1.3,4.8,1.5,7.1,2.3c0.4,0.1,1,0.6,1,0.9c0,0.6-0.7,0.5-1.1,0.4
		c-6.4-1.2-12.8-2.4-19.3-3.6C316,292.4,315.9,292,315.9,291.7z"/>
	<path class="st12" d="M306.9,345.9c0.2-0.2,0.4-0.5,0.5-0.7c0.5,0.2,1,0.4,1.5,0.6c0.9,1.7,1.8,0.8,2.7,0c1.7-1.6,3.1-3.5,5.6-4
		c-1.6,1.7-3.3,3.3-4.7,5.1c-1.7,2.1-4.2,3.9-3.6,7.2c-2.2,0.2-3.2-0.8-3-3c1.1-0.8,3-1.2,2-3.3
		C307.5,347.2,307.2,346.6,306.9,345.9z"/>
	<path class="st85" d="M299.4,273.2c2.8,0.6,5.6,1.3,8.4,1.9c1.9,0.4,3.8,1,5.9,0.5c1.9-0.4,4.2-0.4,4.4,2.7c-0.3,0-0.7-0.1-1-0.2
		c-0.4-0.2-0.9-0.5-1.3-0.7c-0.5,0-1.1,0-1.6,0c-0.4-0.1-0.8-0.1-1.3-0.2c-1.7,0-3.4,0-5.1,0c-1.7-0.3-3.4-0.7-5.2-1
		C301.4,275.4,300.2,274.5,299.4,273.2z"/>
	<path class="st86" d="M305.8,351.1c-0.2,2.2,0.8,3.2,3,3c0.4,0.4,0.8,0.8,1.2,1.2c-1.8,1.5-4.2,1.1-6.2,2c-1.5-0.6-2.9-1.2-3.1-3.1
		c0.3-0.3,0.6-0.6,0.9-0.9l0.3-0.2c1.1,0.6,1.9,0.5,2-1l-0.1,0.1c0.4-0.3,0.8-0.6,1.1-1l0,0C305.2,351.3,305.5,351.3,305.8,351.1
		L305.8,351.1z"/>
	<path class="st15" d="M308.9,345.9c-0.5-0.2-1-0.4-1.5-0.6c-0.7-3.2,1.8-4.7,3.6-6.5c0.8,1,2.1,0.9,3.1,1.2l-0.1-0.1
		C313.4,342.8,310.8,344,308.9,345.9z"/>
	<path class="st87" d="M317.1,297.8c1.8,0.4,3.6,0.8,5.5,1.2c0.5,0.1,1.1,0.3,1,0.9c-0.1,0.7-0.7,0.6-1.2,0.6c-0.3,0-0.9-0.1-0.9,0
		c-1.2,1.9-1.2,2-4.2,0.5C317.2,299.9,317.1,298.8,317.1,297.8z"/>
	<path class="st73" d="M300.7,354.3c0.2,1.9,1.6,2.5,3.1,3.1c1.2,1.1,3.1,0.6,4.2,2c-1.4,0-2.8,0-4.2,0c-1-0.7-2-1.5-3.2-0.2
		c-0.7-1-1.3-2-2-3c0.1-0.5,0.1-1.1,0.2-1.6C299.4,354.5,300,354.4,300.7,354.3z"/>
	<path class="st26" d="M302.7,276.2c1.7,0.3,3.4,0.7,5.2,1c0.3,0.6,0.5,1.4,0.9,1.8c2.8,2.2-0.1,1.9-1,2.4
		C305.8,280,304.3,278,302.7,276.2z"/>
	<path class="st76" d="M306.9,345.9c0.3,0.6,0.6,1.3,0.9,1.9c-0.7,0.7-1.5,1.5-2.2,2.2c-0.2,0.4-0.5,0.8-0.7,1.2l0,0
		c-0.4,0-0.9,0-1.3,0c-0.3-0.4-0.7-0.8-1-1.2C304.3,349,303.5,345.4,306.9,345.9z"/>
	<path class="st14" d="M323.2,310c-1.7-0.3-2.9-2-4.8-1.7c0-0.5,0-1-0.1-1.5c1.6,0.5,3.3,0.9,4.9,1.4
		C323.2,308.8,323.2,309.4,323.2,310z"/>
	<path class="st0" d="M291.5,266.9c1,0.8,2,1.6,3,2.3c0,0.4,0,0.8-0.1,1.1c-0.7-0.1-1.3-0.3-2-0.4l0.1,0.1c-0.1-0.7-0.5-1.1-1.1-1.2
		l0.1,0.1c-0.4-0.7-0.8-1.4-1.2-2C290.7,267,291.1,266.9,291.5,266.9z"/>
	<path class="st88" d="M292.4,270c0.7,0.1,1.3,0.3,2,0.4c0.5,1.1,1.9,1.5,2.2,2.7c-0.7,0-1.4,0-2.1,0
		C293.8,272.1,293.1,271,292.4,270z"/>
	<path class="st89" d="M314.1,339.9c-1.1-0.3-2.3-0.2-3.1-1.2c0-0.3,0-0.6,0-0.9C312.2,338.2,313.5,338.5,314.1,339.9z"/>
	<path class="st86" d="M302.6,350.1c0.3,0.4,0.7,0.8,1,1.2c0.1,0.3,0.1,0.6,0.1,0.9l0.1-0.1c-0.8,0.1-1.6,0-2,1l-0.3,0.2
		C300.5,351.8,301.4,350.9,302.6,350.1z"/>
	<path class="st90" d="M313.8,294.6c-0.7-0.9-1.9-1.7-0.8-3C314.2,292.4,314.2,293.5,313.8,294.6z"/>
	<path class="st57" d="M304.9,281.4c-0.6-0.1-1-0.5-1.1-1.1C304.3,280.4,304.8,280.7,304.9,281.4z"/>
	<path class="st57" d="M305.9,282.4c-0.6-0.1-1-0.5-1.1-1.1C305.4,281.4,305.7,281.8,305.9,282.4z"/>
	<path class="st91" d="M297.7,274.2c-0.4-0.4-0.8-0.8-1.1-1.1C297.2,273.2,297.6,273.6,297.7,274.2z"/>
	<path class="st37" d="M298.7,275.2c-0.4-0.4-0.8-0.8-1.1-1.1C298.2,274.2,298.6,274.6,298.7,275.2z"/>
	<path class="st59" d="M299.7,276.3c-0.4-0.4-0.8-0.8-1.1-1.1C299.2,275.2,299.7,275.6,299.7,276.3z"/>
	<path class="st92" d="M300.7,277.3c-0.4-0.4-0.8-0.8-1.1-1.1C300.3,276.2,300.7,276.6,300.7,277.3z"/>
	<path class="st92" d="M301.7,278.3c-0.3-0.4-0.7-0.7-1-1.1C301.3,277.2,301.7,277.6,301.7,278.3z"/>
	<path class="st57" d="M303.8,280.4c-0.6-0.1-1-0.5-1.1-1C303.4,279.4,303.7,279.8,303.8,280.4z"/>
	<path class="st37" d="M299.6,351.1c-1.3-0.4-0.4-0.7,0.1-1.1C299.7,350.4,299.7,350.8,299.6,351.1z"/>
	<path class="st43" d="M319.1,313.2c-0.8-0.4-0.8-0.8-0.1-1.3c0.2,0.2,0.3,0.3,0.5,0.5c0,0.2,0,0.4,0.1,0.6
		C319.4,313.1,319.2,313.2,319.1,313.2z"/>
	<path class="st93" d="M299.6,350.2c0.3-0.4,0.7-0.7,1-1.1C300.6,349.8,300.3,350.1,299.6,350.2z"/>
	<path class="st61" d="M301.5,471.2c-1.4,0.3-2.9,0.7-4.3,0.9c-0.4,0.1-0.9-0.2-1.3-0.3c0.4-0.3,0.7-0.6,1.1-0.8
		c2.3-1,1.7-1.6-0.2-2.1c-0.7-0.2-0.9-0.9-1.1-1.5c0.3-0.1,0.6-0.3,0.9-0.4C301.3,465.4,301.8,465.8,301.5,471.2z"/>
	<path class="st3" d="M280.2,468.3c-0.3-0.3-0.6-0.6-0.9-0.9c2.1-0.9,3.2,1.3,4.9,1.7c-0.3,0.4-0.7,0.8-1,1.2c-0.3-0.1-0.6-0.1-1,0
		C281.5,469.6,281.5,468.2,280.2,468.3z"/>
	<path class="st57" d="M282.2,470.3c0.3-0.1,0.6-0.1,1,0c0,0.3,0.1,0.7,0.1,1C283,470.9,282.6,470.6,282.2,470.3z"/>
	<path class="st94" d="M321.2,361.4c1.2,1.1,1.7-0.1,2.4-0.7c1.6-1.3,2.5-2.1,1.9,1c-0.2,0.8,1.9,0.6,3,0.7c-1.4,2-0.3,5.8-4.2,6
		c0.3-0.6,0.7-1.2,0.8-1.8c0.2-0.9,0.7-2.2-0.7-2.5c-1-0.2-1,1.1-1.4,1.7c-1.1,1.8-0.5,4.4-2.6,5.8c-0.7,0.4-1,1.1-1.1,1.9
		c-1.1-0.4-2.1-0.8-3.2-1.1c0-0.3,0.1-0.7,0.2-1c0.3-0.3,0.6-0.6,0.9-0.9c2.1,0.1,3-1.3,3.4-3.1c0-0.1-0.2-0.4-0.3-0.4
		c-1.9,0.1-2.1,1.9-3,3c-0.1,0.1-0.1,0.3-0.2,0.5c-0.4,0-0.8,0-1.1-0.1c0,0,0.1,0.1,0.1,0.1c0-0.7,0-1.5,0-2.2c0-0.3,0-0.6,0-0.9
		c0.8-0.7,1.5-1.4,2.3-2.1c0.4-0.1,0.8-0.2,1.2-0.3c-0.2-0.2-0.3-0.5-0.5-0.7C319.8,363.4,320.5,362.4,321.2,361.4z"/>
	<path class="st95" d="M320.3,371.8c2.1-1.4,1.5-4,2.6-5.8c0.4-0.7,0.4-1.9,1.4-1.7c1.4,0.3,0.9,1.6,0.7,2.5
		c-0.1,0.6-0.5,1.2-0.8,1.8c-0.9,1-1,2.2-0.5,3.3c0.5,1.4,0.1,2.7-0.5,3.9c-1.6,0.2-3,0.9-4.1,2.1l0.1,0c-0.5,0-1.1,0.1-1.5-0.2
		c-1.1-0.7,0.1-1.1,0.4-1.2C320.5,375.6,321.8,374.4,320.3,371.8z"/>
	<path class="st96" d="M319.1,377.9c1.1-1.3,2.4-1.9,4.1-2.1c0.2,0.8,0.3,1.6-0.7,2.1C321.4,377.9,320.3,377.9,319.1,377.9z"/>
	<polygon class="st73" points="332.1,375 332.2,375.4 331.8,375.3 	"/>
	<path class="st69" d="M363.2,342.8c0.3,0.4,0.7,0.7,1,1.1c-0.3,0-0.7,0.2-1,0.1c-0.6-0.2-1.5,1.5-1.8,0
		C361.2,342.9,362.5,343.1,363.2,342.8z"/>
	<path class="st41" d="M307.8,474.5c-0.5-0.2-0.8-0.5-0.8-1.1C307.5,473.6,308.8,473.2,307.8,474.5z"/>
	<path class="st97" d="M321.2,361.4c-0.7,1-1.4,2-2.1,3c-0.4,0.2-0.8,0.5-0.8,1c-0.8,0.7-1.5,1.4-2.3,2.1c-0.8,0.2-1.6,0.5-2.1,1.2
		c-0.6,0-1,0.3-1.1,0.9l0.1-0.1c-1.3,1.1-4.6,0.8-3,4c0.5,1.1,1.1,2.1,1.6,3.2c0.5,1.7,0.2,3.4,0.1,5c-3,2.6-6.5,3.6-10.4,3.5
		c-2.9-0.1-5.4-1-5.9-4.4c-0.4-2.8-1.6-1.8-3-0.8c-0.4,0.3-1.1,0.8-1.2,0.7c-0.7-0.7,0.2-1.2,0.5-1.5c2.1-1.7,3.9-3.5,5.2-6
		c1.3-2.5,4.3-3.2,6.6-2.9c4.8,0.7,7.5-1.9,10.3-4.8c1-0.6,2.2-1.3,0.1-2c0.4-0.6,0.8-1.3,1.1-1.9c0.3-0.4,0.6-0.8,0.9-1.2l0,0.1
		c1.4-0.1,2-1.4,3-2.1c1,0,1.7-0.6,2.4-1.3c0.8-0.8,1.4-0.4,1.9,0.3C323.1,358.9,322,360.1,321.2,361.4z M306.8,377.9
		c-1.7-0.4-0.3-3.7-3-3.2c-1.9,0.4-2.8,1.8-3.7,3.2c-0.9,1.4,0.1,2.6,0.9,3.7c0.9,1.2,2.2,1.5,3.6,1.1
		C307.3,382,307,379.9,306.8,377.9c0.6-0.1,1.4,1.1,2,0c0.5-0.9-0.6-1.8-1.2-1.8C306.6,376.1,307.2,377.4,306.8,377.9z M300.3,373.6
		c-0.2-0.3-0.3-0.6-0.5-0.6c-0.5,0-0.9,0.4-0.9,0.9c0,0.2,0.2,0.4,0.4,0.7C299.6,374.2,300,373.9,300.3,373.6z"/>
	<path class="st98" d="M315.2,361.6c-0.4,0.6-0.8,1.3-1.1,1.9l0,0c-0.3,0.1-0.7,0.2-1,0.3l0-0.4c-0.2-0.5-0.5-0.8-1.1-0.6
		c0,0,0.1,0.5,0.2,0.8c-1.7,1-3.5,1-5.4,0.7c-0.6-0.6-1.2-1.1-1.9-1.7c0.2-1.3-0.5-2.2-1.1-3.3c1.4,0,2.8,0,4.2,0l-0.1,0
		C309.8,361.7,312.6,361.4,315.2,361.6z"/>
	<path class="st94" d="M298.5,356.3c0.7,1,1.3,2,2,3c0,0.9-0.1,1.7-0.9,2.2c-1-0.3-1.9-0.7-2.9-1l-0.4,0.1c0.6-1.1,0.7-2.1,0.2-3.3
		l0,0C297.2,356.9,297.9,356.6,298.5,356.3z"/>
	<path class="st99" d="M304.8,362.7c0.6,0.6,1.2,1.1,1.9,1.7c-0.9,0.1-2,0.5-2.6-0.3C303.6,363.5,304.1,362.9,304.8,362.7z"/>
	<path class="st100" d="M296.8,360.4c1,0.3,1.9,0.7,2.9,1C298.2,362.9,298.1,362.8,296.8,360.4z"/>
	<path class="st95" d="M312.1,363.6c-0.1-0.3-0.2-0.8-0.2-0.8c0.6-0.2,0.9,0.1,1.1,0.6C312.7,363.5,312.4,363.6,312.1,363.6z"/>
	<path class="st97" d="M313,363.8c0.3-0.1,0.7-0.2,1-0.3C313.7,363.6,313.4,363.7,313,363.8z"/>
	<path d="M186.7,324.6c-0.1,0.3-0.2,0.7-0.4,0.9c-0.7,1-1.4,1.9-2.1,2.8"/>
	<path class="st57" d="M338.7,356.3c0-0.4,0.1-0.6,0.4-0.5c0,0,0,0.3-0.1,0.3C338.9,356.2,338.8,356.2,338.7,356.3L338.7,356.3z"/>
	<path d="M172,324.8c0.6,0.2,1,0.8,1.1,1.5c0.1,0.5,0.5,1.4-0.4,1.4c-0.3,0-0.7-1-1-1.6C171.5,325.7,171.4,325.2,172,324.8z"/>
	<path class="st101" d="M262.9,374.3c-0.2,0.2-0.5,0.5-0.7,0.5c-0.2,0-0.5-0.3-0.7-0.5c0.2-0.2,0.5-0.5,0.7-0.5
		C262.4,373.8,262.7,374.1,262.9,374.3z"/>
	<path class="st99" d="M233.9,367.5c-0.5-0.1-0.9-0.3-0.9-0.9l-0.1,0.1c0.6,0,0.8,0.4,0.9,0.9L233.9,367.5z"/>
	<path class="st93" d="M233.8,367.6c0.6,0.1,1.1,0.4,1,1.1l0.1-0.1c-0.3-0.4-0.6-0.8-1-1.1L233.8,367.6z"/>
	<path class="st93" d="M234.8,368.8c0.3,0,0.5,0.1,0.8,0.1c-0.5,0.8-0.5-0.1-0.7-0.2L234.8,368.8z"/>
	<path class="st102" d="M296.6,355.3c0-0.3,0-0.7,0.2-0.9c0.2-0.3,0.5-0.2,0.4,0.2C297.1,354.8,296.8,355,296.6,355.3L296.6,355.3z"
		/>
	<path class="st35" d="M296.6,357.2c-0.6-0.7-1.5-1.3,0.1-1.9l-0.1-0.1C296.5,355.9,296.5,356.6,296.6,357.2L296.6,357.2z"/>
	<path class="st92" d="M291.4,268.9c0.7,0.1,1.1,0.5,1.1,1.2C292,269.9,291.5,269.6,291.4,268.9z"/>
	<path d="M355.9,281.5c1.9,1.5,4.3,1.4,6.5,1.7c1.1,0.1,2-0.4,1.5-1.8c0.4,0,0.8,0,1.2,0c0.7,2.1,2.3,3.2,3.9,4.5
		c3.5,3.1,6.1,6.4,3.7,11.4c-0.2,0.3,0.3,0.9,0.4,1.4c-1,0-1.9,0.2-2.5,1.2c-1.3,2.6-3.5,4.2-6.2,5c-0.7,0.3-1.5,0.7-2.2,1
		c-2.2,0.4-4-2.4-6.4-0.6c-0.7,0.5-1.3-0.8-1.6-1.5c-1.7-3.5-3-7-3.4-10.9c-0.1-1.3,0.3-2.2,0.9-3.3c1.4-2.3,2.6-4.7,3.4-7.3
		C355.3,282.1,355.6,281.8,355.9,281.5z M354.1,289.6c-1.2,0.2-1.1,1.1-1,2c-0.9,0-1.1,0.6-0.9,1.3c0.1,0.2,0.4,0.4,0.6,0.5
		c0.5-0.6,0.6-1.2,0.3-1.9C354.3,291.4,354,290.4,354.1,289.6c0.1-0.1,0.2-0.1,0.3-0.2c0.1,0,0.1-0.2,0.1-0.3
		C354.4,289.3,354.2,289.4,354.1,289.6z M367.4,300.9c-1.1-0.1-1.9,0.4-2.4,1.4c0,0,0.2,0.3,0.3,0.3
		C366.4,302.5,367.2,302,367.4,300.9c0.1-0.1,0.2-0.1,0.3-0.2c0.1,0,0.1-0.2,0.1-0.3C367.7,300.6,367.6,300.7,367.4,300.9z
		 M357.1,289.6c-2.9,2.4-2.9,5.9-2.8,9.2c0.2,3.1,3.6,4.4,7.2,3.1c0.3-0.4,0.6-0.9,0.9-1.3c1.5,0.2,2.6-0.7,3.7-1.4
		c3.9-2.5,4.3-6.2,1.4-10.4c-1.8-2.5-5.7-2.2-9,0.7C357.9,289.6,357.5,289.6,357.1,289.6z M359,284.9c-0.2-0.1-0.5-0.4-0.7-0.4
		c-0.3,0-0.5,0.2-0.8,0.4c0.2,0.2,0.5,0.4,0.7,0.4C358.5,285.3,358.7,285.1,359,284.9z M355.9,286c-0.1-0.1-0.2-0.3-0.3-0.3
		c-0.1,0-0.2,0.2-0.3,0.2c0.1,0.1,0.2,0.3,0.3,0.3C355.7,286.3,355.8,286.1,355.9,286z"/>
	<path class="st103" d="M387,282.3c6-2.5,10,1.6,14.3,4.5c1.7,1.1,1.6,3.1,1.3,5.1c-0.8,4.9-3.2,8.1-7.2,8.8
		c-4.7,0.8-8.4-1-11.1-4.7c-2.3-3-2-7.9,0.5-11.4c0.5-0.7,1.1-1.3,1-2.2C386.2,282.4,386.6,282.3,387,282.3z M396,286.4
		c-0.3,0-0.7,0.1-1,0.1c-2.8-0.8-7,0.3-8.5,2.2c-2.5,3.2-1.1,7.1,2.9,8.2c3.7,1,7.6-0.5,9.5-3.7c0.7-1.2-0.6-1.8-0.7-2.7
		c0.8-0.1,2-0.1,1.5-1.2C399,287.9,398.5,285.9,396,286.4z"/>
	<path d="M309.9,355.3c-0.4-0.4-0.8-0.8-1.2-1.2c-0.5-3.3,2-5,3.6-7.2c1.4-1.8,3.1-3.4,4.7-5.1l-0.1,0.1c0.6-0.2,1.1-0.4,1.1-1.1
		l-0.1,0.1c2.7-0.2,3.7-2.6,5.4-4.2c0.3-0.3,0.5-0.6,0.8-0.9l0-0.1c0.5-0.4,1.1-0.7,1.6-1.1c0.5-0.5,1-1,1.4-1.4
		c0.5-0.6,1-1.1,1.5-1.7c3-1.7,5.8-3.6,6.7-7.2c0.8,0.4,1.6,0.9,2.3,1.3c-3.3,4.6-7.3,8.5-11.8,12.1c-4.6,3.7-8.7,8-12.9,12.1
		c-1.1,1-0.2,1.8,0.7,2.3c1.6,1.2,3.1,2.7,5.3,3l-0.1-0.1C316.1,357.2,313,356,309.9,355.3z M311.8,353.4c0.3,0.3,0.5,0.3,0.5,0
		c0-0.1-0.2-0.2-0.3-0.3c-0.2-0.4-0.3-1-0.8-0.3C311.2,352.9,311.6,353.2,311.8,353.4z"/>
	<path class="st5" d="M347.7,329.4c5.8,0.1,9.5,3.9,9.1,8.6c-0.4,4.5-8.8,7.1-12.6,4.9c-3.7-2.2-5.2-4.8-4.3-8.3
		C340.7,331.5,343.9,329.4,347.7,329.4z M346.8,332.7c-0.3,0.4-0.6,0.7-0.9,1.1l0,0c-2-0.1-2.6,1.4-3.2,3c0.1,0.6,0.1,1.3,0.2,1.9
		c0.4,2.8,2.5,2,4.2,2c1.5,0.3,2.5-0.2,2.8-1.8c0.7,0,1.3,0,2,0c0.1,0.6-0.5,1.3,0.1,1.7c0.4,0.3,0.8,0,1.2-0.4
		c0.9-0.9,0.9-2,0.6-3.1c-0.4-2.5-0.7-5.1-4.2-5.1C348.6,331.7,347.4,330.9,346.8,332.7z"/>
	<path class="st104" d="M387,282.3c-0.4,0-0.9,0.1-1.3,0.1c-3.7-1-5.5-4.4-8.2-6.7c-6.5-5.8-13.8-10.4-20.5-15.9
		c0.4-0.3,0.7-0.7,1.1-1C368.5,265.8,378.2,273.5,387,282.3z"/>
	<path class="st98" d="M309.9,355.3c3.1,0.7,6.1,1.9,9.2-0.1c2,0.3,4,0.2,6.1-0.1c-0.2,1-1,1.6-1.8,2.2c-0.5-0.7-1.1-1.1-1.9-0.3
		c-0.7,0.7-1.4,1.3-2.4,1.3c-1.4-1.5-2.8,0.1-4.1,0c-0.4-0.3-0.7-0.7-1.2-0.9c-0.6-0.2-1.3-0.3-1.7,0.4c0.5,0.1,0.9,0.4,1.4,0.4
		c0.5,0.1,1,0,1.5,0c0.4,0.7,0.7,1.4,1.1,2.2l0-0.1c-2.9,0.3-5.5-1.3-8.3-1.1l0.1,0c-1-1.4-3-0.9-4.2-2
		C305.7,356.4,308.2,356.8,309.9,355.3z"/>
	<path class="st105" d="M362.2,306c0.7-0.3,1.5-0.7,2.2-1c0.5,6.9,1.4,13.8,1.1,20.8c0,0.7,0.3,1.9-0.9,1.9c-1.1,0-1-1.2-1-2
		c-0.1-4.9,0.4-9.8-0.3-14.7C363.1,309.3,363.1,307.5,362.2,306z"/>
	<path class="st106" d="M365.1,281.4c-0.4,0-0.8,0-1.2,0c-3.7-5.1-9.1-8.7-11.9-14.5c4.3,2.4,7,6.5,10.1,10.1
		C363.1,278.3,364.5,279.7,365.1,281.4z"/>
	<path class="st39" d="M355.9,281.5c-0.3,0.3-0.6,0.6-0.9,1c-2.9-5.1-5.1-10.6-9.1-15.1c-0.3-0.3-0.1-1-0.1-1.5
		C351.3,269.7,353.8,275.4,355.9,281.5z"/>
	<path class="st106" d="M352.1,267c-0.7,0.1-1.4-0.2-1.7-0.8c-2-3.7-5.4-6.2-7.7-9.6C347.7,258.5,350.4,262.3,352.1,267z"/>
	<path class="st107" d="M370.6,300c0.6-1,1.5-1.2,2.5-1.2c1.1,1.9,2.3,3.7,3.3,5.7c0.4,0.8,1.7,2.1,0.8,2.6c-1.2,0.6-2-1.1-2.3-2
		c-0.5-1.7-1.8-2.8-2.5-4.4C372,299.9,371.3,300,370.6,300z"/>
	<path class="st39" d="M338.6,258.7c4,0.8,6.1,3.6,7.3,7.3C342.8,264.2,341.1,261.1,338.6,258.7z"/>
	<path class="st108" d="M325.2,355.2c-2,0.2-4,0.4-6.1,0.1l0.1,0.1c-0.6-0.8-1-1.5,0-2.3C321.3,353.6,323.5,353.7,325.2,355.2z"/>
	<path class="st98" d="M319.3,353c-1,0.7-0.6,1.5,0,2.3c-2.2-0.3-3.6-1.8-5.3-3C315.7,352.5,317.7,351.4,319.3,353z"/>
	<path class="st44" d="M427.1,304.7c-0.4-0.3-0.8-0.5-1.2-0.8C426.3,304.2,426.7,304.5,427.1,304.7z"/>
	<path class="st46" d="M329.5,289.5c-2.1-1.3-4.5-1.4-6.8-1.9c-1.3-0.2-2.3-0.6-2.5-2.1c1.3,0.2,2.6,0.6,3.9,0.7
		c0.6,0.1,1.3-0.1,1.9-0.1c-0.2-1.1-1.2-0.8-1.8-1.1c-0.9-0.4-1.9-0.5-2.9-0.7c-0.3-0.6-0.7-1.2-1-1.8c4.9,0.9,9.6,2.2,13.1,6.1
		c1.2,1.3,0.2,1.7-0.9,1.9l0,0.1C331.8,289.5,330.6,289.7,329.5,289.5z"/>
	<path class="st46" d="M325.4,277.1c-0.4-0.6-0.8-1.2-1.1-1.8c0.8-0.7,0.2-1.3-0.1-2c2.8-0.3,5.4,1.3,8.3,0.6c1,0.7,2,1.4,3,2.2
		c-1.3,0-2.6,0.1-3.9,0.1C329.6,277.4,327.5,277.5,325.4,277.1z"/>
	<path class="st36" d="M314.2,277.4c0.5,0,1.1,0,1.6,0c0.4,0.2,0.9,0.5,1.3,0.7c0.3,0.1,0.7,0.2,1,0.2c-0.4,0.4-0.7,0.8-1.1,1.1
		c-1,0-1.9,0-2.9,0c-0.4,0-0.8-0.1-1.2-0.1l0,0c0-0.4,0-0.7,0-1.1l0-0.1C313.4,277.9,313.8,277.7,314.2,277.4z"/>
	<path class="st109" d="M331.5,276.3c1.3,0,2.6-0.1,3.9-0.1c0.4,0,0.7,0.1,1.1,0.1c0.4,0.7,0.7,1.3,1.1,2l-0.2-0.1
		C335.4,277.6,333.3,277.5,331.5,276.3z"/>
	<path class="st26" d="M312.9,279.4c0.4,0,0.8,0.1,1.2,0.1c0.2,0.7,0.9,1.4,0.2,2.2c-0.2,0.2-0.6,0.2-0.8,0.1
		C312.2,281.2,312.6,280.3,312.9,279.4z"/>
	<path class="st26" d="M314.2,277.4c-0.4,0.3-0.9,0.5-1.3,0.8c0-0.3,0-0.6,0-0.9C313.4,277.3,313.8,277.3,314.2,277.4z"/>
	<path class="st26" d="M312.9,278.2c0,0.4,0,0.7,0,1.1c-0.1-0.2-0.2-0.5-0.3-0.8C312.6,278.5,312.8,278.4,312.9,278.2z"/>
	<path class="st8" d="M323.2,310c0-0.6,0-1.2,0-1.8c4.7,0.9,9.7,0.7,13.6,3.9C332.2,311.4,327.7,310.7,323.2,310z"/>
	<path class="st87" d="M328.4,299.8c-0.4,0.5-1.6,0.9-1.6,0.8C326.8,299.3,327.9,300.1,328.4,299.8L328.4,299.8z"/>
	<path class="st109" d="M332.4,274c-2.8,0.7-5.5-0.9-8.3-0.6c-0.2-0.1-0.5-0.1-0.8-0.1c-2.8,1.8-5.2,1.6-7.3-1.1l0,0
		c1-0.3,2.2-1.2,0.7-1.8c-2.8-1.2-5.7-2.6-9-1.3c-1.7-1.6-3.8-1.8-6-2.1c-0.4,0-1.1-0.2-0.4-0.8c0.3-0.3,1-0.3,1.4-0.4
		c7.3,0.9,14.6,1.2,21.4,4.4c0.9,0.8,2,0.9,3.1,1c0.4,0.3,0.7,0.6,1.1,0.9c0.3,0,0.7,0,1,0.1c0.6,0.6,1.3,0.9,2.2,0.9
		c0.3,0,0.6,0.1,0.9,0.1C332.5,273.5,332.4,273.7,332.4,274z M321.1,271.7c-0.1-0.1-0.1-0.3-0.2-0.3c-0.1-0.1-0.4-0.1-0.5,0
		c-0.3,0.3-0.2,0.5,0.3,0.5C320.8,271.9,321,271.8,321.1,271.7z"/>
	<path class="st46" d="M329.4,272.2c-0.3,0-0.7,0-1-0.1c-0.4-0.3-0.7-0.6-1.1-0.9c-1.1-0.1-2.2-0.2-3.1-1c0.8-0.2,1.7-0.4,2.2-1.2
		c3.5,0,6.9,0.8,10.2,2c0,0.5,0,0.9,0,1.4c-1.3,0.3-2.7,0.6-4,0.9c-0.3,0-0.6-0.1-0.9-0.1c0.2-0.6,1.2-0.9,0.8-1.6
		c-0.3-0.6-1.2-0.4-1.8-0.1C330.2,271.5,329.8,271.9,329.4,272.2z"/>
	<path class="st100" d="M326.3,268c-0.4,0-0.8,0.1-1.2,0.1c-0.3,0-0.7,0.1-1,0.1c-0.3-0.1-0.6-0.2-0.9-0.3
		C324.3,266.8,325.3,266.7,326.3,268z"/>
	<path class="st110" d="M303.8,261.1c0.7,0.2,1.3,0.5,2,0.7c0,0.3,0,0.7,0,1C304.7,262.8,304,262.3,303.8,261.1z"/>
	<path class="st110" d="M305.8,263.9c0-0.4,0-0.7,0-1.1c0.5,0.1,1.3,0.2,1.3,0.4C307.2,264.2,306.4,263.8,305.8,263.9z"/>
	<path class="st46" d="M324.2,268.3c0.3,0,0.7-0.1,1-0.1c0.1,0.2,0.2,0.5,0.2,0.7C325,268.7,324.6,268.5,324.2,268.3z"/>
	<path class="st89" d="M324.3,335.8c-0.3,0.3-0.5,0.6-0.8,0.9c-2.6,0.4-4.3,2-5.4,4.2l0.1-0.1c-0.4,0.4-0.7,0.7-1.1,1.1l0.1-0.1
		c-2.5,0.5-3.9,2.4-5.6,4c-0.9,0.8-1.8,1.7-2.7,0c1.9-1.8,4.5-3.1,5.1-6c2.6-1,3.6-4.1,6.1-5.2c0.7,0.4,1.3,0.7,2,1.1
		C322.8,335.8,323.6,335.8,324.3,335.8z"/>
	<path class="st61" d="M319.5,313c-0.1-0.2-0.1-0.4-0.1-0.6c5.7-0.4,10.9,2,16.3,2.9c0,0.3-0.1,0.7-0.2,1c-0.6,0.1-1.2,0.1-1.9,0.2
		C329,315.3,324.1,314.8,319.5,313z"/>
	<path class="st61" d="M332.6,321.4c-2.9-0.6-5.7-1.3-8.6-1.9c-0.3,0-0.5-0.1-0.7-0.2c3.4-1.1,6.7-2.1,10.3-1.1
		c0.3,0.4,0.7,0.7,1,1.1C334.1,320.3,333.4,320.9,332.6,321.4z"/>
	<path class="st111" d="M322.1,335.7c-0.7-0.4-1.3-0.7-2-1.1c1.1-2.5,2.9-4.6,5.3-6c0.5,0.6,1.1,0.7,1.8,0.8l0.3,0.4
		C325.7,331.8,323.9,333.7,322.1,335.7z"/>
	<path class="st48" d="M329.5,327.5c0.8-1.1,1.4-2.5,3.1-2.7c0.1,0,0.3,0.3,0.3,0.4C332.2,326.7,331.1,327.5,329.5,327.5
		L329.5,327.5z"/>
	<path class="st112" d="M334.6,319.4c-0.3-0.4-0.7-0.7-1-1.1c0-0.6,0.1-1.2,0.1-1.8c0.6-0.1,1.2-0.1,1.9-0.2
		C335.5,317.4,335.5,318.5,334.6,319.4z"/>
	<path class="st111" d="M329.4,327.5c-0.1,1.2-0.8,1.9-1.9,2.3l-0.3-0.4C327.8,328.6,328.5,327.9,329.4,327.5L329.4,327.5z"/>
	<path class="st111" d="M325.4,328.6c0.3-0.3,0.7-0.6,1-0.9C326,328,325.7,328.3,325.4,328.6z"/>
	<path class="st63" d="M328.9,331.6c-0.5,0.6-1,1.1-1.5,1.7C327.7,332.6,328.1,331.9,328.9,331.6z"/>
	<path class="st113" d="M325.9,334.7c-0.5,0.4-1.1,0.7-1.6,1.1C324.6,335.1,325.3,335,325.9,334.7z"/>
	<path class="st109" d="M316.1,272.1c-4.4,1.5-8.4-0.1-12.3-2c-0.4-0.2-0.2-0.9,0.1-1.3c1,0.1,1.9,0.2,2.9,0.3
		C309.6,271,313.5,269.5,316.1,272.1L316.1,272.1z"/>
	<path class="st101" d="M316.1,272.1c-2.6-2.7-6.5-1.1-9.3-3c0.3-0.1,0.7-0.1,1-0.1c3.2-1.4,6.2,0,9,1.3
		C318.2,271,317.1,271.8,316.1,272.1z"/>
	<path class="st93" d="M295.5,266c0.4-0.7,1.5-0.9,1.5-0.7C297.1,266.5,296,265.6,295.5,266L295.5,266z"/>
	<path class="st47" d="M297.7,263.6c0-0.2,0-0.4-0.1-0.6c0.7,0,1.9-0.1,1.8,0.3C299.3,264.1,298.3,263.8,297.7,263.6z"/>
	<path class="st52" d="M332.5,273.2c1.3-0.3,2.7-0.6,4-0.9c0,0.3,0.1,0.6,0.2,0.9c0,0.6,0,1.2,0.1,1.8c-0.1,0.4-0.2,0.8-0.2,1.2
		c-0.4,0-0.7-0.1-1.1-0.1c-1-0.7-2-1.4-3-2.2C332.4,273.7,332.5,273.5,332.5,273.2z"/>
	<path class="st46" d="M336.5,276.3c0.1-0.4,0.2-0.8,0.2-1.2c0.8,0.9,2.3,1.7,0.8,3.2C337.3,277.6,336.9,276.9,336.5,276.3z"/>
	<path d="M326.4,395.9c0.1-7.8,4.5-11.7,11.8-10.7c5.4,0.8,9.1,5.8,8.1,10.9c-1.1,5.4-5.8,8.3-11.4,7c-1-0.2-1.9-0.7-2.9-0.9
		C326.3,401.2,326.3,401.2,326.4,395.9z M329.7,391.3c-0.1,1-0.2,2-0.2,3c-1.6,1.2-0.2,2.2,0.4,2.9c2.4,2.6,7.4,2.2,10.9-0.7
		c3.1-2.7,2.8-6-0.8-8.2C336.2,386.1,333.8,386.8,329.7,391.3z"/>
	<path class="st114" d="M271.9,384c1.8-2.1,3.6-1,5.5-0.1c2,1,4.1,1.7,4.8,4.2c0.7,2.9-1.1,4.4-3.2,5.7c-2.3,1.4-6.2,1-7.9-1.1
		c-1.6-1.9-3.5-4-1-6.6C271,385.7,271.4,384.8,271.9,384z M276,392.7c1.6-0.1,4.1-2.7,3.8-4.3c-0.3-1.9-1.8-2.4-3.4-2.5
		c-1.8-0.1-3.3,2-3.2,4.4C273.3,392.2,274.9,392.3,276,392.7z"/>
	<path class="st115" d="M307.7,433.3c-3.5,0.1-6.1-2.2-6.1-5.4c0-2.3,3.6-5.8,6.2-6c2.4-0.2,6.1,3.1,6,5.4
		C313.7,429.9,310.2,433.3,307.7,433.3z M311,427.4c-0.1-1.6-1.6-2.3-3-2.7c-1.5-0.4-4.2,2.5-4.1,4.4c0,1.5,1,2,2.3,2.1
		C308.1,431.4,310.9,429.4,311,427.4z"/>
	<path class="st56" d="M385.9,405.6c-7-0.6-13,2.6-19.1,5.5c-1.2,0.6-2.1,1.7-3.6,1.7c0.7-3.1,3.5-4.1,5.9-5
		c6-2.2,11.9-4.7,18.5-4.5c0.6,0,1.5-0.5,1.7,0.3c0.3,0.9-0.7,0.9-1.3,1C387.2,404.7,386.3,404.6,385.9,405.6z"/>
	<path class="st96" d="M311.8,381.8c0.1-1.7,0.4-3.4-0.1-5c0.2,0,0.4,0,0.5,0c2.5-0.8,5.1-1.2,7-3.1c0.1-0.8,0.4-1.5,1.1-1.9
		c1.4,2.6,0.2,3.8-2.2,4.6c-0.4,0.1-1.5,0.5-0.4,1.2c0.4,0.2,1,0.1,1.5,0.2C317,379.8,314.4,380.8,311.8,381.8z"/>
	<path class="st116" d="M258.5,377.9c0.8-0.1,1.5-0.1,2.3-0.2c1.3,2.1,3.4,3.2,5.6,4.2c1.5,0.7,3.4,0.6,4.5,2.1
		c-0.7,0-1.4,0.1-2.1,0.1C264.4,383.6,260.7,382,258.5,377.9z"/>
	<path class="st51" d="M248.3,378.9c-0.1-0.6-0.5-0.9-1-1c0-1.5,0.7-1.8,1.7-0.9c2.3,2.2,3.8,4.9,4.5,8c-0.7-0.3-1.5-0.7-2.2-1
		c-0.1-0.6-0.3-1-1-1C250.5,381.2,249.8,379.9,248.3,378.9z"/>
	<path class="st117" d="M256.5,392.3c0.1-0.9,0.2-1.8-1-2c0-0.7,0-1.5,0.1-2.2c2.1,1.2,2.8,3.5,4.1,5.3c0,0.6,0,1.2,0,1.9
		C258.4,394.4,258.4,392.3,256.5,392.3z"/>
	<path class="st118" d="M361.1,415.7c0.1-0.4,0.1-0.7,0.2-1.1c0.3-1.1,1.2-1.4,2-1.9C363.1,414.1,362.5,415.2,361.1,415.7z"/>
	<path class="st119" d="M254.4,388.1c-0.1-0.6-0.3-1-1-1c0-0.7,0-1.5,0-2.2c1.4,0.6,2.3,1.5,2.1,3.1
		C255.2,388.1,254.8,388.1,254.4,388.1z"/>
	<path class="st20" d="M268.7,384.1c0.7,0,1.4-0.1,2.1-0.1c0.3,0,0.7,0,1-0.1c-0.5,0.8-0.9,1.7-1.9,2.2
		C269.6,385.5,269.2,384.8,268.7,384.1z"/>
	<path class="st62" d="M391.9,402.2c0,0,0,0.1-0.1,0.1L391.9,402.2z"/>
	<path class="st1" d="M301.7,446.6L301.7,446.6L301.7,446.6z"/>
	<path d="M144.4,345.3c0.7-0.1,1,0.3,1.1,0.8c0.1,1.1-0.8,1.3-1.6,1.5c-0.6,0.1-1-0.3-1-0.8C142.8,345.8,143.7,345.6,144.4,345.3z"
		/>
	<path class="st79" d="M323.3,319.3c0.2,0.1,0.5,0.1,0.7,0.2c-0.5,0.4-1,0.9-1.5,1.1c-1,0.4-2.2,0.3-2.2-0.8c0-0.7,1.3-0.4,2.1-0.5
		C322.6,319.3,322.9,319.3,323.3,319.3z"/>
	<path class="st120" d="M323.4,273.2c0.3,0,0.5,0,0.8,0.1c0.3,0.7,0.9,1.3,0.1,2C323.3,274.9,323.2,274.1,323.4,273.2z"/>
	<path class="st109" d="M321.3,284.3c1,0.2,2,0.3,2.9,0.7c0.6,0.3,1.6,0,1.8,1.1c-0.6,0-1.3,0.2-1.9,0.1c-1.3-0.2-2.6-0.5-3.9-0.7
		c-0.3-0.1-0.8-0.3-0.8-0.4C319.7,284,320.7,284.6,321.3,284.3z"/>
	<path class="st109" d="M329.5,289.5c1.1,0.2,2.3,0,3,1.1c-1.1,0-2.3,0.2-3.3-0.1C328,290,329.1,289.7,329.5,289.5z"/>
	<path class="st121" d="M305.6,350.1c0.7-0.7,1.5-1.5,2.2-2.2c1,2.1-0.9,2.4-2,3.3l0.1,0C305.8,350.8,305.7,350.4,305.6,350.1z"/>
	<path class="st26" d="M317.1,278.1c-0.4-0.2-0.9-0.5-1.3-0.7C316.3,277.6,316.7,277.9,317.1,278.1z"/>
	<path class="st122" d="M301.8,353.1c0.4-0.9,1.2-0.9,2-1C303.7,353.6,302.9,353.8,301.8,353.1z"/>
	<path class="st12" d="M305.6,350.1c0.1,0.4,0.2,0.7,0.3,1.1c-0.3,0.1-0.6,0.1-1,0.1C305.1,350.9,305.4,350.5,305.6,350.1z"/>
	<path class="st12" d="M303.7,352.2c0-0.3-0.1-0.6-0.1-0.9c0.4,0,0.9,0,1.3,0C304.5,351.6,304.1,351.9,303.7,352.2z"/>
	<path class="st19" d="M311.7,376.8c-0.5-1.1-1.1-2.1-1.6-3.2c1.6-0.9,2.8-2.1,3-4c0,0-0.1,0.1-0.1,0.1c0.5-0.1,0.9-0.4,1.1-0.9
		c0.5-0.7,1.3-1,2.1-1.2c0,0.3,0,0.6,0,0.9c-0.8,0.5-1.2,1.2-1,2.2c-0.2,0.1-0.4,0.2-0.5,0.4c0.1,0,0.2,0,0.3-0.1
		c0.1-0.1,0.1-0.3,0.2-0.4c0.4,0,0.7,0.1,1.1,0.1l-0.1-0.1c0.1,0.3,0.1,0.6,0.1,0.9c-0.1,0.3-0.1,0.7-0.2,1c-1,1.7-4.2,1.4-3.8,4.3
		C312,376.8,311.8,376.8,311.7,376.8z"/>
	<path class="st123" d="M312.2,376.8c-0.4-2.9,2.9-2.6,3.8-4.3c1.1,0.4,2.1,0.8,3.2,1.1C317.3,375.7,314.7,376.1,312.2,376.8z"/>
	<path class="st123" d="M317.1,370.7c0-0.2,0.1-0.4,0.2-0.5c0.8-1.2,1.1-2.9,3-3c0.1,0,0.3,0.3,0.3,0.4
		C320.1,369.4,319.2,370.7,317.1,370.7L317.1,370.7z"/>
	<path class="st100" d="M315.1,370.7c-0.2-1,0.1-1.7,1-2.2c0,0.7,0,1.5,0,2.2C315.7,370.7,315.4,370.7,315.1,370.7L315.1,370.7z"/>
	<path class="st124" d="M318.3,365.4c0-0.6,0.3-0.8,0.8-1c0.2,0.2,0.3,0.5,0.5,0.7C319.1,365.2,318.7,365.3,318.3,365.4z"/>
	<path class="st123" d="M316.2,371.6c0-0.3-0.1-0.6-0.1-0.9c0.4,0,0.8,0,1.1,0.1l-0.1-0.1C316.8,370.9,316.5,371.2,316.2,371.6z"/>
	<path class="st78" d="M307.8,359.4c2.8-0.2,5.5,1.4,8.3,1.1c-0.3,0.4-0.6,0.8-0.9,1.2C312.6,361.4,309.8,361.7,307.8,359.4z"/>
	<path class="st74" d="M313,369.6c-0.1,2-1.4,3.1-3,4C308.4,370.4,311.7,370.7,313,369.6z"/>
	<path class="st69" d="M316.1,360.5c-0.4-0.7-0.7-1.4-1.1-2.2l0,0c1.4,0.1,2.7-1.5,4.1,0C318.1,359.1,317.5,360.3,316.1,360.5z"/>
	<path class="st125" d="M306.8,377.9c0.5-0.6-0.2-1.8,0.8-1.8c0.6,0,1.6,0.9,1.2,1.8C308.2,379.1,307.4,377.8,306.8,377.9
		L306.8,377.9z"/>
	<path class="st49" d="M300.3,373.6c-0.4,0.3-0.7,0.6-1.1,0.9c-0.1-0.2-0.4-0.5-0.4-0.7c0.1-0.5,0.4-0.9,0.9-0.9
		C300,373,300.1,373.3,300.3,373.6z"/>
	<path class="st57" d="M314,368.7c-0.1,0.6-0.6,0.8-1.1,0.9C313,369.1,313.3,368.7,314,368.7z"/>
	<path class="st126" d="M361.5,301.9c-1.7-4-3.3-8.1-4.4-12.3c0.4,0,0.9,0,1.3-0.1c1.6,3.6,3.1,7.2,4,11.1
		C362,301.1,361.7,301.5,361.5,301.9z"/>
	<path class="st48" d="M367.4,300.8c-0.2,1.2-0.9,1.7-2,1.8c-0.1,0-0.3-0.3-0.3-0.3C365.5,301.3,366.3,300.8,367.4,300.8
		L367.4,300.8z"/>
	<path class="st127" d="M353,291.6c0.2,0.7,0.1,1.3-0.3,1.9c-0.2-0.2-0.5-0.3-0.6-0.5C351.9,292.2,352.1,291.6,353,291.6L353,291.6z
		"/>
	<path class="st91" d="M359,284.9c-0.2,0.1-0.5,0.4-0.7,0.4c-0.2,0-0.5-0.3-0.7-0.4c0.3-0.1,0.5-0.4,0.8-0.4
		C358.5,284.5,358.7,284.8,359,284.9z"/>
	<path class="st37" d="M353.1,291.6c0-0.9-0.2-1.8,1-2l-0.1-0.1C354,290.4,354.3,291.4,353.1,291.6
		C353,291.6,353.1,291.6,353.1,291.6z"/>
	<path class="st102" d="M367.4,300.9c0.1-0.2,0.3-0.3,0.4-0.5c0,0.1,0,0.2-0.1,0.3C367.6,300.8,367.5,300.8,367.4,300.9L367.4,300.9
		z"/>
	<path class="st76" d="M355.9,286c-0.1,0.1-0.2,0.2-0.3,0.2c-0.1,0-0.2-0.2-0.3-0.3c0.1-0.1,0.2-0.2,0.3-0.2
		C355.7,285.7,355.8,285.9,355.9,286z"/>
	<path class="st35" d="M354.1,289.6c0.1-0.2,0.3-0.3,0.4-0.5c0,0.1,0,0.3-0.1,0.3C354.3,289.5,354.2,289.5,354.1,289.6L354.1,289.6z
		"/>
	<path class="st101" d="M396,286.4c2.4-0.5,3,1.5,3.6,3c0.5,1.1-0.7,1.1-1.5,1.2l0,0.1C398.2,288.9,396.7,287.9,396,286.4z"/>
	<path class="st21" d="M396,286.4c0.6,1.5,2.1,2.5,2.2,4.2c-1.8-0.8-2.6-2.4-3.2-4.1C395.4,286.5,395.7,286.5,396,286.4z"/>
	<path class="st128" d="M318.1,341c1.2-2.2,2.9-3.8,5.4-4.2C321.9,338.3,320.8,340.8,318.1,341z"/>
	<path class="st129" d="M311.8,353.4c-0.2-0.2-0.6-0.5-0.6-0.5c0.5-0.7,0.6-0.1,0.8,0.3L311.8,353.4z"/>
	<path class="st129" d="M312.1,353.1c0.1,0.1,0.3,0.2,0.3,0.3c-0.1,0.3-0.2,0.3-0.5,0L312.1,353.1z"/>
	<path class="st130" d="M317.1,342c0.4-0.4,0.7-0.7,1.1-1.1C318.1,341.5,317.6,341.8,317.1,342z"/>
	<path class="st131" d="M349.7,331.9c3.4,0.1,3.8,2.6,4.2,5.1c-0.6,0.6-1.2,1.2-1.9,1.8c-0.7,0-1.3,0-2,0c-0.6-0.5-1.3-1-1.9-1.5
		c-0.6-0.4-1.1-1.5-1.9-0.8c-0.6,0.6-0.2,1.5,0.2,2.3c0.3,0.6,0.6,1.2,0.8,1.8c-1.7,0-3.8,0.8-4.2-2c1-0.7,1.1-1.4-0.2-1.9
		c0.6-1.5,1.1-3,3.2-3c0.4,0.9,1.2,0.9,2,0.9c0.4,0.5,0.7,1.1,1.1,1.6c0.4,0.4,1,1.3,1.5,0.5c0.5-0.6-0.2-1.3-0.8-1.5
		c-0.6-0.3-1.3-0.3-1.9-0.5c-0.4-0.9-1.2-0.9-2-1c0.3-0.4,0.6-0.7,0.9-1.1C347.8,332.5,349.1,333.7,349.7,331.9z"/>
	<path class="st95" d="M347.2,340.6c-0.3-0.6-0.5-1.2-0.8-1.8c-0.4-0.7-0.8-1.7-0.2-2.3c0.8-0.8,1.3,0.4,1.9,0.8
		c0.7,0.4,1.3,1,1.9,1.5C349.7,340.4,348.6,340.9,347.2,340.6z"/>
	<path class="st82" d="M352,338.8c0.6-0.6,1.2-1.2,1.9-1.8c0.2,1.1,0.3,2.2-0.6,3.1c-0.4,0.4-0.7,0.7-1.2,0.4
		C351.4,340.1,352,339.4,352,338.8z"/>
	<path class="st132" d="M349.7,331.9c-0.5,1.8-1.9,0.6-2.9,0.8C347.4,330.9,348.6,331.7,349.7,331.9z"/>
	<path class="st93" d="M342.7,336.7c1.3,0.5,1.2,1.2,0.2,1.9C342.9,338,342.8,337.4,342.7,336.7z"/>
	<path class="st93" d="M315.1,358.3c-0.5,0-1,0.1-1.5,0c-0.5-0.1-0.9-0.3-1.4-0.4c0.4-0.8,1.1-0.7,1.7-0.4
		C314.3,357.7,314.7,358.1,315.1,358.3L315.1,358.3z"/>
	<path class="st52" d="M329.4,272.2c0.4-0.3,0.8-0.6,1.2-0.8c0.6-0.2,1.5-0.4,1.8,0.1c0.4,0.7-0.6,1-0.8,1.6
		C330.7,273.1,330,272.8,329.4,272.2z"/>
	<path class="st101" d="M321.1,271.7c-0.1,0.1-0.3,0.2-0.4,0.2c-0.5,0-0.6-0.2-0.3-0.5c0.1-0.1,0.3-0.1,0.5,0
		C321,271.4,321,271.6,321.1,271.7z"/>
	<path class="st52" d="M327.3,271.2c0.4,0.3,0.7,0.6,1.1,0.9C328.1,271.8,327.7,271.5,327.3,271.2z"/>
	<path class="st59" d="M329.7,391.3c0.7,1.1,0.7,2.1-0.2,3C329.5,393.3,329.6,392.3,329.7,391.3z"/>
	<path class="st64" d="M315,370.6c-0.1,0.1-0.1,0.3-0.2,0.4c0,0.1-0.2,0-0.3,0.1C314.7,371,314.9,370.8,315,370.6L315,370.6z"/>
	<path class="st88" d="M347.9,334.7c-0.8,0-1.6,0-2-0.9l0,0C346.7,333.8,347.5,333.9,347.9,334.7L347.9,334.7z"/>
</g>
</svg>
