<?xml version="1.0" encoding="UTF-8" standalone="no"?>
<!-- Created with Inkscape (http://www.inkscape.org/) -->

<svg
   xmlns:dc="http://purl.org/dc/elements/1.1/"
   xmlns:cc="http://creativecommons.org/ns#"
   xmlns:rdf="http://www.w3.org/1999/02/22-rdf-syntax-ns#"
   xmlns:svg="http://www.w3.org/2000/svg"
   xmlns="http://www.w3.org/2000/svg"
   xmlns:sodipodi="http://sodipodi.sourceforge.net/DTD/sodipodi-0.dtd"
   xmlns:inkscape="http://www.inkscape.org/namespaces/inkscape"
   width="210mm"
   height="297mm"
   viewBox="0 0 744.09448819 1052.3622047"
   id="svg2"
   version="1.1"
   inkscape:version="0.91 r13725"
   sodipodi:docname="brontocodes.svg">
  <sodipodi:namedview
     id="base"
     pagecolor="#ffffff"
     bordercolor="#666666"
     borderopacity="1.0"
     inkscape:pageopacity="0.0"
     inkscape:pageshadow="2"
     inkscape:zoom="2.8"
     inkscape:cx="286.40911"
     inkscape:cy="814.54983"
     inkscape:document-units="px"
     inkscape:current-layer="layer1"
     showgrid="false"
     inkscape:window-width="1718"
     inkscape:window-height="905"
     inkscape:window-x="0"
     inkscape:window-y="0"
     inkscape:window-maximized="1" />
  <defs
     id="defs4" />
  <metadata
     id="metadata7">
    <rdf:RDF>
      <cc:Work
         rdf:about="">
        <dc:format>image/svg+xml</dc:format>
        <dc:type
           rdf:resource="http://purl.org/dc/dcmitype/StillImage" />
        <dc:title></dc:title>
      </cc:Work>
    </rdf:RDF>
  </metadata>
  <g
     inkscape:label="Layer 1"
     inkscape:groupmode="layer"
     id="layer1">
    <g
       id="barcode"
       style="fill:#000000"
       transform="translate(43.956788,166.04056)">
      <rect
         x="0"
         y="0"
         width="2"
         height="30"
         id="barcode_bar1" />
      <rect
         x="3"
         y="0"
         width="1"
         height="30"
         id="barcode_bar3" />
      <rect
         x="6"
         y="0"
         width="1"
         height="30"
         id="barcode_bar5" />
      <rect
         x="11"
         y="0"
         width="1"
         height="30"
         id="barcode_bar7" />
      <rect
         x="14"
         y="0"
         width="2"
         height="30"
         id="barcode_bar9" />
      <rect
         x="20"
         y="0"
         width="1"
         height="30"
         id="barcode_bar11" />
      <rect
         x="22"
         y="0"
         width="1"
         height="30"
         id="barcode_bar13" />
      <rect
         x="25"
         y="0"
         width="4"
         height="30"
         id="barcode_bar15" />
      <rect
         x="30"
         y="0"
         width="1"
         height="30"
         id="barcode_bar17" />
      <rect
         x="33"
         y="0"
         width="1"
         height="30"
         id="barcode_bar19" />
      <rect
         x="36"
         y="0"
         width="4"
         height="30"
         id="barcode_bar21" />
      <rect
         x="41"
         y="0"
         width="1"
         height="30"
         id="barcode_bar23" />
      <rect
         x="44"
         y="0"
         width="1"
         height="30"
         id="barcode_bar25" />
      <rect
         x="46"
         y="0"
         width="1"
         height="30"
         id="barcode_bar27" />
      <rect
         x="49"
         y="0"
         width="4"
         height="30"
         id="barcode_bar29" />
      <rect
         x="55"
         y="0"
         width="3"
         height="30"
         id="barcode_bar31" />
      <rect
         x="60"
         y="0"
         width="1"
         height="30"
         id="barcode_bar33" />
      <rect
         x="63"
         y="0"
         width="2"
         height="30"
         id="barcode_bar35" />
      <rect
         x="66"
         y="0"
         width="1"
         height="30"
         id="barcode_bar37" />
      <rect
         x="68"
         y="0"
         width="3"
         height="30"
         id="barcode_bar39" />
      <rect
         x="73"
         y="0"
         width="2"
         height="30"
         id="barcode_bar41" />
      <rect
         x="77"
         y="0"
         width="1"
         height="30"
         id="barcode_bar43" />
      <rect
         x="79"
         y="0"
         width="3"
         height="30"
         id="barcode_bar45" />
      <rect
         x="84"
         y="0"
         width="2"
         height="30"
         id="barcode_bar47" />
      <rect
         x="88"
         y="0"
         width="1"
         height="30"
         id="barcode_bar49" />
      <rect
         x="91"
         y="0"
         width="1"
         height="30"
         id="barcode_bar51" />
      <rect
         x="96"
         y="0"
         width="2"
         height="30"
         id="barcode_bar53" />
      <rect
         x="99"
         y="0"
         width="1"
         height="30"
         id="barcode_bar55" />
      <rect
         x="102"
         y="0"
         width="1"
         height="30"
         id="barcode_bar57" />
      <rect
         x="105"
         y="0"
         width="4"
         height="30"
         id="barcode_bar59" />
      <rect
         x="110"
         y="0"
         width="1"
         height="30"
         id="barcode_bar61" />
      <rect
         x="114"
         y="0"
         width="4"
         height="30"
         id="barcode_bar63" />
      <rect
         x="119"
         y="0"
         width="1"
         height="30"
         id="barcode_bar65" />
      <rect
         x="121"
         y="0"
         width="2"
         height="30"
         id="barcode_bar67" />
      <rect
         x="127"
         y="0"
         width="1"
         height="30"
         id="barcode_bar69" />
      <rect
         x="129"
         y="0"
         width="1"
         height="30"
         id="barcode_bar71" />
      <rect
         x="132"
         y="0"
         width="1"
         height="30"
         id="barcode_bar73" />
      <rect
         x="135"
         y="0"
         width="4"
         height="30"
         id="barcode_bar75" />
      <rect
         x="140"
         y="0"
         width="1"
         height="30"
         id="barcode_bar77" />
      <rect
         x="143"
         y="0"
         width="1"
         height="30"
         id="barcode_bar79" />
      <rect
         x="147"
         y="0"
         width="4"
         height="30"
         id="barcode_bar81" />
      <rect
         x="152"
         y="0"
         width="1"
         height="30"
         id="barcode_bar83" />
      <rect
         x="154"
         y="0"
         width="1"
         height="30"
         id="barcode_bar85" />
      <rect
         x="156"
         y="0"
         width="4"
         height="30"
         id="barcode_bar87" />
      <rect
         x="162"
         y="0"
         width="1"
         height="30"
         id="barcode_bar89" />
      <rect
         x="165"
         y="0"
         width="1"
         height="30"
         id="barcode_bar91" />
      <rect
         x="168"
         y="0"
         width="1"
         height="30"
         id="barcode_bar93" />
      <rect
         x="170"
         y="0"
         width="2"
         height="30"
         id="barcode_bar95" />
      <rect
         x="176"
         y="0"
         width="1"
         height="30"
         id="barcode_bar97" />
      <rect
         x="179"
         y="0"
         width="4"
         height="30"
         id="barcode_bar99" />
      <rect
         x="185"
         y="0"
         width="1"
         height="30"
         id="barcode_bar101" />
      <rect
         x="187"
         y="0"
         width="1"
         height="30"
         id="barcode_bar103" />
      <rect
         x="190"
         y="0"
         width="1"
         height="30"
         id="barcode_bar105" />
      <rect
         x="193"
         y="0"
         width="4"
         height="30"
         id="barcode_bar107" />
      <rect
         x="198"
         y="0"
         width="1"
         height="30"
         id="barcode_bar109" />
      <rect
         x="201"
         y="0"
         width="4"
         height="30"
         id="barcode_bar111" />
      <rect
         x="207"
         y="0"
         width="1"
         height="30"
         id="barcode_bar113" />
      <rect
         x="209"
         y="0"
         width="1"
         height="30"
         id="barcode_bar115" />
      <rect
         x="211"
         y="0"
         width="4"
         height="30"
         id="barcode_bar117" />
      <rect
         x="217"
         y="0"
         width="1"
         height="30"
         id="barcode_bar119" />
      <rect
         x="220"
         y="0"
         width="1"
         height="30"
         id="barcode_bar121" />
      <rect
         x="223"
         y="0"
         width="1"
         height="30"
         id="barcode_bar123" />
      <rect
         x="226"
         y="0"
         width="4"
         height="30"
         id="barcode_bar125" />
      <rect
         x="231"
         y="0"
         width="1"
         height="30"
         id="barcode_bar127" />
      <rect
         x="233"
         y="0"
         width="2"
         height="30"
         id="barcode_bar129" />
      <rect
         x="237"
         y="0"
         width="1"
         height="30"
         id="barcode_bar131" />
      <rect
         x="242"
         y="0"
         width="4"
         height="30"
         id="barcode_bar133" />
      <rect
         x="248"
         y="0"
         width="1"
         height="30"
         id="barcode_bar135" />
      <rect
         x="251"
         y="0"
         width="1"
         height="30"
         id="barcode_bar137" />
      <rect
         x="253"
         y="0"
         width="1"
         height="30"
         id="barcode_bar139" />
      <rect
         x="256"
         y="0"
         width="2"
         height="30"
         id="barcode_bar141" />
      <rect
         x="260"
         y="0"
         width="3"
         height="30"
         id="barcode_bar143" />
      <rect
         x="264"
         y="0"
         width="1"
         height="30"
         id="barcode_bar145" />
      <rect
         x="267"
         y="0"
         width="2"
         height="30"
         id="barcode_bar147" />
      <rect
         x="270"
         y="0"
         width="1"
         height="30"
         id="barcode_bar149" />
      <rect
         x="275"
         y="0"
         width="1"
         height="30"
         id="barcode_bar151" />
      <rect
         x="280"
         y="0"
         width="2"
         height="30"
         id="barcode_bar153" />
      <rect
         x="283"
         y="0"
         width="1"
         height="30"
         id="barcode_bar155" />
      <rect
         x="286"
         y="0"
         width="1"
         height="30"
         id="barcode_bar157" />
      <rect
         x="289"
         y="0"
         width="4"
         height="30"
         id="barcode_bar159" />
      <rect
         x="294"
         y="0"
         width="1"
         height="30"
         id="barcode_bar161" />
      <rect
         x="297"
         y="0"
         width="1"
         height="30"
         id="barcode_bar163" />
      <rect
         x="300"
         y="0"
         width="2"
         height="30"
         id="barcode_bar165" />
      <rect
         x="306"
         y="0"
         width="1"
         height="30"
         id="barcode_bar167" />
      <rect
         x="308"
         y="0"
         width="1"
         height="30"
         id="barcode_bar169" />
      <rect
         x="311"
         y="0"
         width="4"
         height="30"
         id="barcode_bar171" />
      <rect
         x="317"
         y="0"
         width="1"
         height="30"
         id="barcode_bar173" />
      <rect
         x="319"
         y="0"
         width="1"
         height="30"
         id="barcode_bar175" />
      <rect
         x="322"
         y="0"
         width="1"
         height="30"
         id="barcode_bar177" />
      <rect
         x="327"
         y="0"
         width="2"
         height="30"
         id="barcode_bar179" />
      <rect
         x="330"
         y="0"
         width="1"
         height="30"
         id="barcode_bar181" />
      <rect
         x="333"
         y="0"
         width="2"
         height="30"
         id="barcode_bar183" />
      <rect
         x="337"
         y="0"
         width="3"
         height="30"
         id="barcode_bar185" />
      <rect
         x="341"
         y="0"
         width="1"
         height="30"
         id="barcode_bar187" />
      <rect
         x="346"
         y="0"
         width="2"
         height="30"
         id="barcode_bar189" />
      <rect
         x="349"
         y="0"
         width="1"
         height="30"
         id="barcode_bar191" />
      <rect
         x="352"
         y="0"
         width="1"
         height="30"
         id="barcode_bar193" />
      <rect
         x="356"
         y="0"
         width="4"
         height="30"
         id="barcode_bar195" />
      <rect
         x="361"
         y="0"
         width="1"
         height="30"
         id="barcode_bar197" />
      <rect
         x="363"
         y="0"
         width="3"
         height="30"
         id="barcode_bar199" />
      <rect
         x="368"
         y="0"
         width="2"
         height="30"
         id="barcode_bar201" />
      <rect
         x="372"
         y="0"
         width="1"
         height="30"
         id="barcode_bar203" />
      <rect
         x="374"
         y="0"
         width="2"
         height="30"
         id="barcode_bar205" />
      <rect
         x="379"
         y="0"
         width="3"
         height="30"
         id="barcode_bar207" />
      <rect
         x="383"
         y="0"
         width="1"
         height="30"
         id="barcode_bar209" />
      <rect
         x="385"
         y="0"
         width="2"
         height="30"
         id="barcode_bar211" />
      <text
         x="193"
         y="39"
         style="font-size:9px;text-align:center;text-anchor:middle"
         xml:space="preserve"
         id="barcode_text">http://brontosaurusrex.github.io</text>
    </g>
    <g
       transform="translate(33.058313,252.62945)"
       style="fill:#000000"
       id="barcode1">
      <rect
         id="barcode1_bar1"
         height="11"
         width="2"
         y="0"
         x="0" />
      <rect
         id="barcode1_bar3"
         height="11"
         width="2"
         y="6"
         x="4" />
      <rect
         id="barcode1_bar5"
         height="17"
         width="2"
         y="0"
         x="8" />
      <rect
         id="barcode1_bar7"
         height="11"
         width="2"
         y="0"
         x="12" />
      <rect
         id="barcode1_bar9"
         height="5"
         width="2"
         y="6"
         x="16" />
      <rect
         id="barcode1_bar11"
         height="17"
         width="2"
         y="0"
         x="20" />
      <rect
         id="barcode1_bar13"
         height="11"
         width="2"
         y="6"
         x="24" />
      <rect
         id="barcode1_bar15"
         height="11"
         width="2"
         y="0"
         x="28" />
      <rect
         id="barcode1_bar17"
         height="5"
         width="2"
         y="6"
         x="32" />
      <rect
         id="barcode1_bar19"
         height="17"
         width="2"
         y="0"
         x="36" />
      <rect
         id="barcode1_bar21"
         height="11"
         width="2"
         y="6"
         x="40" />
      <rect
         id="barcode1_bar23"
         height="11"
         width="2"
         y="0"
         x="44" />
      <rect
         id="barcode1_bar25"
         height="5"
         width="2"
         y="6"
         x="48" />
      <rect
         id="barcode1_bar27"
         height="11"
         width="2"
         y="0"
         x="52" />
      <rect
         id="barcode1_bar29"
         height="11"
         width="2"
         y="6"
         x="56" />
      <rect
         id="barcode1_bar31"
         height="11"
         width="2"
         y="0"
         x="60" />
      <rect
         id="barcode1_bar33"
         height="11"
         width="2"
         y="6"
         x="64" />
      <rect
         id="barcode1_bar35"
         height="11"
         width="2"
         y="6"
         x="68" />
      <rect
         id="barcode1_bar37"
         height="17"
         width="2"
         y="0"
         x="72" />
      <rect
         id="barcode1_bar39"
         height="5"
         width="2"
         y="6"
         x="76" />
      <rect
         id="barcode1_bar41"
         height="11"
         width="2"
         y="0"
         x="80" />
      <rect
         id="barcode1_bar43"
         height="17"
         width="2"
         y="0"
         x="84" />
      <rect
         id="barcode1_bar45"
         height="5"
         width="2"
         y="6"
         x="88" />
      <rect
         id="barcode1_bar47"
         height="11"
         width="2"
         y="0"
         x="92" />
      <rect
         id="barcode1_bar49"
         height="11"
         width="2"
         y="6"
         x="96" />
      <rect
         id="barcode1_bar51"
         height="11"
         width="2"
         y="0"
         x="100" />
      <rect
         id="barcode1_bar53"
         height="5"
         width="2"
         y="6"
         x="104" />
      <rect
         id="barcode1_bar55"
         height="17"
         width="2"
         y="0"
         x="108" />
      <rect
         id="barcode1_bar57"
         height="11"
         width="2"
         y="0"
         x="112" />
      <rect
         id="barcode1_bar59"
         height="17"
         width="2"
         y="0"
         x="116" />
      <rect
         id="barcode1_bar61"
         height="11"
         width="2"
         y="6"
         x="120" />
      <rect
         id="barcode1_bar63"
         height="5"
         width="2"
         y="6"
         x="124" />
      <rect
         id="barcode1_bar65"
         height="11"
         width="2"
         y="0"
         x="128" />
      <rect
         id="barcode1_bar67"
         height="17"
         width="2"
         y="0"
         x="132" />
      <rect
         id="barcode1_bar69"
         height="11"
         width="2"
         y="6"
         x="136" />
      <rect
         id="barcode1_bar71"
         height="11"
         width="2"
         y="0"
         x="140" />
      <rect
         id="barcode1_bar73"
         height="5"
         width="2"
         y="6"
         x="144" />
      <rect
         id="barcode1_bar75"
         height="11"
         width="2"
         y="0"
         x="148" />
      <rect
         id="barcode1_bar77"
         height="5"
         width="2"
         y="6"
         x="152" />
      <rect
         id="barcode1_bar79"
         height="17"
         width="2"
         y="0"
         x="156" />
      <rect
         id="barcode1_bar81"
         height="11"
         width="2"
         y="0"
         x="160" />
      <rect
         id="barcode1_bar83"
         height="17"
         width="2"
         y="0"
         x="164" />
      <rect
         id="barcode1_bar85"
         height="5"
         width="2"
         y="6"
         x="168" />
      <rect
         id="barcode1_bar87"
         height="17"
         width="2"
         y="0"
         x="172" />
      <rect
         id="barcode1_bar89"
         height="5"
         width="2"
         y="6"
         x="176" />
      <rect
         id="barcode1_bar91"
         height="11"
         width="2"
         y="6"
         x="180" />
      <rect
         id="barcode1_bar93"
         height="11"
         width="2"
         y="0"
         x="184" />
      <rect
         id="barcode1_bar95"
         height="11"
         width="2"
         y="6"
         x="188" />
      <rect
         id="barcode1_bar97"
         height="11"
         width="2"
         y="0"
         x="192" />
      <rect
         id="barcode1_bar99"
         height="11"
         width="2"
         y="0"
         x="196" />
      <rect
         id="barcode1_bar101"
         height="11"
         width="2"
         y="0"
         x="200" />
      <rect
         id="barcode1_bar103"
         height="11"
         width="2"
         y="6"
         x="204" />
      <rect
         id="barcode1_bar105"
         height="11"
         width="2"
         y="6"
         x="208" />
      <rect
         id="barcode1_bar107"
         height="17"
         width="2"
         y="0"
         x="212" />
      <rect
         id="barcode1_bar109"
         height="5"
         width="2"
         y="6"
         x="216" />
      <rect
         id="barcode1_bar111"
         height="11"
         width="2"
         y="0"
         x="220" />
      <rect
         id="barcode1_bar113"
         height="11"
         width="2"
         y="6"
         x="224" />
      <rect
         id="barcode1_bar115"
         height="11"
         width="2"
         y="0"
         x="228" />
      <rect
         id="barcode1_bar117"
         height="11"
         width="2"
         y="0"
         x="232" />
      <rect
         id="barcode1_bar119"
         height="11"
         width="2"
         y="6"
         x="236" />
      <rect
         id="barcode1_bar121"
         height="11"
         width="2"
         y="6"
         x="240" />
      <rect
         id="barcode1_bar123"
         height="17"
         width="2"
         y="0"
         x="244" />
      <rect
         id="barcode1_bar125"
         height="5"
         width="2"
         y="6"
         x="248" />
      <rect
         id="barcode1_bar127"
         height="17"
         width="2"
         y="0"
         x="252" />
      <rect
         id="barcode1_bar129"
         height="5"
         width="2"
         y="6"
         x="256" />
      <rect
         id="barcode1_bar131"
         height="17"
         width="2"
         y="0"
         x="260" />
      <rect
         id="barcode1_bar133"
         height="5"
         width="2"
         y="6"
         x="264" />
      <rect
         id="barcode1_bar135"
         height="11"
         width="2"
         y="0"
         x="268" />
      <rect
         id="barcode1_bar137"
         height="11"
         width="2"
         y="6"
         x="272" />
      <rect
         id="barcode1_bar139"
         height="5"
         width="2"
         y="6"
         x="276" />
      <rect
         id="barcode1_bar141"
         height="17"
         width="2"
         y="0"
         x="280" />
      <rect
         id="barcode1_bar143"
         height="17"
         width="2"
         y="0"
         x="284" />
      <rect
         id="barcode1_bar145"
         height="5"
         width="2"
         y="6"
         x="288" />
      <rect
         id="barcode1_bar147"
         height="17"
         width="2"
         y="0"
         x="292" />
      <rect
         id="barcode1_bar149"
         height="11"
         width="2"
         y="0"
         x="296" />
      <rect
         id="barcode1_bar151"
         height="5"
         width="2"
         y="6"
         x="300" />
      <rect
         id="barcode1_bar153"
         height="11"
         width="2"
         y="6"
         x="304" />
      <rect
         id="barcode1_bar155"
         height="11"
         width="2"
         y="6"
         x="308" />
      <rect
         id="barcode1_bar157"
         height="11"
         width="2"
         y="0"
         x="312" />
      <rect
         id="barcode1_bar159"
         height="17"
         width="2"
         y="0"
         x="316" />
      <rect
         id="barcode1_bar161"
         height="5"
         width="2"
         y="6"
         x="320" />
      <rect
         id="barcode1_bar163"
         height="11"
         width="2"
         y="0"
         x="324" />
      <rect
         id="barcode1_bar165"
         height="5"
         width="2"
         y="6"
         x="328" />
      <rect
         id="barcode1_bar167"
         height="11"
         width="2"
         y="6"
         x="332" />
      <rect
         id="barcode1_bar169"
         height="17"
         width="2"
         y="0"
         x="336" />
      <rect
         id="barcode1_bar171"
         height="17"
         width="2"
         y="0"
         x="340" />
      <rect
         id="barcode1_bar173"
         height="11"
         width="2"
         y="6"
         x="344" />
      <rect
         id="barcode1_bar175"
         height="11"
         width="2"
         y="0"
         x="348" />
      <rect
         id="barcode1_bar177"
         height="5"
         width="2"
         y="6"
         x="352" />
      <rect
         id="barcode1_bar179"
         height="11"
         width="2"
         y="6"
         x="356" />
      <rect
         id="barcode1_bar181"
         height="17"
         width="2"
         y="0"
         x="360" />
      <rect
         id="barcode1_bar183"
         height="11"
         width="2"
         y="0"
         x="364" />
      <rect
         id="barcode1_bar185"
         height="5"
         width="2"
         y="6"
         x="368" />
      <rect
         id="barcode1_bar187"
         height="11"
         width="2"
         y="0"
         x="372" />
      <rect
         id="barcode1_bar189"
         height="11"
         width="2"
         y="0"
         x="376" />
      <rect
         id="barcode1_bar191"
         height="11"
         width="2"
         y="6"
         x="380" />
      <rect
         id="barcode1_bar193"
         height="11"
         width="2"
         y="6"
         x="384" />
      <rect
         id="barcode1_bar195"
         height="11"
         width="2"
         y="6"
         x="388" />
      <rect
         id="barcode1_bar197"
         height="17"
         width="2"
         y="0"
         x="392" />
      <rect
         id="barcode1_bar199"
         height="5"
         width="2"
         y="6"
         x="396" />
      <rect
         id="barcode1_bar201"
         height="11"
         width="2"
         y="0"
         x="400" />
      <rect
         id="barcode1_bar203"
         height="11"
         width="2"
         y="0"
         x="404" />
      <rect
         id="barcode1_bar205"
         height="5"
         width="2"
         y="6"
         x="408" />
      <rect
         id="barcode1_bar207"
         height="11"
         width="2"
         y="6"
         x="412" />
      <rect
         id="barcode1_bar209"
         height="17"
         width="2"
         y="0"
         x="416" />
      <rect
         id="barcode1_bar211"
         height="11"
         width="2"
         y="0"
         x="420" />
      <rect
         id="barcode1_bar213"
         height="5"
         width="2"
         y="6"
         x="424" />
      <rect
         id="barcode1_bar215"
         height="17"
         width="2"
         y="0"
         x="428" />
      <rect
         id="barcode1_bar217"
         height="11"
         width="2"
         y="0"
         x="432" />
      <rect
         id="barcode1_bar219"
         height="17"
         width="2"
         y="0"
         x="436" />
      <rect
         id="barcode1_bar221"
         height="5"
         width="2"
         y="6"
         x="440" />
      <rect
         id="barcode1_bar223"
         height="5"
         width="2"
         y="6"
         x="444" />
      <rect
         id="barcode1_bar225"
         height="17"
         width="2"
         y="0"
         x="448" />
      <rect
         id="barcode1_bar227"
         height="17"
         width="2"
         y="0"
         x="452" />
      <text
         id="barcode1_text"
         xml:space="preserve"
         style="font-size:9px;text-align:center;text-anchor:middle"
         y="27"
         x="227">http://brontosaurusrex.github.io</text>
    </g>
  </g>
</svg>
