<?xml version="1.0" encoding="UTF-8" standalone="no"?>
<!-- Created with Inkscape (http://www.inkscape.org/) -->

<svg
   xmlns:dc="http://purl.org/dc/elements/1.1/"
   xmlns:cc="http://creativecommons.org/ns#"
   xmlns:rdf="http://www.w3.org/1999/02/22-rdf-syntax-ns#"
   xmlns:svg="http://www.w3.org/2000/svg"
   xmlns="http://www.w3.org/2000/svg"
   xmlns:sodipodi="http://sodipodi.sourceforge.net/DTD/sodipodi-0.dtd"
   xmlns:inkscape="http://www.inkscape.org/namespaces/inkscape"
   width="1920px"
   height="1080px"
   id="svg7423"
   version="1.1"
   inkscape:version="0.48.5 r10040"
   sodipodi:docname="brontoLabsJustLogo.svg"
   inkscape:export-filename="/home/ticho/images/justLogo.png"
   inkscape:export-xdpi="18.75"
   inkscape:export-ydpi="18.75">
  <defs
     id="defs7425" />
  <sodipodi:namedview
     id="base"
     pagecolor="#ffffff"
     bordercolor="#666666"
     borderopacity="1.0"
     inkscape:pageopacity="0.0"
     inkscape:pageshadow="2"
     inkscape:zoom="0.6"
     inkscape:cx="950.4955"
     inkscape:cy="598.45741"
     inkscape:document-units="px"
     inkscape:current-layer="layer1"
     showgrid="false"
     inkscape:window-width="1722"
     inkscape:window-height="904"
     inkscape:window-x="0"
     inkscape:window-y="0"
     inkscape:window-maximized="1" />
  <metadata
     id="metadata7428">
    <rdf:RDF>
      <cc:Work
         rdf:about="">
        <dc:format>image/svg+xml</dc:format>
        <dc:type
           rdf:resource="http://purl.org/dc/dcmitype/StillImage" />
        <dc:title></dc:title>
      </cc:Work>
    </rdf:RDF>
  </metadata>
  <g
     id="layer1"
     inkscape:label="Layer 1"
     inkscape:groupmode="layer">
    <path
       style="fill:#008000"
       d="m 1138.3616,504.14319 c -0.1513,-1.56984 -0.6708,-1.73923 -3.059,-0.9986 -1.6382,0.50815 -1.0371,-0.77952 0.76,-1.62774 0.8098,-0.38457 1.4553,-1.04007 1.4608,-1.48817 0.01,-0.6689 0.3643,-0.55353 2.1354,0.69223 2.4885,1.75046 4.0579,3.68284 3.5967,4.42908 -0.2363,0.38457 -0.6381,0.32408 -1.464,-0.22037 -1.0375,-0.6797 -1.2087,-0.68187 -1.9348,-0.0432 -1.1278,1.02063 -1.3332,0.91607 -1.4951,-0.76353 z m 8.0254,0.82575 c -0.4842,-1.26175 0.064,-2.2275 1.7657,-3.11029 1.1738,-0.60885 1.7127,-1.19736 1.7125,-1.87102 -4e-4,-1.05304 -1.4065,-5.0539 -1.9765,-5.62385 -0.1893,-0.19013 -2.0877,-0.28519 -4.2188,-0.20742 -3.1906,0.10803 -4.3153,-0.0475 -6.3703,-0.90093 -3.6214,-1.5007 -3.7318,-1.02106 -0.8505,3.69709 0.829,1.35724 0.9809,1.83169 0.4473,1.39743 -0.4443,-0.36297 -1.3883,-1.80058 -2.0977,-3.19758 -0.7094,-1.39656 -1.8744,-3.06449 -2.589,-3.70616 -2.9847,-2.68036 -6.4823,-4.99903 -7.5405,-4.99903 -0.7278,0 -2.2632,0.97828 -4.2969,2.73868 -1.7403,1.50676 -3.3185,2.73998 -3.5069,2.74041 -0.6554,0 -0.337,1.46354 0.5709,2.6177 0.944,1.19995 1.2322,3.5277 0.4933,3.98444 -0.2312,0.1426 -0.9455,-0.4105 -1.5874,-1.22934 -1.0313,-1.31533 -1.2739,-1.42249 -2.0857,-0.91779 -1.2448,0.7739 -1.8445,0.71729 -1.8445,-0.17284 0,-0.61489 -0.3245,-0.69181 -1.869,-0.44507 -1.4112,0.22901 -1.8219,0.15555 -1.6762,-0.28519 0.2014,-0.60971 0.3884,-0.71212 5.645,-3.10122 2.9759,-1.35292 8.8623,-6.17868 8.8623,-7.26585 0,-0.996 -4.5976,-4.42043 -8.3591,-6.2262 -4.7549,-2.28239 -7.9633,-3.18635 -13.5649,-3.82025 -2.5418,-0.28951 -5.89,-1.15458 -9.6964,-2.5088 -5.5313,-1.96867 -11.6655,-3.19196 -13.5436,-2.70022 -0.4684,0.12099 -3.3277,0.0432 -6.354,-0.2463 -4.6755,-0.39754 -5.9178,-0.67928 -8.2666,-1.86454 -3.3522,-1.69255 -4.1534,-1.72669 -5.9041,-0.25494 -1.7383,1.46268 -2.2839,1.43891 -2.6278,-0.11235 -1.1169,-5.04482 -3.7707,-10.11861 -6.4333,-12.30074 -1.0913,-0.89446 -1.9842,-1.83256 -1.9842,-2.08577 0,-0.27655 0.8908,-0.37593 2.2107,-0.2463 1.5847,0.15124 3.4018,0.89964 6.4159,2.63929 3.0881,1.78245 4.8162,2.48548 6.5055,2.64752 2.5735,0.2463 3.1228,0.91174 2.0367,2.46214 -1.1906,1.69946 -0.8774,2.58269 1.4437,4.07085 l 2.1696,1.39095 6.1661,-0.2463 c 3.3914,-0.13395 7.8104,-0.3716 9.8201,-0.52112 3.8167,-0.28519 4.504,-0.15988 12.7891,2.29923 4.3693,1.29848 8.7362,1.56293 11.6441,0.7052 0.8776,-0.25926 2.2924,-0.47056 3.1443,-0.47056 3.1594,0 4.9404,-0.93853 8.1958,-4.31673 2.8366,-2.94394 3.6105,-3.459 7.7904,-5.18569 2.5525,-1.05391 5.0481,-1.91682 5.5457,-1.91682 1.1848,0 1.1447,-0.54273 -0.1227,-1.66015 -1.299,-1.14465 -3.2738,-1.9933 -4.6394,-1.9933 -1.3818,0 -4.181,1.89434 -6.3082,4.26962 -1.386,1.54738 -1.7805,1.7725 -2.1439,1.22546 -0.5587,-0.84088 -1.0781,-5.58453 -0.8769,-8.00735 0.1327,-1.59878 0.026,-1.84552 -0.8689,-1.97212 -0.5614,-0.0778 -1.4807,0.17716 -2.0429,0.57081 -0.5621,0.39322 -1.3968,0.716 -1.8548,0.716 -0.4579,0 -1.3737,0.54099 -2.035,1.20254 -0.9066,0.90656 -1.3791,1.09151 -1.9204,0.75187 -1.0278,-0.64427 -1.1658,-4.71211 -0.2532,-7.4603 0.4087,-1.23107 0.6282,-2.42497 0.4872,-2.65312 -0.4044,-0.65421 -5.4297,-0.25927 -7.1544,0.56605 -1.5232,0.72724 -3.6179,3.22264 -3.6179,4.30982 0,0.29816 -0.2817,0.54272 -0.6261,0.54272 -0.9129,0 -1.3735,-4.96143 -0.7427,-8.00043 0.2805,-1.35205 1.0153,-3.20233 1.6323,-4.11191 1.2433,-1.83212 1.0891,-2.67689 -0.4161,-2.28021 -5.0415,1.32743 -6.5433,1.98638 -8.4849,3.72085 -1.1628,1.03878 -2.4019,2.42627 -2.7533,3.08307 -0.8137,1.52059 -1.8549,1.54953 -1.8549,0.0519 0,-0.71082 -0.2589,-1.14206 -0.6851,-1.14206 -1.0712,0 -0.8103,-1.45101 0.6851,-3.80857 0.7536,-1.18829 1.3702,-2.37918 1.3702,-2.64621 0,-0.26791 1.2959,-1.85244 2.8798,-3.52382 1.5838,-1.67095 3.3823,-3.65951 3.9965,-4.41871 4.6884,-5.79194 17.6694,-15.35745 24.6395,-18.15577 9.893,-3.97148 15.3887,-5.07248 24.1054,-4.82661 3.4477,0.0951 6.5353,0.34568 6.8615,0.54877 1.2354,0.77563 -0.4196,1.5478 -3.9824,1.85892 -4.8894,0.42778 -9.5331,2.60041 -11.2023,5.24489 -1.9291,3.05585 -1.7449,3.19715 2.6502,2.03954 3.9342,-1.03619 17.5102,-0.66199 20.0581,0.55309 0.9369,0.4468 1.7035,0.97743 1.7035,1.17879 0,0.20308 -0.8389,0.50123 -1.8642,0.66544 -1.1374,0.18148 -2.8734,1.04655 -4.4532,2.21886 -3.2306,2.39732 -9.2121,8.15598 -9.2121,8.86939 0,0.29383 -0.36,1.08026 -0.7993,1.75089 -0.6228,0.95019 -0.8346,2.44961 -0.9593,6.78967 -0.1758,6.12552 0.4482,9.3499 2.3174,11.97493 0.5719,0.80329 2.3315,3.24165 3.9104,5.41903 2.7414,3.78049 2.8571,4.04754 2.574,5.9354 l -0.2964,1.97775 2.0058,0.88667 c 1.1031,0.48829 3.7213,1.33954 5.8182,1.89133 l 3.8124,1.00378 3.7116,-1.49465 c 4.593,-1.84941 7.9058,-3.68931 10.4071,-5.77898 1.0556,-0.88192 2.7056,-2.00454 3.6666,-2.49497 2.5806,-1.31619 7.9266,-6.55806 9.5085,-9.3231 1.4545,-2.54251 2.6757,-3.22826 4.7999,-2.69461 0.6915,0.17716 1.4459,0.0432 1.898,-0.33273 0.4126,-0.34568 1.5918,-0.66155 2.6203,-0.70994 6.8787,-0.32408 8.0133,-0.22902 11.7969,0.97569 5.0572,1.61003 6.1876,2.34719 8.2956,5.40823 1.4489,2.10349 1.816,3.10036 2.0863,5.66447 0.3232,3.06535 0.3046,3.14097 -1.2237,5.0176 -3.3751,4.14519 -6.3892,3.87512 -17.0295,-1.52403 -4.8467,-2.45911 -5.4716,-2.65961 -8.0852,-2.59436 -1.9888,0.0475 -3.579,0.42346 -5.3385,1.25569 -1.3783,0.65249 -2.7185,1.18571 -2.9782,1.18571 -1.3804,0 -13.1615,9.81656 -15.3263,12.77043 -1.9526,2.6648 -6.1821,11.01696 -6.1821,12.2087 0,0.50254 -0.4321,1.30496 -0.9603,1.78286 -0.5281,0.47792 -1.2765,1.48645 -1.6628,2.24048 -0.3863,0.75402 -1.1876,1.95224 -1.7803,2.6622 -0.5927,0.71037 -1.0776,1.4618 -1.0776,1.66965 0,0.2074 0.9763,0.93896 2.1696,1.62472 1.1933,0.68531 3.2186,2.0244 4.5008,2.97677 1.2821,0.95149 3.2347,1.97083 4.339,2.26509 1.9743,0.52588 3.6066,1.58842 3.6066,2.34763 0,0.62655 -1.008,0.44205 -1.8764,-0.34569 -1.0044,-0.90914 -1.7776,-0.48049 -1.7776,0.98521 0,1.47088 -0.7157,1.4186 -1.4595,-0.10803 -0.8145,-1.67095 -1.6208,-1.81787 -2.2613,-0.4105 -0.2951,0.64773 -0.8119,1.17792 -1.1484,1.17792 -0.9442,0 -0.7233,-1.74959 0.3021,-2.38997 0.5024,-0.31112 0.9135,-0.7873 0.9135,-1.05218 0,-0.86335 -6.8712,-5.68737 -8.1063,-5.69126 -0.3137,0 -1.5466,0.69656 -2.7405,1.54953 -1.1938,0.85298 -2.9443,1.87145 -3.8899,2.26294 -0.9455,0.39321 -1.8431,1.03488 -1.9945,1.42983 -0.1517,0.39322 0.171,2.10564 0.7166,3.80253 0.9432,2.93399 1.1008,3.13535 3.2012,4.09938 1.2151,0.55698 2.5398,1.01329 2.9438,1.01329 0.9955,0 0.9234,0.41481 -0.2489,1.43113 -1.1551,1.00162 -1.3916,1.03576 -2.1225,0.30679 -0.4265,-0.42778 -0.6699,-0.42778 -1.0962,0 -0.7581,0.75791 -1.7357,0.68705 -1.7357,-0.12531 0,-0.89446 -2.0932,-2.237 -2.9653,-1.90169 -0.4041,0.15556 -0.6886,0.83612 -0.6886,1.64848 0,1.4307 -0.7498,1.88613 -1.1949,0.72594 z m 36.4377,-14.52349 c -0.2917,-0.28951 -0.5299,-1.21853 -0.5299,-2.06028 0,-0.8413 -0.3042,-2.11861 -0.6762,-2.83721 -0.6627,-1.28161 -0.6438,-1.32699 0.9395,-2.2612 0.8888,-0.52414 1.9834,-0.95322 2.4325,-0.95322 0.4492,0 1.2059,-0.43211 1.6816,-0.95625 1.3485,-1.48946 2.4305,-1.93238 3.1882,-1.30366 0.9547,0.79248 0.804,1.34427 -0.3716,1.3607 -0.5652,0 -1.4179,0.31112 -1.8948,0.67105 -0.7233,0.54705 -0.7693,0.7739 -0.2774,1.36676 0.3241,0.38889 0.509,0.75661 0.4105,0.81322 -1.7292,0.99514 -2.4104,1.2449 -3.391,1.2449 -1.0975,0 -1.1512,0.10802 -0.8799,1.71329 0.159,0.94199 0.3824,2.05509 0.4961,2.47337 0.2636,0.97008 -0.4345,1.42076 -1.1272,0.72853 z m -3.8128,-6.59695 c 0.3297,-0.12963 2.2368,0.52501 2.3885,0.67711 0.1517,0.15124 -1.631,-0.38025 -2.1125,-0.40186 -0.5321,-0.0432 -2.5827,-1.1857 -2.2184,-1.33175 z m -4.4819,-1.28681 c -0.8792,-0.34137 -4.7667,-0.62699 -4.3899,-0.63476 0.3768,0 4.7782,0.27654 5.5318,0.61834 1.764,0.80761 0.9435,0.8197 -1.1419,0.0432 z m -6.737,-1.19607 c -0.8164,-0.23766 -5.4486,-1.04958 -5.4486,-1.171 0,-0.35433 7.8031,0.84519 8.2804,1.28335 0.5549,0.50989 -0.8744,0.45285 -2.8318,-0.11235 z m 56.5559,-25.35679 c -1.1092,-1.4104 -1.1967,-1.99374 -0.2985,-1.99374 0.3565,0 1.0242,-0.13827 1.4844,-0.3068 0.8108,-0.29382 0.8108,-0.27654 0,0.64686 -0.6709,0.76526 -0.7353,1.14033 -0.3266,1.90473 0.7046,1.31619 0.2748,1.19045 -0.8601,-0.25063 z"
       id="path7012-4"
       inkscape:connector-curvature="0"
       sodipodi:nodetypes="ccccccccccccccccccccsccscssscccsssscccsscsccscccccsssscscsccsccssccccsssccccsscscsccccsccssssssssscccccccccccccsssccssssccssccscsscscsccccscscccscscccsccsscccccscsccccccccsccscccsccccc"
       inkscape:export-filename="/home/ticho/images/forConky.png"
       inkscape:export-xdpi="24.530001"
       inkscape:export-ydpi="24.530001" />
    <path
       style="fill:none;stroke:#000000;stroke-width:0.86421049;stroke-linecap:round;stroke-linejoin:round;stroke-miterlimit:4;stroke-opacity:1;stroke-dasharray:none"
       d="m 1238.8508,353.18074 c -2.2519,6.77455 -5.9089,13.23538 -6.7554,20.32407 -0.5122,4.28951 5.2412,14.84281 5.2412,20.96445 0,36.02635 1.747,72.15941 1.747,108.31755 0,1.82996 -2.8699,-14.10176 0,-22.71189 4.7906,-14.37138 1.3396,-27.54541 10.4824,-36.68789 1.2354,-1.23539 3.6786,0.78125 5.2412,0 3.0135,-1.50675 6.5218,-2.85406 8.7352,-1.747 2.242,1.12088 -0.5339,4.85211 0,6.988 0.4922,1.96867 4.0582,2.87523 5.2412,5.24144 0.9318,1.86324 -0.9318,5.12434 0,6.98801 5.7284,11.45683 7.3012,25.89304 0,33.19389 -1.4559,1.45619 -0.2912,5.53267 -1.7471,6.98843 -3.4984,3.49833 -15.1217,5.24101 -24.4587,5.24101 -1.657,0 -0.502,-4.51939 -3.727,-1.86324"
       id="path7271"
       inkscape:connector-curvature="0"
       inkscape:export-filename="/home/ticho/images/forConky.png"
       inkscape:export-xdpi="24.530001"
       inkscape:export-ydpi="24.530001" />
    <path
       style="fill:none;stroke:#000000;stroke-width:0.86421049;stroke-linecap:round;stroke-linejoin:round;stroke-miterlimit:4;stroke-opacity:1;stroke-dasharray:none"
       d="m 1303.6665,439.60179 c -11.4784,16.50728 -6.93,30.64922 -6.93,49.20857 0,4.07648 4.0765,12.22944 0,12.22944 -2.0606,0 1.5873,-22.39212 1.747,-22.71188 1.44,-2.87998 -2.2202,-11.75586 0,-13.97644 2.3906,-2.39041 5.0147,-9.04267 6.9883,-13.97644 2.7905,-6.97634 12.3053,-10.2383 19.8,-10.77325"
       id="path7273"
       inkscape:connector-curvature="0"
       inkscape:export-filename="/home/ticho/images/forConky.png"
       inkscape:export-xdpi="24.530001"
       inkscape:export-ydpi="24.530001" />
    <path
       style="fill:none;stroke:#000000;stroke-width:0.86421049;stroke-linecap:round;stroke-linejoin:round;stroke-miterlimit:4;stroke-opacity:1;stroke-dasharray:none"
       d="m 1368.4823,439.60179 c 0.2999,6.4375 -17.1118,-1.93108 -21.0811,2.03824 -1.7811,1.7807 1.9237,3.40542 -1.7471,5.241 -2.4099,1.20514 -1.5627,-2.11559 -3.4941,1.747 -2.077,4.15426 -3.1448,44.37505 -1.7471,47.17077 3.0476,6.09485 40.5073,9.44625 45.4235,6.98801 1.9141,-0.95712 1.747,-45.94273 1.747,-52.41177 0,-4.54748 -10.1251,0.58593 -13.9764,-3.49401 -2.037,-2.15793 -3.4164,-4.85297 -5.1247,-7.27924"
       id="path7275"
       inkscape:connector-curvature="0"
       inkscape:export-filename="/home/ticho/images/forConky.png"
       inkscape:export-xdpi="24.530001"
       inkscape:export-ydpi="24.530001" />
    <path
       style="fill:none;stroke:#000000;stroke-width:0.86421049;stroke-linecap:round;stroke-linejoin:round;stroke-miterlimit:4;stroke-opacity:1;stroke-dasharray:none"
       d="m 1411.6928,439.60179 c -8.4869,14.16095 -4.8917,52.83696 -4.8917,56.19701 0,3.494 0,-6.98844 0,-10.48244 0,-8.97525 -0.8615,-18.38046 1.747,-26.20589 0.6913,-2.07367 2.3872,-19.13016 3.1447,-19.50868 3.4209,-1.71071 7.007,3.78524 10.8317,3.78524 5.4449,0 9.3695,-4.60711 12.2295,-1.747 2.0996,2.0996 -0.3526,6.63541 1.747,8.73501 3.4914,3.4914 -2.2702,18.17132 0,22.71188 4.1764,8.35259 3.4941,22.87867 3.4941,27.95288 0,2.32949 2.2442,7.61284 0,6.98801 -2.4433,-0.6797 -4.4647,-2.40682 -6.697,-3.61024"
       id="path7277"
       inkscape:connector-curvature="0"
       inkscape:export-filename="/home/ticho/images/forConky.png"
       inkscape:export-xdpi="24.530001"
       inkscape:export-ydpi="24.530001" />
    <path
       style="fill:none;stroke:#000000;stroke-width:0.86421049;stroke-linecap:round;stroke-linejoin:round;stroke-miterlimit:4;stroke-opacity:1;stroke-dasharray:none"
       d="m 1454.9034,353.18074 c 2.0187,2.11559 4.8471,3.685 6.0564,6.34763 3.6679,8.07648 0,91.55186 0,111.81155 0,3.95938 -2.2003,20.51117 0,22.71145 3.005,3.00529 9.4133,5.24143 10.4823,5.24143 2.0997,0 4.8643,-5.5599 5.2411,-3.494 0.5157,2.82683 -0.1162,5.74571 -0.1745,8.61877"
       id="path7279"
       inkscape:connector-curvature="0"
       inkscape:export-filename="/home/ticho/images/forConky.png"
       inkscape:export-xdpi="24.530001"
       inkscape:export-ydpi="24.530001" />
    <path
       style="fill:none;stroke:#000000;stroke-width:0.86421049;stroke-linecap:round;stroke-linejoin:round;stroke-miterlimit:4;stroke-opacity:1;stroke-dasharray:none"
       d="m 1433.2981,417.99652 c 13.8584,-1.09106 27.7538,-0.81538 41.6381,-0.81538 2.9118,0 11.6146,-0.43339 8.7353,0 -2.3763,0.35865 -4.7753,0.54359 -7.163,0.81538"
       id="path7281"
       inkscape:connector-curvature="0"
       inkscape:export-filename="/home/ticho/images/forConky.png"
       inkscape:export-xdpi="24.530001"
       inkscape:export-ydpi="24.530001" />
    <path
       style="fill:none;stroke:#000000;stroke-width:0.86421049;stroke-linecap:round;stroke-linejoin:round;stroke-miterlimit:4;stroke-opacity:1;stroke-dasharray:none"
       d="m 1541.3244,461.20705 c 2.973,-10.08533 -36.9533,-24.27826 -41.9294,-14.32602 -4.0868,8.17371 -1.8835,45.15067 -1.7471,45.42333 1.1953,2.39084 4.5446,8.03889 6.9883,10.48245 2.6127,2.61294 39.4929,5.93064 41.9293,3.494 2.5103,-2.5101 -4.5201,5.90688 1.747,-3.494 1.1505,-1.72583 6.0747,-36.41567 1.7471,-38.43533 -2.4832,-1.15847 -12.4826,-4.46321 -15.7235,-5.24101 -0.5663,-0.13827 -2.3049,-0.16851 -1.7471,0 2.8682,0.86033 5.8236,1.39786 8.7354,2.09658"
       id="path7283"
       inkscape:connector-curvature="0"
       inkscape:export-filename="/home/ticho/images/forConky.png"
       inkscape:export-xdpi="24.530001"
       inkscape:export-ydpi="24.530001" />
    <path
       style="fill:none;stroke:#999999;stroke-width:0.86421049;stroke-linecap:round;stroke-linejoin:round;stroke-miterlimit:4;stroke-opacity:1;stroke-dasharray:none"
       d="m 1562.9296,353.18074 c 10.8683,24.60623 4.1315,51.38466 6.3476,77.97684 2.4979,29.97515 1.1372,-6.79053 3.4941,26.2059 0.4502,6.30311 -1.7908,17.4268 1.7471,20.96444 4.6588,4.65896 -4.6588,23.29436 0,27.95289 7.6925,7.69277 25.7405,3.95463 31.6219,-1.86324"
       id="path7285"
       inkscape:connector-curvature="0"
       inkscape:export-filename="/home/ticho/images/forConky.png"
       inkscape:export-xdpi="24.530001"
       inkscape:export-ydpi="24.530001" />
    <path
       style="fill:none;stroke:#999999;stroke-width:0.86421049;stroke-linecap:round;stroke-linejoin:round;stroke-miterlimit:4;stroke-opacity:1;stroke-dasharray:none"
       d="m 1649.3508,439.60179 c -10.5213,4.38587 -26.3649,-0.35865 -34.6501,3.78524 -6.4051,3.20233 -8.029,46.83589 -5.241,52.41177 1.6078,3.21616 3.6327,0.27655 5.241,3.494 0.5207,1.04181 -1.0418,2.97332 0,3.49401 5.3231,2.66177 11.5653,1.747 13.9764,1.747 1.9406,0 10.9941,1.23539 12.2295,0 2.7702,-2.77023 6.3078,-2.81387 8.7354,-5.24101 2.5161,-2.51658 1.747,-14.93009 1.747,-19.21788 0,-1.05822 -0.9213,-15.26282 0,-15.72344 11.5281,-5.76429 -2.0382,-17.19563 -2.0382,-24.74969 0,-3.04764 4.6503,4.3621 5.5322,7.27924 0.4606,1.52404 -1.747,20.6784 -1.747,24.45889 0,4.59328 -1.0954,16.37549 1.747,19.21745 0.8236,0.82359 2.6704,-0.8236 3.494,0 3.2114,3.2114 6.4621,9.10272 12.579,13.8602"
       id="path7287"
       inkscape:connector-curvature="0"
       inkscape:export-filename="/home/ticho/images/forConky.png"
       inkscape:export-xdpi="24.530001"
       inkscape:export-ydpi="24.530001" />
    <path
       style="fill:none;stroke:#999999;stroke-width:0.86421049;stroke-linecap:round;stroke-linejoin:round;stroke-miterlimit:4;stroke-opacity:1;stroke-dasharray:none"
       d="m 1684.2337,353.53032 c -2.2521,6.77454 -5.909,13.23538 -6.7555,20.32407 -0.512,4.2895 5.241,14.84281 5.241,20.96444 0,36.02634 1.7475,72.15941 1.7475,108.31755 0,1.82996 -2.8701,-14.10176 0,-22.71189 4.7902,-14.37138 1.3395,-27.5454 10.482,-36.68789 1.2353,-1.23539 3.6785,0.78125 5.2413,0 3.0136,-1.50674 6.5218,-2.85405 8.7351,-1.747 2.2422,1.12088 -0.5337,4.85211 0,6.988 0.4922,1.96868 4.0583,2.87523 5.2414,5.24144 0.9317,1.86325 -0.932,5.12434 0,6.98801 5.7284,11.45684 7.3009,25.89304 0,33.19389 -1.4562,1.45619 -0.2895,5.53268 -1.747,6.98844 -3.4987,3.49832 -15.1219,5.241 -24.4588,5.241 -1.6572,0 -0.5021,-4.51938 -3.727,-1.86323"
       id="path7271-8"
       inkscape:connector-curvature="0"
       inkscape:export-filename="/home/ticho/images/forConky.png"
       inkscape:export-xdpi="24.530001"
       inkscape:export-ydpi="24.530001" />
    <path
       style="fill:none;stroke:#999999;stroke-width:0.86421049;stroke-linecap:round;stroke-linejoin:round;stroke-miterlimit:4;stroke-opacity:1;stroke-dasharray:none"
       d="m 1778.9823,439.60179 c -20.0652,10.3891 -7.1375,0.2895 -15.7817,0.2895 -20.1495,0 -22.7119,-1.49983 -22.7119,12.22902 0,1.80836 -0.9995,7.73598 0,8.73544 0.8235,0.82359 2.6704,-0.8236 3.494,0 6.7883,6.78837 34.9413,0.90915 34.9413,22.71188 0,3.5424 0.7574,7.97752 -1.747,10.48201 -1.7012,1.7012 -3.8833,-2.42584 -12.2294,1.74744 -2.3611,1.18007 -14.5145,6.45046 -17.4705,3.494 -1.7812,-1.78114 1.9237,-3.40586 -1.7474,-5.24144 -4.6767,-2.33812 -8.4421,-10.18905 -12.229,-13.97645 -0.5825,-0.58204 -2.1195,-2.48158 -1.7475,-1.747 0.907,1.79065 2.679,2.98974 4.0186,4.4844"
       id="path7311"
       inkscape:connector-curvature="0"
       inkscape:export-filename="/home/ticho/images/forConky.png"
       inkscape:export-xdpi="24.530001"
       inkscape:export-ydpi="24.530001" />
    <path
       style="fill:#008000"
       d="m 1505.6157,666.57885 c -1.4311,-0.66284 -1.8399,-0.30011 -2.4076,2.13495 -0.3894,1.6704 -1.1968,0.50103 -1.0206,-1.4784 0.077,-0.89308 -0.162,-1.78139 -0.5459,-2.01252 -0.5729,-0.34554 -0.2936,-0.59412 1.6765,-1.49296 2.768,-1.2627 5.2286,-1.64042 5.6395,-0.86536 0.2124,0.39826 -0.043,0.71443 -0.93,1.15191 -1.1108,0.55184 -1.1993,0.69844 -1.0152,1.64775 0.3108,1.48898 0.1168,1.61336 -1.4143,0.90433 z m 4.7681,-6.50798 c -1.3334,-0.21983 -1.8895,-1.18136 -1.7916,-3.09547 0.068,-1.32062 -0.1677,-2.08299 -0.7491,-2.42326 -0.9089,-0.53183 -5.0719,-1.34028 -5.8517,-1.1364 -0.2598,0.0673 -1.3011,1.65739 -2.3111,3.53569 -1.5191,2.80779 -2.2214,3.69977 -3.9966,5.04165 -3.125,2.36665 -2.7669,2.70425 2.7605,2.60229 1.5901,-0.0295 2.0763,0.0792 1.432,0.32014 -0.5379,0.20002 -2.2554,0.28808 -3.8193,0.19426 -1.5636,-0.0936 -3.5918,0.0689 -4.5066,0.36122 -3.8212,1.22103 -7.5895,3.06734 -8.1242,3.98047 -0.3679,0.6281 -0.2996,2.44743 0.1918,5.0919 0.4207,2.26323 0.6873,4.24824 0.5926,4.411 -0.3313,0.56556 1.0925,1.03043 2.5472,0.83025 1.5125,-0.20818 3.6668,0.7195 3.6876,1.58786 0.01,0.27155 -0.8321,0.60835 -1.863,0.74849 -1.6562,0.22528 -1.8713,0.38049 -1.846,1.33601 0.039,1.46522 -0.3131,1.95406 -1.0813,1.50425 -0.5306,-0.31075 -0.7609,-0.0696 -1.3286,1.38798 -0.5154,1.33343 -0.7864,1.65066 -1.0931,1.30222 -0.4242,-0.48204 -0.4182,-0.69502 0.1766,-6.43833 0.3364,-3.2517 -0.8531,-10.7698 -1.7913,-11.3192 -0.8594,-0.5033 -6.1378,1.73346 -9.5969,4.0668 -4.3724,2.94967 -6.7737,5.26137 -10.1515,9.7748 -1.5343,2.047 -3.9728,4.49909 -7.065,7.0993 -4.494,3.77819 -8.6495,8.45329 -9.1743,10.3225 -0.1323,0.46527 -1.6443,2.89324 -3.4235,5.35842 -2.7058,3.8337 -3.5767,4.76335 -5.7864,6.19113 -3.1546,2.03728 -3.589,2.71148 -3.2037,4.9659 0.3837,2.23918 0.087,2.69794 -1.4249,2.21077 -4.9177,-1.58558 -10.637,-1.85958 -13.8655,-0.66482 -1.3233,0.48972 -2.5841,0.78614 -2.8026,0.65819 -0.2386,-0.13975 0.1258,-0.95868 0.9047,-2.03213 0.9312,-1.29092 2.4954,-2.48081 5.5197,-4.2026 3.0987,-1.764 4.5786,-2.89989 5.5721,-4.27576 1.5131,-2.09622 2.3649,-2.23393 3.1539,-0.51325 0.8648,1.88622 1.7853,2.06227 4.2424,0.81138 l 2.2967,-1.16923 2.9034,-5.44527 c 1.5983,-2.99419 3.6264,-6.92753 4.5129,-8.73732 1.6827,-3.43758 2.1382,-3.96726 8.447,-9.8739 3.3285,-3.11418 5.7635,-6.7488 6.4929,-9.69155 0.2197,-0.88823 0.7524,-2.21592 1.1829,-2.95099 1.5966,-2.72632 1.6867,-4.73742 0.4168,-9.25383 -1.1069,-3.93544 -1.1602,-4.86353 -0.5379,-9.34303 0.3805,-2.73519 0.8969,-5.32467 1.1484,-5.75412 0.5987,-1.02236 0.1102,-1.26201 -1.4945,-0.73305 -1.6443,0.54253 -3.3745,1.81766 -4.0646,2.99613 -0.6983,1.19235 -0.4783,4.5651 0.4964,7.60112 0.6349,1.97795 0.6298,2.43207 -0.026,2.46923 -1.0079,0.0571 -5.3638,-1.89187 -7.3528,-3.28985 -1.3126,-0.92235 -1.5794,-0.95504 -2.1408,-0.24679 -0.3509,0.44508 -0.5954,1.36719 -0.5399,2.05128 0.055,0.6838 -0.088,1.56715 -0.3194,1.96237 -0.2314,0.39514 -0.2274,1.45874 0.01,2.36376 0.3241,1.24041 0.2449,1.74164 -0.3218,2.0371 -1.0752,0.56133 -4.6552,-1.37528 -6.5655,-3.55154 -0.8559,-0.97468 -1.7751,-1.76755 -2.0432,-1.7612 -0.7689,0.0184 -2.9676,4.55431 -3.127,6.45968 -0.1422,1.68196 0.9526,4.75051 1.8907,5.29993 0.2573,0.15067 0.326,0.51734 0.152,0.81449 -0.4614,0.78781 -4.9754,-1.32201 -7.279,-3.40216 -1.025,-0.92523 -2.2503,-2.49435 -2.7233,-3.48655 -0.9527,-1.99868 -1.7597,-2.29245 -2.1779,-0.79324 -1.4023,5.02126 -1.5926,6.65013 -1.077,9.20209 0.3087,1.52838 0.8798,3.29874 1.269,3.93391 0.901,1.47053 0.3997,2.38371 -0.8926,1.62685 -0.6134,-0.35921 -1.1164,-0.35378 -1.3318,0.0141 -0.5413,0.92432 -1.6615,-0.0341 -2.9402,-2.51587 -0.6446,-1.25084 -1.3606,-2.38474 -1.591,-2.51966 -0.2312,-0.13541 -0.9436,-2.05442 -1.5855,-4.2658 -0.6415,-2.21111 -1.4486,-4.7679 -1.7933,-5.68162 -2.6287,-6.97262 -4.323,-23.00809 -3.2154,-30.43673 1.5724,-10.54385 3.3996,-15.84263 8.0168,-23.24015 1.8243,-2.92696 3.6009,-5.46471 3.9409,-5.64352 1.2936,-0.67402 1.1236,1.14423 -0.4084,4.37589 -2.1017,4.43534 -2.5736,9.54037 -1.1352,12.31716 1.6621,3.20886 1.8771,3.1214 3.0993,-1.25622 1.0939,-3.91847 8.2775,-15.4444 10.6136,-17.02892 0.859,-0.58271 1.7042,-0.97602 1.878,-0.87428 0.1753,0.10263 0.01,0.97715 -0.3678,1.9449 -0.4182,1.07319 -0.549,3.00842 -0.3357,4.96401 0.436,3.99925 2.3825,12.07092 2.9981,12.43143 0.2536,0.14846 0.7506,0.85631 1.107,1.57459 0.5052,1.01755 1.692,1.95807 5.3741,4.25885 5.197,3.2473 8.2946,4.33827 11.5045,4.0518 0.9821,-0.0876 3.9754,-0.37368 6.6522,-0.63579 4.6476,-0.45509 4.9365,-0.42003 6.4225,0.7783 l 1.5568,1.25526 1.7788,-1.28277 c 0.9788,-0.70516 3.0364,-2.53426 4.5723,-4.06484 l 2.7927,-2.78253 0.5859,-3.95807 c 0.7253,-4.89801 0.8117,-8.68647 0.2725,-11.90084 -0.2276,-1.35663 -0.3624,-3.34776 -0.3001,-4.42484 0.1684,-2.89192 -1.6533,-10.1541 -3.2399,-12.91646 -1.4589,-2.54005 -1.4335,-3.9403 0.1004,-5.50358 0.5024,-0.50721 0.7681,-1.22593 0.6721,-1.80598 -0.09,-0.53072 0.2336,-1.70792 0.7115,-2.61994 3.1965,-6.09941 3.8519,-7.0305 6.8035,-9.68659 3.9449,-3.55025 5.1524,-4.15318 8.8591,-4.42534 2.5473,-0.1873 3.593,-2.5e-4 5.9422,1.06224 2.8084,1.27019 2.8644,1.32436 3.7114,3.59158 1.8713,5.00721 0.1151,7.47159 -9.921,13.92484 -4.5713,2.93959 -5.06,3.37743 -6.3245,5.66577 -0.964,1.74012 -1.4432,3.30237 -1.6143,5.24122 -0.1335,1.51913 -0.3506,2.94502 -0.4818,3.16912 -0.6976,1.19117 1.8196,16.31807 3.2746,19.6788 1.3127,3.03166 6.3825,10.9021 7.411,11.50434 0.4336,0.25394 0.9077,1.03224 1.0532,1.72958 0.1454,0.69727 0.6376,1.85267 1.093,2.56715 0.4554,0.71436 1.0844,2.0113 1.3975,2.88152 0.3135,0.87045 0.7168,1.66863 0.8962,1.77368 0.179,0.10479 1.3037,-0.36799 2.4984,-1.05113 1.1944,-0.68334 3.3735,-1.75435 4.8432,-2.37947 1.469,-0.62557 3.3353,-1.79534 4.1473,-2.59957 1.4515,-1.43784 3.1933,-2.30951 3.8484,-1.92582 0.5406,0.31663 -0.1279,1.09323 -1.2466,1.44451 -1.292,0.40722 -1.3129,1.29112 -0.048,2.03181 1.2693,0.74332 0.8625,1.33447 -0.8307,1.20485 -1.8535,-0.14164 -2.3877,0.4799 -1.497,1.7438 0.4101,0.5818 0.6062,1.29582 0.4361,1.58622 -0.4772,0.81475 -1.8752,-0.25997 -1.9097,-1.4684 -0.015,-0.59081 -0.2176,-1.18615 -0.4463,-1.32001 -0.745,-0.4363 -8.38,3.05509 -9.0076,4.11896 -0.1585,0.27072 -0.1805,1.68663 -0.048,3.1479 0.1328,1.46121 0.127,3.48639 -0.013,4.50011 -0.1385,1.01473 -0.039,2.11351 0.2259,2.44377 0.2627,0.32959 1.9035,0.91647 3.6435,1.30323 3.0084,0.66874 3.2618,0.63456 5.1551,-0.6908 1.0947,-0.76703 2.1578,-1.67951 2.362,-2.02818 0.5031,-0.85894 0.8245,-0.58712 1.1092,0.938 0.2806,1.50294 0.1906,1.72427 -0.8079,1.98663 -0.5846,0.1518 -0.7076,0.36187 -0.554,0.94593 0.2709,1.03714 -0.2842,1.84491 -0.9852,1.4344 -0.7719,-0.45201 -2.9882,0.67577 -3.1396,1.59782 -0.07,0.42727 0.3736,1.01678 1.0745,1.42732 1.2346,0.72303 1.2487,1.60003 0.023,1.39791 z m 5.8813,-38.78205 c -0.3972,0.10534 -1.3193,-0.15855 -2.0456,-0.58396 -0.726,-0.42512 -1.9819,-0.8081 -2.7901,-0.85017 -1.4408,-0.0759 -1.4704,-0.11511 -1.4766,-1.95332 -0.01,-1.0318 0.1796,-2.19313 0.4066,-2.58071 0.227,-0.38764 0.2366,-1.25894 0.025,-1.93432 -0.6038,-1.91631 -0.4392,-3.07384 0.4862,-3.40993 1.1664,-0.42335 1.5663,-0.0145 0.9864,1.00828 -0.2856,0.48775 -0.4481,1.38071 -0.3784,1.97413 0.1066,0.9006 0.279,1.05496 1.0392,0.93006 0.4993,-0.0831 0.9101,-0.0568 0.9091,0.0568 -0.015,1.99502 -0.1438,2.7091 -0.6394,3.55529 -0.5546,0.947 -0.4885,1.04797 1.0338,1.62503 0.8932,0.33879 1.9666,0.70851 2.3851,0.82185 0.9702,0.26279 1.0064,1.09289 0.059,1.34086 z m -7.6194,-0.0437 c 0.055,-0.35008 1.5833,-1.66488 1.7913,-1.71894 0.2072,-0.0544 -1.1524,1.21533 -1.4144,1.61991 -0.3062,0.43727 -2.3283,1.62944 -2.2702,1.24123 z m -3.3753,3.21717 c -0.7389,0.58628 -2.95,3.79651 -2.7663,3.46742 0.1904,-0.32514 2.6533,-3.98343 3.3291,-4.46106 1.5883,-1.11406 1.1841,-0.39993 -0.5397,1.0072 z m -4.4367,5.20911 c -0.6177,0.58438 -3.6592,4.17128 -3.7639,4.1099 -0.3058,-0.17904 4.6726,-6.30634 5.2919,-6.49677 0.7203,-0.22112 -0.051,0.9834 -1.528,2.38687 z m 6.6997,-61.61704 c -1.7775,0.24437 -2.3251,0.0252 -1.8712,-0.74993 0.1801,-0.3076 0.3982,-0.95367 0.4853,-1.43596 0.1562,-0.84813 0.1712,-0.83942 0.5582,0.32689 0.3214,0.96565 0.6125,1.21078 1.4786,1.24442 1.4918,0.0571 1.1662,0.36447 -0.6509,0.61555 z"
       id="path7012-4-4"
       inkscape:connector-curvature="0"
       sodipodi:nodetypes="ccccccccccccccccccccsccscssscccsssscccsscsccscccccsssscscsccsccssccccsssccccsscscsccccsccssssssssscccccccccccccsssccssssccssccscsscscsccccscscccscscccsccsscccccscsccccccccsccscccsccccc"
       inkscape:export-filename="/home/ticho/images/justLogo.png"
       inkscape:export-xdpi="32.700001"
       inkscape:export-ydpi="32.700001" />
    <path
       style="fill:none;stroke:#000000;stroke-width:0.86421049;stroke-linecap:round;stroke-linejoin:round;stroke-miterlimit:4;stroke-opacity:1;stroke-dasharray:none"
       d="m 1102.5306,568.19921 c -2.2518,6.77455 -5.9089,13.23538 -6.7553,20.32407 -0.5122,4.28951 5.2411,14.84282 5.2411,20.96445 0,36.02635 1.7471,72.15941 1.7471,108.31755 0,1.82996 -2.87,-14.10176 0,-22.71189 4.7905,-14.37138 1.3396,-27.54541 10.4823,-36.68789 1.2354,-1.23539 3.6786,0.78125 5.2412,0 3.0136,-1.50676 6.5218,-2.85406 8.7353,-1.747 2.242,1.12087 -0.534,4.8521 0,6.988 0.4921,1.96867 4.0581,2.87523 5.2411,5.24144 0.9318,1.86324 -0.9317,5.12434 0,6.98801 5.7285,11.45683 7.3012,25.89304 0,33.19389 -1.4559,1.45619 -0.2912,5.53267 -1.747,6.98843 -3.4984,3.49833 -15.1218,5.24101 -24.4588,5.24101 -1.6569,0 -0.502,-4.51939 -3.727,-1.86324"
       id="path7271-84"
       inkscape:connector-curvature="0"
       inkscape:export-filename="/home/ticho/images/justLogo.png"
       inkscape:export-xdpi="32.700001"
       inkscape:export-ydpi="32.700001" />
    <path
       style="fill:none;stroke:#000000;stroke-width:0.86421049;stroke-linecap:round;stroke-linejoin:round;stroke-miterlimit:4;stroke-opacity:1;stroke-dasharray:none"
       d="m 1167.3463,654.62026 c -11.4783,16.50728 -6.9299,30.64922 -6.9299,49.20857 0,4.07648 4.0764,12.22944 0,12.22944 -2.0607,0 1.5872,-22.39212 1.747,-22.71188 1.44,-2.87998 -2.2203,-11.75586 0,-13.97644 2.3905,-2.39041 5.0147,-9.04267 6.9882,-13.97644 2.7905,-6.97634 12.3054,-10.23831 19.8,-10.77325"
       id="path7273-6"
       inkscape:connector-curvature="0"
       inkscape:export-filename="/home/ticho/images/justLogo.png"
       inkscape:export-xdpi="32.700001"
       inkscape:export-ydpi="32.700001" />
    <path
       style="fill:none;stroke:#000000;stroke-width:0.86421049;stroke-linecap:round;stroke-linejoin:round;stroke-miterlimit:4;stroke-opacity:1;stroke-dasharray:none"
       d="m 1232.1621,654.62026 c 0.2999,6.4375 -17.1118,-1.93108 -21.0811,2.03824 -1.781,1.7807 1.9237,3.40542 -1.7471,5.241 -2.4098,1.20514 -1.5627,-2.11559 -3.4941,1.747 -2.077,4.15426 -3.1447,44.37505 -1.747,47.17077 3.0476,6.09485 40.5073,9.44625 45.4234,6.98801 1.9141,-0.95712 1.7471,-45.94273 1.7471,-52.41177 0,-4.54748 -10.1252,0.58593 -13.9765,-3.49401 -2.037,-2.15793 -3.4164,-4.85297 -5.1247,-7.27924"
       id="path7275-0"
       inkscape:connector-curvature="0"
       inkscape:export-filename="/home/ticho/images/justLogo.png"
       inkscape:export-xdpi="32.700001"
       inkscape:export-ydpi="32.700001" />
    <path
       style="fill:none;stroke:#000000;stroke-width:0.86421049;stroke-linecap:round;stroke-linejoin:round;stroke-miterlimit:4;stroke-opacity:1;stroke-dasharray:none"
       d="m 1275.3727,654.62026 c -8.487,14.16095 -4.8918,52.83696 -4.8918,56.19701 0,3.494 0,-6.98844 0,-10.48244 0,-8.97526 -0.8615,-18.38046 1.747,-26.20589 0.6913,-2.07367 2.3873,-19.13016 3.1448,-19.50868 3.4209,-1.71071 7.007,3.78524 10.8317,3.78524 5.4448,0 9.3695,-4.60711 12.2294,-1.747 2.0997,2.0996 -0.3526,6.63541 1.747,8.73501 3.4914,3.4914 -2.2702,18.17132 0,22.71188 4.1764,8.35259 3.4942,22.87867 3.4942,27.95288 0,2.32949 2.2441,7.61284 0,6.98801 -2.4433,-0.6797 -4.4647,-2.40682 -6.6971,-3.61024"
       id="path7277-2"
       inkscape:connector-curvature="0"
       inkscape:export-filename="/home/ticho/images/justLogo.png"
       inkscape:export-xdpi="32.700001"
       inkscape:export-ydpi="32.700001" />
    <path
       style="fill:none;stroke:#000000;stroke-width:0.86421049;stroke-linecap:round;stroke-linejoin:round;stroke-miterlimit:4;stroke-opacity:1;stroke-dasharray:none"
       d="m 1318.5832,568.19921 c 2.0188,2.11559 4.8471,3.685 6.0564,6.34763 3.6679,8.07648 0,91.55186 0,111.81155 0,3.95938 -2.2003,20.51117 0,22.71145 3.005,3.00529 9.4135,5.24143 10.4824,5.24143 2.0997,0 4.8643,-5.5599 5.2412,-3.494 0.5157,2.82683 -0.1163,5.7457 -0.1746,8.61877"
       id="path7279-1"
       inkscape:connector-curvature="0"
       inkscape:export-filename="/home/ticho/images/justLogo.png"
       inkscape:export-xdpi="32.700001"
       inkscape:export-ydpi="32.700001" />
    <path
       style="fill:none;stroke:#000000;stroke-width:0.86421049;stroke-linecap:round;stroke-linejoin:round;stroke-miterlimit:4;stroke-opacity:1;stroke-dasharray:none"
       d="m 1296.9779,633.01499 c 13.8585,-1.09106 27.7538,-0.81538 41.6382,-0.81538 2.9118,0 11.6146,-0.4334 8.7353,0 -2.3763,0.35865 -4.7753,0.54359 -7.1629,0.81538"
       id="path7281-6"
       inkscape:connector-curvature="0"
       inkscape:export-filename="/home/ticho/images/justLogo.png"
       inkscape:export-xdpi="32.700001"
       inkscape:export-ydpi="32.700001" />
    <path
       style="fill:none;stroke:#000000;stroke-width:0.86421049;stroke-linecap:round;stroke-linejoin:round;stroke-miterlimit:4;stroke-opacity:1;stroke-dasharray:none"
       d="m 1405.0043,676.22552 c 2.973,-10.08533 -36.9532,-24.27826 -41.9294,-14.32602 -4.0868,8.17371 -1.8834,45.15067 -1.747,45.42333 1.1953,2.39084 4.5446,8.03889 6.9882,10.48245 2.6127,2.61294 39.493,5.93064 41.9293,3.494 2.5103,-2.5101 -4.52,5.90688 1.747,-3.494 1.1505,-1.72583 6.0747,-36.41567 1.7471,-38.43533 -2.4832,-1.15847 -12.4826,-4.46322 -15.7235,-5.24101 -0.5662,-0.13827 -2.3048,-0.16851 -1.747,0 2.8681,0.86033 5.8235,1.39786 8.7353,2.09658"
       id="path7283-5"
       inkscape:connector-curvature="0"
       inkscape:export-filename="/home/ticho/images/justLogo.png"
       inkscape:export-xdpi="32.700001"
       inkscape:export-ydpi="32.700001" />
    <path
       style="fill:none;stroke:#999999;stroke-width:0.86421049;stroke-linecap:round;stroke-linejoin:round;stroke-miterlimit:4;stroke-opacity:1;stroke-dasharray:none"
       d="m 1514.2589,564.87075 c 10.8683,24.60623 4.1316,51.38466 6.3476,77.97684 2.4979,29.97515 1.1373,-6.79053 3.4942,26.2059 0.4502,6.30311 -1.7908,17.4268 1.747,20.96444 4.6588,4.65896 -4.6588,23.29436 0,27.95289 7.6925,7.69277 25.7405,3.95463 31.6218,-1.86324"
       id="path7285-6"
       inkscape:connector-curvature="0"
       inkscape:export-filename="/home/ticho/images/justLogo.png"
       inkscape:export-xdpi="32.700001"
       inkscape:export-ydpi="32.700001" />
    <path
       style="fill:none;stroke:#999999;stroke-width:0.86421049;stroke-linecap:round;stroke-linejoin:round;stroke-miterlimit:4;stroke-opacity:1;stroke-dasharray:none"
       d="m 1600.68,651.2918 c -10.5213,4.38587 -26.3649,-0.35865 -34.65,3.78524 -6.4052,3.20233 -8.029,46.83589 -5.241,52.41177 1.6078,3.21616 3.6327,0.27655 5.241,3.494 0.5207,1.04181 -1.0418,2.97332 0,3.49401 5.3231,2.66177 11.5653,1.747 13.9764,1.747 1.9406,0 10.9941,1.23539 12.2295,0 2.7701,-2.77023 6.3078,-2.81387 8.7354,-5.24101 2.5161,-2.51658 1.747,-14.93009 1.747,-19.21788 0,-1.05822 -0.9213,-15.26282 0,-15.72344 11.5281,-5.76429 -2.0383,-17.19563 -2.0383,-24.74969 0,-3.04764 4.6504,4.3621 5.5323,7.27924 0.4606,1.52404 -1.7471,20.6784 -1.7471,24.45889 0,4.59328 -1.0953,16.37549 1.7471,19.21745 0.8236,0.82359 2.6704,-0.8236 3.494,0 3.2114,3.2114 6.4621,9.10272 12.579,13.8602"
       id="path7287-7"
       inkscape:connector-curvature="0"
       inkscape:export-filename="/home/ticho/images/justLogo.png"
       inkscape:export-xdpi="32.700001"
       inkscape:export-ydpi="32.700001" />
    <path
       style="fill:none;stroke:#999999;stroke-width:0.86421049;stroke-linecap:round;stroke-linejoin:round;stroke-miterlimit:4;stroke-opacity:1;stroke-dasharray:none"
       d="m 1635.563,565.22033 c -2.2521,6.77454 -5.909,13.23538 -6.7555,20.32407 -0.512,4.2895 5.241,14.84281 5.241,20.96444 0,36.02634 1.7475,72.15941 1.7475,108.31755 0,1.82996 -2.8701,-14.10176 0,-22.71189 4.7902,-14.37138 1.3395,-27.5454 10.4819,-36.68789 1.2354,-1.23539 3.6785,0.78125 5.2414,0 3.0135,-1.50674 6.5217,-2.85405 8.735,-1.747 2.2422,1.12088 -0.5337,4.85211 0,6.988 0.4922,1.96868 4.0584,2.87523 5.2414,5.24144 0.9317,1.86325 -0.932,5.12434 0,6.98801 5.7284,11.45684 7.3009,25.89304 0,33.19389 -1.4562,1.45619 -0.2895,5.53268 -1.747,6.98844 -3.4987,3.49832 -15.1219,5.241 -24.4587,5.241 -1.6572,0 -0.5022,-4.51938 -3.727,-1.86323"
       id="path7271-8-1"
       inkscape:connector-curvature="0"
       inkscape:export-filename="/home/ticho/images/justLogo.png"
       inkscape:export-xdpi="32.700001"
       inkscape:export-ydpi="32.700001" />
    <path
       style="fill:none;stroke:#999999;stroke-width:0.86421049;stroke-linecap:round;stroke-linejoin:round;stroke-miterlimit:4;stroke-opacity:1;stroke-dasharray:none"
       d="m 1730.3115,651.2918 c -20.0652,10.3891 -7.1375,0.2895 -15.7817,0.2895 -20.1495,0 -22.7119,-1.49983 -22.7119,12.22902 0,1.80836 -0.9995,7.73598 0,8.73544 0.8235,0.82359 2.6704,-0.8236 3.494,0 6.7884,6.78837 34.9413,0.90915 34.9413,22.71188 0,3.5424 0.7574,7.97752 -1.747,10.48201 -1.7012,1.7012 -3.8833,-2.42584 -12.2294,1.74744 -2.3611,1.18007 -14.5145,6.45046 -17.4705,3.494 -1.7812,-1.78114 1.9237,-3.40586 -1.7474,-5.24144 -4.6767,-2.33812 -8.4421,-10.18905 -12.229,-13.97645 -0.5825,-0.58204 -2.1195,-2.48158 -1.7475,-1.747 0.907,1.79065 2.679,2.98974 4.0186,4.4844"
       id="path7311-2"
       inkscape:connector-curvature="0"
       inkscape:export-filename="/home/ticho/images/justLogo.png"
       inkscape:export-xdpi="32.700001"
       inkscape:export-ydpi="32.700001" />
    <path
       style="fill:#000000;fill-opacity:1;stroke:none"
       d="m 245.07131,513.92964 c -0.15123,-1.56984 -0.67077,-1.73923 -3.05894,-0.9986 -1.63818,0.50815 -1.03717,-0.77952 0.76002,-1.62774 0.80973,-0.38457 1.45527,-1.04007 1.46074,-1.48817 0.009,-0.6689 0.36429,-0.55353 2.13545,0.69223 2.4885,1.75046 4.05785,3.68284 3.59668,4.42908 -0.23636,0.38457 -0.63815,0.32408 -1.464,-0.22037 -1.03753,-0.6797 -1.20869,-0.68187 -1.93485,-0.0432 -1.12781,1.02063 -1.33317,0.91607 -1.4951,-0.76353 z m 8.02539,0.82575 c -0.48414,-1.26175 0.0644,-2.2275 1.76575,-3.11029 1.17383,-0.60885 1.71273,-1.19736 1.7125,-1.87102 -3.9e-4,-1.05304 -1.40651,-5.0539 -1.97655,-5.62385 -0.18927,-0.19013 -2.08769,-0.28519 -4.2188,-0.20742 -3.19059,0.10803 -4.31526,-0.0475 -6.37024,-0.90093 -3.62146,-1.5007 -3.73182,-1.02106 -0.85054,3.69709 0.82899,1.35724 0.98088,1.83169 0.44736,1.39743 -0.44436,-0.36297 -1.38833,-1.80058 -2.09772,-3.19758 -0.7094,-1.39656 -1.87445,-3.06449 -2.58904,-3.70616 -2.9847,-2.68036 -6.48227,-4.99903 -7.54045,-4.99903 -0.72785,0 -2.26325,0.97828 -4.29692,2.73868 -1.74034,1.50676 -3.31847,2.73998 -3.50689,2.74041 -0.65536,0 -0.33704,1.46354 0.57094,2.6177 0.94392,1.19995 1.23213,3.5277 0.49324,3.98444 -0.23116,0.1426 -0.94544,-0.4105 -1.58736,-1.22934 -1.03134,-1.31533 -1.27397,-1.42249 -2.08571,-0.91779 -1.24481,0.7739 -1.84447,0.71729 -1.84447,-0.17284 0,-0.61489 -0.3245,-0.69181 -1.86907,-0.44507 -1.41118,0.22901 -1.82184,0.15555 -1.67618,-0.28519 0.20138,-0.60971 0.38845,-0.71212 5.64498,-3.10122 2.97597,-1.35292 8.86227,-6.17868 8.86227,-7.26585 0,-0.996 -4.59754,-4.42043 -8.35907,-6.2262 -4.75488,-2.28239 -7.96325,-3.18635 -13.56492,-3.82025 -2.54173,-0.28951 -5.88994,-1.15458 -9.69632,-2.5088 -5.53129,-1.96867 -11.6655,-3.19196 -13.54368,-2.70022 -0.46836,0.12099 -3.32765,0.0432 -6.35394,-0.2463 -4.67555,-0.39754 -5.91785,-0.67928 -8.26661,-1.86454 -3.35218,-1.69255 -4.15343,-1.72669 -5.9041,-0.25494 -1.73833,1.46268 -2.28386,1.43891 -2.62777,-0.11235 -1.11695,-5.04482 -3.77076,-10.11861 -6.43331,-12.30074 -1.09132,-0.89446 -1.98423,-1.83256 -1.98423,-2.08577 0,-0.27655 0.89083,-0.37593 2.21074,-0.2463 1.58462,0.15124 3.40179,0.89964 6.41589,2.63929 3.08809,1.78245 4.81616,2.48548 6.50552,2.64752 2.5735,0.2463 3.12274,0.91174 2.03669,2.46214 -1.19062,1.69946 -0.87739,2.58269 1.4437,4.07085 l 2.16956,1.39095 6.16614,-0.2463 c 3.39138,-0.13395 7.81039,-0.3716 9.82011,-0.52112 3.8167,-0.28519 4.50392,-0.15988 12.78902,2.29923 4.36936,1.29848 8.73619,1.56293 11.64414,0.7052 0.87756,-0.25926 2.29241,-0.47056 3.14425,-0.47056 3.1594,0 4.94042,-0.93853 8.19589,-4.31673 2.83655,-2.94394 3.61047,-3.459 7.79037,-5.18569 2.55252,-1.05391 5.04805,-1.91682 5.54569,-1.91682 1.18481,0 1.14466,-0.54273 -0.12273,-1.66015 -1.29902,-1.14465 -3.27375,-1.9933 -4.63941,-1.9933 -1.38178,0 -4.18093,1.89434 -6.30821,4.26962 -1.386,1.54738 -1.78044,1.7725 -2.14388,1.22546 -0.55866,-0.84088 -1.07803,-5.58453 -0.87684,-8.00735 0.13263,-1.59878 0.026,-1.84552 -0.86896,-1.97212 -0.56135,-0.0778 -1.48063,0.17716 -2.04284,0.57081 -0.56215,0.39322 -1.39683,0.716 -1.85481,0.716 -0.45794,0 -1.37368,0.54099 -2.03504,1.20254 -0.90656,0.90656 -1.3791,1.09151 -1.92038,0.75187 -1.02784,-0.64427 -1.16581,-4.71211 -0.25325,-7.4603 0.40878,-1.23107 0.62821,-2.42497 0.48724,-2.65312 -0.40443,-0.65421 -5.42968,-0.25927 -7.15438,0.56605 -1.52326,0.72724 -3.6179,3.22264 -3.6179,4.30982 0,0.29816 -0.28173,0.54272 -0.62612,0.54272 -0.91291,0 -1.37349,-4.96143 -0.74265,-8.00043 0.28043,-1.35205 1.01527,-3.20233 1.63227,-4.11191 1.24326,-1.83212 1.08908,-2.67689 -0.41611,-2.28021 -5.04151,1.32743 -6.54329,1.98638 -8.48487,3.72085 -1.16288,1.03878 -2.4019,2.42627 -2.75333,3.08307 -0.81366,1.52059 -1.85494,1.54953 -1.85494,0.0519 0,-0.71082 -0.25883,-1.14206 -0.68511,-1.14206 -1.07118,0 -0.81023,-1.45101 0.68511,-3.80857 0.75363,-1.18829 1.37025,-2.37918 1.37025,-2.64621 0,-0.26791 1.29593,-1.85244 2.87976,-3.52382 1.58384,-1.67095 3.38231,-3.65951 3.99654,-4.41871 4.68839,-5.79194 17.6694,-15.35745 24.63944,-18.15577 9.89303,-3.97148 15.38875,-5.07248 24.10545,-4.82661 3.44765,0.0951 6.53531,0.34568 6.86151,0.54877 1.23535,0.77563 -0.41958,1.5478 -3.98243,1.85892 -4.88943,0.42778 -9.53314,2.60041 -11.20232,5.24489 -1.92906,3.05585 -1.74491,3.19715 2.6502,2.03954 3.93418,-1.03619 17.51024,-0.66199 20.0581,0.55309 0.93693,0.4468 1.7035,0.97743 1.7035,1.17879 0,0.20308 -0.83889,0.50123 -1.86414,0.66544 -1.13744,0.18148 -2.87348,1.04655 -4.45327,2.21886 -3.2306,2.39732 -9.21209,8.15598 -9.21209,8.86939 0,0.29383 -0.35994,1.08026 -0.79932,1.75089 -0.62279,0.95019 -0.8346,2.44961 -0.95921,6.78967 -0.17587,6.12552 0.44813,9.3499 2.31738,11.97493 0.57188,0.80329 2.33148,3.24165 3.91033,5.41903 2.74143,3.78049 2.85718,4.04754 2.57403,5.9354 l -0.2964,1.97775 2.00578,0.88667 c 1.10317,0.48829 3.72137,1.33954 5.8182,1.89133 l 3.81243,1.00378 3.71158,-1.49465 c 4.59302,-1.84941 7.90585,-3.68931 10.4071,-5.77898 1.05564,-0.88192 2.70559,-2.00454 3.66663,-2.49497 2.58057,-1.31619 7.92656,-6.55806 9.50854,-9.3231 1.4545,-2.54251 2.67566,-3.22826 4.79981,-2.69461 0.69157,0.17716 1.44595,0.0432 1.89802,-0.33273 0.41264,-0.34568 1.5918,-0.66155 2.62037,-0.70994 6.87862,-0.32408 8.01329,-0.22902 11.79687,0.97569 5.05714,1.61003 6.18756,2.34719 8.29558,5.40823 1.44887,2.10349 1.81598,3.10036 2.0863,5.66447 0.3232,3.06535 0.30465,3.14097 -1.2237,5.0176 -3.3751,4.14519 -6.38919,3.87512 -17.02953,-1.52403 -4.84669,-2.45911 -5.47153,-2.65961 -8.08513,-2.59436 -1.98879,0.0475 -3.57902,0.42346 -5.33854,1.25569 -1.37833,0.65249 -2.71849,1.18571 -2.9782,1.18571 -1.38035,0 -13.16149,9.81656 -15.32625,12.77043 -1.95268,2.6648 -6.18214,11.01696 -6.18214,12.2087 0,0.50254 -0.43208,1.30496 -0.96027,1.78286 -0.52816,0.47792 -1.27649,1.48645 -1.66287,2.24048 -0.38629,0.75402 -1.18759,1.95224 -1.78026,2.6622 -0.59267,0.71037 -1.07758,1.4618 -1.07758,1.66965 0,0.2074 0.97627,0.93896 2.16955,1.62472 1.19328,0.68531 3.21863,2.0244 4.50081,2.97677 1.28214,0.95149 3.23472,1.97083 4.33906,2.26509 1.97423,0.52588 3.60658,1.58842 3.60658,2.34763 0,0.62655 -1.00799,0.44205 -1.87646,-0.34569 -1.00432,-0.90914 -1.77757,-0.48049 -1.77757,0.98521 0,1.47088 -0.71572,1.4186 -1.45953,-0.10803 -0.81442,-1.67095 -1.62079,-1.81787 -2.26122,-0.4105 -0.29516,0.64773 -0.81192,1.17792 -1.14843,1.17792 -0.94419,0 -0.72333,-1.74959 0.30205,-2.38997 0.50243,-0.31112 0.9135,-0.7873 0.9135,-1.05218 0,-0.86335 -6.87115,-5.68737 -8.10628,-5.69126 -0.3137,0 -1.54663,0.69656 -2.74049,1.54953 -1.19382,0.85298 -2.94428,1.87145 -3.88986,2.26294 -0.94558,0.39321 -1.84313,1.03488 -1.99458,1.42983 -0.15167,0.39322 0.17108,2.10564 0.71662,3.80253 0.94324,2.93399 1.10079,3.13535 3.20125,4.09938 1.21505,0.55698 2.53975,1.01329 2.94378,1.01329 0.99545,0 0.92336,0.41481 -0.2489,1.43113 -1.15511,1.00162 -1.3916,1.03576 -2.12251,0.30679 -0.42648,-0.42778 -0.66992,-0.42778 -1.09622,0 -0.7581,0.75791 -1.73563,0.68705 -1.73563,-0.12531 0,-0.89446 -2.09324,-2.237 -2.96539,-1.90169 -0.40403,0.15556 -0.6886,0.83612 -0.6886,1.64848 0,1.4307 -0.74972,1.88613 -1.19485,0.72594 z m 36.43774,-14.52349 c -0.29166,-0.28951 -0.5299,-1.21853 -0.5299,-2.06028 0,-0.8413 -0.3042,-2.11861 -0.67624,-2.83721 -0.66266,-1.28161 -0.64375,-1.32699 0.93957,-2.2612 0.88877,-0.52414 1.98333,-0.95322 2.43249,-0.95322 0.44915,0 1.20587,-0.43211 1.6816,-0.95625 1.34848,-1.48946 2.4305,-1.93238 3.18816,-1.30366 0.95468,0.79248 0.80399,1.34427 -0.37159,1.3607 -0.5652,0 -1.41786,0.31112 -1.89474,0.67105 -0.72334,0.54705 -0.76936,0.7739 -0.27741,1.36676 0.32405,0.38889 0.50893,0.75661 0.41048,0.81322 -1.72922,0.99514 -2.41039,1.2449 -3.39106,1.2449 -1.09743,0 -1.15115,0.10802 -0.87984,1.71329 0.15903,0.94199 0.38243,2.05509 0.49607,2.47337 0.2636,0.97008 -0.4345,1.42076 -1.12719,0.72853 z m -3.81275,-6.59695 c 0.3297,-0.12963 2.23677,0.52501 2.38849,0.67711 0.15167,0.15124 -1.63106,-0.38025 -2.11256,-0.40186 -0.53209,-0.0432 -2.58268,-1.1857 -2.21834,-1.33175 z m -4.4819,-1.28681 c -0.87922,-0.34137 -4.76679,-0.62699 -4.38996,-0.63476 0.37679,0 4.77822,0.27654 5.53184,0.61834 1.764,0.80761 0.94352,0.8197 -1.14188,0.0432 z m -6.73708,-1.19607 c -0.8164,-0.23766 -5.44859,-1.04958 -5.44859,-1.171 0,-0.35433 7.80315,0.84519 8.28044,1.28335 0.55486,0.50989 -0.87442,0.45285 -2.83185,-0.11235 z m 56.55596,-25.35679 c -1.10918,-1.4104 -1.19669,-1.99374 -0.29856,-1.99374 0.3565,0 1.02426,-0.13827 1.48444,-0.3068 0.8108,-0.29382 0.8108,-0.27654 0,0.64686 -0.67086,0.76526 -0.73529,1.14033 -0.32664,1.90473 0.70464,1.31619 0.2748,1.19045 -0.86004,-0.25063 z"
       id="path7012-4-8"
       inkscape:connector-curvature="0"
       sodipodi:nodetypes="ccccccccccccccccccccsccscssscccsssscccsscsccscccccsssscscsccsccssccccsssccccsscscsccccsccssssssssscccccccccccccsssccssssccssccscsscscsccccscscccscscccsccsscccccscsccccccccsccscccsccccc"
       inkscape:export-filename="/home/ticho/images/forConky.png"
       inkscape:export-xdpi="24.530001"
       inkscape:export-ydpi="24.530001" />
    <path
       style="fill:none;stroke:#000000;stroke-width:0.86421049;stroke-linecap:round;stroke-linejoin:round;stroke-miterlimit:4;stroke-opacity:1;stroke-dasharray:none"
       d="m 345.5605,362.9672 c -2.25181,6.77455 -5.9089,13.23537 -6.75532,20.32406 -0.5122,4.28951 5.24117,14.84281 5.24117,20.96445 0,36.02635 1.74702,72.15941 1.74702,108.31755 0,1.82996 -2.86995,-14.10176 0,-22.71189 4.79054,-14.37138 1.33962,-27.54541 10.48239,-36.68789 1.23535,-1.23539 3.67854,0.78125 5.24117,0 3.01355,-1.50675 6.52178,-2.85406 8.73525,-1.747 2.242,1.12088 -0.53393,4.85211 0,6.988 0.49212,1.96867 4.05815,2.87523 5.24117,5.24144 0.93177,1.86324 -0.93178,5.12434 0,6.98801 5.72841,11.45683 7.30117,25.89304 0,33.19389 -1.4559,1.45619 -0.29121,5.53267 -1.74706,6.98843 -3.49842,3.49833 -15.12179,5.24101 -24.45876,5.24101 -1.65695,0 -0.50198,-4.51939 -3.72703,-1.86324"
       id="path7271-4"
       inkscape:connector-curvature="0"
       inkscape:export-filename="/home/ticho/images/forConky.png"
       inkscape:export-xdpi="24.530001"
       inkscape:export-ydpi="24.530001" />
    <path
       style="fill:none;stroke:#000000;stroke-width:0.86421049;stroke-linecap:round;stroke-linejoin:round;stroke-miterlimit:4;stroke-opacity:1;stroke-dasharray:none"
       d="m 410.37625,449.38824 c -11.47838,16.50728 -6.92998,30.64922 -6.92998,49.20857 0,4.07648 4.07648,12.22944 0,12.22944 -2.06067,0 1.58723,-22.39212 1.74701,-22.71188 1.43999,-2.87998 -2.22027,-11.75586 0,-13.97644 2.39054,-2.39041 5.01471,-9.04267 6.98823,-13.97644 2.79055,-6.97634 12.30535,-10.2383 19.80001,-10.77325"
       id="path7273-5"
       inkscape:connector-curvature="0"
       inkscape:export-filename="/home/ticho/images/forConky.png"
       inkscape:export-xdpi="24.530001"
       inkscape:export-ydpi="24.530001" />
    <path
       style="fill:none;stroke:#000000;stroke-width:0.86421049;stroke-linecap:round;stroke-linejoin:round;stroke-miterlimit:4;stroke-opacity:1;stroke-dasharray:none"
       d="m 475.19204,449.38824 c 0.2999,6.4375 -17.11179,-1.93108 -21.08114,2.03824 -1.78103,1.7807 1.92373,3.40542 -1.7471,5.241 -2.40981,1.20514 -1.56268,-2.11559 -3.49407,1.747 -2.07703,4.15426 -3.14476,44.37505 -1.74707,47.17077 3.04761,6.09485 40.50732,9.44625 45.42346,6.98801 1.9141,-0.95712 1.74706,-45.94273 1.74706,-52.41177 0,-4.54748 -10.12518,0.58593 -13.97646,-3.49401 -2.03701,-2.15793 -3.41642,-4.85297 -5.12468,-7.27924"
       id="path7275-2"
       inkscape:connector-curvature="0"
       inkscape:export-filename="/home/ticho/images/forConky.png"
       inkscape:export-xdpi="24.530001"
       inkscape:export-ydpi="24.530001" />
    <path
       style="fill:none;stroke:#000000;stroke-width:0.86421049;stroke-linecap:round;stroke-linejoin:round;stroke-miterlimit:4;stroke-opacity:1;stroke-dasharray:none"
       d="m 518.40257,449.38824 c -8.48696,14.16095 -4.89176,52.83696 -4.89176,56.19701 0,3.494 0,-6.98844 0,-10.48244 0,-8.97525 -0.86147,-18.38046 1.74701,-26.20589 0.6913,-2.07367 2.38727,-19.13016 3.14475,-19.50868 3.4209,-1.71071 7.00701,3.78524 10.83171,3.78524 5.44487,0 9.36951,-4.60711 12.22942,-1.747 2.09969,2.0996 -0.35259,6.63541 1.74706,8.73501 3.4914,3.4914 -2.27024,18.17132 0,22.71188 4.17639,8.35259 3.49413,22.87867 3.49413,27.95288 0,2.32949 2.24411,7.61284 0,6.98801 -2.4433,-0.6797 -4.46472,-2.40682 -6.69704,-3.61024"
       id="path7277-27"
       inkscape:connector-curvature="0"
       inkscape:export-filename="/home/ticho/images/forConky.png"
       inkscape:export-xdpi="24.530001"
       inkscape:export-ydpi="24.530001" />
    <path
       style="fill:none;stroke:#000000;stroke-width:0.86421049;stroke-linecap:round;stroke-linejoin:round;stroke-miterlimit:4;stroke-opacity:1;stroke-dasharray:none"
       d="m 561.6131,362.9672 c 2.01878,2.11559 4.8471,3.685 6.0564,6.34763 3.6679,8.07647 0,91.55185 0,111.81154 0,3.95938 -2.20024,20.51117 0,22.71145 3.00507,3.00529 9.41338,5.24143 10.48238,5.24143 2.0997,0 4.86428,-5.5599 5.24108,-3.494 0.5157,2.82683 -0.1162,5.74571 -0.1745,8.61877"
       id="path7279-10"
       inkscape:connector-curvature="0"
       inkscape:export-filename="/home/ticho/images/forConky.png"
       inkscape:export-xdpi="24.530001"
       inkscape:export-ydpi="24.530001" />
    <path
       style="fill:none;stroke:#000000;stroke-width:0.86421049;stroke-linecap:round;stroke-linejoin:round;stroke-miterlimit:4;stroke-opacity:1;stroke-dasharray:none"
       d="m 540.00785,427.78297 c 13.8584,-1.09106 27.75378,-0.81538 41.63813,-0.81538 2.91178,0 11.61468,-0.43339 8.73538,0 -2.3764,0.35865 -4.7754,0.54359 -7.1631,0.81538"
       id="path7281-1"
       inkscape:connector-curvature="0"
       inkscape:export-filename="/home/ticho/images/forConky.png"
       inkscape:export-xdpi="24.530001"
       inkscape:export-ydpi="24.530001" />
    <path
       style="fill:none;stroke:#000000;stroke-width:0.86421049;stroke-linecap:round;stroke-linejoin:round;stroke-miterlimit:4;stroke-opacity:1;stroke-dasharray:none"
       d="m 648.03426,470.9935 c 2.973,-10.08533 -36.9533,-24.27826 -41.9294,-14.32602 -4.0868,8.17371 -1.8835,45.15067 -1.7471,45.42333 1.1953,2.39084 4.5446,8.03889 6.9883,10.48245 2.6127,2.61294 39.4929,5.93064 41.9293,3.494 2.5103,-2.5101 -4.5201,5.90688 1.747,-3.494 1.1505,-1.72583 6.0747,-36.41567 1.7471,-38.43533 -2.4832,-1.15847 -12.4826,-4.46321 -15.7235,-5.24101 -0.5663,-0.13827 -2.3049,-0.16851 -1.7471,0 2.8682,0.86033 5.8236,1.39786 8.7354,2.09658"
       id="path7283-50"
       inkscape:connector-curvature="0"
       inkscape:export-filename="/home/ticho/images/forConky.png"
       inkscape:export-xdpi="24.530001"
       inkscape:export-ydpi="24.530001" />
    <path
       style="fill:none;stroke:#000000;stroke-width:0.86421049;stroke-linecap:round;stroke-linejoin:round;stroke-miterlimit:4;stroke-opacity:1;stroke-dasharray:none"
       d="m 669.63946,362.9672 c 10.8683,24.60622 4.1315,51.38465 6.3476,77.97683 2.4979,29.97515 1.1372,-6.79053 3.4941,26.2059 0.4502,6.30311 -1.7908,17.4268 1.7471,20.96444 4.6588,4.65896 -4.6588,23.29436 0,27.95289 7.6925,7.69277 25.7405,3.95463 31.6219,-1.86324"
       id="path7285-2"
       inkscape:connector-curvature="0"
       inkscape:export-filename="/home/ticho/images/forConky.png"
       inkscape:export-xdpi="24.530001"
       inkscape:export-ydpi="24.530001" />
    <path
       style="fill:none;stroke:#000000;stroke-width:0.86421049;stroke-linecap:round;stroke-linejoin:round;stroke-miterlimit:4;stroke-opacity:1;stroke-dasharray:none"
       d="m 756.06066,449.38824 c -10.5213,4.38587 -26.3649,-0.35865 -34.6501,3.78524 -6.4051,3.20233 -8.029,46.83589 -5.241,52.41177 1.6078,3.21616 3.6327,0.27655 5.241,3.494 0.5207,1.04181 -1.0418,2.97332 0,3.49401 5.3231,2.66177 11.5653,1.747 13.9764,1.747 1.9406,0 10.9941,1.23539 12.2295,0 2.7702,-2.77023 6.3078,-2.81387 8.7354,-5.24101 2.5161,-2.51658 1.747,-14.93009 1.747,-19.21788 0,-1.05822 -0.9213,-15.26282 0,-15.72344 11.5281,-5.76429 -2.0382,-17.19563 -2.0382,-24.74969 0,-3.04764 4.6503,4.3621 5.5322,7.27924 0.4606,1.52404 -1.747,20.6784 -1.747,24.45889 0,4.59328 -1.0954,16.37549 1.747,19.21745 0.8236,0.82359 2.6704,-0.8236 3.494,0 3.2114,3.2114 6.4621,9.10272 12.579,13.8602"
       id="path7287-6"
       inkscape:connector-curvature="0"
       inkscape:export-filename="/home/ticho/images/forConky.png"
       inkscape:export-xdpi="24.530001"
       inkscape:export-ydpi="24.530001" />
    <path
       style="fill:none;stroke:#000000;stroke-width:0.86421049;stroke-linecap:round;stroke-linejoin:round;stroke-miterlimit:4;stroke-opacity:1;stroke-dasharray:none"
       d="m 790.94356,363.31678 c -2.2521,6.77454 -5.909,13.23537 -6.7555,20.32406 -0.512,4.2895 5.241,14.84281 5.241,20.96444 0,36.02634 1.7475,72.15941 1.7475,108.31755 0,1.82996 -2.8701,-14.10176 0,-22.71189 4.7902,-14.37138 1.3395,-27.5454 10.482,-36.68789 1.2353,-1.23539 3.6785,0.78125 5.2413,0 3.0136,-1.50674 6.5218,-2.85405 8.7351,-1.747 2.2422,1.12088 -0.5337,4.85211 0,6.988 0.4922,1.96868 4.0583,2.87523 5.2414,5.24144 0.9317,1.86325 -0.932,5.12434 0,6.98801 5.7284,11.45684 7.3009,25.89304 0,33.19389 -1.4562,1.45619 -0.2895,5.53268 -1.747,6.98844 -3.4987,3.49832 -15.1219,5.241 -24.4588,5.241 -1.6572,0 -0.5021,-4.51938 -3.727,-1.86323"
       id="path7271-8-5"
       inkscape:connector-curvature="0"
       inkscape:export-filename="/home/ticho/images/forConky.png"
       inkscape:export-xdpi="24.530001"
       inkscape:export-ydpi="24.530001" />
    <path
       style="fill:none;stroke:#000000;stroke-width:0.86421049;stroke-linecap:round;stroke-linejoin:round;stroke-miterlimit:4;stroke-opacity:1;stroke-dasharray:none"
       d="m 885.69216,449.38824 c -20.0652,10.3891 -7.1375,0.2895 -15.7817,0.2895 -20.1495,0 -22.7119,-1.49983 -22.7119,12.22902 0,1.80836 -0.9995,7.73598 0,8.73544 0.8235,0.82359 2.6704,-0.8236 3.494,0 6.7883,6.78837 34.9413,0.90915 34.9413,22.71188 0,3.5424 0.7574,7.97752 -1.747,10.48201 -1.7012,1.7012 -3.8833,-2.42584 -12.2294,1.74744 -2.3611,1.18007 -14.5145,6.45046 -17.4705,3.494 -1.7812,-1.78114 1.9237,-3.40586 -1.7474,-5.24144 -4.6767,-2.33812 -8.4421,-10.18905 -12.229,-13.97645 -0.5825,-0.58204 -2.1195,-2.48158 -1.7475,-1.747 0.907,1.79065 2.679,2.98974 4.0186,4.4844"
       id="path7311-9"
       inkscape:connector-curvature="0"
       inkscape:export-filename="/home/ticho/images/forConky.png"
       inkscape:export-xdpi="24.530001"
       inkscape:export-ydpi="24.530001" />
    <path
       style="fill:#000000;fill-opacity:1;stroke:none"
       d="m 612.32556,676.3653 c -1.4311,-0.66284 -1.8399,-0.30011 -2.4076,2.13495 -0.3894,1.6704 -1.1968,0.50103 -1.0206,-1.4784 0.077,-0.89308 -0.162,-1.78139 -0.5459,-2.01252 -0.5729,-0.34554 -0.2936,-0.59412 1.6765,-1.49296 2.768,-1.2627 5.2286,-1.64042 5.6395,-0.86536 0.2124,0.39826 -0.043,0.71443 -0.93,1.15191 -1.1108,0.55184 -1.1993,0.69844 -1.0152,1.64775 0.3108,1.48898 0.1168,1.61336 -1.4143,0.90433 z m 4.7681,-6.50798 c -1.3334,-0.21983 -1.8895,-1.18136 -1.7916,-3.09547 0.068,-1.32062 -0.1677,-2.08299 -0.7491,-2.42326 -0.9089,-0.53183 -5.0719,-1.34028 -5.8517,-1.1364 -0.2598,0.0673 -1.3011,1.65739 -2.3111,3.53569 -1.5191,2.80779 -2.2214,3.69977 -3.9966,5.04165 -3.125,2.36665 -2.7669,2.70425 2.7605,2.60229 1.5901,-0.0295 2.0763,0.0792 1.432,0.32014 -0.5379,0.20002 -2.2554,0.28808 -3.8193,0.19426 -1.5636,-0.0936 -3.5918,0.0689 -4.5066,0.36122 -3.8212,1.22103 -7.5895,3.06734 -8.1242,3.98047 -0.3679,0.6281 -0.2996,2.44743 0.1918,5.0919 0.4207,2.26323 0.6873,4.24824 0.5926,4.411 -0.3313,0.56556 1.0925,1.03043 2.5472,0.83025 1.5125,-0.20818 3.6668,0.7195 3.6876,1.58786 0.01,0.27155 -0.8321,0.60835 -1.863,0.74849 -1.6562,0.22528 -1.8713,0.38049 -1.846,1.33601 0.039,1.46522 -0.3131,1.95406 -1.0813,1.50425 -0.5306,-0.31075 -0.7609,-0.0696 -1.3286,1.38798 -0.5154,1.33343 -0.7864,1.65066 -1.0931,1.30222 -0.4242,-0.48204 -0.4182,-0.69502 0.1766,-6.43833 0.3364,-3.2517 -0.8531,-10.7698 -1.7914,-11.3192 -0.8594,-0.5033 -6.1378,1.73346 -9.59688,4.0668 -4.3724,2.94967 -6.7737,5.26137 -10.15158,9.7748 -1.53429,2.047 -3.97278,4.49909 -7.06492,7.0993 -4.49402,3.77819 -8.64953,8.45329 -9.17437,10.3225 -0.13227,0.46527 -1.64423,2.89324 -3.4235,5.35842 -2.70578,3.8337 -3.57671,4.76335 -5.7864,6.19113 -3.15454,2.03728 -3.58892,2.71148 -3.20362,4.9659 0.3837,2.23918 0.0875,2.69794 -1.42491,2.21077 -4.91769,-1.58558 -10.63704,-1.85958 -13.86553,-0.66482 -1.32334,0.48972 -2.58408,0.78614 -2.80259,0.65819 -0.23864,-0.13975 0.12578,-0.95868 0.90467,-2.03213 0.93126,-1.29092 2.49539,-2.48081 5.51974,-4.2026 3.09867,-1.764 4.57858,-2.89989 5.57212,-4.27576 1.51303,-2.09622 2.36484,-2.23393 3.15387,-0.51325 0.86479,1.88622 1.78525,2.06227 4.2424,0.81138 l 2.29665,-1.16923 2.90345,-5.44527 c 1.59826,-2.99419 3.62636,-6.92753 4.51293,-8.73732 1.68264,-3.43758 2.13811,-3.96726 8.44694,-9.8739 3.32853,-3.11418 5.76356,-6.7488 6.49289,-9.69155 0.21975,-0.88823 0.75243,-2.21592 1.18294,-2.95099 1.59659,-2.72632 1.68673,-4.73742 0.41679,-9.25383 -1.10692,-3.93544 -1.16024,-4.86353 -0.53795,-9.34303 0.38051,-2.73519 0.89695,-5.32467 1.14845,-5.75412 0.59873,-1.02236 0.11017,-1.26201 -1.49454,-0.73305 -1.64426,0.54253 -3.37446,1.81766 -4.06458,2.99613 -0.69832,1.19235 -0.47824,4.5651 0.4964,7.60112 0.63487,1.97795 0.62981,2.43207 -0.026,2.46923 -1.00792,0.0571 -5.36375,-1.89187 -7.35277,-3.28985 -1.31261,-0.92235 -1.57942,-0.95504 -2.14086,-0.24679 -0.35082,0.44508 -0.5954,1.36719 -0.53981,2.05128 0.0553,0.6838 -0.088,1.56715 -0.31947,1.96237 -0.23139,0.39514 -0.22733,1.45874 0.009,2.36376 0.32413,1.24041 0.24491,1.74164 -0.32173,2.0371 -1.07529,0.56133 -4.65523,-1.37528 -6.56551,-3.55154 -0.85594,-0.97468 -1.77509,-1.76755 -2.04319,-1.7612 -0.76892,0.0184 -2.96761,4.55431 -3.127,6.45968 -0.14226,1.68196 0.95255,4.75051 1.89067,5.29993 0.25729,0.15067 0.32597,0.51734 0.15198,0.81449 -0.4614,0.78781 -4.97544,-1.32201 -7.27902,-3.40216 -1.02498,-0.92523 -2.25029,-2.49435 -2.72325,-3.48655 -0.9527,-1.99868 -1.7597,-2.29245 -2.17791,-0.79324 -1.40231,5.02126 -1.59258,6.65013 -1.07706,9.20209 0.30874,1.52838 0.87987,3.29874 1.26902,3.93391 0.90098,1.47053 0.39972,2.38371 -0.89262,1.62685 -0.61339,-0.35921 -1.11631,-0.35378 -1.33175,0.0141 -0.54132,0.92432 -1.66155,-0.0341 -2.94025,-2.51587 -0.64452,-1.25084 -1.36055,-2.38474 -1.591,-2.51966 -0.23117,-0.13541 -0.94358,-2.05442 -1.58544,-4.2658 -0.64149,-2.21111 -1.44864,-4.7679 -1.79334,-5.68162 -2.6287,-6.97262 -4.32295,-23.00809 -3.21537,-30.43673 1.57241,-10.54385 3.39964,-15.84263 8.01678,-23.24015 1.82429,-2.92696 3.6009,-5.46471 3.94095,-5.64352 1.29359,-0.67402 1.12359,1.14423 -0.40841,4.37589 -2.10173,4.43534 -2.57361,9.54037 -1.13521,12.31716 1.66212,3.20886 1.87707,3.1214 3.09924,-1.25622 1.09396,-3.91847 8.27755,-15.4444 10.61362,-17.02892 0.85902,-0.58271 1.70427,-0.97602 1.87805,-0.87428 0.17526,0.10263 0.009,0.97715 -0.36785,1.9449 -0.41817,1.07319 -0.54901,3.00842 -0.3357,4.96401 0.43606,3.99925 2.38255,12.07092 2.99817,12.43143 0.25358,0.14846 0.75052,0.85631 1.10693,1.57459 0.50526,1.01755 1.69205,1.95807 5.37417,4.25885 5.19693,3.2473 8.29459,4.33827 11.50442,4.0518 0.98217,-0.0876 3.97545,-0.37368 6.65226,-0.63579 4.64761,-0.45509 4.93651,-0.42003 6.42251,0.7783 l 1.5568,1.25526 1.7788,-1.28277 c 0.9788,-0.70516 3.03638,-2.53426 4.57228,-4.06484 l 2.7927,-2.78253 0.5859,-3.95807 c 0.7253,-4.89801 0.8118,-8.68647 0.2725,-11.90084 -0.2276,-1.35663 -0.3624,-3.34776 -0.3001,-4.42484 0.1684,-2.89192 -1.6533,-10.1541 -3.2399,-12.91646 -1.4589,-2.54005 -1.4335,-3.9403 0.1004,-5.50358 0.5024,-0.50721 0.7681,-1.22593 0.6721,-1.80598 -0.09,-0.53072 0.2336,-1.70792 0.7115,-2.61994 3.1966,-6.09941 3.852,-7.0305 6.8036,-9.68659 3.9449,-3.55025 5.1524,-4.15318 8.8591,-4.42534 2.5473,-0.1873 3.593,-2.5e-4 5.9422,1.06224 2.8084,1.27019 2.8644,1.32436 3.7114,3.59158 1.8713,5.00721 0.1151,7.47159 -9.921,13.92484 -4.5713,2.93959 -5.06,3.37743 -6.3245,5.66577 -0.964,1.74012 -1.4432,3.30237 -1.6143,5.24122 -0.1335,1.51913 -0.3506,2.94502 -0.4818,3.16912 -0.6976,1.19117 1.8196,16.31807 3.2746,19.6788 1.3127,3.03166 6.3825,10.9021 7.411,11.50434 0.4336,0.25394 0.9077,1.03224 1.0532,1.72958 0.1454,0.69727 0.6376,1.85267 1.093,2.56715 0.4554,0.71436 1.0844,2.0113 1.3975,2.88152 0.3135,0.87045 0.7168,1.66863 0.8962,1.77368 0.179,0.10479 1.3037,-0.36799 2.4984,-1.05113 1.1944,-0.68334 3.3735,-1.75435 4.8432,-2.37947 1.469,-0.62557 3.3353,-1.79534 4.1473,-2.59957 1.4515,-1.43784 3.1933,-2.30951 3.8484,-1.92582 0.5406,0.31663 -0.1279,1.09323 -1.2466,1.44451 -1.292,0.40722 -1.3129,1.29112 -0.048,2.03181 1.2693,0.74332 0.8625,1.33447 -0.8307,1.20485 -1.8535,-0.14164 -2.3877,0.4799 -1.497,1.7438 0.4101,0.5818 0.6062,1.29582 0.4361,1.58622 -0.4772,0.81475 -1.8752,-0.25997 -1.9097,-1.4684 -0.015,-0.59081 -0.2176,-1.18615 -0.4463,-1.32001 -0.745,-0.4363 -8.38,3.05509 -9.0076,4.11896 -0.1585,0.27072 -0.1805,1.68663 -0.048,3.1479 0.1328,1.46121 0.127,3.48639 -0.013,4.50011 -0.1385,1.01473 -0.039,2.11351 0.2259,2.44377 0.2627,0.32959 1.9035,0.91647 3.6435,1.30323 3.0084,0.66874 3.2618,0.63456 5.1551,-0.6908 1.0947,-0.76703 2.1578,-1.67951 2.362,-2.02818 0.5031,-0.85894 0.8245,-0.58712 1.1092,0.938 0.2806,1.50294 0.1906,1.72427 -0.8079,1.98663 -0.5846,0.1518 -0.7076,0.36187 -0.554,0.94593 0.2709,1.03714 -0.2842,1.84491 -0.9852,1.4344 -0.7719,-0.45201 -2.9882,0.67577 -3.1396,1.59782 -0.07,0.42727 0.3736,1.01678 1.0745,1.42732 1.2346,0.72303 1.2487,1.60003 0.023,1.39791 z m 5.8813,-38.78205 c -0.3972,0.10534 -1.3193,-0.15855 -2.0456,-0.58396 -0.726,-0.42512 -1.9819,-0.8081 -2.7901,-0.85017 -1.4408,-0.0759 -1.4704,-0.11511 -1.4766,-1.95332 -0.01,-1.0318 0.1796,-2.19313 0.4066,-2.58071 0.227,-0.38764 0.2366,-1.25894 0.025,-1.93432 -0.6038,-1.91631 -0.4392,-3.07384 0.4862,-3.40993 1.1664,-0.42335 1.5663,-0.0145 0.9864,1.00828 -0.2856,0.48775 -0.4481,1.38071 -0.3784,1.97413 0.1066,0.9006 0.279,1.05496 1.0392,0.93006 0.4993,-0.0831 0.9101,-0.0568 0.9091,0.0568 -0.015,1.99502 -0.1438,2.7091 -0.6394,3.55529 -0.5546,0.947 -0.4885,1.04797 1.0338,1.62503 0.8932,0.33879 1.9666,0.70851 2.3851,0.82185 0.9702,0.26279 1.0064,1.09289 0.059,1.34086 z m -7.6194,-0.0437 c 0.055,-0.35008 1.5833,-1.66488 1.7913,-1.71894 0.2072,-0.0544 -1.1524,1.21533 -1.4144,1.61991 -0.3062,0.43727 -2.3283,1.62944 -2.2702,1.24123 z m -3.3753,3.21717 c -0.7389,0.58628 -2.95,3.79651 -2.7663,3.46742 0.1904,-0.32514 2.6533,-3.98343 3.3291,-4.46106 1.5883,-1.11406 1.1841,-0.39993 -0.5397,1.0072 z m -4.4367,5.20911 c -0.6177,0.58438 -3.6592,4.17128 -3.7639,4.1099 -0.3058,-0.17904 4.6726,-6.30634 5.2919,-6.49677 0.7203,-0.22112 -0.051,0.9834 -1.528,2.38687 z m 6.6997,-61.61704 c -1.7775,0.24437 -2.3251,0.0252 -1.8712,-0.74993 0.1801,-0.3076 0.3982,-0.95367 0.4853,-1.43596 0.1562,-0.84813 0.1712,-0.83942 0.5582,0.32689 0.3214,0.96565 0.6125,1.21078 1.4786,1.24442 1.4918,0.0571 1.1662,0.36447 -0.6509,0.61555 z"
       id="path7012-4-4-6"
       inkscape:connector-curvature="0"
       sodipodi:nodetypes="ccccccccccccccccccccsccscssscccsssscccsscsccscccccsssscscsccsccssccccsssccccsscscsccccsccssssssssscccccccccccccsssccssssccssccscsscscsccccscscccscscccsccsscccccscsccccccccsccscccsccccc"
       inkscape:export-filename="/home/ticho/images/wallpapers/brontolabsBlack.png"
       inkscape:export-xdpi="56.650002"
       inkscape:export-ydpi="56.650002" />
    <path
       style="fill:none;stroke:#000000;stroke-width:0.86421049;stroke-linecap:round;stroke-linejoin:round;stroke-miterlimit:4;stroke-opacity:1;stroke-dasharray:none"
       d="m 209.24035,577.98566 c -2.25182,6.77455 -5.9089,13.23538 -6.75532,20.32407 -0.5122,4.28951 5.24117,14.84282 5.24117,20.96445 0,36.02635 1.74701,72.15941 1.74701,108.31755 0,1.82996 -2.86994,-14.10176 0,-22.71189 4.79054,-14.37138 1.33962,-27.54541 10.48239,-36.68789 1.23535,-1.23539 3.67855,0.78125 5.24117,0 3.01356,-1.50676 6.52178,-2.85406 8.73524,-1.747 2.24201,1.12087 -0.53393,4.8521 0,6.988 0.49212,1.96867 4.05815,2.87523 5.24117,5.24144 0.93178,1.86324 -0.93178,5.12434 0,6.98801 5.72842,11.45683 7.30117,25.89304 0,33.19389 -1.45589,1.45619 -0.2912,5.53267 -1.74706,6.98843 -3.49841,3.49833 -15.12178,5.24101 -24.45874,5.24101 -1.65696,0 -0.50199,-4.51939 -3.72703,-1.86324"
       id="path7271-84-8"
       inkscape:connector-curvature="0"
       inkscape:export-filename="/home/ticho/images/wallpapers/brontolabsBlack.png"
       inkscape:export-xdpi="56.650002"
       inkscape:export-ydpi="56.650002" />
    <path
       style="fill:none;stroke:#000000;stroke-width:0.86421049;stroke-linecap:round;stroke-linejoin:round;stroke-miterlimit:4;stroke-opacity:1;stroke-dasharray:none"
       d="m 274.05608,664.40671 c -11.47838,16.50728 -6.92998,30.64922 -6.92998,49.20857 0,4.07648 4.07649,12.22944 0,12.22944 -2.06067,0 1.58723,-22.39212 1.74702,-22.71188 1.43998,-2.87998 -2.22028,-11.75586 0,-13.97644 2.39054,-2.39041 5.01471,-9.04267 6.98823,-13.97644 2.79054,-6.97634 12.30535,-10.23831 19.8,-10.77325"
       id="path7273-6-5"
       inkscape:connector-curvature="0"
       inkscape:export-filename="/home/ticho/images/wallpapers/brontolabsBlack.png"
       inkscape:export-xdpi="56.650002"
       inkscape:export-ydpi="56.650002" />
    <path
       style="fill:none;stroke:#000000;stroke-width:0.86421049;stroke-linecap:round;stroke-linejoin:round;stroke-miterlimit:4;stroke-opacity:1;stroke-dasharray:none"
       d="m 338.87188,664.40671 c 0.2999,6.4375 -17.1118,-1.93108 -21.08115,2.03824 -1.78102,1.7807 1.92373,3.40542 -1.7471,5.241 -2.40981,1.20514 -1.56268,-2.11559 -3.49407,1.747 -2.07702,4.15426 -3.14475,44.37505 -1.74706,47.17077 3.0476,6.09485 40.50732,9.44625 45.42346,6.98801 1.91409,-0.95712 1.74705,-45.94273 1.74705,-52.41177 0,-4.54748 -10.12518,0.58593 -13.97646,-3.49401 -2.03701,-2.15793 -3.41642,-4.85297 -5.12467,-7.27924"
       id="path7275-0-1"
       inkscape:connector-curvature="0"
       inkscape:export-filename="/home/ticho/images/wallpapers/brontolabsBlack.png"
       inkscape:export-xdpi="56.650002"
       inkscape:export-ydpi="56.650002" />
    <path
       style="fill:none;stroke:#000000;stroke-width:0.86421049;stroke-linecap:round;stroke-linejoin:round;stroke-miterlimit:4;stroke-opacity:1;stroke-dasharray:none"
       d="m 382.08241,664.40671 c -8.48697,14.16095 -4.89177,52.83696 -4.89177,56.19701 0,3.494 0,-6.98844 0,-10.48244 0,-8.97526 -0.86147,-18.38046 1.74702,-26.20589 0.69129,-2.07367 2.38727,-19.13016 3.14475,-19.50868 3.42089,-1.71071 7.007,3.78524 10.83171,3.78524 5.44487,0 9.36951,-4.60711 12.22941,-1.747 2.0997,2.0996 -0.35259,6.63541 1.74706,8.73501 3.4914,3.4914 -2.27023,18.17132 0,22.71188 4.1764,8.35259 3.49413,22.87867 3.49413,27.95288 0,2.32949 2.24412,7.61284 0,6.98801 -2.4433,-0.6797 -4.46471,-2.40682 -6.69704,-3.61024"
       id="path7277-2-8"
       inkscape:connector-curvature="0"
       inkscape:export-filename="/home/ticho/images/wallpapers/brontolabsBlack.png"
       inkscape:export-xdpi="56.650002"
       inkscape:export-ydpi="56.650002" />
    <path
       style="fill:none;stroke:#000000;stroke-width:0.86421049;stroke-linecap:round;stroke-linejoin:round;stroke-miterlimit:4;stroke-opacity:1;stroke-dasharray:none"
       d="m 425.29292,577.98566 c 2.01878,2.11559 4.84711,3.685 6.0564,6.34763 3.6679,8.07648 0,91.55186 0,111.81155 0,3.95938 -2.20024,20.51117 0,22.71145 3.00507,3.00529 9.41348,5.24143 10.48245,5.24143 2.09966,0 4.86428,-5.5599 5.24113,-3.494 0.51571,2.82683 -0.11623,5.7457 -0.17455,8.61877"
       id="path7279-1-8"
       inkscape:connector-curvature="0"
       inkscape:export-filename="/home/ticho/images/wallpapers/brontolabsBlack.png"
       inkscape:export-xdpi="56.650002"
       inkscape:export-ydpi="56.650002" />
    <path
       style="fill:none;stroke:#000000;stroke-width:0.86421049;stroke-linecap:round;stroke-linejoin:round;stroke-miterlimit:4;stroke-opacity:1;stroke-dasharray:none"
       d="m 403.68768,642.80144 c 13.85842,-1.09106 27.75377,-0.81538 41.63818,-0.81538 2.9118,0 11.61459,-0.4334 8.73527,0 -2.37625,0.35865 -4.77527,0.54359 -7.16291,0.81538"
       id="path7281-6-7"
       inkscape:connector-curvature="0"
       inkscape:export-filename="/home/ticho/images/wallpapers/brontolabsBlack.png"
       inkscape:export-xdpi="56.650002"
       inkscape:export-ydpi="56.650002" />
    <path
       style="fill:none;stroke:#000000;stroke-width:0.86421049;stroke-linecap:round;stroke-linejoin:round;stroke-miterlimit:4;stroke-opacity:1;stroke-dasharray:none"
       d="m 511.71404,686.01197 c 2.97305,-10.08533 -36.95322,-24.27826 -41.9294,-14.32602 -4.08682,8.17371 -1.88344,45.15067 -1.74704,45.42333 1.19531,2.39084 4.54461,8.03889 6.98823,10.48245 2.61271,2.61294 39.49297,5.93064 41.92933,3.494 2.51033,-2.5101 -4.52004,5.90688 1.74698,-3.494 1.15052,-1.72583 6.0747,-36.41567 1.74711,-38.43533 -2.48317,-1.15847 -12.48259,-4.46322 -15.72351,-5.24101 -0.56624,-0.13827 -2.30483,-0.16851 -1.74704,0 2.86813,0.86033 5.82354,1.39786 8.73534,2.09658"
       id="path7283-5-8"
       inkscape:connector-curvature="0"
       inkscape:export-filename="/home/ticho/images/wallpapers/brontolabsBlack.png"
       inkscape:export-xdpi="56.650002"
       inkscape:export-ydpi="56.650002" />
    <path
       style="fill:none;stroke:#000000;stroke-width:0.86421049;stroke-linecap:round;stroke-linejoin:round;stroke-miterlimit:4;stroke-opacity:1;stroke-dasharray:none"
       d="m 620.96876,574.6572 c 10.8683,24.60623 4.1316,51.38466 6.3476,77.97684 2.4979,29.97515 1.1373,-6.79053 3.4942,26.2059 0.4502,6.30311 -1.7908,17.4268 1.747,20.96444 4.6588,4.65896 -4.6588,23.29436 0,27.95289 7.6925,7.69277 25.7405,3.95463 31.6218,-1.86324"
       id="path7285-6-4"
       inkscape:connector-curvature="0"
       inkscape:export-filename="/home/ticho/images/wallpapers/brontolabsBlack.png"
       inkscape:export-xdpi="56.650002"
       inkscape:export-ydpi="56.650002" />
    <path
       style="fill:none;stroke:#000000;stroke-width:0.86421049;stroke-linecap:round;stroke-linejoin:round;stroke-miterlimit:4;stroke-opacity:1;stroke-dasharray:none"
       d="m 707.38986,661.07825 c -10.5213,4.38587 -26.3649,-0.35865 -34.65,3.78524 -6.4052,3.20233 -8.029,46.83589 -5.241,52.41177 1.6078,3.21616 3.6327,0.27655 5.241,3.494 0.5207,1.04181 -1.0418,2.97332 0,3.49401 5.3231,2.66177 11.5653,1.747 13.9764,1.747 1.9406,0 10.9941,1.23539 12.2295,0 2.7701,-2.77023 6.3078,-2.81387 8.7354,-5.24101 2.5161,-2.51658 1.747,-14.93009 1.747,-19.21788 0,-1.05822 -0.9213,-15.26282 0,-15.72344 11.5281,-5.76429 -2.0383,-17.19563 -2.0383,-24.74969 0,-3.04764 4.6504,4.3621 5.5323,7.27924 0.4606,1.52404 -1.7471,20.6784 -1.7471,24.45889 0,4.59328 -1.0953,16.37549 1.7471,19.21745 0.8236,0.82359 2.6704,-0.8236 3.494,0 3.2114,3.2114 6.4621,9.10272 12.579,13.8602"
       id="path7287-7-6"
       inkscape:connector-curvature="0"
       inkscape:export-filename="/home/ticho/images/wallpapers/brontolabsBlack.png"
       inkscape:export-xdpi="56.650002"
       inkscape:export-ydpi="56.650002" />
    <path
       style="fill:none;stroke:#000000;stroke-width:0.86421049;stroke-linecap:round;stroke-linejoin:round;stroke-miterlimit:4;stroke-opacity:1;stroke-dasharray:none"
       d="m 742.27286,575.00678 c -2.2521,6.77454 -5.909,13.23538 -6.7555,20.32407 -0.512,4.2895 5.241,14.84281 5.241,20.96444 0,36.02634 1.7475,72.15941 1.7475,108.31755 0,1.82996 -2.8701,-14.10176 0,-22.71189 4.7902,-14.37138 1.3395,-27.5454 10.4819,-36.68789 1.2354,-1.23539 3.6785,0.78125 5.2414,0 3.0135,-1.50674 6.5217,-2.85405 8.735,-1.747 2.2422,1.12088 -0.5337,4.85211 0,6.988 0.4922,1.96868 4.0584,2.87523 5.2414,5.24144 0.9317,1.86325 -0.932,5.12434 0,6.98801 5.7284,11.45684 7.3009,25.89304 0,33.19389 -1.4562,1.45619 -0.2895,5.53268 -1.747,6.98844 -3.4987,3.49832 -15.1219,5.241 -24.4587,5.241 -1.6572,0 -0.5022,-4.51938 -3.727,-1.86323"
       id="path7271-8-1-9"
       inkscape:connector-curvature="0"
       inkscape:export-filename="/home/ticho/images/wallpapers/brontolabsBlack.png"
       inkscape:export-xdpi="56.650002"
       inkscape:export-ydpi="56.650002" />
    <path
       style="fill:none;stroke:#000000;stroke-width:0.86421049;stroke-linecap:round;stroke-linejoin:round;stroke-miterlimit:4;stroke-opacity:1;stroke-dasharray:none"
       d="m 837.02136,661.07825 c -20.0652,10.3891 -7.1375,0.2895 -15.7817,0.2895 -20.1495,0 -22.7119,-1.49983 -22.7119,12.22902 0,1.80836 -0.9995,7.73598 0,8.73544 0.8235,0.82359 2.6704,-0.8236 3.494,0 6.7884,6.78837 34.9413,0.90915 34.9413,22.71188 0,3.5424 0.7574,7.97752 -1.747,10.48201 -1.7012,1.7012 -3.8833,-2.42584 -12.2294,1.74744 -2.3611,1.18007 -14.5145,6.45046 -17.4705,3.494 -1.7812,-1.78114 1.9237,-3.40586 -1.7474,-5.24144 -4.6767,-2.33812 -8.4421,-10.18905 -12.229,-13.97645 -0.5825,-0.58204 -2.1195,-2.48158 -1.7475,-1.747 0.907,1.79065 2.679,2.98974 4.0186,4.4844"
       id="path7311-2-9"
       inkscape:connector-curvature="0"
       inkscape:export-filename="/home/ticho/images/wallpapers/brontolabsBlack.png"
       inkscape:export-xdpi="56.650002"
       inkscape:export-ydpi="56.650002" />
  </g>
</svg>
