<?xml version="1.0" encoding="UTF-8" standalone="no"?>
<!-- Created with Inkscape (http://www.inkscape.org/) -->

<svg
   xmlns:dc="http://purl.org/dc/elements/1.1/"
   xmlns:cc="http://creativecommons.org/ns#"
   xmlns:rdf="http://www.w3.org/1999/02/22-rdf-syntax-ns#"
   xmlns:svg="http://www.w3.org/2000/svg"
   xmlns="http://www.w3.org/2000/svg"
   xmlns:sodipodi="http://sodipodi.sourceforge.net/DTD/sodipodi-0.dtd"
   xmlns:inkscape="http://www.inkscape.org/namespaces/inkscape"
   width="1920px"
   height="1080px"
   id="svg7423"
   version="1.1"
   inkscape:version="0.48.5 r10040"
   sodipodi:docname="New document 38">
  <defs
     id="defs7425" />
  <sodipodi:namedview
     id="base"
     pagecolor="#ffffff"
     bordercolor="#666666"
     borderopacity="1.0"
     inkscape:pageopacity="0.0"
     inkscape:pageshadow="2"
     inkscape:zoom="0.6"
     inkscape:cx="869.93839"
     inkscape:cy="470.95303"
     inkscape:document-units="px"
     inkscape:current-layer="layer1"
     showgrid="false"
     inkscape:window-width="1769"
     inkscape:window-height="998"
     inkscape:window-x="0"
     inkscape:window-y="0"
     inkscape:window-maximized="1" />
  <metadata
     id="metadata7428">
    <rdf:RDF>
      <cc:Work
         rdf:about="">
        <dc:format>image/svg+xml</dc:format>
        <dc:type
           rdf:resource="http://purl.org/dc/dcmitype/StillImage" />
        <dc:title></dc:title>
      </cc:Work>
    </rdf:RDF>
  </metadata>
  <g
     id="layer1"
     inkscape:label="Layer 1"
     inkscape:groupmode="layer">
    <path
       style="fill:#008000"
       d="m 547.36108,475.51993 c -0.22717,-2.35821 -1.00763,-2.61266 -4.59513,-1.50009 -2.46086,0.76335 -1.55803,-1.17099 1.14171,-2.44519 1.21637,-0.5777 2.1861,-1.56239 2.19431,-2.23552 0.0128,-1.00482 0.54724,-0.83151 3.20787,1.03987 3.73821,2.62954 6.09568,5.53234 5.40292,6.65334 -0.35506,0.57771 -0.95863,0.48684 -2.19922,-0.33104 -1.55857,-1.02104 -1.81569,-1.02429 -2.90652,-0.0649 -1.6942,1.53319 -2.00268,1.37611 -2.24594,-1.14697 z m 12.05572,1.24044 c -0.72728,-1.89539 0.0967,-3.34614 2.6525,-4.67227 1.76332,-0.9146 2.57286,-1.79867 2.57252,-2.81064 -6e-4,-1.58187 -2.11286,-7.59195 -2.96918,-8.44812 -0.28432,-0.28561 -3.13612,-0.42841 -6.33746,-0.31158 -4.79289,0.16228 -6.48237,-0.0714 -9.56935,-1.35338 -5.44015,-2.25435 -5.60593,-1.53384 -1.27768,5.55376 1.2453,2.03884 1.47348,2.75156 0.67202,2.09921 -0.66751,-0.54525 -2.08554,-2.70483 -3.15119,-4.80339 -1.06566,-2.09791 -2.81579,-4.60347 -3.88925,-5.56739 -4.4836,-4.02642 -9.73763,-7.50952 -11.32723,-7.50952 -1.09338,0 -3.39984,1.46957 -6.45484,4.11404 -2.61433,2.26344 -4.98499,4.11599 -5.26803,4.11663 -0.98448,0 -0.50631,2.19853 0.85766,3.9323 1.41796,1.80256 1.8509,5.2993 0.74095,5.98541 -0.34725,0.21421 -1.42024,-0.61665 -2.38453,-1.84671 -1.54928,-1.97588 -1.91376,-2.13686 -3.13315,-1.3787 -1.86995,1.16255 -2.77076,1.07751 -2.77076,-0.25964 0,-0.92368 -0.48746,-1.03923 -2.80771,-0.66858 -2.11986,0.34402 -2.73676,0.23367 -2.51794,-0.42842 0.3025,-0.91589 0.58352,-1.06973 8.47987,-4.65864 4.47048,-2.03235 13.31288,-9.28158 13.31288,-10.91473 0,-1.49619 -6.90643,-6.64036 -12.55698,-9.35298 -7.14276,-3.42859 -11.96237,-4.78652 -20.37718,-5.73876 -3.81818,-0.4349 -8.84785,-1.73441 -14.56577,-3.76871 -8.30909,-2.95733 -17.52388,-4.79496 -20.34528,-4.05627 -0.70357,0.18175 -4.99878,0.0649 -9.54486,-0.36999 -7.0236,-0.59718 -8.88978,-1.0204 -12.41807,-2.8009 -5.03564,-2.54255 -6.23928,-2.59383 -8.86913,-0.38297 -2.6113,2.19723 -3.4308,2.16153 -3.94742,-0.16877 -1.67788,-7.57832 -5.66443,-15.20014 -9.6641,-18.47813 -1.63938,-1.34365 -2.9807,-2.75286 -2.9807,-3.13324 0,-0.41543 1.3382,-0.56472 3.32096,-0.36999 2.38041,0.22719 5.11016,1.35144 9.63794,3.96474 4.63891,2.67758 7.23482,3.73367 9.77257,3.97709 3.86589,0.36999 4.69096,1.36961 3.0595,3.69861 -1.78855,2.55293 -1.31801,3.87971 2.16873,6.11523 l 3.2591,2.08948 9.26275,-0.36999 c 5.09452,-0.20123 11.73275,-0.55823 14.75174,-0.78283 5.73343,-0.42841 6.76577,-0.24017 19.21162,3.4539 6.56364,1.95057 13.12348,2.34782 17.49178,1.05934 1.31827,-0.38946 3.44365,-0.70687 4.72329,-0.70687 4.74604,0 7.42148,-1.40986 12.31184,-6.48458 4.26107,-4.42237 5.42365,-5.1961 11.70268,-7.78993 3.83439,-1.58317 7.58316,-2.87944 8.33071,-2.87944 1.77982,0 1.71951,-0.81528 -0.18436,-2.49387 -1.95139,-1.71948 -4.91782,-2.99433 -6.9693,-2.99433 -2.07571,0 -6.28058,2.84568 -9.47619,6.41382 -2.08204,2.32446 -2.67457,2.66264 -3.22053,1.84087 -0.83922,-1.26316 -1.61941,-8.38906 -1.31719,-12.0286 0.19924,-2.40169 0.039,-2.77234 -1.30535,-2.96252 -0.84326,-0.11685 -2.22419,0.26613 -3.06874,0.85747 -0.84447,0.59069 -2.09832,1.07557 -2.7863,1.07557 -0.68791,0 -2.06353,0.81268 -3.05703,1.80646 -1.36182,1.36183 -2.07167,1.63965 -2.88478,1.12945 -1.54402,-0.96782 -1.75127,-7.07852 -0.38043,-11.20683 0.61407,-1.84931 0.94369,-3.64279 0.73193,-3.98552 -0.60754,-0.98275 -8.15645,-0.38947 -10.74728,0.85033 -2.28825,1.09245 -5.4348,4.84104 -5.4348,6.47419 0,0.44789 -0.42322,0.81528 -0.94056,0.81528 -1.37137,0 -2.06325,-7.45305 -1.11561,-12.01822 0.42126,-2.03105 1.52514,-4.81053 2.452,-6.1769 1.86761,-2.75221 1.63601,-4.02122 -0.62509,-3.42533 -7.57333,1.99406 -9.8293,2.98394 -12.74593,5.58946 -1.74688,1.56045 -3.60813,3.64473 -4.13605,4.63137 -1.22227,2.28422 -2.78649,2.3277 -2.78649,0.0779 0,-1.06779 -0.38881,-1.71559 -1.02916,-1.71559 -1.60913,0 -1.21713,-2.1797 1.02916,-5.72123 1.13211,-1.78504 2.05839,-3.57399 2.05839,-3.97513 0,-0.40245 1.94674,-2.78272 4.32597,-5.29347 2.37924,-2.51009 5.08089,-5.49729 6.00359,-6.63777 7.04288,-8.70063 26.54291,-23.06991 37.01328,-27.27353 14.86128,-5.96594 23.11694,-7.61986 36.21113,-7.25052 5.17905,0.14281 9.81732,0.51928 10.30734,0.82437 1.85574,1.16514 -0.63029,2.32509 -5.98239,2.79246 -7.34489,0.64261 -14.32065,3.90632 -16.82809,7.87885 -2.89783,4.59049 -2.62119,4.80275 3.98113,3.06379 5.9099,-1.55656 26.30381,-0.99444 30.1312,0.83085 1.40746,0.67118 2.559,1.46829 2.559,1.77077 0,0.30508 -1.26018,0.75296 -2.80031,0.99963 -1.70866,0.27262 -4.31653,1.57213 -6.68968,3.33316 -4.853,3.60125 -13.83837,12.25189 -13.83837,13.32357 0,0.44139 -0.5407,1.62277 -1.20075,2.63018 -0.93554,1.42738 -1.25372,3.67979 -1.44091,10.19942 -0.26419,9.20174 0.67317,14.04538 3.48115,17.9887 0.85908,1.20669 3.50235,4.8696 5.87409,8.14045 4.11817,5.67904 4.29204,6.08019 3.8667,8.91613 l -0.44525,2.97097 3.01307,1.33196 c 1.65718,0.7335 5.59024,2.01224 8.74009,2.84115 l 5.72702,1.50787 5.57551,-2.24526 c 6.89963,-2.77818 11.87614,-5.54207 15.63352,-8.68116 1.58577,-1.32482 4.06433,-3.01121 5.508,-3.74794 3.87652,-1.97718 11.90724,-9.85149 14.28369,-14.00513 2.18495,-3.81935 4.01936,-4.84948 7.21026,-4.04783 1.03887,0.26613 2.1721,0.0649 2.8512,-0.49982 0.61986,-0.51928 2.39119,-0.99378 3.9363,-1.06648 10.33305,-0.48683 12.03755,-0.34403 17.72122,1.46569 7.59683,2.41857 9.29493,3.52594 12.4616,8.12422 2.17648,3.15985 2.72795,4.65734 3.13403,8.50914 0.48551,4.60476 0.45764,4.71836 -1.83824,7.53743 -5.07007,6.22688 -9.59782,5.82119 -25.5817,-2.2894 -7.28068,-3.69407 -8.21932,-3.99525 -12.14545,-3.89724 -2.98756,0.0714 -5.3764,0.63613 -8.01954,1.8863 -2.07053,0.98016 -4.08371,1.78116 -4.47384,1.78116 -2.07356,0 -19.77115,14.74641 -23.02304,19.1837 -2.93331,4.00305 -9.28679,16.54964 -9.28679,18.33987 0,0.75491 -0.64907,1.9603 -1.44252,2.67821 -0.79339,0.71792 -1.91753,2.23293 -2.49795,3.36563 -0.58028,1.13269 -1.78399,2.93266 -2.6743,3.99915 -0.89031,1.06712 -1.61874,2.19592 -1.61874,2.50815 0,0.31156 1.46655,1.4105 3.25909,2.44064 1.79254,1.02948 4.83502,3.04106 6.7611,4.4717 1.92602,1.42933 4.85919,2.96057 6.51812,3.40261 2.96569,0.78997 5.4178,2.38612 5.4178,3.5266 0,0.9412 -1.51421,0.66404 -2.81882,-0.51929 -1.50869,-1.36571 -2.67026,-0.7218 -2.67026,1.47997 0,2.20956 -1.07515,2.13102 -2.1925,-0.16228 -1.22342,-2.51009 -2.43474,-2.73079 -3.3968,-0.61665 -0.44338,0.97302 -1.21966,1.76947 -1.72516,1.76947 -1.41836,0 -1.08659,-2.62823 0.45373,-3.59021 0.75475,-0.46736 1.37226,-1.18267 1.37226,-1.58058 0,-1.29692 -10.32182,-8.54355 -12.17722,-8.54939 -0.47124,0 -2.32335,1.04637 -4.11676,2.3277 -1.79335,1.28134 -4.42288,2.81128 -5.84333,3.39938 -1.42045,0.59068 -2.76874,1.5546 -2.99625,2.14789 -0.22784,0.59069 0.25699,3.16309 1.0765,5.71214 1.41694,4.40743 1.6536,4.70992 4.8089,6.15808 1.82525,0.8367 3.81521,1.52216 4.42215,1.52216 1.49536,0 1.38706,0.62313 -0.37391,2.14984 -1.73519,1.50463 -2.09045,1.55591 -3.18842,0.46086 -0.64065,-0.64261 -1.00635,-0.64261 -1.64674,0 -1.13882,1.13853 -2.60726,1.03208 -2.60726,-0.18824 0,-1.34365 -3.14446,-3.36042 -4.45459,-2.85672 -0.60693,0.23368 -1.03442,1.25602 -1.03442,2.47635 0,2.14919 -1.12623,2.83334 -1.79489,1.0905 z m 54.73664,-21.81713 c -0.43812,-0.43491 -0.79601,-1.83048 -0.79601,-3.09495 0,-1.2638 -0.45697,-3.18257 -1.01584,-4.26204 -0.99545,-1.92524 -0.96705,-1.9934 1.41142,-3.39677 1.3351,-0.78737 2.97935,-1.43193 3.65407,-1.43193 0.67472,0 1.81145,-0.64911 2.52609,-1.43647 2.02569,-2.23747 3.6511,-2.90281 4.78925,-1.95836 1.43411,1.19046 1.20775,2.01937 -0.5582,2.04404 -0.84905,0 -2.1299,0.46736 -2.84628,1.00806 -1.08659,0.82177 -1.15572,1.16255 -0.41672,2.05313 0.48679,0.5842 0.76451,1.13658 0.61663,1.22162 -2.59764,1.49489 -3.62089,1.87008 -5.09404,1.87008 -1.64856,0 -1.72926,0.16227 -1.3217,2.5737 0.23889,1.41506 0.57449,3.08716 0.74519,3.71549 0.39599,1.45725 -0.6527,2.13426 -1.69325,1.0944 z m -5.72749,-9.90992 c 0.49527,-0.19473 3.36006,0.78867 3.58797,1.01715 0.22785,0.22719 -2.45016,-0.57121 -3.17347,-0.60367 -0.79931,-0.0649 -3.87969,-1.78115 -3.33239,-2.00055 z m -6.7327,-1.93304 c -1.32076,-0.5128 -7.16066,-0.94186 -6.59458,-0.95354 0.56601,0 7.17782,0.41543 8.30991,0.92887 2.64987,1.21319 1.41735,1.23136 -1.71533,0.0649 z m -10.12042,-1.79673 c -1.22639,-0.35701 -8.18485,-1.57668 -8.18485,-1.75908 0,-0.53227 11.72186,1.26965 12.43885,1.92785 0.8335,0.76595 -1.31356,0.68027 -4.254,-0.16877 z M 676.531,403.21266 c -1.6662,-2.11869 -1.79766,-2.99498 -0.44849,-2.99498 0.53552,0 1.53864,-0.20771 2.22992,-0.46087 1.21798,-0.44139 1.21798,-0.41543 0,0.97171 -1.00777,1.14957 -1.10456,1.713 -0.49069,2.86127 1.05852,1.97718 0.41281,1.78829 -1.29195,-0.37649 z"
       id="path7012-4"
       inkscape:connector-curvature="0"
       sodipodi:nodetypes="ccccccccccccccccccccsccscssscccsssscccsscsccscccccsssscscsccsccssccccsssccccsscscsccccsccssssssssscccccccccccccsssccssssccssccscsscscsccccscscccscscccsccsscccccscsccccccccsccscccsccccc" />
    <path
       style="fill:none;stroke:#000000;stroke-width:1.29821396;stroke-linecap:round;stroke-linejoin:round;stroke-miterlimit:4;stroke-opacity:1;stroke-dasharray:none"
       d="m 698.3156,248.74467 c -3.38267,10.1767 -8.87633,19.88214 -10.14782,30.53074 -0.76942,6.44369 7.87327,22.29683 7.87327,31.49273 0,54.11865 2.62436,108.39762 2.62436,162.71424 0,2.74897 -4.31122,-21.18361 0,-34.11771 7.19633,-21.58865 2.01237,-41.37862 15.74661,-55.11243 1.85574,-1.85579 5.5259,1.17359 7.87327,0 4.52695,-2.26344 9.797,-4.28735 13.12206,-2.62434 3.36793,1.68378 -0.80207,7.28882 0,10.49736 0.73926,2.95733 6.09614,4.31916 7.87327,7.87367 1.39971,2.79895 -1.39972,7.69776 0,10.49736 8.6052,17.21041 10.96779,38.89643 0,49.86375 -2.18704,2.18748 -0.43745,8.31116 -2.62443,10.498 -5.25531,5.25517 -22.7159,7.87302 -36.74186,7.87302 -2.48907,0 -0.75408,-6.78901 -5.59873,-2.79895"
       id="path7271"
       inkscape:connector-curvature="0" />
    <path
       style="fill:none;stroke:#000000;stroke-width:1.29821396;stroke-linecap:round;stroke-linejoin:round;stroke-miterlimit:4;stroke-opacity:1;stroke-dasharray:none"
       d="m 795.68159,378.56607 c -17.24278,24.79718 -10.41019,46.04115 -10.41019,73.92094 0,6.12368 6.12368,18.37103 0,18.37103 -3.09553,0 2.38433,-33.63737 2.62436,-34.11771 2.16314,-4.3263 -3.33529,-17.65961 0,-20.99537 3.59106,-3.59086 7.53308,-13.58386 10.49769,-20.99536 4.19195,-10.47983 18.48506,-15.37994 29.7435,-16.18353"
       id="path7273"
       inkscape:connector-curvature="0" />
    <path
       style="fill:none;stroke:#000000;stroke-width:1.29821396;stroke-linecap:round;stroke-linejoin:round;stroke-miterlimit:4;stroke-opacity:1;stroke-dasharray:none"
       d="m 893.04765,378.56607 c 0.45051,9.67039 -25.70528,-2.90086 -31.66802,3.06183 -2.67545,2.67497 2.88982,5.11561 -2.62449,7.87302 -3.62001,1.81036 -2.34745,-3.17803 -5.24878,2.62434 -3.1201,6.24051 -4.72404,66.66004 -2.62443,70.85976 4.5781,9.15566 60.84995,14.19013 68.23496,10.49736 2.87535,-1.43777 2.62442,-69.015 2.62442,-78.73278 0,-6.8312 -15.21001,0.88019 -20.99539,-5.24868 -3.05999,-3.24164 -5.13213,-7.29012 -7.69827,-10.93485"
       id="path7275"
       inkscape:connector-curvature="0" />
    <path
       style="fill:none;stroke:#000000;stroke-width:1.29821396;stroke-linecap:round;stroke-linejoin:round;stroke-miterlimit:4;stroke-opacity:1;stroke-dasharray:none"
       d="m 957.95836,378.56607 c -12.74909,21.27253 -7.34839,79.37149 -7.34839,84.41895 0,5.24868 0,-10.49801 0,-15.74669 0,-13.48259 -1.2941,-27.61106 2.62436,-39.36639 1.03846,-3.11506 3.58615,-28.73726 4.72403,-29.30587 5.13886,-2.56982 10.5259,5.68617 16.27136,5.68617 8.17926,0 14.07484,-6.92078 18.37098,-2.62434 3.15416,3.15401 -0.52966,9.96769 2.62443,13.1217 5.24477,5.24478 -3.41034,27.2969 0,34.11771 6.27377,12.54724 5.24887,34.36826 5.24887,41.99073 0,3.49934 3.3711,11.43597 0,10.49736 -3.67032,-1.02105 -6.70688,-3.61552 -10.06027,-5.42329"
       id="path7277"
       inkscape:connector-curvature="0" />
    <path
       style="fill:none;stroke:#000000;stroke-width:1.29821396;stroke-linecap:round;stroke-linejoin:round;stroke-miterlimit:4;stroke-opacity:1;stroke-dasharray:none"
       d="m 1022.8691,248.74467 c 3.0326,3.17803 7.2813,5.53559 9.0979,9.53538 5.5099,12.13246 0,137.52889 0,167.96292 0,5.94777 -3.3052,30.81181 0,34.11707 4.5142,4.51453 14.1408,7.87366 15.7466,7.87366 3.1541,0 7.3071,-8.35206 7.8732,-5.24868 0.7747,4.24646 -0.1746,8.63118 -0.2622,12.94709"
       id="path7279"
       inkscape:connector-curvature="0" />
    <path
       style="fill:none;stroke:#000000;stroke-width:1.29821396;stroke-linecap:round;stroke-linejoin:round;stroke-miterlimit:4;stroke-opacity:1;stroke-dasharray:none"
       d="m 990.41373,346.11071 c 20.81807,-1.63899 41.69167,-1.22486 62.54867,-1.22486 4.3741,0 17.4474,-0.65105 13.1221,0 -3.5696,0.53876 -7.1734,0.81658 -10.7601,1.22486"
       id="path7281"
       inkscape:connector-curvature="0" />
    <path
       style="fill:none;stroke:#000000;stroke-width:1.29821396;stroke-linecap:round;stroke-linejoin:round;stroke-miterlimit:4;stroke-opacity:1;stroke-dasharray:none"
       d="m 1152.6905,411.02141 c 4.4661,-15.15015 -55.511,-36.47072 -62.9862,-21.52049 -6.1392,12.27851 -2.8293,67.82518 -2.6244,68.23477 1.7956,3.59151 6.8269,12.07599 10.4977,15.74669 3.9248,3.92515 59.3262,8.90899 62.9861,5.24868 3.771,-3.77066 -6.79,8.87329 2.6243,-5.24868 1.7283,-2.59253 9.1254,-54.70349 2.6245,-57.73742 -3.7302,-1.74025 -18.7513,-6.70462 -23.6198,-7.87302 -0.8506,-0.20771 -3.4623,-0.25314 -2.6244,0 4.3085,1.29238 8.7481,2.09986 13.1222,3.14947"
       id="path7283"
       inkscape:connector-curvature="0" />
    <path
       style="fill:none;stroke:#999999;stroke-width:1.29821396;stroke-linecap:round;stroke-linejoin:round;stroke-miterlimit:4;stroke-opacity:1;stroke-dasharray:none"
       d="m 1185.1458,248.74467 c 16.3263,36.96339 6.2064,77.18986 9.5353,117.13654 3.7524,45.02856 1.7084,-10.20071 5.2489,39.3664 0.6763,9.46852 -2.6901,26.17848 2.6244,31.49272 6.9985,6.99867 -6.9984,34.9927 0,41.99073 11.5557,11.55605 38.6673,5.94063 47.5023,-2.79895"
       id="path7285"
       inkscape:connector-curvature="0" />
    <path
       style="fill:none;stroke:#999999;stroke-width:1.29821396;stroke-linecap:round;stroke-linejoin:round;stroke-miterlimit:4;stroke-opacity:1;stroke-dasharray:none"
       d="m 1314.9674,378.56607 c -15.8051,6.58843 -39.6053,-0.53876 -52.0512,5.68617 -9.6218,4.81053 -12.0611,70.35671 -7.873,78.73278 2.4152,4.8313 5.457,0.41543 7.873,5.24868 0.7822,1.565 -1.565,4.46651 0,5.24868 7.9963,3.9985 17.3733,2.62434 20.9953,2.62434 2.9152,0 16.5153,1.8558 18.3711,0 4.1613,-4.16142 9.4756,-4.22698 13.1223,-7.87302 3.7797,-3.7804 2.6243,-22.42794 2.6243,-28.86903 0,-1.58966 -1.3839,-22.92776 0,-23.61971 17.3175,-8.65909 -3.0618,-25.83121 -3.0618,-37.17889 0,-4.57816 6.9857,6.55273 8.3105,10.93485 0.6919,2.2894 -2.6244,31.06302 -2.6244,36.74205 0,6.90001 -1.6454,24.59921 2.6244,28.86839 1.2372,1.23719 4.0115,-1.2372 5.2487,0 4.8241,4.82416 9.7073,13.67408 18.8961,20.82075"
       id="path7287"
       inkscape:connector-curvature="0" />
    <path
       style="fill:none;stroke:#999999;stroke-width:1.29821396;stroke-linecap:round;stroke-linejoin:round;stroke-miterlimit:4;stroke-opacity:1;stroke-dasharray:none"
       d="m 1367.3685,249.2698 c -3.3832,10.17669 -8.8766,19.88214 -10.1482,30.53075 -0.7691,6.44368 7.8731,22.29682 7.8731,31.49271 0,54.11865 2.625,108.39762 2.625,162.71425 0,2.74896 -4.3114,-21.18361 0,-34.11772 7.1959,-21.58864 2.0122,-41.37861 15.746,-55.11242 1.8558,-1.8558 5.5259,1.17359 7.8736,0 4.5269,-2.26343 9.797,-4.28735 13.1217,-2.62434 3.3683,1.68378 -0.8016,7.28882 0,10.49735 0.7394,2.95734 6.0965,4.31916 7.8737,7.87367 1.3995,2.79896 -1.4001,7.69776 0,10.49736 8.6052,17.21043 10.9673,38.89644 0,49.86375 -2.1875,2.18749 -0.4349,8.31117 -2.6243,10.49801 -5.2558,5.25517 -22.7161,7.87302 -36.742,7.87302 -2.4894,0 -0.7543,-6.78901 -5.5986,-2.79895"
       id="path7271-8"
       inkscape:connector-curvature="0" />
    <path
       style="fill:none;stroke:#999999;stroke-width:1.29821396;stroke-linecap:round;stroke-linejoin:round;stroke-miterlimit:4;stroke-opacity:1;stroke-dasharray:none"
       d="m 1509.6995,378.56607 c -30.142,15.60647 -10.722,0.43489 -23.7073,0.43489 -30.2685,0 -34.1177,-2.25304 -34.1177,18.37038 0,2.71652 -1.5015,11.62097 0,13.12235 1.2371,1.2372 4.0114,-1.2372 5.2486,0 10.1975,10.19747 52.4887,1.36572 52.4887,34.11771 0,5.32138 1.1379,11.98381 -2.6243,15.74604 -2.5555,2.55553 -5.8335,-3.64409 -18.371,2.62499 -3.5468,1.77271 -21.8036,9.68986 -26.2441,5.24868 -2.6756,-2.67562 2.8898,-5.11627 -2.6249,-7.87367 -7.0253,-3.51232 -12.6817,-15.30595 -18.3704,-20.99537 -0.875,-0.87435 -3.1839,-3.72782 -2.625,-2.62434 1.3625,2.6899 4.0244,4.49117 6.0367,6.73644"
       id="path7311"
       inkscape:connector-curvature="0" />
    <path
       style="fill:#008000"
       d="m 1099.049,719.53022 c -2.1497,-0.99571 -2.7638,-0.45082 -3.6166,3.20712 -0.585,2.50927 -1.7978,0.75264 -1.5331,-2.22085 0.1162,-1.34159 -0.2434,-2.676 -0.8201,-3.02321 -0.8606,-0.51906 -0.441,-0.89248 2.5184,-2.24271 4.1581,-1.89683 7.8544,-2.46423 8.4716,-1.29994 0.3191,0.59826 -0.064,1.07321 -1.397,1.7304 -1.6687,0.82897 -1.8015,1.04918 -1.525,2.47524 0.4669,2.23674 0.1754,2.42358 -2.1246,1.35848 z m 7.1627,-9.77626 c -2.0031,-0.33023 -2.8384,-1.77464 -2.6914,-4.65001 0.1019,-1.98383 -0.2518,-3.12906 -1.1253,-3.64021 -1.3653,-0.79892 -7.6189,-2.01337 -8.7904,-1.7071 -0.3902,0.10104 -1.9545,2.48973 -3.4716,5.31131 -2.282,4.21784 -3.3371,5.55777 -6.0037,7.57354 -4.6944,3.55517 -4.1565,4.06232 4.1468,3.90916 2.3886,-0.0443 3.1189,0.11894 2.1511,0.4809 -0.808,0.30048 -3.388,0.43276 -5.7374,0.29182 -2.3488,-0.14065 -5.3955,0.10346 -6.7697,0.54262 -5.7402,1.83423 -11.4009,4.60776 -12.2042,5.97945 -0.5526,0.94354 -0.45,3.67652 0.2881,7.64904 0.632,3.39981 1.0325,6.38169 0.8902,6.62619 -0.4976,0.84958 1.6412,1.54791 3.8265,1.2472 2.272,-0.31273 5.5082,1.08083 5.5394,2.38528 0.01,0.40791 -1.2499,0.91386 -2.7985,1.12437 -2.488,0.33842 -2.8111,0.57157 -2.7731,2.00695 0.058,2.20105 -0.4703,2.93539 -1.6243,2.25968 -0.7971,-0.4668 -1.1431,-0.1045 -1.9959,2.08502 -0.7742,2.00307 -1.1813,2.47962 -1.642,1.9562 -0.6372,-0.72412 -0.6282,-1.04406 0.2653,-9.67164 0.5054,-4.8847 -1.2815,-16.17836 -2.6909,-17.00367 -1.291,-0.75606 -9.2202,2.604 -14.4165,6.10913 -6.5681,4.43099 -10.1754,7.90362 -15.2496,14.68367 -2.3048,3.075 -5.9679,6.75852 -10.6129,10.66455 -6.7509,5.67558 -12.9933,12.6985 -13.7817,15.50642 -0.1987,0.69893 -2.47,4.34622 -5.1428,8.0494 -4.06462,5.75897 -5.37293,7.15549 -8.69232,9.3003 -4.73873,3.0604 -5.39126,4.07317 -4.81247,7.45975 0.5764,3.36369 0.13142,4.05284 -2.14049,3.32101 -7.38733,-2.38185 -15.97892,-2.79345 -20.82875,-0.99868 -1.98792,0.73565 -3.8818,1.18094 -4.21004,0.98873 -0.35848,-0.20994 0.18895,-1.44013 1.35899,-3.05266 1.39893,-1.93922 3.74857,-3.72667 8.29174,-6.31314 4.6548,-2.64987 6.87792,-4.35619 8.37042,-6.42302 2.27287,-3.14894 3.55245,-3.3558 4.73773,-0.77101 1.29909,2.83348 2.68179,3.09794 6.37291,1.21885 l 3.45003,-1.75641 4.36155,-8.17987 c 2.4009,-4.49785 5.4475,-10.40651 6.7793,-13.12516 2.5277,-5.16393 3.2119,-5.95961 12.689,-14.83254 5.0001,-4.67811 8.658,-10.13803 9.7536,-14.55862 0.3301,-1.33429 1.1303,-3.32875 1.777,-4.43296 2.3984,-4.09547 2.5338,-7.11654 0.6261,-13.90107 -1.6628,-5.91181 -1.7429,-7.30598 -0.8081,-14.03508 0.5716,-4.10878 1.3474,-7.9987 1.7252,-8.64381 0.8994,-1.53578 0.1655,-1.89579 -2.2451,-1.10118 -2.47,0.81498 -5.0691,2.73047 -6.1058,4.50077 -1.049,1.79114 -0.7184,6.85768 0.7457,11.41837 0.9537,2.97127 0.9461,3.65345 -0.039,3.70928 -1.5141,0.0858 -8.0574,-2.84196 -11.0453,-4.942 -1.9718,-1.38556 -2.3726,-1.43466 -3.216,-0.37074 -0.527,0.66861 -0.8944,2.05379 -0.8109,3.08143 0.083,1.02721 -0.1322,2.35417 -0.4799,2.94786 -0.3476,0.59359 -0.3415,2.19132 0.014,3.55084 0.4869,1.86334 0.3679,2.61628 -0.4833,3.06013 -1.6153,0.84322 -6.9931,-2.06594 -9.86273,-5.33511 -1.28578,-1.46417 -2.66653,-2.65521 -3.06927,-2.64567 -1.15506,0.0276 -4.45793,6.84147 -4.69737,9.70371 -0.2137,2.52663 1.43092,7.13619 2.84016,7.96153 0.3865,0.22633 0.48968,0.77715 0.2283,1.22352 -0.69311,1.18345 -7.47408,-1.98591 -10.93451,-5.11071 -1.53973,-1.38987 -3.38038,-3.74701 -4.09086,-5.23749 -1.43114,-3.0024 -2.64341,-3.4437 -3.27164,-1.19159 -2.10655,7.54292 -2.39237,9.9898 -1.61797,13.82335 0.46379,2.29592 1.32174,4.95535 1.90632,5.9095 1.35345,2.20903 0.60046,3.5808 -1.34088,2.44384 -0.92144,-0.5396 -1.67692,-0.53144 -2.00056,0.0212 -0.81316,1.38852 -2.49597,-0.0512 -4.41683,-3.77933 -0.96819,-1.87901 -2.04382,-3.58235 -2.39,-3.78503 -0.34726,-0.20341 -1.41743,-3.08613 -2.38164,-6.40806 -0.96364,-3.32153 -2.17614,-7.16233 -2.69394,-8.53491 -3.94883,-10.47425 -6.49393,-34.56268 -4.83013,-45.72196 2.36207,-15.83893 5.10693,-23.79873 12.04279,-34.91126 2.74043,-4.39687 5.40925,-8.20907 5.92008,-8.47768 1.94322,-1.01252 1.68785,1.71886 -0.61352,6.57345 -3.1572,6.66274 -3.86607,14.3315 -1.70531,18.50279 2.49683,4.82034 2.81973,4.68896 4.65568,-1.88709 1.64334,-5.88631 12.4345,-23.20053 15.94373,-25.58079 1.29043,-0.87534 2.56016,-1.46617 2.82121,-1.31334 0.26327,0.15417 0.0129,1.46787 -0.55259,2.92162 -0.62817,1.61215 -0.82471,4.51924 -0.50429,7.45693 0.65506,6.00766 3.57906,18.13289 4.50384,18.67444 0.38093,0.22303 1.12744,1.28635 1.66283,2.36535 0.759,1.52856 2.5418,2.9414 8.0731,6.39763 7.8068,4.87808 12.4601,6.51693 17.2819,6.0866 1.4754,-0.13153 5.9719,-0.56134 9.993,-0.95508 6.9816,-0.68364 7.4156,-0.63097 9.6478,1.16916 l 2.3387,1.88565 2.6721,-1.92697 c 1.4704,-1.0593 4.5613,-3.80697 6.8685,-6.1062 l 4.1952,-4.1799 0.8801,-5.9458 c 1.0895,-7.35777 1.2193,-13.04879 0.4093,-17.8774 -0.3418,-2.03793 -0.5444,-5.029 -0.4507,-6.64698 0.2529,-4.34424 -2.4836,-15.25345 -4.867,-19.40307 -2.1915,-3.81564 -2.1534,-5.9191 0.1508,-8.26745 0.7547,-0.76193 1.1538,-1.84159 1.0096,-2.71294 -0.1349,-0.79725 0.3509,-2.56563 1.0689,-3.93566 4.8017,-9.16252 5.7863,-10.5612 10.2202,-14.55117 5.926,-5.33317 7.7398,-6.23889 13.308,-6.64773 3.8266,-0.28135 5.3974,-3.7e-4 8.9264,1.5957 4.2188,1.90807 4.3029,1.98944 5.5752,5.39525 2.8111,7.52182 0.173,11.2238 -14.9032,20.91786 -6.867,4.41583 -7.6012,5.07356 -9.5007,8.51109 -1.4481,2.61401 -2.168,4.96081 -2.4249,7.87335 -0.2006,2.28203 -0.5268,4.424 -0.7239,4.76064 -1.0479,1.78937 2.7335,24.51294 4.9192,29.56142 1.9719,4.55415 9.5878,16.3771 11.1327,17.28178 0.6514,0.38147 1.3636,1.55063 1.5821,2.59817 0.2185,1.04744 0.9578,2.78308 1.6419,3.85637 0.6842,1.0731 1.6291,3.02136 2.0994,4.32861 0.4709,1.30758 1.0768,2.5066 1.3463,2.66441 0.2688,0.15741 1.9584,-0.55279 3.7531,-1.579 1.7942,-1.02652 5.0676,-2.63539 7.2753,-3.57444 2.2068,-0.93972 5.0104,-2.69695 6.2301,-3.90506 2.1804,-2.15992 4.797,-3.46934 5.7811,-2.89296 0.8121,0.47564 -0.1922,1.64225 -1.8726,2.16993 -1.9409,0.61173 -1.9723,1.93952 -0.072,3.05218 1.9067,1.11662 1.2956,2.00464 -1.248,1.80992 -2.7843,-0.21276 -3.5868,0.72091 -2.2487,2.61954 0.616,0.87397 0.9106,1.94657 0.6551,2.38281 -0.7168,1.22392 -2.817,-0.39053 -2.8688,-2.20582 -0.022,-0.88751 -0.3269,-1.78183 -0.6704,-1.98292 -1.1191,-0.6554 -12.5884,4.58935 -13.5311,6.18749 -0.2381,0.40668 -0.2712,2.53365 -0.072,4.72876 0.1994,2.19503 0.1907,5.23724 -0.02,6.76006 -0.2081,1.52431 -0.058,3.1749 0.3393,3.67101 0.3946,0.49512 2.8594,1.37672 5.4732,1.95772 4.5192,1.00457 4.8999,0.95322 7.744,-1.03772 1.6444,-1.15224 3.2415,-2.52296 3.5482,-3.04673 0.7557,-1.2903 1.2386,-0.88197 1.6662,1.40906 0.4215,2.25771 0.2863,2.5902 -1.2136,2.98431 -0.8782,0.22803 -1.063,0.5436 -0.8322,1.42098 0.407,1.55798 -0.4269,2.77141 -1.48,2.15475 -1.1595,-0.67901 -4.4888,1.01513 -4.7162,2.40024 -0.1051,0.64184 0.5611,1.5274 1.6141,2.14411 1.8545,1.08613 1.8758,2.40356 0.034,2.09994 z m 8.8348,-58.25826 c -0.5966,0.15823 -1.9818,-0.23818 -3.0729,-0.87723 -1.0906,-0.63861 -2.9772,-1.21392 -4.1912,-1.27712 -2.1644,-0.11399 -2.2088,-0.17292 -2.2182,-2.93427 -0.01,-1.54997 0.2699,-3.29452 0.6109,-3.87673 0.341,-0.58231 0.3553,-1.89118 0.037,-2.90574 -0.9071,-2.87867 -0.6598,-4.61751 0.7303,-5.12238 1.7521,-0.63595 2.3529,-0.0217 1.4818,1.51463 -0.4291,0.7327 -0.6731,2.0741 -0.5685,2.96553 0.1601,1.35289 0.4191,1.58477 1.5611,1.39714 0.7501,-0.12483 1.3671,-0.0853 1.3657,0.0853 -0.023,2.9969 -0.2161,4.06959 -0.9605,5.34074 -0.8331,1.42258 -0.7338,1.57425 1.553,2.44112 1.3417,0.50893 2.9542,1.06431 3.5828,1.23458 1.4575,0.39476 1.5118,1.64173 0.089,2.01423 z m -11.4458,-0.0656 c 0.082,-0.5259 2.3785,-2.50098 2.6909,-2.58219 0.3112,-0.0818 -1.7311,1.82566 -2.1247,2.43342 -0.46,0.65686 -3.4975,2.44774 -3.4103,1.86458 z m -5.0704,4.83281 c -1.1099,0.88071 -4.4314,5.70311 -4.1555,5.20875 0.2861,-0.48842 3.9858,-5.98389 5.001,-6.70138 2.386,-1.67354 1.7788,-0.60078 -0.8108,1.513 z m -6.6648,7.82511 c -0.9278,0.87785 -5.4968,6.26608 -5.6541,6.17388 -0.4594,-0.26895 7.0192,-9.47336 7.9495,-9.75942 1.0821,-0.33217 -0.077,1.47725 -2.2954,3.58554 z m 10.0644,-92.5609 c -2.6703,0.36709 -3.4929,0.0378 -2.811,-1.12654 0.2706,-0.46208 0.5982,-1.43261 0.7291,-2.1571 0.2346,-1.27405 0.2571,-1.26097 0.8385,0.49106 0.4827,1.45059 0.92,1.81882 2.2211,1.86936 2.241,0.0858 1.7518,0.54751 -0.9778,0.92467 z"
       id="path7012-4-4"
       inkscape:connector-curvature="0"
       sodipodi:nodetypes="ccccccccccccccccccccsccscssscccsssscccsscsccscccccsssscscsccsccssccccsssccccsscscsccccsccssssssssscccccccccccccsssccssssccssccscsscscsccccscscccscscccsccsscccccscsccccccccsccscccsccccc" />
    <path
       style="fill:none;stroke:#000000;stroke-width:1.29821396;stroke-linecap:round;stroke-linejoin:round;stroke-miterlimit:4;stroke-opacity:1;stroke-dasharray:none"
       d="m 493.53592,571.74467 c -3.38267,10.1767 -8.87633,19.88214 -10.14782,30.53074 -0.76942,6.44369 7.87327,22.29683 7.87327,31.49273 0,54.11865 2.62436,108.39762 2.62436,162.71424 0,2.74897 -4.31122,-21.18361 0,-34.11771 7.19633,-21.58865 2.01237,-41.37862 15.74661,-55.11243 1.85574,-1.85579 5.5259,1.17359 7.87327,0 4.52695,-2.26344 9.797,-4.28735 13.12206,-2.62434 3.36793,1.68378 -0.80207,7.28882 0,10.49736 0.73926,2.95733 6.09614,4.31916 7.87327,7.87367 1.39971,2.79895 -1.39972,7.69776 0,10.49736 8.6052,17.21041 10.96779,38.89643 0,49.86375 -2.18704,2.18748 -0.43745,8.31116 -2.62443,10.498 -5.25531,5.25517 -22.7159,7.87302 -36.74186,7.87302 -2.48907,0 -0.75408,-6.78901 -5.59873,-2.79895"
       id="path7271-84"
       inkscape:connector-curvature="0" />
    <path
       style="fill:none;stroke:#000000;stroke-width:1.29821396;stroke-linecap:round;stroke-linejoin:round;stroke-miterlimit:4;stroke-opacity:1;stroke-dasharray:none"
       d="m 590.90191,701.56607 c -17.24278,24.79718 -10.41019,46.04115 -10.41019,73.92094 0,6.12368 6.12368,18.37103 0,18.37103 -3.09553,0 2.38433,-33.63737 2.62436,-34.11771 2.16314,-4.3263 -3.33529,-17.65961 0,-20.99537 3.59106,-3.59086 7.53308,-13.58386 10.49769,-20.99536 4.19195,-10.47983 18.48506,-15.37994 29.7435,-16.18353"
       id="path7273-6"
       inkscape:connector-curvature="0" />
    <path
       style="fill:none;stroke:#000000;stroke-width:1.29821396;stroke-linecap:round;stroke-linejoin:round;stroke-miterlimit:4;stroke-opacity:1;stroke-dasharray:none"
       d="m 688.26797,701.56607 c 0.45051,9.67039 -25.70528,-2.90086 -31.66802,3.06183 -2.67545,2.67497 2.88982,5.11561 -2.62449,7.87302 -3.62001,1.81036 -2.34745,-3.17803 -5.24878,2.62434 -3.1201,6.24051 -4.72404,66.66004 -2.62443,70.85976 4.5781,9.15566 60.84995,14.19013 68.23496,10.49736 2.87535,-1.43777 2.62442,-69.015 2.62442,-78.73278 0,-6.8312 -15.21001,0.88019 -20.99539,-5.24868 -3.05999,-3.24164 -5.13213,-7.29012 -7.69827,-10.93485"
       id="path7275-0"
       inkscape:connector-curvature="0" />
    <path
       style="fill:none;stroke:#000000;stroke-width:1.29821396;stroke-linecap:round;stroke-linejoin:round;stroke-miterlimit:4;stroke-opacity:1;stroke-dasharray:none"
       d="m 753.17868,701.56607 c -12.74909,21.27253 -7.34839,79.37149 -7.34839,84.41895 0,5.24868 0,-10.49801 0,-15.74669 0,-13.48259 -1.2941,-27.61106 2.62436,-39.36639 1.03846,-3.11506 3.58615,-28.73726 4.72403,-29.30587 5.13886,-2.56982 10.5259,5.68617 16.27136,5.68617 8.17926,0 14.07484,-6.92078 18.37098,-2.62434 3.15416,3.15401 -0.52966,9.96769 2.62443,13.1217 5.24477,5.24478 -3.41034,27.2969 0,34.11771 6.27377,12.54724 5.24887,34.36826 5.24887,41.99073 0,3.49934 3.3711,11.43597 0,10.49736 -3.67032,-1.02105 -6.70688,-3.61552 -10.06027,-5.42329"
       id="path7277-2"
       inkscape:connector-curvature="0" />
    <path
       style="fill:none;stroke:#000000;stroke-width:1.29821396;stroke-linecap:round;stroke-linejoin:round;stroke-miterlimit:4;stroke-opacity:1;stroke-dasharray:none"
       d="m 818.08937,571.74467 c 3.0326,3.17803 7.2813,5.53559 9.0979,9.53538 5.5099,12.13246 0,137.52889 0,167.96292 0,5.94777 -3.3052,30.81181 0,34.11707 4.5142,4.51453 14.1409,7.87366 15.7467,7.87366 3.1541,0 7.3071,-8.35206 7.8732,-5.24868 0.7747,4.24646 -0.1746,8.63118 -0.2622,12.94709"
       id="path7279-1"
       inkscape:connector-curvature="0" />
    <path
       style="fill:none;stroke:#000000;stroke-width:1.29821396;stroke-linecap:round;stroke-linejoin:round;stroke-miterlimit:4;stroke-opacity:1;stroke-dasharray:none"
       d="m 785.63405,669.11071 c 20.81807,-1.63899 41.69162,-1.22486 62.54872,-1.22486 4.3741,0 17.4474,-0.65105 13.1221,0 -3.5696,0.53876 -7.1734,0.81658 -10.7601,1.22486"
       id="path7281-6"
       inkscape:connector-curvature="0" />
    <path
       style="fill:none;stroke:#000000;stroke-width:1.29821396;stroke-linecap:round;stroke-linejoin:round;stroke-miterlimit:4;stroke-opacity:1;stroke-dasharray:none"
       d="m 947.91087,734.02141 c 4.4661,-15.15015 -55.511,-36.47072 -62.9862,-21.52049 -6.1392,12.27851 -2.8293,67.82518 -2.6244,68.23477 1.7956,3.59151 6.8269,12.07599 10.4977,15.74669 3.9248,3.92515 59.3262,8.90899 62.9861,5.24868 3.771,-3.77066 -6.79,8.87329 2.6243,-5.24868 1.7283,-2.59253 9.1254,-54.70349 2.6245,-57.73742 -3.7302,-1.74025 -18.7513,-6.70462 -23.6198,-7.87302 -0.8506,-0.20771 -3.4623,-0.25314 -2.6244,0 4.3085,1.29238 8.7481,2.09986 13.1222,3.14947"
       id="path7283-5"
       inkscape:connector-curvature="0" />
    <path
       style="fill:none;stroke:#999999;stroke-width:1.29821396;stroke-linecap:round;stroke-linejoin:round;stroke-miterlimit:4;stroke-opacity:1;stroke-dasharray:none"
       d="m 1112.0329,566.74467 c 16.3263,36.96339 6.2064,77.18986 9.5353,117.13654 3.7524,45.02856 1.7084,-10.20071 5.2489,39.3664 0.6763,9.46852 -2.6901,26.17848 2.6244,31.49272 6.9985,6.99867 -6.9984,34.9927 0,41.99073 11.5557,11.55605 38.6673,5.94063 47.5022,-2.79895"
       id="path7285-6"
       inkscape:connector-curvature="0" />
    <path
       style="fill:none;stroke:#999999;stroke-width:1.29821396;stroke-linecap:round;stroke-linejoin:round;stroke-miterlimit:4;stroke-opacity:1;stroke-dasharray:none"
       d="m 1241.8544,696.56607 c -15.8051,6.58843 -39.6053,-0.53876 -52.0512,5.68617 -9.6218,4.81053 -12.0611,70.35671 -7.873,78.73278 2.4152,4.8313 5.457,0.41543 7.873,5.24868 0.7822,1.565 -1.565,4.46651 0,5.24868 7.9963,3.9985 17.3733,2.62434 20.9953,2.62434 2.9152,0 16.5153,1.8558 18.3711,0 4.1613,-4.16142 9.4756,-4.22698 13.1223,-7.87302 3.7797,-3.7804 2.6243,-22.42794 2.6243,-28.86903 0,-1.58966 -1.3839,-22.92776 0,-23.61971 17.3175,-8.65909 -3.0618,-25.83121 -3.0618,-37.17889 0,-4.57816 6.9857,6.55273 8.3105,10.93485 0.6919,2.2894 -2.6244,31.06302 -2.6244,36.74205 0,6.90001 -1.6454,24.59921 2.6244,28.86839 1.2372,1.23719 4.0115,-1.2372 5.2487,0 4.8241,4.82416 9.7073,13.67408 18.8961,20.82075"
       id="path7287-7"
       inkscape:connector-curvature="0" />
    <path
       style="fill:none;stroke:#999999;stroke-width:1.29821396;stroke-linecap:round;stroke-linejoin:round;stroke-miterlimit:4;stroke-opacity:1;stroke-dasharray:none"
       d="m 1294.2555,567.2698 c -3.3832,10.17669 -8.8766,19.88214 -10.1482,30.53075 -0.7691,6.44368 7.8731,22.29682 7.8731,31.49271 0,54.11865 2.625,108.39762 2.625,162.71425 0,2.74896 -4.3114,-21.18361 0,-34.11772 7.1959,-21.58864 2.0122,-41.37861 15.7459,-55.11242 1.8558,-1.8558 5.5259,1.17359 7.8736,0 4.5269,-2.26343 9.797,-4.28735 13.1217,-2.62434 3.3683,1.68378 -0.8016,7.28882 0,10.49735 0.7394,2.95734 6.0965,4.31916 7.8737,7.87367 1.3995,2.79896 -1.4001,7.69776 0,10.49736 8.6052,17.21043 10.9673,38.89644 0,49.86375 -2.1875,2.18749 -0.4349,8.31117 -2.6243,10.49801 -5.2558,5.25517 -22.7161,7.87302 -36.7419,7.87302 -2.4894,0 -0.7543,-6.78901 -5.5986,-2.79895"
       id="path7271-8-1"
       inkscape:connector-curvature="0" />
    <path
       style="fill:none;stroke:#999999;stroke-width:1.29821396;stroke-linecap:round;stroke-linejoin:round;stroke-miterlimit:4;stroke-opacity:1;stroke-dasharray:none"
       d="m 1436.5864,696.56607 c -30.142,15.60647 -10.722,0.43489 -23.7073,0.43489 -30.2685,0 -34.1177,-2.25304 -34.1177,18.37038 0,2.71652 -1.5015,11.62097 0,13.12235 1.2371,1.2372 4.0114,-1.2372 5.2486,0 10.1975,10.19747 52.4887,1.36572 52.4887,34.11771 0,5.32138 1.1379,11.98381 -2.6243,15.74604 -2.5555,2.55553 -5.8335,-3.64409 -18.371,2.62499 -3.5468,1.77271 -21.8036,9.68986 -26.2441,5.24868 -2.6756,-2.67562 2.8898,-5.11627 -2.6249,-7.87367 -7.0253,-3.51232 -12.6817,-15.30595 -18.3704,-20.99537 -0.875,-0.87435 -3.1839,-3.72782 -2.625,-2.62434 1.3625,2.6899 4.0244,4.49117 6.0367,6.73644"
       id="path7311-2"
       inkscape:connector-curvature="0" />
  </g>
</svg>
