<?xml version="1.0" encoding="UTF-8" standalone="no"?>
<!-- Created with Inkscape (http://www.inkscape.org/) -->

<svg
   xmlns:dc="http://purl.org/dc/elements/1.1/"
   xmlns:cc="http://creativecommons.org/ns#"
   xmlns:rdf="http://www.w3.org/1999/02/22-rdf-syntax-ns#"
   xmlns:svg="http://www.w3.org/2000/svg"
   xmlns="http://www.w3.org/2000/svg"
   xmlns:sodipodi="http://sodipodi.sourceforge.net/DTD/sodipodi-0.dtd"
   xmlns:inkscape="http://www.inkscape.org/namespaces/inkscape"
   width="1920px"
   height="1080px"
   id="svg4009"
   version="1.1"
   inkscape:version="0.48.5 r10040"
   sodipodi:docname="New document 11">
  <defs
     id="defs4011" />
  <sodipodi:namedview
     id="base"
     pagecolor="#ffffff"
     bordercolor="#666666"
     borderopacity="1.0"
     inkscape:pageopacity="0.0"
     inkscape:pageshadow="2"
     inkscape:zoom="0.3"
     inkscape:cx="566.66667"
     inkscape:cy="540"
     inkscape:document-units="px"
     inkscape:current-layer="layer1"
     showgrid="false"
     inkscape:window-width="1693"
     inkscape:window-height="712"
     inkscape:window-x="0"
     inkscape:window-y="261"
     inkscape:window-maximized="0" />
  <metadata
     id="metadata4014">
    <rdf:RDF>
      <cc:Work
         rdf:about="">
        <dc:format>image/svg+xml</dc:format>
        <dc:type
           rdf:resource="http://purl.org/dc/dcmitype/StillImage" />
        <dc:title></dc:title>
      </cc:Work>
    </rdf:RDF>
  </metadata>
  <g
     id="layer1"
     inkscape:label="Layer 1"
     inkscape:groupmode="layer">
    <path
       style="fill:#000000;fill-opacity:1;stroke:none"
       d="m 771.64203,446.10271 -112.6767,0 0,112.67675 75.1178,0 0,37.55891 -75.1178,0 0,37.55891 112.6767,0 0,-112.67674 -75.1178,0 0,-37.55892 75.1178,0 z"
       id="path3005-6-0"
       inkscape:connector-curvature="0" />
    <path
       style="fill:#000000;fill-opacity:1;stroke:none"
       d="m 508.72963,446.10271 112.6768,0 0,187.79458 -37.559,0 0,-150.23567 -37.5589,0 0,150.23567 -37.5589,0 z"
       id="path3007-5-2"
       inkscape:connector-curvature="0" />
    <path
       style="fill:#000000;fill-opacity:1;stroke:none"
       d="m 358.49403,446.10271 0,187.79458 112.6767,0 0,-187.79458 -37.5589,0 0,150.23566 -37.5589,0 0,-150.23566 z"
       id="path3009-4-7"
       inkscape:connector-curvature="0" />
    <path
       style="fill:#000000;fill-opacity:1;stroke:none"
       d="m 208.25833,446.10271 0,187.79458 112.67674,0 0,-112.67675 -75.11783,0 0,-75.11783 z"
       id="path3011-1-0"
       inkscape:connector-curvature="0" />
    <path
       style="fill:#000000;fill-opacity:1;stroke:none"
       d="m 809.20093,446.10271 0,187.79458 112.6768,0 0,-37.55892 -75.1179,0 0,-37.55891 37.559,0 0,-37.55892 -37.559,0 0,-37.55892 75.1179,0 0,-37.55891 z"
       id="path3013-0-1"
       inkscape:connector-curvature="0" />
    <path
       style="fill:#000000;fill-opacity:1;stroke:none"
       d="m 959.43663,446.10271 0,187.79458 37.5589,0 0,-150.23567 37.55887,0 0,150.23567 37.5589,0 0,-187.79458 z"
       id="path3015-6-9"
       inkscape:connector-curvature="0" />
    <path
       style="fill:#ffffff;fill-opacity:1;stroke:none"
       d="m 245.81724,558.77946 0,37.55891 37.55892,0 0,-37.55891 z"
       id="path3025-8-4"
       inkscape:connector-curvature="0" />
    <path
       style="fill:none;stroke:#000000;stroke-width:2.25353503;stroke-linecap:butt;stroke-linejoin:miter;stroke-miterlimit:4;stroke-opacity:1;stroke-dasharray:none;stroke-dashoffset:0.01"
       d="m 1147.2312,446.10271 0,187.79458 112.6767,0 0,-37.55892 -75.1178,0 0,-150.23566 z"
       id="path3021-1"
       inkscape:connector-curvature="0" />
    <path
       style="fill:none;stroke:#000000;stroke-width:2.25353503;stroke-linecap:butt;stroke-linejoin:miter;stroke-miterlimit:4;stroke-opacity:1;stroke-dasharray:none;stroke-dashoffset:0.01"
       d="m 1297.4668,633.89729 0,-187.79458 112.6768,0 0,187.79458 -37.559,0 0,-75.11783 -37.5589,0 0,75.11783 z"
       id="path3023-8"
       inkscape:connector-curvature="0" />
    <path
       style="fill:none;stroke:#000000;stroke-width:2.25353503;stroke-linecap:butt;stroke-linejoin:miter;stroke-miterlimit:4;stroke-opacity:1;stroke-dasharray:none;stroke-dashoffset:0.01"
       d="m 1335.0257,483.66162 0,37.55892 37.5589,0 0,-37.55892 z"
       id="path3027-1"
       inkscape:connector-curvature="0" />
    <path
       style="fill:none;stroke:#000000;stroke-width:2.25353503;stroke-linecap:butt;stroke-linejoin:miter;stroke-miterlimit:4;stroke-opacity:1;stroke-dasharray:none;stroke-dashoffset:0.01"
       d="m 1447.7025,446.10271 0,187.79458 112.6767,0 0,-112.67675 -75.1178,0 0,-75.11783 z"
       id="path3011-0-8"
       inkscape:connector-curvature="0" />
    <path
       style="fill:none;stroke:#000000;stroke-width:2.25353503;stroke-linecap:butt;stroke-linejoin:miter;stroke-miterlimit:4;stroke-opacity:1;stroke-dasharray:none;stroke-dashoffset:0.01"
       d="m 1485.2614,558.77946 0,37.55891 37.5589,0 0,-37.55891 z"
       id="path3025-4-0"
       inkscape:connector-curvature="0" />
    <path
       style="fill:none;stroke:#000000;stroke-width:2.25353503;stroke-linecap:butt;stroke-linejoin:miter;stroke-miterlimit:4;stroke-opacity:1;stroke-dasharray:none;stroke-dashoffset:0.01"
       d="m 1710.6149,446.10271 -112.6768,0 0,112.67675 75.1179,0 0,37.55891 -75.1179,0 0,37.55891 112.6768,0 0,-112.67674 -75.1179,0 0,-37.55892 75.1179,0 z"
       id="path3005-5-3"
       inkscape:connector-curvature="0" />
  </g>
</svg>
