<?xml version="1.0" encoding="UTF-8" standalone="no"?>
<!-- Created with Inkscape (http://www.inkscape.org/) -->

<svg
   xmlns:osb="http://www.openswatchbook.org/uri/2009/osb"
   xmlns:dc="http://purl.org/dc/elements/1.1/"
   xmlns:cc="http://creativecommons.org/ns#"
   xmlns:rdf="http://www.w3.org/1999/02/22-rdf-syntax-ns#"
   xmlns:svg="http://www.w3.org/2000/svg"
   xmlns="http://www.w3.org/2000/svg"
   xmlns:xlink="http://www.w3.org/1999/xlink"
   xmlns:sodipodi="http://sodipodi.sourceforge.net/DTD/sodipodi-0.dtd"
   xmlns:inkscape="http://www.inkscape.org/namespaces/inkscape"
   width="744.09448819"
   height="1052.3622047"
   id="svg2"
   version="1.1"
   inkscape:version="0.48.5 r10040"
   sodipodi:docname="bunsenLabs.svg">
  <defs
     id="defs4">
    <linearGradient
       id="linearGradient5500"
       osb:paint="solid">
      <stop
         style="stop-color:#4f0000;stop-opacity:1;"
         offset="0"
         id="stop5502" />
    </linearGradient>
    <linearGradient
       inkscape:collect="always"
       xlink:href="#linearGradient5500"
       id="linearGradient5504"
       x1="140"
       y1="499.86218"
       x2="155"
       y2="499.86218"
       gradientUnits="userSpaceOnUse"
       gradientTransform="translate(0,50.000006)" />
    <linearGradient
       inkscape:collect="always"
       xlink:href="#linearGradient5500"
       id="linearGradient5506"
       x1="120"
       y1="499.86218"
       x2="135"
       y2="499.86218"
       gradientUnits="userSpaceOnUse"
       gradientTransform="translate(0,50.000006)" />
    <linearGradient
       inkscape:collect="always"
       xlink:href="#linearGradient5500"
       id="linearGradient5508"
       x1="100"
       y1="499.86218"
       x2="115"
       y2="499.86218"
       gradientUnits="userSpaceOnUse"
       gradientTransform="translate(0,50.000006)" />
    <linearGradient
       inkscape:collect="always"
       xlink:href="#linearGradient5500"
       id="linearGradient5510"
       x1="80"
       y1="499.86218"
       x2="95"
       y2="499.86218"
       gradientUnits="userSpaceOnUse"
       gradientTransform="translate(0,50.000006)" />
    <linearGradient
       inkscape:collect="always"
       xlink:href="#linearGradient5500"
       id="linearGradient5512"
       x1="60"
       y1="499.86218"
       x2="75"
       y2="499.86218"
       gradientUnits="userSpaceOnUse"
       gradientTransform="translate(0,50.000006)" />
    <linearGradient
       inkscape:collect="always"
       xlink:href="#linearGradient5500"
       id="linearGradient5514"
       x1="40"
       y1="499.86218"
       x2="55"
       y2="499.86218"
       gradientUnits="userSpaceOnUse"
       gradientTransform="translate(0,50.000006)" />
    <linearGradient
       inkscape:collect="always"
       xlink:href="#linearGradient5500-1"
       id="linearGradient5514-1"
       x1="40"
       y1="499.86218"
       x2="55"
       y2="499.86218"
       gradientUnits="userSpaceOnUse" />
    <linearGradient
       id="linearGradient5500-1"
       osb:paint="solid">
      <stop
         style="stop-color:#4f0000;stop-opacity:1;"
         offset="0"
         id="stop5502-9" />
    </linearGradient>
    <linearGradient
       gradientTransform="translate(10,95.000015)"
       y2="499.86218"
       x2="55"
       y1="499.86218"
       x1="40"
       gradientUnits="userSpaceOnUse"
       id="linearGradient5531"
       xlink:href="#linearGradient5500-1"
       inkscape:collect="always" />
    <linearGradient
       gradientTransform="translate(0,145.00001)"
       inkscape:collect="always"
       xlink:href="#linearGradient5500-6"
       id="linearGradient5504-8"
       x1="140"
       y1="499.86218"
       x2="155"
       y2="499.86218"
       gradientUnits="userSpaceOnUse" />
    <linearGradient
       id="linearGradient5500-6"
       osb:paint="solid">
      <stop
         style="stop-color:#4f0000;stop-opacity:1;"
         offset="0"
         id="stop5502-3" />
    </linearGradient>
    <linearGradient
       gradientTransform="translate(0,145.00001)"
       inkscape:collect="always"
       xlink:href="#linearGradient5500-6"
       id="linearGradient5506-7"
       x1="120"
       y1="499.86218"
       x2="135"
       y2="499.86218"
       gradientUnits="userSpaceOnUse" />
    <linearGradient
       id="linearGradient5582"
       osb:paint="solid">
      <stop
         style="stop-color:#4f0000;stop-opacity:1;"
         offset="0"
         id="stop5584" />
    </linearGradient>
    <linearGradient
       gradientTransform="translate(0,145.00001)"
       inkscape:collect="always"
       xlink:href="#linearGradient5500-6"
       id="linearGradient5514-7"
       x1="40"
       y1="499.86218"
       x2="55"
       y2="499.86218"
       gradientUnits="userSpaceOnUse" />
    <linearGradient
       id="linearGradient5587"
       osb:paint="solid">
      <stop
         style="stop-color:#4f0000;stop-opacity:1;"
         offset="0"
         id="stop5589" />
    </linearGradient>
    <linearGradient
       gradientTransform="translate(0,145.00001)"
       inkscape:collect="always"
       xlink:href="#linearGradient5500-6"
       id="linearGradient5512-3"
       x1="60"
       y1="499.86218"
       x2="75"
       y2="499.86218"
       gradientUnits="userSpaceOnUse" />
    <linearGradient
       id="linearGradient5592"
       osb:paint="solid">
      <stop
         style="stop-color:#4f0000;stop-opacity:1;"
         offset="0"
         id="stop5594" />
    </linearGradient>
    <linearGradient
       gradientTransform="translate(0,145.00001)"
       inkscape:collect="always"
       xlink:href="#linearGradient5500-6"
       id="linearGradient5510-9"
       x1="80"
       y1="499.86218"
       x2="95"
       y2="499.86218"
       gradientUnits="userSpaceOnUse" />
    <linearGradient
       id="linearGradient5597"
       osb:paint="solid">
      <stop
         style="stop-color:#4f0000;stop-opacity:1;"
         offset="0"
         id="stop5599" />
    </linearGradient>
    <linearGradient
       inkscape:collect="always"
       xlink:href="#linearGradient5500-6"
       id="linearGradient5508-4"
       x1="100"
       y1="499.86218"
       x2="115"
       y2="499.86218"
       gradientUnits="userSpaceOnUse" />
    <linearGradient
       id="linearGradient5602"
       osb:paint="solid">
      <stop
         style="stop-color:#4f0000;stop-opacity:1;"
         offset="0"
         id="stop5604" />
    </linearGradient>
    <linearGradient
       gradientTransform="translate(0,145.00001)"
       y2="499.86218"
       x2="115"
       y1="499.86218"
       x1="100"
       gradientUnits="userSpaceOnUse"
       id="linearGradient5619"
       xlink:href="#linearGradient5500-6"
       inkscape:collect="always" />
    <linearGradient
       gradientTransform="translate(10,85.000012)"
       y2="499.86218"
       x2="55"
       y1="499.86218"
       x1="40"
       gradientUnits="userSpaceOnUse"
       id="linearGradient5531-3"
       xlink:href="#linearGradient5500-1-6"
       inkscape:collect="always" />
    <linearGradient
       id="linearGradient5500-1-6"
       osb:paint="solid">
      <stop
         style="stop-color:#000000;stop-opacity:1;"
         offset="0"
         id="stop5502-9-6" />
    </linearGradient>
    <linearGradient
       y2="499.86218"
       x2="55"
       y1="499.86218"
       x1="40"
       gradientTransform="translate(0,2.0834374e-5)"
       gradientUnits="userSpaceOnUse"
       id="linearGradient5706"
       xlink:href="#linearGradient5500-1-6"
       inkscape:collect="always" />
    <linearGradient
       gradientTransform="translate(10,95.000015)"
       y2="499.86218"
       x2="55"
       y1="499.86218"
       x1="40"
       gradientUnits="userSpaceOnUse"
       id="linearGradient5531-9"
       xlink:href="#linearGradient5500-1-0"
       inkscape:collect="always" />
    <linearGradient
       id="linearGradient5500-1-0"
       osb:paint="solid">
      <stop
         style="stop-color:#4f0000;stop-opacity:1;"
         offset="0"
         id="stop5502-9-2" />
    </linearGradient>
    <linearGradient
       y2="499.86218"
       x2="55"
       y1="499.86218"
       x1="40"
       gradientTransform="translate(0,90.000026)"
       gradientUnits="userSpaceOnUse"
       id="linearGradient5743"
       xlink:href="#linearGradient5500-1-0"
       inkscape:collect="always" />
  </defs>
  <sodipodi:namedview
     id="base"
     pagecolor="#ffffff"
     bordercolor="#666666"
     borderopacity="1.0"
     inkscape:pageopacity="0.0"
     inkscape:pageshadow="2"
     inkscape:zoom="3.4978216"
     inkscape:cx="163.13963"
     inkscape:cy="528.30978"
     inkscape:document-units="px"
     inkscape:current-layer="layer1"
     showgrid="true"
     inkscape:window-width="1605"
     inkscape:window-height="869"
     inkscape:window-x="245"
     inkscape:window-y="0"
     inkscape:window-maximized="0">
    <inkscape:grid
       type="xygrid"
       id="grid2989" />
  </sodipodi:namedview>
  <metadata
     id="metadata7">
    <rdf:RDF>
      <cc:Work
         rdf:about="">
        <dc:format>image/svg+xml</dc:format>
        <dc:type
           rdf:resource="http://purl.org/dc/dcmitype/StillImage" />
        <dc:title />
      </cc:Work>
    </rdf:RDF>
  </metadata>
  <g
     inkscape:groupmode="layer"
     id="layer2"
     inkscape:label="back"
     sodipodi:insensitive="true">
    <rect
       style="fill:#666666;stroke-width:0.30000001;stroke-miterlimit:4;stroke-dasharray:none"
       id="rect3088"
       width="800"
       height="1100"
       x="-20"
       y="-27.637817" />
  </g>
  <g
     inkscape:label="logos"
     inkscape:groupmode="layer"
     id="layer1">
    <path
       style="fill:none;stroke:#000000;stroke-width:0.30000001;stroke-linecap:butt;stroke-linejoin:miter;stroke-miterlimit:4;stroke-opacity:1;stroke-dasharray:none;stroke-dashoffset:0.01"
       d="m 115,52.362183 -15,0 0,15 10,0 0,5 -10,0 0,5 15,0 0,-15 -10,0 0,-5 10,0 z"
       id="path3005"
       inkscape:connector-curvature="0" />
    <path
       style="fill:none;stroke:#000000;stroke-width:0.30000001;stroke-linecap:butt;stroke-linejoin:miter;stroke-miterlimit:4;stroke-opacity:1;stroke-dasharray:none;stroke-dashoffset:0.01"
       d="m 80,52.362183 15,0 0,25 -5,0 0,-20 -5,0 0,20 -5,0 z"
       id="path3007"
       inkscape:connector-curvature="0" />
    <path
       style="fill:none;stroke:#000000;stroke-width:0.30000001;stroke-linecap:butt;stroke-linejoin:miter;stroke-miterlimit:4;stroke-opacity:1;stroke-dasharray:none;stroke-dashoffset:0.01"
       d="m 60,52.362183 0,25 15,0 0,-25 -5,0 0,20 -5,0 0,-20 z"
       id="path3009"
       inkscape:connector-curvature="0" />
    <path
       style="fill:none;stroke:#000000;stroke-width:0.30000001;stroke-linecap:butt;stroke-linejoin:miter;stroke-miterlimit:4;stroke-opacity:1;stroke-dasharray:none;stroke-dashoffset:0.01"
       d="m 40,52.362183 0,25 15,0 0,-15 -10,0 0,-10 z"
       id="path3011"
       inkscape:connector-curvature="0" />
    <path
       style="fill:none;stroke:#000000;stroke-width:0.30000001;stroke-linecap:butt;stroke-linejoin:miter;stroke-miterlimit:4;stroke-opacity:1;stroke-dasharray:none;stroke-dashoffset:0.01"
       d="m 120,52.362183 0,25 15,0 0,-5 -10,0 0,-5 5,0 0,-5 -5,0 0,-5 10,0 0,-5 z"
       id="path3013"
       inkscape:connector-curvature="0" />
    <path
       style="fill:none;stroke:#000000;stroke-width:0.30000001;stroke-linecap:butt;stroke-linejoin:miter;stroke-miterlimit:4;stroke-opacity:1;stroke-dasharray:none;stroke-dashoffset:0.01"
       d="m 140,52.362183 0,25 5,0 0,-20 5,0 0,20 5,0 0,-25 z"
       id="path3015"
       inkscape:connector-curvature="0" />
    <path
       style="fill:none;stroke:#000000;stroke-width:0.30000001;stroke-linecap:butt;stroke-linejoin:miter;stroke-miterlimit:4;stroke-opacity:1;stroke-dasharray:none;stroke-dashoffset:0.01"
       d="m 165,52.362183 0,25 15,0 0,-5 -10,0 0,-20 z"
       id="path3021"
       inkscape:connector-curvature="0" />
    <path
       style="fill:none;stroke:#000000;stroke-width:0.30000001;stroke-linecap:butt;stroke-linejoin:miter;stroke-miterlimit:4;stroke-opacity:1;stroke-dasharray:none;stroke-dashoffset:0.01"
       d="m 185,77.362183 0,-25 15,0 0,25 -5,0 0,-10 -5,0 0,10 z"
       id="path3023"
       inkscape:connector-curvature="0" />
    <path
       style="fill:none;stroke:#000000;stroke-width:0.30000001;stroke-linecap:butt;stroke-linejoin:miter;stroke-miterlimit:4;stroke-opacity:1;stroke-dasharray:none;stroke-dashoffset:0.01"
       d="m 45,67.362183 0,5 5,0 0,-5 z"
       id="path3025"
       inkscape:connector-curvature="0" />
    <path
       style="fill:none;stroke:#000000;stroke-width:0.30000001;stroke-linecap:butt;stroke-linejoin:miter;stroke-miterlimit:4;stroke-opacity:1;stroke-dasharray:none;stroke-dashoffset:0.01"
       d="m 190,57.362183 0,5 5,0 0,-5 z"
       id="path3027"
       inkscape:connector-curvature="0" />
    <path
       style="fill:none;stroke:#000000;stroke-width:0.30000001;stroke-linecap:butt;stroke-linejoin:miter;stroke-miterlimit:4;stroke-opacity:1;stroke-dasharray:none;stroke-dashoffset:0.01"
       d="m 205,52.362183 0,25 15,0 0,-15 -10,0 0,-10 z"
       id="path3011-0"
       inkscape:connector-curvature="0" />
    <path
       style="fill:none;stroke:#000000;stroke-width:0.30000001;stroke-linecap:butt;stroke-linejoin:miter;stroke-miterlimit:4;stroke-opacity:1;stroke-dasharray:none;stroke-dashoffset:0.01"
       d="m 210,67.362183 0,5 5,0 0,-5 z"
       id="path3025-4"
       inkscape:connector-curvature="0" />
    <path
       style="fill:none;stroke:#000000;stroke-width:0.30000001;stroke-linecap:butt;stroke-linejoin:miter;stroke-miterlimit:4;stroke-opacity:1;stroke-dasharray:none;stroke-dashoffset:0.01"
       d="m 240,52.362183 -15,0 0,15 10,0 0,5 -10,0 0,5 15,0 0,-15 -10,0 0,-5 10,0 z"
       id="path3005-5"
       inkscape:connector-curvature="0" />
    <path
       style="fill:#000000;fill-opacity:1;stroke:none"
       d="m 115,92.362186 -15,0 0,14.999994 10,0 0,5 -10,0 0,5 15,0 0,-14.99999 -10,0 0,-5.000004 10,0 z"
       id="path3005-6"
       inkscape:connector-curvature="0" />
    <path
       style="fill:#000000;fill-opacity:1;stroke:none"
       d="m 80,92.362186 15,0 0,24.999994 -5,0 0,-19.999994 -5,0 0,19.999994 -5,0 z"
       id="path3007-5"
       inkscape:connector-curvature="0" />
    <path
       style="fill:#000000;fill-opacity:1;stroke:none"
       d="m 60,92.362186 0,24.999994 15,0 0,-24.999994 -5,0 0,19.999994 -5,0 0,-19.999994 z"
       id="path3009-4"
       inkscape:connector-curvature="0" />
    <path
       style="fill:#000000;fill-opacity:1;stroke:none"
       d="m 40,92.362186 0,24.999994 15,0 0,-14.99999 -10,0 0,-10.000004 z"
       id="path3011-1"
       inkscape:connector-curvature="0" />
    <path
       style="fill:#000000;fill-opacity:1;stroke:none"
       d="m 120,92.362186 0,24.999994 15,0 0,-5 -10,0 0,-5 5,0 0,-4.99999 -5,0 0,-5.000004 10,0 0,-5 z"
       id="path3013-0"
       inkscape:connector-curvature="0" />
    <path
       style="fill:#000000;fill-opacity:1;stroke:none"
       d="m 140,92.362186 0,24.999994 5,0 0,-19.999994 5,0 0,19.999994 5,0 0,-24.999994 z"
       id="path3015-6"
       inkscape:connector-curvature="0" />
    <path
       style="fill:#000000;fill-opacity:1;stroke:none"
       d="m 165,92.362186 0,24.999994 15,0 0,-5 -10,0 0,-19.999994 z"
       id="path3021-4"
       inkscape:connector-curvature="0" />
    <path
       style="fill:#000000;fill-opacity:1;stroke:none"
       d="m 185,117.36218 0,-24.999994 15,0 0,24.999994 -5,0 0,-10 -5,0 0,10 z"
       id="path3023-4"
       inkscape:connector-curvature="0" />
    <path
       style="fill:#ffffff;fill-opacity:1;stroke:none"
       d="m 45,107.36218 0,5 5,0 0,-5 z"
       id="path3025-8"
       inkscape:connector-curvature="0" />
    <path
       style="fill:#ffffff;fill-opacity:1;stroke:none"
       d="m 190,97.362186 0,5.000004 5,0 0,-5.000004 z"
       id="path3027-3"
       inkscape:connector-curvature="0" />
    <path
       style="fill:#000000;fill-opacity:1;stroke:none"
       d="m 205,92.362186 0,24.999994 15,0 0,-14.99999 -10,0 0,-10.000004 z"
       id="path3011-0-1"
       inkscape:connector-curvature="0" />
    <path
       style="fill:#ffffff;fill-opacity:1;stroke:none"
       d="m 210,107.36218 0,5 5,0 0,-5 z"
       id="path3025-4-9"
       inkscape:connector-curvature="0" />
    <path
       style="fill:#000000;fill-opacity:1;stroke:none"
       d="m 240,92.362186 -15,0 0,14.999994 10,0 0,5 -10,0 0,5 15,0 0,-14.99999 -10,0 0,-5.000004 10,0 z"
       id="path3005-5-8"
       inkscape:connector-curvature="0" />
    <path
       style="fill:#000000;fill-opacity:1;stroke:none"
       d="m 115,132.36218 -15,0 0,15 10,0 0,5 -10,0 0,5 15,0 0,-15 -10,0 0,-5 10,0 z"
       id="path3005-6-0"
       inkscape:connector-curvature="0" />
    <path
       style="fill:#000000;fill-opacity:1;stroke:none"
       d="m 80,132.36218 15,0 0,25 -5,0 0,-20 -5,0 0,20 -5,0 z"
       id="path3007-5-2"
       inkscape:connector-curvature="0" />
    <path
       style="fill:#000000;fill-opacity:1;stroke:none"
       d="m 60,132.36218 0,25 15,0 0,-25 -5,0 0,20 -5,0 0,-20 z"
       id="path3009-4-7"
       inkscape:connector-curvature="0" />
    <path
       style="fill:#000000;fill-opacity:1;stroke:none"
       d="m 40,132.36218 0,25 15,0 0,-15 -10,0 0,-10 z"
       id="path3011-1-0"
       inkscape:connector-curvature="0" />
    <path
       style="fill:#000000;fill-opacity:1;stroke:none"
       d="m 120,132.36218 0,25 15,0 0,-5 -10,0 0,-5 5,0 0,-5 -5,0 0,-5 10,0 0,-5 z"
       id="path3013-0-1"
       inkscape:connector-curvature="0" />
    <path
       style="fill:#000000;fill-opacity:1;stroke:none"
       d="m 140,132.36218 0,25 5,0 0,-20 5,0 0,20 5,0 0,-25 z"
       id="path3015-6-9"
       inkscape:connector-curvature="0" />
    <path
       style="fill:#ffffff;fill-opacity:1;stroke:none"
       d="m 45,147.36218 0,5 5,0 0,-5 z"
       id="path3025-8-4"
       inkscape:connector-curvature="0" />
    <path
       style="fill:none;stroke:#000000;stroke-width:0.30000001;stroke-linecap:butt;stroke-linejoin:miter;stroke-miterlimit:4;stroke-opacity:1;stroke-dasharray:none;stroke-dashoffset:0.01"
       d="m 165,132.36218 0,25 15,0 0,-5 -10,0 0,-20 z"
       id="path3021-1"
       inkscape:connector-curvature="0" />
    <path
       style="fill:none;stroke:#000000;stroke-width:0.30000001;stroke-linecap:butt;stroke-linejoin:miter;stroke-miterlimit:4;stroke-opacity:1;stroke-dasharray:none;stroke-dashoffset:0.01"
       d="m 185,157.36218 0,-25 15,0 0,25 -5,0 0,-10 -5,0 0,10 z"
       id="path3023-8"
       inkscape:connector-curvature="0" />
    <path
       style="fill:none;stroke:#000000;stroke-width:0.30000001;stroke-linecap:butt;stroke-linejoin:miter;stroke-miterlimit:4;stroke-opacity:1;stroke-dasharray:none;stroke-dashoffset:0.01"
       d="m 190,137.36218 0,5 5,0 0,-5 z"
       id="path3027-1"
       inkscape:connector-curvature="0" />
    <path
       style="fill:none;stroke:#000000;stroke-width:0.30000001;stroke-linecap:butt;stroke-linejoin:miter;stroke-miterlimit:4;stroke-opacity:1;stroke-dasharray:none;stroke-dashoffset:0.01"
       d="m 205,132.36218 0,25 15,0 0,-15 -10,0 0,-10 z"
       id="path3011-0-8"
       inkscape:connector-curvature="0" />
    <path
       style="fill:none;stroke:#000000;stroke-width:0.30000001;stroke-linecap:butt;stroke-linejoin:miter;stroke-miterlimit:4;stroke-opacity:1;stroke-dasharray:none;stroke-dashoffset:0.01"
       d="m 210,147.36218 0,5 5,0 0,-5 z"
       id="path3025-4-0"
       inkscape:connector-curvature="0" />
    <path
       style="fill:none;stroke:#000000;stroke-width:0.30000001;stroke-linecap:butt;stroke-linejoin:miter;stroke-miterlimit:4;stroke-opacity:1;stroke-dasharray:none;stroke-dashoffset:0.01"
       d="m 240,132.36218 -15,0 0,15 10,0 0,5 -10,0 0,5 15,0 0,-15 -10,0 0,-5 10,0 z"
       id="path3005-5-3"
       inkscape:connector-curvature="0" />
    <path
       style="fill:#000000;fill-opacity:1;stroke:none"
       d="m 115,172.36218 -15,0 0,15 10,0 0,5 -10,0 0,5 15,0 0,-15 -10,0 0,-5 10,0 z"
       id="path3005-6-0-2"
       inkscape:connector-curvature="0" />
    <path
       style="fill:#000000;fill-opacity:1;stroke:none"
       d="m 80,172.36218 15,0 0,25 -5,0 0,-20 -5,0 0,20 -5,0 z"
       id="path3007-5-2-6"
       inkscape:connector-curvature="0" />
    <path
       style="fill:#000000;fill-opacity:1;stroke:none"
       d="m 60,172.36218 0,25 15,0 0,-25 -5,0 0,20 -5,0 0,-20 z"
       id="path3009-4-7-3"
       inkscape:connector-curvature="0" />
    <path
       style="fill:#000000;fill-opacity:1;stroke:none"
       d="m 40,172.36218 0,25 15,0 0,-15 -10,0 0,-10 z"
       id="path3011-1-0-9"
       inkscape:connector-curvature="0" />
    <path
       style="fill:#000000;fill-opacity:1;stroke:none"
       d="m 120,172.36218 0,25 15,0 0,-5 -10,0 0,-5 5,0 0,-5 -5,0 0,-5 10,0 0,-5 z"
       id="path3013-0-1-0"
       inkscape:connector-curvature="0" />
    <path
       style="fill:#000000;fill-opacity:1;stroke:none"
       d="m 140,172.36218 0,25 5,0 0,-20 5,0 0,20 5,0 0,-25 z"
       id="path3015-6-9-8"
       inkscape:connector-curvature="0" />
    <path
       style="fill:#ffffff;fill-opacity:1;stroke:none"
       d="m 45,187.36218 0,5 5,0 0,-5 z"
       id="path3025-8-4-1"
       inkscape:connector-curvature="0" />
    <path
       style="fill:none;stroke:#000000;stroke-width:0.30000001;stroke-linecap:butt;stroke-linejoin:miter;stroke-miterlimit:4;stroke-opacity:1;stroke-dasharray:none;stroke-dashoffset:0.01"
       d="m 160,172.36218 0,25 15,0 0,-5 -10,0 0,-20 z"
       id="path3021-1-7"
       inkscape:connector-curvature="0" />
    <path
       style="fill:none;stroke:#000000;stroke-width:0.30000001;stroke-linecap:butt;stroke-linejoin:miter;stroke-miterlimit:4;stroke-opacity:1;stroke-dasharray:none;stroke-dashoffset:0.01"
       d="m 180,197.36218 0,-25 15,0 0,25 -5,0 0,-10 -5,0 0,10 z"
       id="path3023-8-9"
       inkscape:connector-curvature="0" />
    <path
       style="fill:none;stroke:#000000;stroke-width:0.30000001;stroke-linecap:butt;stroke-linejoin:miter;stroke-miterlimit:4;stroke-opacity:1;stroke-dasharray:none;stroke-dashoffset:0.01"
       d="m 185,177.36218 0,5 5,0 0,-5 z"
       id="path3027-1-8"
       inkscape:connector-curvature="0" />
    <path
       style="fill:none;stroke:#000000;stroke-width:0.30000001;stroke-linecap:butt;stroke-linejoin:miter;stroke-miterlimit:4;stroke-opacity:1;stroke-dasharray:none;stroke-dashoffset:0.01"
       d="m 200,172.36218 0,25 15,0 0,-15 -10,0 0,-10 z"
       id="path3011-0-8-3"
       inkscape:connector-curvature="0" />
    <path
       style="fill:none;stroke:#000000;stroke-width:0.30000001;stroke-linecap:butt;stroke-linejoin:miter;stroke-miterlimit:4;stroke-opacity:1;stroke-dasharray:none;stroke-dashoffset:0.01"
       d="m 205,187.36218 0,5 5,0 0,-5 z"
       id="path3025-4-0-7"
       inkscape:connector-curvature="0" />
    <path
       style="fill:none;stroke:#000000;stroke-width:0.30000001;stroke-linecap:butt;stroke-linejoin:miter;stroke-miterlimit:4;stroke-opacity:1;stroke-dasharray:none;stroke-dashoffset:0.01"
       d="m 235,172.36218 -15,0 0,15 10,0 0,5 -10,0 0,5 15,0 0,-15 -10,0 0,-5 10,0 z"
       id="path3005-5-3-3"
       inkscape:connector-curvature="0" />
    <path
       style="fill:#000000;fill-opacity:1;stroke:none"
       d="m 115,212.36218 -15,0 0,15 10,0 0,5 -10,0 0,5 15,0 0,-15 -10,0 0,-5 10,0 z"
       id="path3005-6-0-2-0"
       inkscape:connector-curvature="0" />
    <path
       style="fill:#000000;fill-opacity:1;stroke:none"
       d="m 80,212.36218 15,0 0,25 -5,0 0,-20 -5,0 0,20 -5,0 z"
       id="path3007-5-2-6-8"
       inkscape:connector-curvature="0" />
    <path
       style="fill:#000000;fill-opacity:1;stroke:none"
       d="m 60,212.36218 0,25 15,0 0,-25 -5,0 0,20 -5,0 0,-20 z"
       id="path3009-4-7-3-7"
       inkscape:connector-curvature="0" />
    <path
       style="fill:#000000;fill-opacity:1;stroke:none"
       d="m 40,212.36218 0,25 15,0 0,-15 -10,0 0,-10 z"
       id="path3011-1-0-9-6"
       inkscape:connector-curvature="0" />
    <path
       style="fill:#000000;fill-opacity:1;stroke:none"
       d="m 120,212.36218 0,25 15,0 0,-5 -10,0 0,-5 5,0 0,-5 -5,0 0,-5 10,0 0,-5 z"
       id="path3013-0-1-0-3"
       inkscape:connector-curvature="0" />
    <path
       style="fill:#000000;fill-opacity:1;stroke:none"
       d="m 140,212.36218 0,25 5,0 0,-20 5,0 0,20 5,0 0,-25 z"
       id="path3015-6-9-8-2"
       inkscape:connector-curvature="0" />
    <path
       style="fill:#ffffff;fill-opacity:1;stroke:none"
       d="m 45,227.36218 0,5 5,0 0,-5 z"
       id="path3025-8-4-1-5"
       inkscape:connector-curvature="0" />
    <path
       style="fill:none;stroke:#000000;stroke-width:0.30000001;stroke-linecap:butt;stroke-linejoin:miter;stroke-miterlimit:4;stroke-opacity:1;stroke-dasharray:none;stroke-dashoffset:0.01"
       d="m 40,242.36218 0,25 15,0 0,-5 -10,0 0,-20 z"
       id="path3021-1-7-0"
       inkscape:connector-curvature="0" />
    <path
       style="fill:none;stroke:#000000;stroke-width:0.30000001;stroke-linecap:butt;stroke-linejoin:miter;stroke-miterlimit:4;stroke-opacity:1;stroke-dasharray:none;stroke-dashoffset:0.01"
       d="m 60,267.36218 0,-25 15,0 0,25 -5,0 0,-10 -5,0 0,10 z"
       id="path3023-8-9-2"
       inkscape:connector-curvature="0" />
    <path
       style="fill:none;stroke:#000000;stroke-width:0.30000001;stroke-linecap:butt;stroke-linejoin:miter;stroke-miterlimit:4;stroke-opacity:1;stroke-dasharray:none;stroke-dashoffset:0.01"
       d="m 65,247.36218 0,5 5,0 0,-5 z"
       id="path3027-1-8-8"
       inkscape:connector-curvature="0" />
    <path
       style="fill:none;stroke:#000000;stroke-width:0.30000001;stroke-linecap:butt;stroke-linejoin:miter;stroke-miterlimit:4;stroke-opacity:1;stroke-dasharray:none;stroke-dashoffset:0.01"
       d="m 80,242.36218 0,25 15,0 0,-15 -10,0 0,-10 z"
       id="path3011-0-8-3-1"
       inkscape:connector-curvature="0" />
    <path
       style="fill:none;stroke:#000000;stroke-width:0.30000001;stroke-linecap:butt;stroke-linejoin:miter;stroke-miterlimit:4;stroke-opacity:1;stroke-dasharray:none;stroke-dashoffset:0.01"
       d="m 85,257.36218 0,5 5,0 0,-5 z"
       id="path3025-4-0-7-1"
       inkscape:connector-curvature="0" />
    <path
       style="fill:none;stroke:#000000;stroke-width:0.30000001;stroke-linecap:butt;stroke-linejoin:miter;stroke-miterlimit:4;stroke-opacity:1;stroke-dasharray:none;stroke-dashoffset:0.01"
       d="m 100.02407,247.29063 -0.0716,14.99983 14.99983,0.0716 0.0477,-9.99988 4.99994,0.0239 -0.0477,9.99988 4.99994,0.0239 0.0716,-14.99983 -14.99983,-0.0716 -0.0477,9.99988 -4.99994,-0.0239 0.0477,-9.99988 z"
       id="path3005-5-3-3-4"
       inkscape:connector-curvature="0" />
    <path
       style="fill:#000000;fill-opacity:1;stroke:none"
       d="m 115,282.36218 -15,0 0,15 10,0 0,5 -10,0 0,5 15,0 0,-15 -10,0 0,-5 10,0 z"
       id="path3005-6-0-2-0-3"
       inkscape:connector-curvature="0" />
    <path
       style="fill:#000000;fill-opacity:1;stroke:none"
       d="m 80,282.36218 15,0 0,25 -5,0 0,-20 -5,0 0,20 -5,0 z"
       id="path3007-5-2-6-8-2"
       inkscape:connector-curvature="0" />
    <path
       style="fill:#000000;fill-opacity:1;stroke:none"
       d="m 60,282.36218 0,25 15,0 0,-25 -5,0 0,20 -5,0 0,-20 z"
       id="path3009-4-7-3-7-9"
       inkscape:connector-curvature="0" />
    <path
       style="fill:#000000;fill-opacity:1;stroke:none"
       d="m 40,282.36218 0,25 15,0 0,-15 -10,0 0,-10 z"
       id="path3011-1-0-9-6-2"
       inkscape:connector-curvature="0" />
    <path
       style="fill:#000000;fill-opacity:1;stroke:none"
       d="m 120,282.36218 0,25 15,0 0,-5 -10,0 0,-5 5,0 0,-5 -5,0 0,-5 10,0 0,-5 z"
       id="path3013-0-1-0-3-4"
       inkscape:connector-curvature="0" />
    <path
       style="fill:#000000;fill-opacity:1;stroke:none"
       d="m 140,282.36218 0,25 5,0 0,-20 5,0 0,20 5,0 0,-25 z"
       id="path3015-6-9-8-2-1"
       inkscape:connector-curvature="0" />
    <path
       style="fill:#ffffff;fill-opacity:1;stroke:none"
       d="m 45,297.36218 0,5 5,0 0,-5 z"
       id="path3025-8-4-1-5-0"
       inkscape:connector-curvature="0" />
    <path
       style="fill:none;stroke:#000000;stroke-width:0.30000001;stroke-linecap:butt;stroke-linejoin:miter;stroke-miterlimit:4;stroke-opacity:1;stroke-dasharray:none;stroke-dashoffset:0.01"
       d="m 160,282.36218 0,25 15,0 0,-5 -10,0 0,-20 z"
       id="path3021-1-7-0-9"
       inkscape:connector-curvature="0" />
    <path
       style="fill:none;stroke:#000000;stroke-width:0.30000001;stroke-linecap:butt;stroke-linejoin:miter;stroke-miterlimit:4;stroke-opacity:1;stroke-dasharray:none;stroke-dashoffset:0.01"
       d="m 180,307.36218 0,-25 15,0 0,25 -5,0 0,-10 -5,0 0,10 z"
       id="path3023-8-9-2-2"
       inkscape:connector-curvature="0" />
    <path
       style="fill:none;stroke:#000000;stroke-width:0.30000001;stroke-linecap:butt;stroke-linejoin:miter;stroke-miterlimit:4;stroke-opacity:1;stroke-dasharray:none;stroke-dashoffset:0.01"
       d="m 185,287.36218 0,5 5,0 0,-5 z"
       id="path3027-1-8-8-3"
       inkscape:connector-curvature="0" />
    <path
       style="fill:none;stroke:#000000;stroke-width:0.30000001;stroke-linecap:butt;stroke-linejoin:miter;stroke-miterlimit:4;stroke-opacity:1;stroke-dasharray:none;stroke-dashoffset:0.01"
       d="m 200,282.36218 0,25 15,0 0,-15 -10,0 0,-10 z"
       id="path3011-0-8-3-1-9"
       inkscape:connector-curvature="0" />
    <path
       style="fill:none;stroke:#000000;stroke-width:0.30000001;stroke-linecap:butt;stroke-linejoin:miter;stroke-miterlimit:4;stroke-opacity:1;stroke-dasharray:none;stroke-dashoffset:0.01"
       d="m 205,297.36218 0,5 5,0 0,-5 z"
       id="path3025-4-0-7-1-3"
       inkscape:connector-curvature="0" />
    <path
       style="fill:none;stroke:#000000;stroke-width:0.30000001;stroke-linecap:butt;stroke-linejoin:miter;stroke-miterlimit:4;stroke-opacity:1;stroke-dasharray:none;stroke-dashoffset:0.01"
       d="m 220.02407,287.29063 -0.0716,14.99983 14.99983,0.0716 0.0477,-9.99988 4.99994,0.0239 -0.0477,9.99988 4.99994,0.0239 0.0716,-14.99983 -14.99983,-0.0716 -0.0477,9.99988 -4.99994,-0.0239 0.0477,-9.99988 z"
       id="path3005-5-3-3-4-0"
       inkscape:connector-curvature="0" />
    <path
       style="fill:#000000;fill-opacity:1;stroke:none"
       d="m 115,322.36218 -15,0 0,15 10,0 0,5 -10,0 0,5 15,0 0,-15 -10,0 0,-5 10,0 z"
       id="path3005-6-0-2-0-9"
       inkscape:connector-curvature="0" />
    <path
       style="fill:#000000;fill-opacity:1;stroke:none"
       d="m 80,322.36218 15,0 0,25 -5,0 0,-20 -5,0 0,20 -5,0 z"
       id="path3007-5-2-6-8-1"
       inkscape:connector-curvature="0" />
    <path
       style="fill:#000000;fill-opacity:1;stroke:none"
       d="m 60,322.36218 0,25 15,0 0,-25 -5,0 0,20 -5,0 0,-20 z"
       id="path3009-4-7-3-7-4"
       inkscape:connector-curvature="0" />
    <path
       style="fill:#000000;fill-opacity:1;stroke:none"
       d="m 40,322.36218 0,25 15,0 0,-15 -10,0 0,-10 z"
       id="path3011-1-0-9-6-8"
       inkscape:connector-curvature="0" />
    <path
       style="fill:#000000;fill-opacity:1;stroke:none"
       d="m 120,322.36218 0,25 15,0 0,-5 -10,0 0,-5 5,0 0,-5 -5,0 0,-5 10,0 0,-5 z"
       id="path3013-0-1-0-3-46"
       inkscape:connector-curvature="0" />
    <path
       style="fill:#000000;fill-opacity:1;stroke:none"
       d="m 140,322.36218 0,25 5,0 0,-20 5,0 0,20 5,0 0,-25 z"
       id="path3015-6-9-8-2-6"
       inkscape:connector-curvature="0" />
    <path
       style="fill:#ffffff;fill-opacity:1;stroke:none"
       d="m 45,337.36218 0,5 5,0 0,-5 z"
       id="path3025-8-4-1-5-3"
       inkscape:connector-curvature="0" />
    <path
       style="fill:none;stroke:#000000;stroke-width:0.30000001;stroke-linecap:butt;stroke-linejoin:miter;stroke-miterlimit:4;stroke-opacity:1;stroke-dasharray:none;stroke-dashoffset:0.01"
       d="m 40,352.36218 0,25 15,0 0,-5 -10,0 0,-20 z"
       id="path3021-1-7-0-2"
       inkscape:connector-curvature="0" />
    <path
       style="fill:none;stroke:#000000;stroke-width:0.30000001;stroke-linecap:butt;stroke-linejoin:miter;stroke-miterlimit:4;stroke-opacity:1;stroke-dasharray:none;stroke-dashoffset:0.01"
       d="m 60,377.36218 0,-25 15,0 0,25 -5,0 0,-10 -5,0 0,10 z"
       id="path3023-8-9-2-0"
       inkscape:connector-curvature="0" />
    <path
       style="fill:none;stroke:#000000;stroke-width:0.30000001;stroke-linecap:butt;stroke-linejoin:miter;stroke-miterlimit:4;stroke-opacity:1;stroke-dasharray:none;stroke-dashoffset:0.01"
       d="m 65,357.36218 0,5 5,0 0,-5 z"
       id="path3027-1-8-8-6"
       inkscape:connector-curvature="0" />
    <path
       style="fill:none;stroke:#000000;stroke-width:0.29999998;stroke-linecap:butt;stroke-linejoin:miter;stroke-miterlimit:4;stroke-opacity:1;stroke-dasharray:none;stroke-dashoffset:0.01"
       d="m 80,352.36218 0,25 15,0 0,-15 -10,0 0,-10 z"
       id="path3011-0-8-3-1-92"
       inkscape:connector-curvature="0" />
    <path
       style="fill:none;stroke:#000000;stroke-width:0.30000001;stroke-linecap:butt;stroke-linejoin:miter;stroke-miterlimit:4;stroke-opacity:1;stroke-dasharray:none;stroke-dashoffset:0.01"
       d="m 85,367.36218 0,5 5,0 0,-5 z"
       id="path3025-4-0-7-1-0"
       inkscape:connector-curvature="0" />
    <path
       style="fill:none;stroke:#000000;stroke-width:0.30000001;stroke-linecap:butt;stroke-linejoin:miter;stroke-miterlimit:4;stroke-opacity:1;stroke-dasharray:none;stroke-dashoffset:0.01"
       d="m 100.02407,357.29063 -0.0716,14.99983 14.99983,0.0716 0.0477,-9.99988 4.99994,0.0239 -0.0477,9.99988 4.99994,0.0239 0.0716,-14.99983 -14.99983,-0.0716 -0.0477,9.99988 -4.99994,-0.0239 0.0477,-9.99988 z"
       id="path3005-5-3-3-4-7"
       inkscape:connector-curvature="0" />
    <path
       style="fill:none;stroke:#000000;stroke-width:0.30000001;stroke-linecap:butt;stroke-linejoin:miter;stroke-miterlimit:4;stroke-opacity:1;stroke-dasharray:none"
       d="m 170,417.36218 0,-20 15,0 0,20 -5,0 0,-5 -5,0 0,5 z"
       id="path3248"
       inkscape:connector-curvature="0" />
    <path
       style="fill:none;stroke:#000000;stroke-width:0.30000001;stroke-linecap:butt;stroke-linejoin:miter;stroke-miterlimit:4;stroke-opacity:1;stroke-dasharray:none"
       d="m 175,402.36218 0,5 5,0 0,-5 z"
       id="path3250"
       inkscape:connector-curvature="0" />
    <path
       style="fill:none;stroke:#000000;stroke-width:0.30000001;stroke-linecap:butt;stroke-linejoin:miter;stroke-miterlimit:4;stroke-opacity:1;stroke-dasharray:none"
       d="m 190,397.36218 0,20 15,0 0,-15 -10,0 0,-5 z"
       id="path3252"
       inkscape:connector-curvature="0" />
    <path
       style="fill:none;stroke:#000000;stroke-width:0.30000001;stroke-linecap:butt;stroke-linejoin:miter;stroke-miterlimit:4;stroke-opacity:1;stroke-dasharray:none"
       d="m 195,407.36218 0,5 5,0 0,-5 z"
       id="path3254"
       inkscape:connector-curvature="0" />
    <path
       style="fill:none;stroke:#000000;stroke-width:0.30000001;stroke-linecap:butt;stroke-linejoin:miter;stroke-miterlimit:4;stroke-opacity:1;stroke-dasharray:none"
       d="m 210,402.36219 0,15 15,0 0,-10 5,0 0,10 5,0 0,-15 -15,0 0,10 -5,0 0,-10 z"
       id="path3256"
       inkscape:connector-curvature="0" />
    <path
       style="fill:none;stroke:#000000;stroke-width:0.30000001;stroke-linecap:butt;stroke-linejoin:miter;stroke-miterlimit:4;stroke-opacity:1;stroke-dasharray:none"
       d="m 160,397.36218 0,20 5,0 0,-20 z"
       id="path3258"
       inkscape:connector-curvature="0" />
    <path
       style="fill:#000000;fill-opacity:1;stroke:none"
       d="m 115,392.36218 -15,0 0,15 10,0 0,5 -10,0 0,5 15,0 0,-15 -10,0 0,-5 10,0 z"
       id="path3005-6-0-2-0-9-5"
       inkscape:connector-curvature="0" />
    <path
       style="fill:#000000;fill-opacity:1;stroke:none"
       d="m 80,392.36218 15,0 0,25 -5,0 0,-20 -5,0 0,20 -5,0 z"
       id="path3007-5-2-6-8-1-2"
       inkscape:connector-curvature="0" />
    <path
       style="fill:#000000;fill-opacity:1;stroke:none"
       d="m 60,392.36218 0,25 15,0 0,-25 -5,0 0,20 -5,0 0,-20 z"
       id="path3009-4-7-3-7-4-3"
       inkscape:connector-curvature="0" />
    <path
       style="fill:#000000;fill-opacity:1;stroke:none"
       d="m 40,392.36218 0,25 15,0 0,-15 -10,0 0,-10 z"
       id="path3011-1-0-9-6-8-8"
       inkscape:connector-curvature="0" />
    <path
       style="fill:#000000;fill-opacity:1;stroke:none"
       d="m 120,392.36218 0,25 15,0 0,-5 -10,0 0,-5 5,0 0,-5 -5,0 0,-5 10,0 0,-5 z"
       id="path3013-0-1-0-3-46-6"
       inkscape:connector-curvature="0" />
    <path
       style="fill:#000000;fill-opacity:1;stroke:none"
       d="m 140,392.36218 0,25 5,0 0,-20 5,0 0,20 5,0 0,-25 z"
       id="path3015-6-9-8-2-6-2"
       inkscape:connector-curvature="0" />
    <path
       style="fill:#ffffff;fill-opacity:1;stroke:none"
       d="m 45,407.36218 0,5 5,0 0,-5 z"
       id="path3025-8-4-1-5-3-2"
       inkscape:connector-curvature="0" />
    <path
       style="fill:#000000;fill-opacity:1;stroke:none"
       d="m 115,447.36218 -15,0 0,15 10,0 0,5 -10,0 0,5 15,0 0,-15 -10,0 0,-5 10,0 z"
       id="path3005-6-0-2-0-3-8"
       inkscape:connector-curvature="0" />
    <path
       style="fill:#000000;fill-opacity:1;stroke:none"
       d="m 80,447.36218 15,0 0,25 -5,0 0,-20 -5,0 0,20 -5,0 z"
       id="path3007-5-2-6-8-2-1"
       inkscape:connector-curvature="0" />
    <path
       style="fill:#000000;fill-opacity:1;stroke:none"
       d="m 60,447.36218 0,25 15,0 0,-25 -5,0 0,20 -5,0 0,-20 z"
       id="path3009-4-7-3-7-9-2"
       inkscape:connector-curvature="0" />
    <path
       style="fill:#000000;fill-opacity:1;stroke:none"
       d="m 40,447.36218 0,25 15,0 0,-15 -10,0 0,-10 z"
       id="path3011-1-0-9-6-2-5"
       inkscape:connector-curvature="0" />
    <path
       style="fill:#000000;fill-opacity:1;stroke:none"
       d="m 120,447.36218 0,25 15,0 0,-5 -10,0 0,-5 5,0 0,-5 -5,0 0,-5 10,0 0,-5 z"
       id="path3013-0-1-0-3-4-4"
       inkscape:connector-curvature="0" />
    <path
       style="fill:#000000;fill-opacity:1;stroke:none"
       d="m 140,447.36218 0,25 5,0 0,-20 5,0 0,20 5,0 0,-25 z"
       id="path3015-6-9-8-2-1-5"
       inkscape:connector-curvature="0" />
    <path
       style="fill:#ffffff;fill-opacity:1;stroke:none"
       d="m 45,462.36218 0,5 5,0 0,-5 z"
       id="path3025-8-4-1-5-0-7"
       inkscape:connector-curvature="0" />
    <path
       style="fill:none;stroke:#000000;stroke-width:0.30000001;stroke-linecap:butt;stroke-linejoin:miter;stroke-miterlimit:4;stroke-opacity:1;stroke-dasharray:none;stroke-dashoffset:0.01"
       d="m 160,447.36218 0,25 15,0 0,-5 -10,0 0,-20 z"
       id="path3021-1-7-0-9-1"
       inkscape:connector-curvature="0" />
    <path
       style="fill:none;stroke:#000000;stroke-width:0.30000001;stroke-linecap:butt;stroke-linejoin:miter;stroke-miterlimit:4;stroke-opacity:1;stroke-dasharray:none;stroke-dashoffset:0.01"
       d="m 180,472.36218 0,-25 15,0 0,25 -5,0 0,-10 -5,0 0,10 z"
       id="path3023-8-9-2-2-0"
       inkscape:connector-curvature="0" />
    <path
       style="fill:none;stroke:#000000;stroke-width:0.30000001;stroke-linecap:butt;stroke-linejoin:miter;stroke-miterlimit:4;stroke-opacity:1;stroke-dasharray:none;stroke-dashoffset:0.01"
       d="m 185,452.36218 0,5 5,0 0,-5 z"
       id="path3027-1-8-8-3-0"
       inkscape:connector-curvature="0" />
    <path
       style="fill:none;stroke:#000000;stroke-width:0.30000001;stroke-linecap:butt;stroke-linejoin:miter;stroke-miterlimit:4;stroke-opacity:1;stroke-dasharray:none;stroke-dashoffset:0.01"
       d="m 200,447.36218 0,25 15,0 0,-15 -10,0 0,-10 z"
       id="path3011-0-8-3-1-9-1"
       inkscape:connector-curvature="0" />
    <path
       style="fill:none;stroke:#000000;stroke-width:0.30000001;stroke-linecap:butt;stroke-linejoin:miter;stroke-miterlimit:4;stroke-opacity:1;stroke-dasharray:none;stroke-dashoffset:0.01"
       d="m 205,462.36218 0,5 5,0 0,-5 z"
       id="path3025-4-0-7-1-3-6"
       inkscape:connector-curvature="0" />
    <path
       style="fill:none;stroke:#000000;stroke-width:0.30000001;stroke-linecap:butt;stroke-linejoin:miter;stroke-miterlimit:4;stroke-opacity:1;stroke-dasharray:none;stroke-dashoffset:0.01"
       d="m 219.92845,472.33811 14.99983,0.0716 0.0716,-14.99983 -9.99988,-0.0477 0.0239,-4.99994 9.99988,0.0477 0.0239,-4.99994 -14.99983,-0.0716 -0.0716,14.99983 9.99988,0.0477 -0.0239,4.99994 -9.99988,-0.0477 z"
       id="path3005-5-3-3-4-0-7"
       inkscape:connector-curvature="0" />
    <path
       style="fill:url(#linearGradient5508);fill-opacity:1;fill-rule:nonzero;stroke:none"
       d="m 115,537.36218 -15,0 0,15 10,0 0,5 -10,0 0,5 15,0 0,-15 -10,0 0,-5 10,0 z"
       id="path3005-6-0-2-0-3-1"
       inkscape:connector-curvature="0" />
    <path
       style="fill:url(#linearGradient5510);fill-opacity:1;fill-rule:nonzero;stroke:none"
       d="m 80,537.36218 15,0 0,25 -5,0 0,-20 -5,0 0,20 -5,0 z"
       id="path3007-5-2-6-8-2-6"
       inkscape:connector-curvature="0" />
    <path
       style="fill:url(#linearGradient5512);fill-opacity:1;fill-rule:nonzero;stroke:none"
       d="m 60,537.36218 0,25 15,0 0,-25 -5,0 0,20 -5,0 0,-20 z"
       id="path3009-4-7-3-7-9-1"
       inkscape:connector-curvature="0" />
    <path
       style="fill:url(#linearGradient5514);fill-opacity:1;fill-rule:nonzero;stroke:none"
       d="m 40,537.36218 0,25 15,0 0,-15 -10,0 0,-10 z"
       id="path3011-1-0-9-6-2-7"
       inkscape:connector-curvature="0" />
    <path
       style="fill:url(#linearGradient5506);fill-opacity:1;fill-rule:nonzero;stroke:none"
       d="m 120,537.36218 0,25 15,0 0,-5 -10,0 0,-5 5,0 0,-5 -5,0 0,-5 10,0 0,-5 z"
       id="path3013-0-1-0-3-4-3"
       inkscape:connector-curvature="0" />
    <path
       style="fill:url(#linearGradient5504);fill-opacity:1;fill-rule:nonzero;stroke:none"
       d="m 140,537.36218 0,25 5,0 0,-20 5,0 0,20 5,0 0,-25 z"
       id="path3015-6-9-8-2-1-8"
       inkscape:connector-curvature="0" />
    <path
       style="fill:#ffffff;fill-opacity:1;stroke:none"
       d="m 45,552.36218 0,5 5,0 0,-5 z"
       id="path3025-8-4-1-5-0-0"
       inkscape:connector-curvature="0" />
    <path
       style="fill:none;stroke:#ffffff;stroke-width:0.30000001;stroke-linecap:butt;stroke-linejoin:miter;stroke-miterlimit:4;stroke-opacity:1;stroke-dasharray:none;stroke-dashoffset:0.01"
       d="m 160,537.36218 0,25 15,0 0,-5 -10,0 0,-20 z"
       id="path3021-1-7-0-9-2"
       inkscape:connector-curvature="0" />
    <path
       style="fill:none;stroke:#ffffff;stroke-width:0.30000001;stroke-linecap:butt;stroke-linejoin:miter;stroke-miterlimit:4;stroke-opacity:1;stroke-dasharray:none;stroke-dashoffset:0.01"
       d="m 180,562.36218 0,-25 15,0 0,25 -5,0 0,-10 -5,0 0,10 z"
       id="path3023-8-9-2-2-8"
       inkscape:connector-curvature="0" />
    <path
       style="fill:none;stroke:#ffffff;stroke-width:0.30000001;stroke-linecap:butt;stroke-linejoin:miter;stroke-miterlimit:4;stroke-opacity:1;stroke-dasharray:none;stroke-dashoffset:0.01"
       d="m 185,542.36218 0,5 5,0 0,-5 z"
       id="path3027-1-8-8-3-1"
       inkscape:connector-curvature="0" />
    <path
       style="fill:none;stroke:#ffffff;stroke-width:0.30000001;stroke-linecap:butt;stroke-linejoin:miter;stroke-miterlimit:4;stroke-opacity:1;stroke-dasharray:none;stroke-dashoffset:0.01"
       d="m 200,537.36218 0,25 15,0 0,-15 -10,0 0,-10 z"
       id="path3011-0-8-3-1-9-7"
       inkscape:connector-curvature="0" />
    <path
       style="fill:none;stroke:#ffffff;stroke-width:0.30000001;stroke-linecap:butt;stroke-linejoin:miter;stroke-miterlimit:4;stroke-opacity:1;stroke-dasharray:none;stroke-dashoffset:0.01"
       d="m 205,552.36218 0,5 5,0 0,-5 z"
       id="path3025-4-0-7-1-3-1"
       inkscape:connector-curvature="0" />
    <path
       style="fill:none;stroke:#ffffff;stroke-width:0.30000001;stroke-linecap:butt;stroke-linejoin:miter;stroke-miterlimit:4;stroke-opacity:1;stroke-dasharray:none;stroke-dashoffset:0.01"
       d="m 219.92845,562.33811 14.99983,0.0716 0.0716,-14.99983 -9.99988,-0.0477 0.0239,-4.99994 9.99988,0.0477 0.0239,-4.99994 -14.99983,-0.0716 -0.0716,14.99983 9.99988,0.0477 -0.0239,4.99994 -9.99988,-0.0477 z"
       id="path3005-5-3-3-4-0-0"
       inkscape:connector-curvature="0" />
    <path
       style="fill:url(#linearGradient5706);fill-opacity:1;fill-rule:nonzero;stroke:none"
       d="m 40,487.36218 0,25 15,0 0,-15 -10,0 0,-10 z"
       id="path3011-1-0-9-6-2-7-3-8"
       inkscape:connector-curvature="0" />
    <path
       style="fill:#ffffff;fill-opacity:1;stroke:none"
       d="m 45,502.36218 0,5 5,0 0,-5 z"
       id="path3025-8-4-1-5-0-0-1-7"
       inkscape:connector-curvature="0" />
    <path
       style="fill:none;stroke:#000000;stroke-width:0.30000001;stroke-linecap:butt;stroke-linejoin:miter;stroke-miterlimit:4;stroke-opacity:1;stroke-dasharray:none;stroke-dashoffset:0.01"
       d="m 65,497.36218 0,25 -15,0 0,-5 10,0 0,-20 z"
       id="path3021-1-7-0-9-2-0-9"
       inkscape:connector-curvature="0" />
    <path
       style="fill:url(#linearGradient5743);fill-opacity:1;fill-rule:nonzero;stroke:none"
       d="m 40,577.36218 0,25 15,0 0,-15 -10,0 0,-10 z"
       id="path3011-1-0-9-6-2-7-3-9"
       inkscape:connector-curvature="0" />
    <path
       style="fill:#ffffff;fill-opacity:1;stroke:none"
       d="m 45,592.36218 0,5 5,0 0,-5 z"
       id="path3025-8-4-1-5-0-0-1-0"
       inkscape:connector-curvature="0" />
    <path
       style="fill:none;stroke:#ffffff;stroke-width:0.30000001;stroke-linecap:butt;stroke-linejoin:miter;stroke-miterlimit:4;stroke-opacity:1;stroke-dasharray:none;stroke-dashoffset:0.01"
       d="m 65,587.36218 0,25 -15,0 0,-5 10,0 0,-20 z"
       id="path3021-1-7-0-9-2-0-94"
       inkscape:connector-curvature="0" />
  </g>
</svg>
