<?xml version="1.0" encoding="UTF-8" standalone="no"?>
<svg xmlns:dc="http://purl.org/dc/elements/1.1/"
     xmlns:cc="http://creativecommons.org/ns#"
     xmlns:rdf="http://www.w3.org/1999/02/22-rdf-syntax-ns#"
     xmlns:svg="http://www.w3.org/2000/svg"
     xmlns="http://www.w3.org/2000/svg"
     xmlns:xlink="http://www.w3.org/1999/xlink"
     width="128" height="128" version="1.1">
    <title>Clarity Icon</title>
    <desc>This icon is a part of Clarity icon theme for gtk</desc>
    <metadata>
        <rdf:RDF>
            <cc:Work rdf:about="">
                <dc:title>Clarity Icon</dc:title>
                <dc:description>This icon is a part of Clarity icon theme for gtk</dc:description>
                <dc:creator>
                    <cc:Agent>
                        <dc:title>Jakub Jankiewicz</dc:title>
                    </cc:Agent>
                </dc:creator>
                <dc:rights>
                    <cc:Agent>
                        <dc:title>Jakub Jankiewicz</dc:title>
                    </cc:Agent>
                </dc:rights>
                <dc:date>2010</dc:date>
                <dc:format>image/svg+xml</dc:format>
                <dc:type rdf:resource="http://purl.org/dc/dcmitype/StillImage" />
                <cc:license rdf:resource="http://www.gnu.org/copyleft/gpl.html" />
             </cc:Work>
        </rdf:RDF>
    </metadata>
    <defs>
        <linearGradient x1="0" y1="128" x2="128" y2="0" id="gradient" gradientUnits="userSpaceOnUse">
            <stop id="start" style="stop-color:#000000;stop-opacity:1" offset="0" />
            <stop id="stop" style="stop-color:#000000;stop-opacity:1" offset="1" />
        </linearGradient>
        <filter id="shadow">
            <feMorphology operator="dilate" in="SourceGraphic" radius="3" />
            <feGaussianBlur stdDeviation="1.5" />
        </filter>
    </defs>
    <path d="m 64.000181,18.04379 c -13.650936,0 -24.805879,11.154941 -24.805879,24.805879 l 0,14.728491 c -5.434652,1.19027 -9.474468,5.997902 -9.474468,11.800017 l 0,28.251136 c 0,6.701757 5.399731,12.101477 12.101479,12.101477 l 44.357737,0 c 6.70175,0 12.05842,-5.39972 12.05842,-12.101477 l 0,-28.251136 c 0,-5.787578 -4.01734,-10.59459 -9.43141,-11.800017 l 0,-14.728491 c 0,-13.650938 -11.15494,-24.805879 -24.805879,-24.805879 z m 0,8.268626 c 9.182244,0 16.537259,7.355011 16.537259,16.537253 l 0,14.470096 -33.074512,0 0,-14.470096 c 0,-9.182242 7.355013,-16.537253 16.537253,-16.537253 z" style="fill:url(#gradient);fill-opacity:1;stroke:none" />
    <path d="M 100.67049,0 C 85.5786,0 73.340997,12.237598 73.340997,27.329497 c 0,15.091898 12.237603,27.329501 27.329493,27.329501 C 115.76239,54.658998 128,42.421395 128,27.329497 128,12.237598 115.76239,0 100.67049,0 z m -13.33873,9.147091 13.33873,13.338732 13.33874,-13.338732 4.84367,4.843673 -13.33874,13.338733 13.33874,13.338739 -4.84367,4.84367 L 100.67049,32.173172 87.33176,45.511906 82.48809,40.668236 95.826824,27.329497 82.48809,13.990764 87.33176,9.147091 z" style="fill:#bf0000;fill-opacity:1;stroke:none"  />
</svg>
