<?xml version="1.0" encoding="UTF-8" standalone="no"?>
<!-- Created with Inkscape (http://www.inkscape.org/) -->

<svg
   xmlns:dc="http://purl.org/dc/elements/1.1/"
   xmlns:cc="http://creativecommons.org/ns#"
   xmlns:rdf="http://www.w3.org/1999/02/22-rdf-syntax-ns#"
   xmlns:svg="http://www.w3.org/2000/svg"
   xmlns="http://www.w3.org/2000/svg"
   xmlns:sodipodi="http://sodipodi.sourceforge.net/DTD/sodipodi-0.dtd"
   xmlns:inkscape="http://www.inkscape.org/namespaces/inkscape"
   width="100"
   height="100"
   id="svg2"
   sodipodi:version="0.32"
   inkscape:version="0.92.1 r15371"
   version="1.0"
   sodipodi:docname="clock-face.svg"
   inkscape:output_extension="org.inkscape.output.svg.inkscape"
   sodipodi:modified="true">
  <sodipodi:namedview
     id="base"
     pagecolor="#ffffff"
     bordercolor="#666666"
     borderopacity="1.0"
     inkscape:pageopacity="0.0"
     inkscape:pageshadow="2"
     inkscape:zoom="2.8284271"
     inkscape:cx="-30.619064"
     inkscape:cy="24.135794"
     inkscape:document-units="px"
     inkscape:current-layer="layer1"
     showguides="true"
     inkscape:guide-bbox="true"
     inkscape:window-width="1280"
     inkscape:window-height="951"
     inkscape:window-x="0"
     inkscape:window-y="49"
     showgrid="false"
     inkscape:window-maximized="0">
    <sodipodi:guide
       orientation="horizontal"
       position="50"
       id="guide1307"
       inkscape:locked="false" />
    <sodipodi:guide
       orientation="vertical"
       position="50"
       id="guide1309"
       inkscape:locked="false" />
    <sodipodi:guide
       orientation="horizontal"
       position="100"
       id="guide1311"
       inkscape:locked="false" />
    <sodipodi:guide
       orientation="vertical"
       position="0"
       id="guide1313"
       inkscape:locked="false" />
    <sodipodi:guide
       orientation="vertical"
       position="100"
       id="guide1315"
       inkscape:locked="false" />
    <sodipodi:guide
       orientation="horizontal"
       position="0"
       id="guide1317"
       inkscape:locked="false" />
    <sodipodi:guide
       orientation="horizontal"
       position="90.060241"
       id="guide1319"
       inkscape:locked="false" />
    <sodipodi:guide
       orientation="vertical"
       position="10.040161"
       id="guide1321"
       inkscape:locked="false" />
    <sodipodi:guide
       orientation="vertical"
       position="90.060241"
       id="guide1323"
       inkscape:locked="false" />
    <sodipodi:guide
       orientation="horizontal"
       position="10.040161"
       id="guide1325"
       inkscape:locked="false" />
  </sodipodi:namedview>
  <defs
     id="defs4">
    <linearGradient
       id="linearGradient2202">
      <stop
         offset="0"
         id="stop2204"
         style="stop-color:#010101;stop-opacity:1;" />
      <stop
         offset="1"
         id="stop2206"
         style="stop-color:#434343;stop-opacity:1;" />
    </linearGradient>
  </defs>
  <metadata
     id="metadata7">
    <rdf:RDF>
      <cc:Work
         rdf:about="">
        <dc:format>image/svg+xml</dc:format>
        <dc:type
           rdf:resource="http://purl.org/dc/dcmitype/StillImage" />
      </cc:Work>
    </rdf:RDF>
  </metadata>
  <g
     inkscape:groupmode="layer"
     id="layer1"
     inkscape:label="Ebene 1">
    <g
       transform="matrix(0.22492763,0,0,0.22492763,13.561811,9.9398522)"
       id="g2263"
       style="opacity:0.18900003;fill:#000000">
      <g
         id="g6"
         transform="matrix(3.718833,0,0,3.716135,-1017.019,-1477.584)"
         style="fill:#000000;stroke-miterlimit:10">
        <g
           id="g8"
           transform="matrix(0.1,0,0,-0.1,0,840)"
           style="fill:#000000">
          <path
             id="path10"
             d="m 3255.46,3850.9 c -17.97,-0.25 3.4,-9.26 26.86,-12.87 6.49,5.07 12.36,10.17 17.6,15.15 -14.61,-3.57 -29.48,-3.65 -44.46,-2.28"
             style="fill:#000000;stroke:none"
             inkscape:connector-curvature="0" />
          <path
             id="path12"
             d="m 3351.91,3874.94 c 10.71,14.77 18.5,30.94 21.24,47.66 -2.4,-11.92 -8.85,-22.21 -14.96,-33.07 -33.58,-21.15 -3.16,12.56 -0.02,25.37 -36.1,-45.47 -4.96,-27.26 -6.26,-39.96"
             style="fill:#000000;stroke:none"
             inkscape:connector-curvature="0" />
          <path
             id="path14"
             d="m 3387.51,3967.58 c 2.18,32.36 -6.37,22.13 -9.24,9.78 3.35,-1.74 6,-22.81 9.24,-9.78"
             style="fill:#000000;stroke:none"
             inkscape:connector-curvature="0" />
          <path
             id="path16"
             d="m 3187.31,4409.88 c 9.59,-1.72 20.74,-3.04 19.16,-5.33 10.49,2.3 12.88,4.42 -19.16,5.33"
             style="fill:#000000;stroke:none"
             inkscape:connector-curvature="0" />
          <path
             id="path18"
             d="m 3206.47,4404.55 -6.77,-1.4 6.31,0.56 0.46,0.84"
             style="fill:#000000;stroke:none"
             inkscape:connector-curvature="0" />
          <path
             id="path20"
             d="m 3505.52,3955.31 c 1.07,-29.06 -8.49,-43.16 -17.13,-68.12 l -15.53,-7.76 c -12.7,-24.68 1.24,-15.68 -7.87,-35.31 -19.84,-17.64 -60.2,-55.19 -73.11,-58.63 -9.45,0.21 6.38,11.13 8.45,15.41 -26.56,-18.24 -21.32,-27.38 -61.94,-38.46 l -1.18,2.64 c -100.19,-47.13 -239.35,46.27 -237.52,173.71 -1.07,-8.09 -3.04,-6.07 -5.26,-9.34 -5.17,65.57 30.28,131.43 90.07,158.32 58.49,28.95 127.04,17.07 168.94,-21.97 -23.01,30.14 -68.81,62.09 -123.09,59.1 -53.17,-0.84 -102.91,-34.63 -119.51,-71.31 -27.24,-17.15 -30.4,-66.11 -42.27,-75.07 -15.98,-117.37 30.03,-168.07 107.87,-227.72 12.24,-8.26 3.44,-9.51 5.1,-15.8 -25.86,12.11 -49.54,30.39 -69.01,52.77 10.33,-15.11 21.48,-29.82 35.89,-41.36 -24.38,8.26 -56.95,59.08 -66.46,61.15 42.03,-75.26 170.51,-131.97 237.81,-103.83 -31.14,-1.15 -70.69,-0.64 -105.67,12.29 -14.7,7.55 -34.68,23.22 -31.1,26.15 91.81,-34.3 186.67,-25.98 266.11,37.71 20.22,15.74 42.3,42.52 48.68,42.89 -9.61,-14.45 1.64,-6.95 -5.74,-19.7 20.13,32.48 -8.75,13.22 20.81,56.09 l 10.92,-15.04 c -4.06,26.97 33.49,59.71 29.67,102.35 8.62,13.04 9.61,-14.03 0.47,-44.03 12.68,33.28 3.35,38.63 6.6,66.09 3.52,-9.23 8.15,-19.04 10.52,-28.78 -8.27,32.16 8.46,54.16 12.61,72.85 -4.09,1.81 -12.75,-14.22 -14.72,23.77 0.28,16.5 4.59,8.65 6.24,12.71 -3.24,1.86 -11.74,14.51 -16.91,38.77 3.74,5.7 10.02,-14.78 15.11,-15.62 -3.27,19.29 -8.92,34 -9.16,48.8 -14.9,31.14 -5.27,-4.15 -17.36,13.37 -15.85,49.47 13.16,11.48 15.12,33.96 24.05,-34.83 37.75,-88.81 44.05,-111.17 -4.81,27.26 -12.56,53.67 -22.05,79.22 7.32,-3.07 -11.75,56.09 9.51,16.91 -22.71,83.52 -97.15,161.56 -165.65,198.18 8.37,-7.67 18.96,-17.3 15.16,-18.81 -34.06,20.28 -28.08,21.86 -32.96,30.43 -27.74,11.29 -29.56,-0.91 -47.94,-0.02 -52.3,27.74 -62.38,24.79 -110.51,42.17 l 2.19,-10.23 c -34.65,11.54 -40.38,-4.38 -77.82,-0.04 -2.28,1.78 11.99,6.44 23.75,8.15 -33.5,-4.42 -31.93,6.6 -64.71,-1.22 8.08,5.67 16.62,9.42 25.24,14.24 -27.32,-1.66 -65.22,-15.9 -53.52,-2.95 -44.56,-19.88 -123.7,-47.79 -168.11,-89.43 l -1.4,9.33 c -20.35,-24.43 -88.74,-72.96 -94.19,-104.6 l -5.44,-1.27 c -10.59,-17.93 -17.44,-38.25 -25.84,-56.7 -13.85,-23.6 -20.3,-9.08 -18.33,-12.78 -27.24,-55.23 -40.77,-101.64 -52.46,-139.7 8.33,-12.45 0.2,-74.95 3.35,-124.97 -13.68,-247.05 173.38,-486.91 377.85,-542.28 29.97,-10.72 74.53,-10.31 112.44,-11.41 -44.73,12.8 -50.51,6.78 -94.07,21.98 -31.43,14.8 -38.32,31.7 -60.58,51.01 l 8.81,-15.56 c -43.66,15.44 -25.39,19.12 -60.91,30.37 l 9.41,12.28 c -14.15,1.08 -37.48,23.85 -43.86,36.47 l -15.48,-0.61 c -18.6,22.95 -28.51,39.49 -27.79,52.31 l -5,-8.91 c -5.67,9.73 -68.43,86.07 -35.87,68.3 -6.05,5.53 -14.09,9 -22.81,24.85 l 6.63,7.57 c -15.67,20.16 -28.84,46 -27.84,54.61 8.36,-11.29 14.16,-13.4 19.9,-15.33 -39.57,98.18 -41.79,5.41 -71.76,99.94 l 6.34,0.51 c -4.86,7.32 -7.81,15.27 -11.72,23.07 l 2.76,27.5 c -28.47,32.89 -7.95,140.01 -3.84,198.76 2.85,23.89 23.78,49.32 39.7,89.2 l -9.7,1.67 c 18.54,32.34 105.86,129.88 146.3,124.86 19.59,24.61 -3.89,0.09 -7.72,6.29 43.03,44.53 56.56,31.46 85.6,39.47 31.32,18.59 -26.88,-7.25 -12.03,7.09 54.14,13.83 38.37,31.44 109,38.46 7.45,-4.24 -17.29,-6.55 -23.5,-12.05 45.11,22.07 142.75,17.05 206.16,-12.25 73.6,-34.39 156.27,-136.05 159.53,-231.7 l 3.72,-1 c -1.87,-38.02 5.82,-81.99 -7.52,-122.38 l 9.08,19.12"
             style="fill:#000000;stroke:none"
             inkscape:connector-curvature="0" />
          <path
             id="path22"
             d="m 3059.32,3826.23 -2.52,-12.6 c 11.81,-16.03 21.18,-33.41 36.26,-45.95 -10.85,21.17 -18.91,29.92 -33.74,58.55"
             style="fill:#000000;stroke:none"
             inkscape:connector-curvature="0" />
          <path
             id="path24"
             d="m 3087.24,3827.32 c -6.25,6.92 -9.95,15.24 -14.09,23.52 3.96,-14.57 12.07,-27.09 19.62,-39.82 l -5.53,16.3"
             style="fill:#000000;stroke:none"
             inkscape:connector-curvature="0" />
          <path
             id="path26"
             d="m 3581.28,3934.71 -2.63,-6.62 c -4.84,-34.38 -15.29,-68.4 -31.31,-99.94 17.69,33.28 29.13,69.68 33.94,106.56"
             style="fill:#000000;stroke:none"
             inkscape:connector-curvature="0" />
          <path
             id="path28"
             d="m 3190.88,4418.5 c 12.15,4.45 29.86,2.44 42.75,5.37 -16.8,-1.41 -33.51,-2.25 -50.04,-4.38 l 7.29,-0.99"
             style="fill:#000000;stroke:none"
             inkscape:connector-curvature="0" />
          <path
             id="path30"
             d="m 2764.32,4191.68 c 2.8,-25.92 -19.5,-35.98 4.94,-18.89 13.1,29.51 -5.12,8.15 -4.94,18.89"
             style="fill:#000000;stroke:none"
             inkscape:connector-curvature="0" />
          <path
             id="path32"
             d="m 2735.6,4071.72 c 5.63,17.28 6.65,27.66 8.8,37.66 -15.56,-19.89 -7.16,-24.13 -8.8,-37.66"
             style="fill:#000000;stroke:none"
             inkscape:connector-curvature="0" />
        </g>
      </g>
    </g>
  </g>
</svg>
